# Blender 4.3.2
# www.blender.org
mtllib Phantom_Raft.mtl
o Phantom_Raft
v -0.525000 0.015000 0.315000
v -0.525000 0.085000 0.315000
v -0.525000 0.015000 0.205000
v -0.525000 0.085000 0.205000
v 0.525000 0.015000 0.315000
v 0.525000 0.085000 0.315000
v 0.525000 0.015000 0.205000
v 0.525000 0.085000 0.205000
v -0.525000 0.015000 0.185000
v -0.525000 0.085000 0.185000
v -0.525000 0.015000 0.075000
v -0.525000 0.085000 0.075000
v 0.525000 0.015000 0.185000
v 0.525000 0.085000 0.185000
v 0.525000 0.015000 0.075000
v 0.525000 0.085000 0.075000
v -0.525000 0.015000 0.055000
v -0.525000 0.085000 0.055000
v -0.525000 0.015000 -0.055000
v -0.525000 0.085000 -0.055000
v 0.525000 0.015000 0.055000
v 0.525000 0.085000 0.055000
v 0.525000 0.015000 -0.055000
v 0.525000 0.085000 -0.055000
v -0.525000 0.015000 -0.075000
v -0.525000 0.085000 -0.075000
v -0.525000 0.015000 -0.185000
v -0.525000 0.085000 -0.185000
v 0.525000 0.015000 -0.075000
v 0.525000 0.085000 -0.075000
v 0.525000 0.015000 -0.185000
v 0.525000 0.085000 -0.185000
v -0.525000 0.015000 -0.205000
v -0.525000 0.085000 -0.205000
v -0.525000 0.015000 -0.315000
v -0.525000 0.085000 -0.315000
v 0.525000 0.015000 -0.205000
v 0.525000 0.085000 -0.205000
v 0.525000 0.015000 -0.315000
v 0.525000 0.085000 -0.315000
v -0.415000 -0.025000 0.290000
v -0.415000 0.025000 0.290000
v -0.415000 -0.025000 -0.290000
v -0.415000 0.025000 -0.290000
v -0.345000 -0.025000 0.290000
v -0.345000 0.025000 0.290000
v -0.345000 -0.025000 -0.290000
v -0.345000 0.025000 -0.290000
v -0.035000 -0.025000 0.290000
v -0.035000 0.025000 0.290000
v -0.035000 -0.025000 -0.290000
v -0.035000 0.025000 -0.290000
v 0.035000 -0.025000 0.290000
v 0.035000 0.025000 0.290000
v 0.035000 -0.025000 -0.290000
v 0.035000 0.025000 -0.290000
v 0.345000 -0.025000 0.290000
v 0.345000 0.025000 0.290000
v 0.345000 -0.025000 -0.290000
v 0.345000 0.025000 -0.290000
v 0.415000 -0.025000 0.290000
v 0.415000 0.025000 0.290000
v 0.415000 -0.025000 -0.290000
v 0.415000 0.025000 -0.290000
v -0.530000 -0.050000 -0.360000
v -0.270000 -0.050000 -0.360000
v -0.530000 -0.097023 -0.344721
v -0.270000 -0.097023 -0.344721
v -0.530000 -0.126085 -0.304721
v -0.270000 -0.126085 -0.304721
v -0.530000 -0.126085 -0.255279
v -0.270000 -0.126085 -0.255279
v -0.530000 -0.097023 -0.215279
v -0.270000 -0.097023 -0.215279
v -0.530000 -0.050000 -0.200000
v -0.270000 -0.050000 -0.200000
v -0.530000 -0.002977 -0.215279
v -0.270000 -0.002977 -0.215279
v -0.530000 0.026085 -0.255279
v -0.270000 0.026085 -0.255279
v -0.530000 0.026085 -0.304721
v -0.270000 0.026085 -0.304721
v -0.530000 -0.002977 -0.344721
v -0.270000 -0.002977 -0.344721
v -0.530000 -0.050000 0.200000
v -0.270000 -0.050000 0.200000
v -0.530000 -0.097023 0.215279
v -0.270000 -0.097023 0.215279
v -0.530000 -0.126085 0.255279
v -0.270000 -0.126085 0.255279
v -0.530000 -0.126085 0.304721
v -0.270000 -0.126085 0.304721
v -0.530000 -0.097023 0.344721
v -0.270000 -0.097023 0.344721
v -0.530000 -0.050000 0.360000
v -0.270000 -0.050000 0.360000
v -0.530000 -0.002977 0.344721
v -0.270000 -0.002977 0.344721
v -0.530000 0.026085 0.304721
v -0.270000 0.026085 0.304721
v -0.530000 0.026085 0.255279
v -0.270000 0.026085 0.255279
v -0.530000 -0.002977 0.215279
v -0.270000 -0.002977 0.215279
v 0.270000 -0.050000 -0.360000
v 0.530000 -0.050000 -0.360000
v 0.270000 -0.097023 -0.344721
v 0.530000 -0.097023 -0.344721
v 0.270000 -0.126085 -0.304721
v 0.530000 -0.126085 -0.304721
v 0.270000 -0.126085 -0.255279
v 0.530000 -0.126085 -0.255279
v 0.270000 -0.097023 -0.215279
v 0.530000 -0.097023 -0.215279
v 0.270000 -0.050000 -0.200000
v 0.530000 -0.050000 -0.200000
v 0.270000 -0.002977 -0.215279
v 0.530000 -0.002977 -0.215279
v 0.270000 0.026085 -0.255279
v 0.530000 0.026085 -0.255279
v 0.270000 0.026085 -0.304721
v 0.530000 0.026085 -0.304721
v 0.270000 -0.002977 -0.344721
v 0.530000 -0.002977 -0.344721
v 0.270000 -0.050000 0.200000
v 0.530000 -0.050000 0.200000
v 0.270000 -0.097023 0.215279
v 0.530000 -0.097023 0.215279
v 0.270000 -0.126085 0.255279
v 0.530000 -0.126085 0.255279
v 0.270000 -0.126085 0.304721
v 0.530000 -0.126085 0.304721
v 0.270000 -0.097023 0.344721
v 0.530000 -0.097023 0.344721
v 0.270000 -0.050000 0.360000
v 0.530000 -0.050000 0.360000
v 0.270000 -0.002977 0.344721
v 0.530000 -0.002977 0.344721
v 0.270000 0.026085 0.304721
v 0.530000 0.026085 0.304721
v 0.270000 0.026085 0.255279
v 0.530000 0.026085 0.255279
v 0.270000 -0.002977 0.215279
v 0.530000 -0.002977 0.215279
v -0.475000 -0.020000 -0.385000
v 0.475000 -0.020000 -0.385000
v -0.475000 -0.058206 -0.372586
v 0.475000 -0.058206 -0.372586
v -0.475000 -0.081819 -0.340086
v 0.475000 -0.081819 -0.340086
v -0.475000 -0.081819 -0.299914
v 0.475000 -0.081819 -0.299914
v -0.475000 -0.058206 -0.267414
v 0.475000 -0.058206 -0.267414
v -0.475000 -0.020000 -0.255000
v 0.475000 -0.020000 -0.255000
v -0.475000 0.018206 -0.267414
v 0.475000 0.018206 -0.267414
v -0.475000 0.041819 -0.299914
v 0.475000 0.041819 -0.299914
v -0.475000 0.041819 -0.340086
v 0.475000 0.041819 -0.340086
v -0.475000 0.018206 -0.372586
v 0.475000 0.018206 -0.372586
v -0.475000 -0.020000 0.255000
v 0.475000 -0.020000 0.255000
v -0.475000 -0.058206 0.267414
v 0.475000 -0.058206 0.267414
v -0.475000 -0.081819 0.299914
v 0.475000 -0.081819 0.299914
v -0.475000 -0.081819 0.340086
v 0.475000 -0.081819 0.340086
v -0.475000 -0.058206 0.372586
v 0.475000 -0.058206 0.372586
v -0.475000 -0.020000 0.385000
v 0.475000 -0.020000 0.385000
v -0.475000 0.018206 0.372586
v 0.475000 0.018206 0.372586
v -0.475000 0.041819 0.340086
v 0.475000 0.041819 0.340086
v -0.475000 0.041819 0.299914
v 0.475000 0.041819 0.299914
v -0.475000 0.018206 0.267414
v 0.475000 0.018206 0.267414
v -0.450000 0.080000 0.010000
v -0.450000 0.100000 0.010000
v -0.450000 0.080000 -0.010000
v -0.450000 0.100000 -0.010000
v 0.450000 0.080000 0.010000
v 0.450000 0.100000 0.010000
v 0.450000 0.080000 -0.010000
v 0.450000 0.100000 -0.010000
v -0.120000 0.140000 -0.022000
v -0.120000 0.620000 -0.022000
v -0.107069 0.140000 -0.017798
v -0.107069 0.620000 -0.017798
v -0.099077 0.140000 -0.006798
v -0.099077 0.620000 -0.006798
v -0.099077 0.140000 0.006798
v -0.099077 0.620000 0.006798
v -0.107069 0.140000 0.017798
v -0.107069 0.620000 0.017798
v -0.120000 0.140000 0.022000
v -0.120000 0.620000 0.022000
v -0.132931 0.140000 0.017798
v -0.132931 0.620000 0.017798
v -0.140923 0.140000 0.006798
v -0.140923 0.620000 0.006798
v -0.140923 0.140000 -0.006798
v -0.140923 0.620000 -0.006798
v -0.132931 0.140000 -0.017798
v -0.132931 0.620000 -0.017798
v -0.102500 0.260000 0.130000
v -0.102500 0.500000 0.130000
v -0.102500 0.260000 -0.130000
v -0.102500 0.500000 -0.130000
v -0.077500 0.260000 0.130000
v -0.077500 0.500000 0.130000
v -0.077500 0.260000 -0.130000
v -0.077500 0.500000 -0.130000
v -0.140000 0.620000 0.020000
v -0.140000 0.660000 0.020000
v -0.140000 0.620000 -0.020000
v -0.140000 0.660000 -0.020000
v -0.100000 0.620000 0.020000
v -0.100000 0.660000 0.020000
v -0.100000 0.620000 -0.020000
v -0.100000 0.660000 -0.020000
vn -1.0000 -0.0000 -0.0000
vn -0.0000 -0.0000 -1.0000
vn 1.0000 -0.0000 -0.0000
vn -0.0000 -0.0000 1.0000
vn -0.0000 -1.0000 -0.0000
vn -0.0000 1.0000 -0.0000
vn -0.0000 -0.3090 -0.9511
vn -0.0000 -0.8090 -0.5878
vn -0.0000 -0.8090 0.5878
vn -0.0000 -0.3090 0.9511
vn -0.0000 0.3090 0.9511
vn -0.0000 0.8090 0.5878
vn -0.0000 0.8090 -0.5878
vn -0.0000 0.3090 -0.9511
vn 0.3090 -0.0000 -0.9511
vn 0.8090 -0.0000 -0.5878
vn 0.8090 -0.0000 0.5878
vn 0.3090 -0.0000 0.9511
vn -0.3090 -0.0000 0.9511
vn -0.8090 -0.0000 0.5878
vn -0.8090 -0.0000 -0.5878
vn -0.3090 -0.0000 -0.9511
vt 0.375000 0.000000
vt 0.625000 0.000000
vt 0.625000 0.250000
vt 0.375000 0.250000
vt 0.625000 0.500000
vt 0.375000 0.500000
vt 0.625000 0.750000
vt 0.375000 0.750000
vt 0.625000 1.000000
vt 0.375000 1.000000
vt 0.125000 0.500000
vt 0.125000 0.750000
vt 0.875000 0.500000
vt 0.875000 0.750000
vt 1.000000 0.500000
vt 1.000000 1.000000
vt 0.900000 1.000000
vt 0.900000 0.500000
vt 0.800000 1.000000
vt 0.800000 0.500000
vt 0.700000 1.000000
vt 0.700000 0.500000
vt 0.600000 1.000000
vt 0.600000 0.500000
vt 0.500000 1.000000
vt 0.500000 0.500000
vt 0.400000 1.000000
vt 0.400000 0.500000
vt 0.300000 1.000000
vt 0.300000 0.500000
vt 0.200000 1.000000
vt 0.200000 0.500000
vt 0.391068 0.444164
vt 0.250000 0.490000
vt 0.108932 0.444164
vt 0.021746 0.324164
vt 0.021746 0.175836
vt 0.108932 0.055836
vt 0.250000 0.010000
vt 0.391068 0.055836
vt 0.478254 0.175836
vt 0.478254 0.324164
vt 0.100000 1.000000
vt 0.100000 0.500000
vt -0.000000 1.000000
vt -0.000000 0.500000
vt 0.750000 0.490000
vt 0.891068 0.444164
vt 0.978254 0.324164
vt 0.978254 0.175836
vt 0.891068 0.055836
vt 0.750000 0.010000
vt 0.608932 0.055836
vt 0.521746 0.175836
vt 0.521746 0.324164
vt 0.608932 0.444164
s 0
usemtl GhostWood
f 1/1/1 2/2/1 4/3/1 3/4/1
f 3/4/2 4/3/2 8/5/2 7/6/2
f 7/6/3 8/5/3 6/7/3 5/8/3
f 5/8/4 6/7/4 2/9/4 1/10/4
f 3/11/5 7/6/5 5/8/5 1/12/5
f 8/5/6 4/13/6 2/14/6 6/7/6
f 17/1/1 18/2/1 20/3/1 19/4/1
f 19/4/2 20/3/2 24/5/2 23/6/2
f 23/6/3 24/5/3 22/7/3 21/8/3
f 21/8/4 22/7/4 18/9/4 17/10/4
f 19/11/5 23/6/5 21/8/5 17/12/5
f 24/5/6 20/13/6 18/14/6 22/7/6
f 33/1/1 34/2/1 36/3/1 35/4/1
f 35/4/2 36/3/2 40/5/2 39/6/2
f 39/6/3 40/5/3 38/7/3 37/8/3
f 37/8/4 38/7/4 34/9/4 33/10/4
f 35/11/5 39/6/5 37/8/5 33/12/5
f 40/5/6 36/13/6 34/14/6 38/7/6
usemtl GhostDeck
f 9/1/1 10/2/1 12/3/1 11/4/1
f 11/4/2 12/3/2 16/5/2 15/6/2
f 15/6/3 16/5/3 14/7/3 13/8/3
f 13/8/4 14/7/4 10/9/4 9/10/4
f 11/11/5 15/6/5 13/8/5 9/12/5
f 16/5/6 12/13/6 10/14/6 14/7/6
f 25/1/1 26/2/1 28/3/1 27/4/1
f 27/4/2 28/3/2 32/5/2 31/6/2
f 31/6/3 32/5/3 30/7/3 29/8/3
f 29/8/4 30/7/4 26/9/4 25/10/4
f 27/11/5 31/6/5 29/8/5 25/12/5
f 32/5/6 28/13/6 26/14/6 30/7/6
usemtl GhostDark
f 41/1/1 42/2/1 44/3/1 43/4/1
f 43/4/2 44/3/2 48/5/2 47/6/2
f 47/6/3 48/5/3 46/7/3 45/8/3
f 45/8/4 46/7/4 42/9/4 41/10/4
f 43/11/5 47/6/5 45/8/5 41/12/5
f 48/5/6 44/13/6 42/14/6 46/7/6
f 49/1/1 50/2/1 52/3/1 51/4/1
f 51/4/2 52/3/2 56/5/2 55/6/2
f 55/6/3 56/5/3 54/7/3 53/8/3
f 53/8/4 54/7/4 50/9/4 49/10/4
f 51/11/5 55/6/5 53/8/5 49/12/5
f 56/5/6 52/13/6 50/14/6 54/7/6
f 57/1/1 58/2/1 60/3/1 59/4/1
f 59/4/2 60/3/2 64/5/2 63/6/2
f 63/6/3 64/5/3 62/7/3 61/8/3
f 61/8/4 62/7/4 58/9/4 57/10/4
f 59/11/5 63/6/5 61/8/5 57/12/5
f 64/5/6 60/13/6 58/14/6 62/7/6
f 145/15/7 146/16/7 148/17/7 147/18/7
f 147/18/8 148/17/8 150/19/8 149/20/8
f 149/20/5 150/19/5 152/21/5 151/22/5
f 151/22/9 152/21/9 154/23/9 153/24/9
f 153/24/10 154/23/10 156/25/10 155/26/10
f 155/26/11 156/25/11 158/27/11 157/28/11
f 157/28/12 158/27/12 160/29/12 159/30/12
f 159/30/6 160/29/6 162/31/6 161/32/6
f 148/33/3 146/34/3 164/35/3 162/36/3 160/37/3 158/38/3 156/39/3 154/40/3 152/41/3 150/42/3
f 161/32/13 162/31/13 164/43/13 163/44/13
f 163/44/14 164/43/14 146/45/14 145/46/14
f 145/47/1 147/48/1 149/49/1 151/50/1 153/51/1 155/52/1 157/53/1 159/54/1 161/55/1 163/56/1
f 165/15/7 166/16/7 168/17/7 167/18/7
f 167/18/8 168/17/8 170/19/8 169/20/8
f 169/20/5 170/19/5 172/21/5 171/22/5
f 171/22/9 172/21/9 174/23/9 173/24/9
f 173/24/10 174/23/10 176/25/10 175/26/10
f 175/26/11 176/25/11 178/27/11 177/28/11
f 177/28/12 178/27/12 180/29/12 179/30/12
f 179/30/6 180/29/6 182/31/6 181/32/6
f 168/33/3 166/34/3 184/35/3 182/36/3 180/37/3 178/38/3 176/39/3 174/40/3 172/41/3 170/42/3
f 181/32/13 182/31/13 184/43/13 183/44/13
f 183/44/14 184/43/14 166/45/14 165/46/14
f 165/47/1 167/48/1 169/49/1 171/50/1 173/51/1 175/52/1 177/53/1 179/54/1 181/55/1 183/56/1
f 193/15/15 194/16/15 196/17/15 195/18/15
f 195/18/16 196/17/16 198/19/16 197/20/16
f 197/20/3 198/19/3 200/21/3 199/22/3
f 199/22/17 200/21/17 202/23/17 201/24/17
f 201/24/18 202/23/18 204/25/18 203/26/18
f 203/26/19 204/25/19 206/27/19 205/28/19
f 205/28/20 206/27/20 208/29/20 207/30/20
f 207/30/1 208/29/1 210/31/1 209/32/1
f 196/33/6 194/34/6 212/35/6 210/36/6 208/37/6 206/38/6 204/39/6 202/40/6 200/41/6 198/42/6
f 209/32/21 210/31/21 212/43/21 211/44/21
f 211/44/22 212/43/22 194/45/22 193/46/22
f 193/47/5 195/48/5 197/49/5 199/50/5 201/51/5 203/52/5 205/53/5 207/54/5 209/55/5 211/56/5
usemtl GhostHull
f 65/15/7 66/16/7 68/17/7 67/18/7
f 67/18/8 68/17/8 70/19/8 69/20/8
f 69/20/5 70/19/5 72/21/5 71/22/5
f 71/22/9 72/21/9 74/23/9 73/24/9
f 73/24/10 74/23/10 76/25/10 75/26/10
f 75/26/11 76/25/11 78/27/11 77/28/11
f 77/28/12 78/27/12 80/29/12 79/30/12
f 79/30/6 80/29/6 82/31/6 81/32/6
f 68/33/3 66/34/3 84/35/3 82/36/3 80/37/3 78/38/3 76/39/3 74/40/3 72/41/3 70/42/3
f 81/32/13 82/31/13 84/43/13 83/44/13
f 83/44/14 84/43/14 66/45/14 65/46/14
f 65/47/1 67/48/1 69/49/1 71/50/1 73/51/1 75/52/1 77/53/1 79/54/1 81/55/1 83/56/1
f 85/15/7 86/16/7 88/17/7 87/18/7
f 87/18/8 88/17/8 90/19/8 89/20/8
f 89/20/5 90/19/5 92/21/5 91/22/5
f 91/22/9 92/21/9 94/23/9 93/24/9
f 93/24/10 94/23/10 96/25/10 95/26/10
f 95/26/11 96/25/11 98/27/11 97/28/11
f 97/28/12 98/27/12 100/29/12 99/30/12
f 99/30/6 100/29/6 102/31/6 101/32/6
f 88/33/3 86/34/3 104/35/3 102/36/3 100/37/3 98/38/3 96/39/3 94/40/3 92/41/3 90/42/3
f 101/32/13 102/31/13 104/43/13 103/44/13
f 103/44/14 104/43/14 86/45/14 85/46/14
f 85/47/1 87/48/1 89/49/1 91/50/1 93/51/1 95/52/1 97/53/1 99/54/1 101/55/1 103/56/1
f 105/15/7 106/16/7 108/17/7 107/18/7
f 107/18/8 108/17/8 110/19/8 109/20/8
f 109/20/5 110/19/5 112/21/5 111/22/5
f 111/22/9 112/21/9 114/23/9 113/24/9
f 113/24/10 114/23/10 116/25/10 115/26/10
f 115/26/11 116/25/11 118/27/11 117/28/11
f 117/28/12 118/27/12 120/29/12 119/30/12
f 119/30/6 120/29/6 122/31/6 121/32/6
f 108/33/3 106/34/3 124/35/3 122/36/3 120/37/3 118/38/3 116/39/3 114/40/3 112/41/3 110/42/3
f 121/32/13 122/31/13 124/43/13 123/44/13
f 123/44/14 124/43/14 106/45/14 105/46/14
f 105/47/1 107/48/1 109/49/1 111/50/1 113/51/1 115/52/1 117/53/1 119/54/1 121/55/1 123/56/1
f 125/15/7 126/16/7 128/17/7 127/18/7
f 127/18/8 128/17/8 130/19/8 129/20/8
f 129/20/5 130/19/5 132/21/5 131/22/5
f 131/22/9 132/21/9 134/23/9 133/24/9
f 133/24/10 134/23/10 136/25/10 135/26/10
f 135/26/11 136/25/11 138/27/11 137/28/11
f 137/28/12 138/27/12 140/29/12 139/30/12
f 139/30/6 140/29/6 142/31/6 141/32/6
f 128/33/3 126/34/3 144/35/3 142/36/3 140/37/3 138/38/3 136/39/3 134/40/3 132/41/3 130/42/3
f 141/32/13 142/31/13 144/43/13 143/44/13
f 143/44/14 144/43/14 126/45/14 125/46/14
f 125/47/1 127/48/1 129/49/1 131/50/1 133/51/1 135/52/1 137/53/1 139/54/1 141/55/1 143/56/1
usemtl CyanGlow
f 185/1/1 186/2/1 188/3/1 187/4/1
f 187/4/2 188/3/2 192/5/2 191/6/2
f 191/6/3 192/5/3 190/7/3 189/8/3
f 189/8/4 190/7/4 186/9/4 185/10/4
f 187/11/5 191/6/5 189/8/5 185/12/5
f 192/5/6 188/13/6 186/14/6 190/7/6
usemtl GhostSail
f 213/1/1 214/2/1 216/3/1 215/4/1
f 215/4/2 216/3/2 220/5/2 219/6/2
f 219/6/3 220/5/3 218/7/3 217/8/3
f 217/8/4 218/7/4 214/9/4 213/10/4
f 215/11/5 219/6/5 217/8/5 213/12/5
f 220/5/6 216/13/6 214/14/6 218/7/6
usemtl PaleGlow
f 221/1/1 222/2/1 224/3/1 223/4/1
f 223/4/2 224/3/2 228/5/2 227/6/2
f 227/6/3 228/5/3 226/7/3 225/8/3
f 225/8/4 226/7/4 222/9/4 221/10/4
f 223/11/5 227/6/5 225/8/5 221/12/5
f 228/5/6 224/13/6 222/14/6 226/7/6
