# Blender 4.3.2
# www.blender.org
mtllib Phantom_Fleet.mtl
o Phantom_Fleet
v -1.227500 -0.207000 0.245254
v -1.227500 0.225000 0.258336
v -1.227500 -0.207000 -0.245254
v -1.227500 0.225000 -0.258336
v 0.972500 -0.167000 0.189489
v 0.972500 0.265000 0.204083
v 0.972500 -0.167000 -0.189489
v 0.972500 0.265000 -0.204083
v -1.227500 -0.207000 0.000000
v -1.227500 0.000000 0.258336
v -1.227500 0.225000 0.000000
v -1.227500 0.000000 -0.258336
v -0.127500 -0.207000 -0.386018
v -0.127500 0.225000 -0.386533
v 0.972500 0.040000 -0.204083
v 0.972500 -0.167000 0.000000
v 0.972500 0.265000 0.000000
v 0.972500 0.040000 0.204083
v -0.127500 -0.207000 0.386018
v -0.127500 0.225000 0.386533
v -0.127500 0.225000 0.000000
v -0.127500 -0.207000 0.000000
v -0.127500 0.000000 0.386533
v 0.972500 0.040000 0.000000
v -0.127500 0.000000 -0.386533
v -1.227500 0.000000 0.000000
v -1.127500 -0.320000 0.190000
v -1.127500 -0.180000 0.190000
v -1.127500 -0.320000 -0.190000
v -1.127500 -0.180000 -0.190000
v 0.872500 -0.320000 0.190000
v 0.872500 -0.180000 0.190000
v 0.872500 -0.320000 -0.190000
v 0.872500 -0.180000 -0.190000
v -1.252500 0.270000 0.400000
v -1.252500 0.330000 0.400000
v -1.252500 0.270000 -0.400000
v -1.252500 0.330000 -0.400000
v 0.997500 0.270000 0.400000
v 0.997500 0.330000 0.400000
v 0.997500 0.270000 -0.400000
v 0.997500 0.330000 -0.400000
v -1.177500 0.330000 0.050000
v -1.177500 0.350000 0.050000
v -1.177500 0.330000 -0.050000
v -1.177500 0.350000 -0.050000
v 0.922500 0.330000 0.050000
v 0.922500 0.350000 0.050000
v 0.922500 0.330000 -0.050000
v 0.922500 0.350000 -0.050000
v -1.127500 0.332500 -0.307500
v -1.127500 0.347500 -0.307500
v -1.127500 0.332500 -0.332500
v -1.127500 0.347500 -0.332500
v 0.872500 0.332500 -0.307500
v 0.872500 0.347500 -0.307500
v 0.872500 0.332500 -0.332500
v 0.872500 0.347500 -0.332500
v -1.127500 0.332500 0.332500
v -1.127500 0.347500 0.332500
v -1.127500 0.332500 0.307500
v -1.127500 0.347500 0.307500
v 0.872500 0.332500 0.332500
v 0.872500 0.347500 0.332500
v 0.872500 0.332500 0.307500
v 0.872500 0.347500 0.307500
v -0.627500 0.360000 0.440000
v -0.627500 0.840000 0.440000
v -0.627500 0.360000 0.200000
v -0.627500 0.840000 0.200000
v -0.127500 0.360000 0.440000
v -0.127500 0.840000 0.440000
v -0.127500 0.360000 0.200000
v -0.127500 0.840000 0.200000
v -0.577500 0.820000 0.420000
v -0.577500 0.980000 0.420000
v -0.577500 0.820000 0.220000
v -0.577500 0.980000 0.220000
v -0.177500 0.820000 0.420000
v -0.177500 0.980000 0.420000
v -0.177500 0.820000 0.220000
v -0.177500 0.980000 0.220000
v 0.422500 0.350000 -0.120000
v 0.422500 0.490000 -0.120000
v 0.482500 0.350000 -0.103923
v 0.482500 0.490000 -0.103923
v 0.526423 0.350000 -0.060000
v 0.526423 0.490000 -0.060000
v 0.542500 0.350000 0.000000
v 0.542500 0.490000 0.000000
v 0.526423 0.350000 0.060000
v 0.526423 0.490000 0.060000
v 0.482500 0.350000 0.103923
v 0.482500 0.490000 0.103923
v 0.422500 0.350000 0.120000
v 0.422500 0.490000 0.120000
v 0.362500 0.350000 0.103923
v 0.362500 0.490000 0.103923
v 0.318577 0.350000 0.060000
v 0.318577 0.490000 0.060000
v 0.302500 0.350000 0.000000
v 0.302500 0.490000 0.000000
v 0.318577 0.350000 -0.060000
v 0.318577 0.490000 -0.060000
v 0.362500 0.350000 -0.103923
v 0.362500 0.490000 -0.103923
v 0.312500 0.490000 0.110000
v 0.312500 0.670000 0.110000
v 0.312500 0.490000 -0.110000
v 0.312500 0.670000 -0.110000
v 0.532500 0.490000 0.110000
v 0.532500 0.670000 0.110000
v 0.532500 0.490000 -0.110000
v 0.532500 0.670000 -0.110000
v 0.452500 0.580000 -0.085000
v 0.732500 0.580000 -0.085000
v 0.452500 0.559427 -0.078316
v 0.732500 0.559427 -0.078316
v 0.452500 0.546713 -0.060816
v 0.732500 0.546713 -0.060816
v 0.452500 0.546713 -0.039184
v 0.732500 0.546713 -0.039184
v 0.452500 0.559427 -0.021684
v 0.732500 0.559427 -0.021684
v 0.452500 0.580000 -0.015000
v 0.732500 0.580000 -0.015000
v 0.452500 0.600572 -0.021684
v 0.732500 0.600572 -0.021684
v 0.452500 0.613287 -0.039184
v 0.732500 0.613287 -0.039184
v 0.452500 0.613287 -0.060816
v 0.732500 0.613287 -0.060816
v 0.452500 0.600572 -0.078316
v 0.732500 0.600572 -0.078316
v 0.452500 0.580000 0.015000
v 0.732500 0.580000 0.015000
v 0.452500 0.559427 0.021684
v 0.732500 0.559427 0.021684
v 0.452500 0.546713 0.039184
v 0.732500 0.546713 0.039184
v 0.452500 0.546713 0.060816
v 0.732500 0.546713 0.060816
v 0.452500 0.559427 0.078316
v 0.732500 0.559427 0.078316
v 0.452500 0.580000 0.085000
v 0.732500 0.580000 0.085000
v 0.452500 0.600572 0.078316
v 0.732500 0.600572 0.078316
v 0.452500 0.613287 0.060816
v 0.732500 0.613287 0.060816
v 0.452500 0.613287 0.039184
v 0.732500 0.613287 0.039184
v 0.452500 0.600572 0.021684
v 0.732500 0.600572 0.021684
v 0.422500 0.485000 -0.140000
v 0.422500 0.515000 -0.140000
v 0.483244 0.485000 -0.126136
v 0.483244 0.515000 -0.126136
v 0.531956 0.485000 -0.087289
v 0.531956 0.515000 -0.087289
v 0.558990 0.485000 -0.031153
v 0.558990 0.515000 -0.031153
v 0.558990 0.485000 0.031153
v 0.558990 0.515000 0.031153
v 0.531956 0.485000 0.087289
v 0.531956 0.515000 0.087289
v 0.483244 0.485000 0.126136
v 0.483244 0.515000 0.126136
v 0.422500 0.485000 0.140000
v 0.422500 0.515000 0.140000
v 0.361756 0.485000 0.126136
v 0.361756 0.515000 0.126136
v 0.313044 0.485000 0.087289
v 0.313044 0.515000 0.087289
v 0.286010 0.485000 0.031153
v 0.286010 0.515000 0.031153
v 0.286010 0.485000 -0.031153
v 0.286010 0.515000 -0.031153
v 0.313044 0.485000 -0.087289
v 0.313044 0.515000 -0.087289
v 0.361756 0.485000 -0.126136
v 0.361756 0.515000 -0.126136
v -1.187500 -0.020000 0.225000
v -1.187500 0.220000 0.225000
v -1.187500 -0.020000 -0.225000
v -1.187500 0.220000 -0.225000
v -0.967500 -0.020000 0.225000
v -0.967500 0.220000 0.225000
v -0.967500 -0.020000 -0.225000
v -0.967500 0.220000 -0.225000
v -0.987500 -0.030000 0.240000
v -0.987500 0.230000 0.240000
v -0.987500 -0.030000 -0.240000
v -0.987500 0.230000 -0.240000
v -0.947500 -0.030000 0.240000
v -0.947500 0.230000 0.240000
v -0.947500 -0.030000 -0.240000
v -0.947500 0.230000 -0.240000
v 0.572500 0.397500 -0.192500
v 0.572500 0.442500 -0.192500
v 0.572500 0.397500 -0.247500
v 0.572500 0.442500 -0.247500
v 0.772500 0.397500 -0.192500
v 0.772500 0.442500 -0.192500
v 0.772500 0.397500 -0.247500
v 0.772500 0.442500 -0.247500
v 0.647500 0.411000 -0.130000
v 0.647500 0.429000 -0.130000
v 0.647500 0.411000 -0.310000
v 0.647500 0.429000 -0.310000
v 0.697500 0.411000 -0.130000
v 0.697500 0.429000 -0.130000
v 0.697500 0.411000 -0.310000
v 0.697500 0.429000 -0.310000
v 0.172500 0.397500 0.227500
v 0.172500 0.442500 0.227500
v 0.172500 0.397500 0.172500
v 0.172500 0.442500 0.172500
v 0.372500 0.397500 0.227500
v 0.372500 0.442500 0.227500
v 0.372500 0.397500 0.172500
v 0.372500 0.442500 0.172500
v 0.247500 0.411000 0.290000
v 0.247500 0.429000 0.290000
v 0.247500 0.411000 0.110000
v 0.247500 0.429000 0.110000
v 0.297500 0.411000 0.290000
v 0.297500 0.429000 0.290000
v 0.297500 0.411000 0.110000
v 0.297500 0.429000 0.110000
v -0.127500 0.397500 -0.152500
v -0.127500 0.442500 -0.152500
v -0.127500 0.397500 -0.207500
v -0.127500 0.442500 -0.207500
v 0.072500 0.397500 -0.152500
v 0.072500 0.442500 -0.152500
v 0.072500 0.397500 -0.207500
v 0.072500 0.442500 -0.207500
v -0.052500 0.411000 -0.090000
v -0.052500 0.429000 -0.090000
v -0.052500 0.411000 -0.270000
v -0.052500 0.429000 -0.270000
v -0.002500 0.411000 -0.090000
v -0.002500 0.429000 -0.090000
v -0.002500 0.411000 -0.270000
v -0.002500 0.429000 -0.270000
v -0.427500 0.397500 0.127500
v -0.427500 0.442500 0.127500
v -0.427500 0.397500 0.072500
v -0.427500 0.442500 0.072500
v -0.227500 0.397500 0.127500
v -0.227500 0.442500 0.127500
v -0.227500 0.397500 0.072500
v -0.227500 0.442500 0.072500
v -0.352500 0.411000 0.190000
v -0.352500 0.429000 0.190000
v -0.352500 0.411000 0.010000
v -0.352500 0.429000 0.010000
v -0.302500 0.411000 0.190000
v -0.302500 0.429000 0.190000
v -0.302500 0.411000 0.010000
v -0.302500 0.429000 0.010000
v 0.072500 0.100000 -0.440000
v 0.072500 0.100000 -0.400000
v 0.101889 0.090451 -0.440000
v 0.101889 0.090451 -0.400000
v 0.120053 0.065451 -0.440000
v 0.120053 0.065451 -0.400000
v 0.120053 0.034549 -0.440000
v 0.120053 0.034549 -0.400000
v 0.101889 0.009549 -0.440000
v 0.101889 0.009549 -0.400000
v 0.072500 0.000000 -0.440000
v 0.072500 0.000000 -0.400000
v 0.043111 0.009549 -0.440000
v 0.043111 0.009549 -0.400000
v 0.024947 0.034549 -0.440000
v 0.024947 0.034549 -0.400000
v 0.024947 0.065451 -0.440000
v 0.024947 0.065451 -0.400000
v 0.043111 0.090451 -0.440000
v 0.043111 0.090451 -0.400000
v 0.072500 0.100000 0.400000
v 0.072500 0.100000 0.440000
v 0.101889 0.090451 0.400000
v 0.101889 0.090451 0.440000
v 0.120053 0.065451 0.400000
v 0.120053 0.065451 0.440000
v 0.120053 0.034549 0.400000
v 0.120053 0.034549 0.440000
v 0.101889 0.009549 0.400000
v 0.101889 0.009549 0.440000
v 0.072500 0.000000 0.400000
v 0.072500 0.000000 0.440000
v 0.043111 0.009549 0.400000
v 0.043111 0.009549 0.440000
v 0.024947 0.034549 0.400000
v 0.024947 0.034549 0.440000
v 0.024947 0.065451 0.400000
v 0.024947 0.065451 0.440000
v 0.043111 0.090451 0.400000
v 0.043111 0.090451 0.440000
v -0.477500 0.100000 -0.440000
v -0.477500 0.100000 -0.400000
v -0.448111 0.090451 -0.440000
v -0.448111 0.090451 -0.400000
v -0.429947 0.065451 -0.440000
v -0.429947 0.065451 -0.400000
v -0.429947 0.034549 -0.440000
v -0.429947 0.034549 -0.400000
v -0.448111 0.009549 -0.440000
v -0.448111 0.009549 -0.400000
v -0.477500 0.000000 -0.440000
v -0.477500 0.000000 -0.400000
v -0.506889 0.009549 -0.440000
v -0.506889 0.009549 -0.400000
v -0.525053 0.034549 -0.440000
v -0.525053 0.034549 -0.400000
v -0.525053 0.065451 -0.440000
v -0.525053 0.065451 -0.400000
v -0.506889 0.090451 -0.440000
v -0.506889 0.090451 -0.400000
v 0.932500 0.050000 -0.200000
v 0.932500 -0.067557 -0.161803
v 0.932500 -0.140211 -0.061803
v 0.932500 -0.140211 0.061803
v 0.932500 -0.067557 0.161803
v 0.932500 0.050000 0.200000
v 0.932500 0.167557 0.161803
v 0.932500 0.240211 0.061803
v 0.932500 0.240211 -0.061803
v 0.932500 0.167557 -0.161803
v 1.252500 0.050000 0.000000
v -0.407500 1.070000 0.350000
v -0.407500 1.130000 0.350000
v -0.407500 1.070000 0.290000
v -0.407500 1.130000 0.290000
v -0.347500 1.070000 0.350000
v -0.347500 1.130000 0.350000
v -0.347500 1.070000 0.290000
v -0.347500 1.130000 0.290000
v -1.002500 0.060000 -0.490000
v -1.002500 0.240000 -0.490000
v -1.002500 0.060000 -0.610000
v -1.002500 0.240000 -0.610000
v -0.652500 0.060000 -0.490000
v -0.652500 0.240000 -0.490000
v -0.652500 0.060000 -0.610000
v -0.652500 0.240000 -0.610000
v -0.977500 0.210000 -0.540000
v -0.977500 0.230000 -0.540000
v -0.977500 0.210000 -0.560000
v -0.977500 0.230000 -0.560000
v -0.677500 0.210000 -0.540000
v -0.677500 0.230000 -0.540000
v -0.677500 0.210000 -0.560000
v -0.677500 0.230000 -0.560000
v -1.002500 0.060000 0.610000
v -1.002500 0.240000 0.610000
v -1.002500 0.060000 0.490000
v -1.002500 0.240000 0.490000
v -0.652500 0.060000 0.610000
v -0.652500 0.240000 0.610000
v -0.652500 0.060000 0.490000
v -0.652500 0.240000 0.490000
v -0.977500 0.210000 0.560000
v -0.977500 0.230000 0.560000
v -0.977500 0.210000 0.540000
v -0.977500 0.230000 0.540000
v -0.677500 0.210000 0.560000
v -0.677500 0.230000 0.560000
v -0.677500 0.210000 0.540000
v -0.677500 0.230000 0.540000
vn -1.0000 -0.0000 -0.0000
vn -0.7071 0.7071 -0.0000
vn -0.6065 0.5837 -0.5399
vn -0.7412 -0.0110 -0.6712
vn 0.0247 -0.0175 -0.9995
vn 0.0070 0.6728 -0.7398
vn 0.6071 0.5985 -0.5227
vn 0.7568 -0.0117 -0.6536
vn 1.0000 -0.0000 -0.0000
vn 0.6941 0.7198 -0.0000
vn 0.6071 0.5985 0.5227
vn 0.7568 -0.0117 0.6536
vn 0.0247 -0.0175 0.9995
vn 0.0070 0.6728 0.7398
vn -0.6065 0.5837 0.5399
vn -0.7412 -0.0110 0.6712
vn 0.0182 -0.9998 -0.0000
vn 0.7198 -0.6941 -0.0000
vn 0.6373 -0.5813 0.5059
vn 0.0288 -0.6917 0.7216
vn -0.0182 0.9998 -0.0000
vn -0.7071 -0.7071 -0.0000
vn -0.6151 -0.5900 0.5230
vn -0.6151 -0.5900 -0.5230
vn 0.0288 -0.6917 -0.7216
vn 0.6373 -0.5813 -0.5059
vn -0.0000 -0.0000 -1.0000
vn -0.0000 -0.0000 1.0000
vn -0.0000 -1.0000 -0.0000
vn -0.0000 1.0000 -0.0000
vn -0.0000 -0.6532 -0.7572
vn -0.0000 0.6532 -0.7572
vn 0.3786 0.6532 -0.6557
vn 0.3786 -0.6532 -0.6557
vn 0.6557 0.6532 -0.3786
vn 0.6557 -0.6532 -0.3786
vn 0.7572 0.6532 -0.0000
vn 0.7572 -0.6532 -0.0000
vn 0.6557 0.6532 0.3786
vn 0.6557 -0.6532 0.3786
vn 0.3786 0.6532 0.6557
vn 0.3786 -0.6532 0.6557
vn -0.0000 0.6532 0.7572
vn -0.0000 -0.6532 0.7572
vn -0.3786 0.6532 0.6557
vn -0.3786 -0.6532 0.6557
vn -0.6557 0.6532 0.3786
vn -0.6557 -0.6532 0.3786
vn -0.7572 0.6532 -0.0000
vn -0.7572 -0.6532 -0.0000
vn -0.6557 0.6532 -0.3786
vn -0.6557 -0.6532 -0.3786
vn -0.3786 0.6532 -0.6557
vn -0.3786 -0.6532 -0.6557
vn -0.6437 -0.0000 -0.7653
vn 0.6437 -0.0000 -0.7653
vn 0.6437 -0.4498 -0.6191
vn -0.6437 -0.4498 -0.6191
vn 0.6437 -0.7278 -0.2365
vn -0.6437 -0.7278 -0.2365
vn 0.6437 -0.7278 0.2365
vn -0.6437 -0.7278 0.2365
vn 0.6437 -0.4498 0.6191
vn -0.6437 -0.4498 0.6191
vn 0.6437 -0.0000 0.7653
vn -0.6437 -0.0000 0.7653
vn 0.6437 0.4498 0.6191
vn -0.6437 0.4498 0.6191
vn 0.6437 0.7278 0.2365
vn -0.6437 0.7278 0.2365
vn 0.6437 0.7278 -0.2365
vn -0.6437 0.7278 -0.2365
vn 0.6437 0.4498 -0.6191
vn -0.6437 0.4498 -0.6191
vn 0.2225 -0.0000 -0.9749
vn 0.6235 -0.0000 -0.7818
vn 0.9010 -0.0000 -0.4339
vn 0.9010 -0.0000 0.4339
vn 0.6235 -0.0000 0.7818
vn 0.2225 -0.0000 0.9749
vn -0.2225 -0.0000 0.9749
vn -0.6235 -0.0000 0.7818
vn -0.9010 -0.0000 0.4339
vn -0.9010 -0.0000 -0.4339
vn -0.6235 -0.0000 -0.7818
vn -0.2225 -0.0000 -0.9749
vn 0.3090 0.9511 -0.0000
vn 0.8090 0.5878 -0.0000
vn 0.8090 -0.5878 -0.0000
vn 0.3090 -0.9511 -0.0000
vn -0.3090 -0.9511 -0.0000
vn -0.8090 -0.5878 -0.0000
vn -0.8090 0.5878 -0.0000
vn -0.3090 0.9511 -0.0000
vn -0.4239 -0.0000 -0.9057
vn -0.4239 -0.5324 -0.7327
vn -0.4239 -0.8614 -0.2799
vn -0.4239 -0.8614 0.2799
vn -0.4239 -0.5324 0.7327
vn -0.4239 -0.0000 0.9057
vn -0.4239 0.5324 0.7327
vn -0.4239 0.8614 0.2799
vn -0.4239 0.8614 -0.2799
vn -0.4239 0.5324 -0.7327
vt 0.500000 0.125000
vt 0.625000 0.125000
vt 0.625000 0.250000
vt 0.500000 0.250000
vt 0.500000 0.375000
vt 0.625000 0.375000
vt 0.625000 0.500000
vt 0.500000 0.500000
vt 0.500000 0.625000
vt 0.625000 0.625000
vt 0.625000 0.750000
vt 0.500000 0.750000
vt 0.500000 0.875000
vt 0.625000 0.875000
vt 0.625000 1.000000
vt 0.500000 1.000000
vt 0.250000 0.625000
vt 0.375000 0.625000
vt 0.375000 0.750000
vt 0.250000 0.750000
vt 0.750000 0.625000
vt 0.875000 0.625000
vt 0.875000 0.750000
vt 0.750000 0.750000
vt 0.750000 0.500000
vt 0.875000 0.500000
vt 0.125000 0.625000
vt 0.125000 0.750000
vt 0.125000 0.500000
vt 0.250000 0.500000
vt 0.375000 0.500000
vt 0.375000 0.875000
vt 0.375000 1.000000
vt 0.375000 0.375000
vt 0.375000 0.250000
vt 0.375000 0.125000
vt 0.375000 0.000000
vt 0.500000 0.000000
vt 0.625000 0.000000
vt 1.000000 0.500000
vt 1.000000 1.000000
vt 0.916667 1.000000
vt 0.916667 0.500000
vt 0.833333 1.000000
vt 0.833333 0.500000
vt 0.750000 1.000000
vt 0.750000 0.500000
vt 0.666667 1.000000
vt 0.666667 0.500000
vt 0.583333 1.000000
vt 0.583333 0.500000
vt 0.500000 1.000000
vt 0.500000 0.500000
vt 0.416667 1.000000
vt 0.416667 0.500000
vt 0.333333 1.000000
vt 0.333333 0.500000
vt 0.250000 1.000000
vt 0.250000 0.500000
vt 0.166667 1.000000
vt 0.166667 0.500000
vt 0.370000 0.457846
vt 0.250000 0.490000
vt 0.130000 0.457846
vt 0.042154 0.370000
vt 0.010000 0.250000
vt 0.042154 0.130000
vt 0.130000 0.042154
vt 0.250000 0.010000
vt 0.370000 0.042154
vt 0.457846 0.130000
vt 0.490000 0.250000
vt 0.457846 0.370000
vt 0.083333 1.000000
vt 0.083333 0.500000
vt 0.000000 1.000000
vt 0.000000 0.500000
vt 0.750000 0.490000
vt 0.870000 0.457846
vt 0.957846 0.370000
vt 0.990000 0.250000
vt 0.957846 0.130000
vt 0.870000 0.042154
vt 0.750000 0.010000
vt 0.630000 0.042154
vt 0.542154 0.130000
vt 0.510000 0.250000
vt 0.542154 0.370000
vt 0.630000 0.457846
vt 0.900000 1.000000
vt 0.900000 0.500000
vt 0.800000 1.000000
vt 0.800000 0.500000
vt 0.700000 1.000000
vt 0.700000 0.500000
vt 0.600000 1.000000
vt 0.600000 0.500000
vt 0.500000 1.000000
vt 0.500000 0.500000
vt 0.400000 1.000000
vt 0.400000 0.500000
vt 0.300000 1.000000
vt 0.300000 0.500000
vt 0.200000 1.000000
vt 0.200000 0.500000
vt 0.391068 0.444164
vt 0.250000 0.490000
vt 0.108932 0.444164
vt 0.021746 0.324164
vt 0.021746 0.175836
vt 0.108932 0.055836
vt 0.250000 0.010000
vt 0.391068 0.055836
vt 0.478254 0.175836
vt 0.478254 0.324164
vt 0.100000 1.000000
vt 0.100000 0.500000
vt -0.000000 1.000000
vt -0.000000 0.500000
vt 0.750000 0.490000
vt 0.891068 0.444164
vt 0.978254 0.324164
vt 0.978254 0.175836
vt 0.891068 0.055836
vt 0.750000 0.010000
vt 0.608932 0.055836
vt 0.521746 0.175836
vt 0.521746 0.324164
vt 0.608932 0.444164
vt 0.928571 1.000000
vt 0.928571 0.500000
vt 0.857143 1.000000
vt 0.857143 0.500000
vt 0.785714 1.000000
vt 0.785714 0.500000
vt 0.714286 1.000000
vt 0.714286 0.500000
vt 0.642857 1.000000
vt 0.642857 0.500000
vt 0.571428 1.000000
vt 0.571428 0.500000
vt 0.500000 1.000000
vt 0.500000 0.500000
vt 0.428571 1.000000
vt 0.428571 0.500000
vt 0.357143 1.000000
vt 0.357143 0.500000
vt 0.285714 1.000000
vt 0.285714 0.500000
vt 0.214286 1.000000
vt 0.214286 0.500000
vt 0.142857 1.000000
vt 0.142857 0.500000
vt 0.354132 0.466232
vt 0.145868 0.466232
vt 0.062360 0.399638
vt 0.016017 0.303405
vt 0.016017 0.196595
vt 0.062360 0.100362
vt 0.145868 0.033768
vt 0.354132 0.033768
vt 0.437640 0.100362
vt 0.483983 0.196595
vt 0.483983 0.303405
vt 0.437640 0.399638
vt 0.071428 1.000000
vt 0.071428 0.500000
vt -0.000000 1.000000
vt -0.000000 0.500000
vt 0.854132 0.466232
vt 0.937640 0.399638
vt 0.983983 0.303405
vt 0.983983 0.196595
vt 0.937640 0.100362
vt 0.854132 0.033768
vt 0.645868 0.033768
vt 0.562360 0.100362
vt 0.516017 0.196595
vt 0.516017 0.303405
vt 0.562360 0.399638
vt 0.645868 0.466232
vt 0.391068 0.444164
vt 0.108932 0.444164
vt 0.021746 0.324164
vt 0.021746 0.175836
vt 0.108932 0.055836
vt 0.391068 0.055836
vt 0.891068 0.444164
vt 0.891068 0.055836
vt 0.608932 0.055836
vt 0.608932 0.444164
vt 0.250000 0.250000
s 1
usemtl GhostHull
f 26/1/1 11/2/2 4/3/3 12/4/4
f 25/5/5 14/6/6 8/7/7 15/8/8
f 24/9/9 17/10/10 6/11/11 18/12/12
f 23/13/13 20/14/14 2/15/15 10/16/16
f 22/17/17 16/18/18 5/19/19 19/20/20
f 21/21/21 11/22/2 2/23/15 20/24/14
f 17/10/10 21/21/21 20/24/14 6/11/11
f 8/7/7 14/25/6 21/21/21 17/10/10
f 14/25/6 4/26/3 11/22/2 21/21/21
f 9/27/22 22/17/17 19/20/20 1/28/23
f 3/29/24 13/30/25 22/17/17 9/27/22
f 13/30/25 7/31/26 16/18/18 22/17/17
f 19/32/20 23/13/13 10/16/16 1/33/23
f 5/19/19 18/12/12 23/13/13 19/32/20
f 18/12/12 6/11/11 20/14/14 23/13/13
f 16/18/18 24/9/9 18/12/12 5/19/19
f 7/31/26 15/8/8 24/9/9 16/18/18
f 15/8/8 8/7/7 17/10/10 24/9/9
f 13/34/25 25/5/5 15/8/8 7/31/26
f 3/35/24 12/4/4 25/5/5 13/34/25
f 12/4/4 4/3/3 14/6/6 25/5/5
f 9/36/22 26/1/1 12/4/4 3/35/24
f 1/37/23 10/38/16 26/1/1 9/36/22
f 10/38/16 2/39/15 11/2/2 26/1/1
f 323/63/95 333/192/9 324/182/96
f 324/182/96 333/192/9 325/115/97
f 325/115/97 333/192/9 326/114/98
f 326/114/98 333/192/9 327/187/99
f 327/187/99 333/192/9 328/69/100
f 328/69/100 333/192/9 329/186/101
f 329/186/101 333/192/9 330/185/102
f 330/185/102 333/192/9 331/184/103
f 323/78/95 324/188/96 325/122/97 326/123/98 327/189/99 328/84/100 329/190/101 330/127/102 331/128/103 332/191/104
f 331/184/103 333/192/9 332/183/104
f 332/183/104 333/192/9 323/63/95
s 0
usemtl GhostDark
f 27/37/1 28/39/1 30/3/1 29/35/1
f 29/35/27 30/3/27 34/7/27 33/31/27
f 33/31/9 34/7/9 32/11/9 31/19/9
f 31/19/28 32/11/28 28/15/28 27/33/28
f 29/29/29 33/31/29 31/19/29 27/28/29
f 34/7/30 30/26/30 28/23/30 32/11/30
f 75/37/1 76/39/1 78/3/1 77/35/1
f 77/35/27 78/3/27 82/7/27 81/31/27
f 81/31/9 82/7/9 80/11/9 79/19/9
f 79/19/28 80/11/28 76/15/28 75/33/28
f 77/29/29 81/31/29 79/19/29 75/28/29
f 82/7/30 78/26/30 76/23/30 80/11/30
f 207/37/1 208/39/1 210/3/1 209/35/1
f 209/35/27 210/3/27 214/7/27 213/31/27
f 213/31/9 214/7/9 212/11/9 211/19/9
f 211/19/28 212/11/28 208/15/28 207/33/28
f 209/29/29 213/31/29 211/19/29 207/28/29
f 214/7/30 210/26/30 208/23/30 212/11/30
f 223/37/1 224/39/1 226/3/1 225/35/1
f 225/35/27 226/3/27 230/7/27 229/31/27
f 229/31/9 230/7/9 228/11/9 227/19/9
f 227/19/28 228/11/28 224/15/28 223/33/28
f 225/29/29 229/31/29 227/19/29 223/28/29
f 230/7/30 226/26/30 224/23/30 228/11/30
f 239/37/1 240/39/1 242/3/1 241/35/1
f 241/35/27 242/3/27 246/7/27 245/31/27
f 245/31/9 246/7/9 244/11/9 243/19/9
f 243/19/28 244/11/28 240/15/28 239/33/28
f 241/29/29 245/31/29 243/19/29 239/28/29
f 246/7/30 242/26/30 240/23/30 244/11/30
f 255/37/1 256/39/1 258/3/1 257/35/1
f 257/35/27 258/3/27 262/7/27 261/31/27
f 261/31/9 262/7/9 260/11/9 259/19/9
f 259/19/28 260/11/28 256/15/28 255/33/28
f 257/29/29 261/31/29 259/19/29 255/28/29
f 262/7/30 258/26/30 256/23/30 260/11/30
f 342/37/1 343/39/1 345/3/1 344/35/1
f 344/35/27 345/3/27 349/7/27 348/31/27
f 348/31/9 349/7/9 347/11/9 346/19/9
f 346/19/28 347/11/28 343/15/28 342/33/28
f 344/29/29 348/31/29 346/19/29 342/28/29
f 349/7/30 345/26/30 343/23/30 347/11/30
f 358/37/1 359/39/1 361/3/1 360/35/1
f 360/35/27 361/3/27 365/7/27 364/31/27
f 364/31/9 365/7/9 363/11/9 362/19/9
f 362/19/28 363/11/28 359/15/28 358/33/28
f 360/29/29 364/31/29 362/19/29 358/28/29
f 365/7/30 361/26/30 359/23/30 363/11/30
usemtl GhostDeck
f 35/37/1 36/39/1 38/3/1 37/35/1
f 37/35/27 38/3/27 42/7/27 41/31/27
f 41/31/9 42/7/9 40/11/9 39/19/9
f 39/19/28 40/11/28 36/15/28 35/33/28
f 37/29/29 41/31/29 39/19/29 35/28/29
f 42/7/30 38/26/30 36/23/30 40/11/30
usemtl CyanGlow
f 43/37/1 44/39/1 46/3/1 45/35/1
f 45/35/27 46/3/27 50/7/27 49/31/27
f 49/31/9 50/7/9 48/11/9 47/19/9
f 47/19/28 48/11/28 44/15/28 43/33/28
f 45/29/29 49/31/29 47/19/29 43/28/29
f 50/7/30 46/26/30 44/23/30 48/11/30
f 155/40/75 156/41/75 158/130/75 157/131/75
f 157/131/76 158/130/76 160/132/76 159/133/76
f 159/133/77 160/132/77 162/134/77 161/135/77
f 161/135/9 162/134/9 164/136/9 163/137/9
f 163/137/78 164/136/78 166/138/78 165/139/78
f 165/139/79 166/138/79 168/140/79 167/141/79
f 167/141/80 168/140/80 170/142/80 169/143/80
f 169/143/81 170/142/81 172/144/81 171/145/81
f 171/145/82 172/144/82 174/146/82 173/147/82
f 173/147/83 174/146/83 176/148/83 175/149/83
f 175/149/1 176/148/1 178/150/1 177/151/1
f 177/151/84 178/150/84 180/152/84 179/153/84
f 158/154/30 156/107/30 182/155/30 180/156/30 178/157/30 176/158/30 174/159/30 172/160/30 170/112/30 168/161/30 166/162/30 164/163/30 162/164/30 160/165/30
f 179/153/85 180/152/85 182/166/85 181/167/85
f 181/167/86 182/166/86 156/168/86 155/169/86
f 155/120/29 157/170/29 159/171/29 161/172/29 163/173/29 165/174/29 167/175/29 169/125/29 171/176/29 173/177/29 175/178/29 177/179/29 179/180/29 181/181/29
f 191/37/1 192/39/1 194/3/1 193/35/1
f 193/35/27 194/3/27 198/7/27 197/31/27
f 197/31/9 198/7/9 196/11/9 195/19/9
f 195/19/28 196/11/28 192/15/28 191/33/28
f 193/29/29 197/31/29 195/19/29 191/28/29
f 198/7/30 194/26/30 192/23/30 196/11/30
f 350/37/1 351/39/1 353/3/1 352/35/1
f 352/35/27 353/3/27 357/7/27 356/31/27
f 356/31/9 357/7/9 355/11/9 354/19/9
f 354/19/28 355/11/28 351/15/28 350/33/28
f 352/29/29 356/31/29 354/19/29 350/28/29
f 357/7/30 353/26/30 351/23/30 355/11/30
f 366/37/1 367/39/1 369/3/1 368/35/1
f 368/35/27 369/3/27 373/7/27 372/31/27
f 372/31/9 373/7/9 371/11/9 370/19/9
f 370/19/28 371/11/28 367/15/28 366/33/28
f 368/29/29 372/31/29 370/19/29 366/28/29
f 373/7/30 369/26/30 367/23/30 371/11/30
usemtl PaleGlow
f 51/37/1 52/39/1 54/3/1 53/35/1
f 53/35/27 54/3/27 58/7/27 57/31/27
f 57/31/9 58/7/9 56/11/9 55/19/9
f 55/19/28 56/11/28 52/15/28 51/33/28
f 53/29/29 57/31/29 55/19/29 51/28/29
f 58/7/30 54/26/30 52/23/30 56/11/30
f 59/37/1 60/39/1 62/3/1 61/35/1
f 61/35/27 62/3/27 66/7/27 65/31/27
f 65/31/9 66/7/9 64/11/9 63/19/9
f 63/19/28 64/11/28 60/15/28 59/33/28
f 61/29/29 65/31/29 63/19/29 59/28/29
f 66/7/30 62/26/30 60/23/30 64/11/30
f 334/37/1 335/39/1 337/3/1 336/35/1
f 336/35/27 337/3/27 341/7/27 340/31/27
f 340/31/9 341/7/9 339/11/9 338/19/9
f 338/19/28 339/11/28 335/15/28 334/33/28
f 336/29/29 340/31/29 338/19/29 334/28/29
f 341/7/30 337/26/30 335/23/30 339/11/30
usemtl GhostWood
f 67/37/1 68/39/1 70/3/1 69/35/1
f 69/35/27 70/3/27 74/7/27 73/31/27
f 73/31/9 74/7/9 72/11/9 71/19/9
f 71/19/28 72/11/28 68/15/28 67/33/28
f 69/29/29 73/31/29 71/19/29 67/28/29
f 74/7/30 70/26/30 68/23/30 72/11/30
s 1
usemtl GhostMetal
f 83/40/31 84/41/32 86/42/33 85/43/34
f 85/43/34 86/42/33 88/44/35 87/45/36
f 87/45/36 88/44/35 90/46/37 89/47/38
f 89/47/38 90/46/37 92/48/39 91/49/40
f 91/49/40 92/48/39 94/50/41 93/51/42
f 93/51/42 94/50/41 96/52/43 95/53/44
f 95/53/44 96/52/43 98/54/45 97/55/46
f 97/55/46 98/54/45 100/56/47 99/57/48
f 99/57/48 100/56/47 102/58/49 101/59/50
f 101/59/50 102/58/49 104/60/51 103/61/52
f 86/62/33 84/63/32 106/64/53 104/65/51 102/66/49 100/67/47 98/68/45 96/69/43 94/70/41 92/71/39 90/72/37 88/73/35
f 103/61/52 104/60/51 106/74/53 105/75/54
f 105/75/54 106/74/53 84/76/32 83/77/31
f 83/78/31 85/79/34 87/80/36 89/81/38 91/82/40 93/83/42 95/84/44 97/85/46 99/86/48 101/87/50 103/88/52 105/89/54
f 115/40/55 116/41/56 118/90/57 117/91/58
f 117/91/58 118/90/57 120/92/59 119/93/60
f 119/93/60 120/92/59 122/94/61 121/95/62
f 121/95/62 122/94/61 124/96/63 123/97/64
f 123/97/64 124/96/63 126/98/65 125/99/66
f 125/99/66 126/98/65 128/100/67 127/101/68
f 127/101/68 128/100/67 130/102/69 129/103/70
f 129/103/70 130/102/69 132/104/71 131/105/72
f 118/106/57 116/107/56 134/108/73 132/109/71 130/110/69 128/111/67 126/112/65 124/113/63 122/114/61 120/115/59
f 131/105/72 132/104/71 134/116/73 133/117/74
f 133/117/74 134/116/73 116/118/56 115/119/55
f 115/120/55 117/121/58 119/122/60 121/123/62 123/124/64 125/125/66 127/126/68 129/127/70 131/128/72 133/129/74
f 135/40/55 136/41/56 138/90/57 137/91/58
f 137/91/58 138/90/57 140/92/59 139/93/60
f 139/93/60 140/92/59 142/94/61 141/95/62
f 141/95/62 142/94/61 144/96/63 143/97/64
f 143/97/64 144/96/63 146/98/65 145/99/66
f 145/99/66 146/98/65 148/100/67 147/101/68
f 147/101/68 148/100/67 150/102/69 149/103/70
f 149/103/70 150/102/69 152/104/71 151/105/72
f 138/106/57 136/107/56 154/108/73 152/109/71 150/110/69 148/111/67 146/112/65 144/113/63 142/114/61 140/115/59
f 151/105/72 152/104/71 154/116/73 153/117/74
f 153/117/74 154/116/73 136/118/56 135/119/55
f 135/120/55 137/121/58 139/122/60 141/123/62 143/124/64 145/125/66 147/126/68 149/127/70 151/128/72 153/129/74
s 0
f 199/37/1 200/39/1 202/3/1 201/35/1
f 201/35/27 202/3/27 206/7/27 205/31/27
f 205/31/9 206/7/9 204/11/9 203/19/9
f 203/19/28 204/11/28 200/15/28 199/33/28
f 201/29/29 205/31/29 203/19/29 199/28/29
f 206/7/30 202/26/30 200/23/30 204/11/30
f 215/37/1 216/39/1 218/3/1 217/35/1
f 217/35/27 218/3/27 222/7/27 221/31/27
f 221/31/9 222/7/9 220/11/9 219/19/9
f 219/19/28 220/11/28 216/15/28 215/33/28
f 217/29/29 221/31/29 219/19/29 215/28/29
f 222/7/30 218/26/30 216/23/30 220/11/30
f 231/37/1 232/39/1 234/3/1 233/35/1
f 233/35/27 234/3/27 238/7/27 237/31/27
f 237/31/9 238/7/9 236/11/9 235/19/9
f 235/19/28 236/11/28 232/15/28 231/33/28
f 233/29/29 237/31/29 235/19/29 231/28/29
f 238/7/30 234/26/30 232/23/30 236/11/30
f 247/37/1 248/39/1 250/3/1 249/35/1
f 249/35/27 250/3/27 254/7/27 253/31/27
f 253/31/9 254/7/9 252/11/9 251/19/9
f 251/19/28 252/11/28 248/15/28 247/33/28
f 249/29/29 253/31/29 251/19/29 247/28/29
f 254/7/30 250/26/30 248/23/30 252/11/30
f 263/40/87 264/41/87 266/90/87 265/91/87
f 265/91/88 266/90/88 268/92/88 267/93/88
f 267/93/9 268/92/9 270/94/9 269/95/9
f 269/95/89 270/94/89 272/96/89 271/97/89
f 271/97/90 272/96/90 274/98/90 273/99/90
f 273/99/91 274/98/91 276/100/91 275/101/91
f 275/101/92 276/100/92 278/102/92 277/103/92
f 277/103/1 278/102/1 280/104/1 279/105/1
f 266/182/28 264/63/28 282/183/28 280/184/28 278/185/28 276/186/28 274/69/28 272/187/28 270/114/28 268/115/28
f 279/105/93 280/104/93 282/116/93 281/117/93
f 281/117/94 282/116/94 264/118/94 263/119/94
f 263/78/27 265/188/27 267/122/27 269/123/27 271/189/27 273/84/27 275/190/27 277/127/27 279/128/27 281/191/27
f 283/40/87 284/41/87 286/90/87 285/91/87
f 285/91/88 286/90/88 288/92/88 287/93/88
f 287/93/9 288/92/9 290/94/9 289/95/9
f 289/95/89 290/94/89 292/96/89 291/97/89
f 291/97/90 292/96/90 294/98/90 293/99/90
f 293/99/91 294/98/91 296/100/91 295/101/91
f 295/101/92 296/100/92 298/102/92 297/103/92
f 297/103/1 298/102/1 300/104/1 299/105/1
f 286/182/28 284/63/28 302/183/28 300/184/28 298/185/28 296/186/28 294/69/28 292/187/28 290/114/28 288/115/28
f 299/105/93 300/104/93 302/116/93 301/117/93
f 301/117/94 302/116/94 284/118/94 283/119/94
f 283/78/27 285/188/27 287/122/27 289/123/27 291/189/27 293/84/27 295/190/27 297/127/27 299/128/27 301/191/27
f 303/40/87 304/41/87 306/90/87 305/91/87
f 305/91/88 306/90/88 308/92/88 307/93/88
f 307/93/9 308/92/9 310/94/9 309/95/9
f 309/95/89 310/94/89 312/96/89 311/97/89
f 311/97/90 312/96/90 314/98/90 313/99/90
f 313/99/91 314/98/91 316/100/91 315/101/91
f 315/101/92 316/100/92 318/102/92 317/103/92
f 317/103/1 318/102/1 320/104/1 319/105/1
f 306/182/28 304/63/28 322/183/28 320/184/28 318/185/28 316/186/28 314/69/28 312/187/28 310/114/28 308/115/28
f 319/105/93 320/104/93 322/116/93 321/117/93
f 321/117/94 322/116/94 304/118/94 303/119/94
f 303/78/27 305/188/27 307/122/27 309/123/27 311/189/27 313/84/27 315/190/27 317/127/27 319/128/27 321/191/27
usemtl Blackish
f 107/37/1 108/39/1 110/3/1 109/35/1
f 109/35/27 110/3/27 114/7/27 113/31/27
f 113/31/9 114/7/9 112/11/9 111/19/9
f 111/19/28 112/11/28 108/15/28 107/33/28
f 109/29/29 113/31/29 111/19/29 107/28/29
f 114/7/30 110/26/30 108/23/30 112/11/30
f 183/37/1 184/39/1 186/3/1 185/35/1
f 185/35/27 186/3/27 190/7/27 189/31/27
f 189/31/9 190/7/9 188/11/9 187/19/9
f 187/19/28 188/11/28 184/15/28 183/33/28
f 185/29/29 189/31/29 187/19/29 183/28/29
f 190/7/30 186/26/30 184/23/30 188/11/30
