# Blender 4.3.2
# www.blender.org
mtllib Phantom_LittleBoat.mtl
o Phantom_LittleBoat
v -0.655000 -0.078800 0.098386
v -0.655000 0.190000 0.106260
v -0.655000 -0.078800 -0.098386
v -0.655000 0.190000 -0.106260
v 0.545000 -0.038800 0.050622
v 0.545000 0.230000 0.056840
v 0.545000 -0.038800 -0.050622
v 0.545000 0.230000 -0.056840
v -0.655000 -0.078800 0.000000
v -0.655000 0.050000 0.106260
v -0.655000 0.190000 0.000000
v -0.655000 0.050000 -0.106260
v -0.055000 -0.078800 -0.207856
v -0.055000 0.190000 -0.208133
v 0.545000 0.090000 -0.056840
v 0.545000 -0.038800 0.000000
v 0.545000 0.230000 0.000000
v 0.545000 0.090000 0.056840
v -0.055000 -0.078800 0.207856
v -0.055000 0.190000 0.208133
v -0.055000 0.190000 0.000000
v -0.055000 -0.078800 0.000000
v -0.055000 0.050000 0.208133
v 0.545000 0.090000 0.000000
v -0.055000 0.050000 -0.208133
v -0.655000 0.050000 0.000000
v -0.555000 -0.166000 0.021137
v -0.555000 -0.070000 0.023000
v -0.555000 -0.166000 -0.021137
v -0.555000 -0.070000 -0.023000
v 0.445000 -0.126000 0.011215
v 0.445000 -0.030000 0.012631
v 0.445000 -0.126000 -0.011215
v 0.445000 -0.030000 -0.012631
v -0.580000 0.141600 0.089910
v -0.580000 0.180000 0.095680
v -0.580000 0.141600 -0.089910
v -0.580000 0.180000 -0.095680
v 0.470000 0.181600 0.052207
v 0.470000 0.220000 0.057742
v 0.470000 0.181600 -0.052207
v 0.470000 0.220000 -0.057742
v -0.530000 0.190000 -0.165000
v -0.530000 0.250000 -0.165000
v -0.530000 0.190000 -0.195000
v -0.530000 0.250000 -0.195000
v 0.420000 0.190000 -0.165000
v 0.420000 0.250000 -0.165000
v 0.420000 0.190000 -0.195000
v 0.420000 0.250000 -0.195000
v -0.530000 0.190000 0.195000
v -0.530000 0.250000 0.195000
v -0.530000 0.190000 0.165000
v -0.530000 0.250000 0.165000
v 0.420000 0.190000 0.195000
v 0.420000 0.250000 0.195000
v 0.420000 0.190000 0.165000
v 0.420000 0.250000 0.165000
v 0.515000 0.080000 -0.100000
v 0.515000 0.021221 -0.080902
v 0.515000 -0.015106 -0.030902
v 0.515000 -0.015106 0.030902
v 0.515000 0.021221 0.080902
v 0.515000 0.080000 0.100000
v 0.515000 0.138779 0.080902
v 0.515000 0.175106 0.030902
v 0.515000 0.175106 -0.030902
v 0.515000 0.138779 -0.080902
v 0.735000 0.080000 0.000000
v -0.605000 0.005000 0.215000
v -0.605000 0.035000 0.215000
v -0.605000 0.005000 -0.215000
v -0.605000 0.035000 -0.215000
v 0.495000 0.005000 0.215000
v 0.495000 0.035000 0.215000
v 0.495000 0.005000 -0.215000
v 0.495000 0.035000 -0.215000
v -0.335000 0.180000 0.140000
v -0.335000 0.220000 0.140000
v -0.335000 0.180000 -0.140000
v -0.335000 0.220000 -0.140000
v -0.275000 0.180000 0.140000
v -0.275000 0.220000 0.140000
v -0.275000 0.180000 -0.140000
v -0.275000 0.220000 -0.140000
v 0.115000 0.180000 0.140000
v 0.115000 0.220000 0.140000
v 0.115000 0.180000 -0.140000
v 0.115000 0.220000 -0.140000
v 0.175000 0.180000 0.140000
v 0.175000 0.220000 0.140000
v 0.175000 0.180000 -0.140000
v 0.175000 0.220000 -0.140000
v -0.735000 -0.090000 0.015000
v -0.735000 0.090000 0.015000
v -0.735000 -0.090000 -0.015000
v -0.735000 0.090000 -0.015000
v -0.675000 -0.090000 0.015000
v -0.675000 0.090000 0.015000
v -0.675000 -0.090000 -0.015000
v -0.675000 0.090000 -0.015000
vn -1.0000 -0.0000 -0.0000
vn -0.7071 0.7071 -0.0000
vn -0.6187 0.5867 -0.5225
vn -0.7588 -0.0103 -0.6513
vn 0.0395 -0.0145 -0.9991
vn 0.0118 0.6559 -0.7547
vn 0.6155 0.6138 -0.4944
vn 0.7852 -0.0075 -0.6192
vn 1.0000 -0.0000 -0.0000
vn 0.6832 0.7302 -0.0000
vn 0.6155 0.6138 0.4944
vn 0.7852 -0.0075 0.6192
vn 0.0395 -0.0145 0.9991
vn 0.0118 0.6559 0.7547
vn -0.6187 0.5867 0.5225
vn -0.7588 -0.0103 0.6513
vn 0.0333 -0.9994 -0.0000
vn 0.7302 -0.6832 -0.0000
vn 0.6612 -0.5735 0.4837
vn 0.0469 -0.6794 0.7323
vn -0.0333 0.9994 -0.0000
vn -0.7071 -0.7071 -0.0000
vn -0.6266 -0.5929 0.5058
vn -0.6266 -0.5929 -0.5058
vn 0.0469 -0.6794 -0.7323
vn 0.6612 -0.5735 -0.4837
vn 0.0108 -0.0171 -0.9998
vn 0.0108 -0.0171 0.9998
vn 0.0400 -0.9992 -0.0000
vn -0.0400 0.9992 -0.0000
vn 0.0411 -0.1455 -0.9885
vn 0.0411 -0.1455 0.9885
vn 0.0381 -0.9993 -0.0000
vn -0.0381 0.9993 -0.0000
vn -0.0000 -0.0000 -1.0000
vn -0.0000 -0.0000 1.0000
vn -0.0000 -1.0000 -0.0000
vn -0.0000 1.0000 -0.0000
vn -0.4774 -0.0000 -0.8787
vn -0.4774 -0.5165 -0.7109
vn -0.4774 -0.8357 -0.2715
vn -0.4774 -0.8357 0.2715
vn -0.4774 -0.5165 0.7109
vn -0.4774 -0.0000 0.8787
vn -0.4774 0.5165 0.7109
vn -0.4774 0.8357 0.2715
vn -0.4774 0.8357 -0.2715
vn -0.4774 0.5165 -0.7109
vt 0.500000 0.125000
vt 0.625000 0.125000
vt 0.625000 0.250000
vt 0.500000 0.250000
vt 0.500000 0.375000
vt 0.625000 0.375000
vt 0.625000 0.500000
vt 0.500000 0.500000
vt 0.500000 0.625000
vt 0.625000 0.625000
vt 0.625000 0.750000
vt 0.500000 0.750000
vt 0.500000 0.875000
vt 0.625000 0.875000
vt 0.625000 1.000000
vt 0.500000 1.000000
vt 0.250000 0.625000
vt 0.375000 0.625000
vt 0.375000 0.750000
vt 0.250000 0.750000
vt 0.750000 0.625000
vt 0.875000 0.625000
vt 0.875000 0.750000
vt 0.750000 0.750000
vt 0.750000 0.500000
vt 0.875000 0.500000
vt 0.125000 0.625000
vt 0.125000 0.750000
vt 0.125000 0.500000
vt 0.250000 0.500000
vt 0.375000 0.500000
vt 0.375000 0.875000
vt 0.375000 1.000000
vt 0.375000 0.375000
vt 0.375000 0.250000
vt 0.375000 0.125000
vt 0.375000 0.000000
vt 0.500000 0.000000
vt 0.625000 0.000000
vt 0.250000 0.490000
vt 0.250000 0.250000
vt 0.391068 0.444164
vt 0.478254 0.324164
vt 0.478254 0.175836
vt 0.391068 0.055836
vt 0.250000 0.010000
vt 0.108932 0.055836
vt 0.021746 0.175836
vt 0.021746 0.324164
vt 0.750000 0.490000
vt 0.891068 0.444164
vt 0.978254 0.324164
vt 0.978254 0.175836
vt 0.891068 0.055836
vt 0.750000 0.010000
vt 0.608932 0.055836
vt 0.521746 0.175836
vt 0.521746 0.324164
vt 0.608932 0.444164
vt 0.108932 0.444164
s 1
usemtl GhostHull
f 26/1/1 11/2/2 4/3/3 12/4/4
f 25/5/5 14/6/6 8/7/7 15/8/8
f 24/9/9 17/10/10 6/11/11 18/12/12
f 23/13/13 20/14/14 2/15/15 10/16/16
f 22/17/17 16/18/18 5/19/19 19/20/20
f 21/21/21 11/22/2 2/23/15 20/24/14
f 17/10/10 21/21/21 20/24/14 6/11/11
f 8/7/7 14/25/6 21/21/21 17/10/10
f 14/25/6 4/26/3 11/22/2 21/21/21
f 9/27/22 22/17/17 19/20/20 1/28/23
f 3/29/24 13/30/25 22/17/17 9/27/22
f 13/30/25 7/31/26 16/18/18 22/17/17
f 19/32/20 23/13/13 10/16/16 1/33/23
f 5/19/19 18/12/12 23/13/13 19/32/20
f 18/12/12 6/11/11 20/14/14 23/13/13
f 16/18/18 24/9/9 18/12/12 5/19/19
f 7/31/26 15/8/8 24/9/9 16/18/18
f 15/8/8 8/7/7 17/10/10 24/9/9
f 13/34/25 25/5/5 15/8/8 7/31/26
f 3/35/24 12/4/4 25/5/5 13/34/25
f 12/4/4 4/3/3 14/6/6 25/5/5
f 9/36/22 26/1/1 12/4/4 3/35/24
f 1/37/23 10/38/16 26/1/1 9/36/22
f 10/38/16 2/39/15 11/2/2 26/1/1
f 59/40/39 69/41/9 60/42/40
f 60/42/40 69/41/9 61/43/41
f 61/43/41 69/41/9 62/44/42
f 62/44/42 69/41/9 63/45/43
f 63/45/43 69/41/9 64/46/44
f 64/46/44 69/41/9 65/47/45
f 65/47/45 69/41/9 66/48/46
f 66/48/46 69/41/9 67/49/47
f 59/50/39 60/51/40 61/52/41 62/53/42 63/54/43 64/55/44 65/56/45 66/57/46 67/58/47 68/59/48
f 67/49/47 69/41/9 68/60/48
f 68/60/48 69/41/9 59/40/39
s 0
usemtl GhostDark
f 27/37/1 28/39/1 30/3/1 29/35/1
f 29/35/27 30/3/27 34/7/27 33/31/27
f 33/31/9 34/7/9 32/11/9 31/19/9
f 31/19/28 32/11/28 28/15/28 27/33/28
f 29/29/29 33/31/29 31/19/29 27/28/29
f 34/7/30 30/26/30 28/23/30 32/11/30
f 94/37/1 95/39/1 97/3/1 96/35/1
f 96/35/35 97/3/35 101/7/35 100/31/35
f 100/31/9 101/7/9 99/11/9 98/19/9
f 98/19/36 99/11/36 95/15/36 94/33/36
f 96/29/37 100/31/37 98/19/37 94/28/37
f 101/7/38 97/26/38 95/23/38 99/11/38
usemtl GhostDeck
f 35/37/1 36/39/1 38/3/1 37/35/1
f 37/35/31 38/3/31 42/7/31 41/31/31
f 41/31/9 42/7/9 40/11/9 39/19/9
f 39/19/32 40/11/32 36/15/32 35/33/32
f 37/29/33 41/31/33 39/19/33 35/28/33
f 42/7/34 38/26/34 36/23/34 40/11/34
usemtl GhostWood
f 43/37/1 44/39/1 46/3/1 45/35/1
f 45/35/35 46/3/35 50/7/35 49/31/35
f 49/31/9 50/7/9 48/11/9 47/19/9
f 47/19/36 48/11/36 44/15/36 43/33/36
f 45/29/37 49/31/37 47/19/37 43/28/37
f 50/7/38 46/26/38 44/23/38 48/11/38
f 51/37/1 52/39/1 54/3/1 53/35/1
f 53/35/35 54/3/35 58/7/35 57/31/35
f 57/31/9 58/7/9 56/11/9 55/19/9
f 55/19/36 56/11/36 52/15/36 51/33/36
f 53/29/37 57/31/37 55/19/37 51/28/37
f 58/7/38 54/26/38 52/23/38 56/11/38
f 78/37/1 79/39/1 81/3/1 80/35/1
f 80/35/35 81/3/35 85/7/35 84/31/35
f 84/31/9 85/7/9 83/11/9 82/19/9
f 82/19/36 83/11/36 79/15/36 78/33/36
f 80/29/37 84/31/37 82/19/37 78/28/37
f 85/7/38 81/26/38 79/23/38 83/11/38
f 86/37/1 87/39/1 89/3/1 88/35/1
f 88/35/35 89/3/35 93/7/35 92/31/35
f 92/31/9 93/7/9 91/11/9 90/19/9
f 90/19/36 91/11/36 87/15/36 86/33/36
f 88/29/37 92/31/37 90/19/37 86/28/37
f 93/7/38 89/26/38 87/23/38 91/11/38
usemtl CyanGlow
f 70/37/1 71/39/1 73/3/1 72/35/1
f 72/35/35 73/3/35 77/7/35 76/31/35
f 76/31/9 77/7/9 75/11/9 74/19/9
f 74/19/36 75/11/36 71/15/36 70/33/36
f 72/29/37 76/31/37 74/19/37 70/28/37
f 77/7/38 73/26/38 71/23/38 75/11/38
