# Blender 4.3.2
# www.blender.org
mtllib Phantom_Warship.mtl
o Phantom_Warship
v -0.995000 -0.173200 0.128074
v -0.995000 0.230000 0.136896
v -0.995000 -0.173200 -0.128074
v -0.995000 0.230000 -0.136896
v -0.395000 -0.133200 0.074172
v -0.395000 0.270000 0.082283
v -0.395000 -0.133200 -0.074172
v -0.395000 0.270000 -0.082283
v -0.995000 -0.173200 0.000000
v -0.995000 0.020000 0.136896
v -0.995000 0.230000 0.000000
v -0.995000 0.020000 -0.136896
v -0.695000 -0.173200 -0.237549
v -0.695000 0.230000 -0.237867
v -0.395000 0.060000 -0.082283
v -0.395000 -0.133200 0.000000
v -0.395000 0.270000 0.000000
v -0.395000 0.060000 0.082283
v -0.695000 -0.173200 0.237549
v -0.695000 0.230000 0.237867
v -0.695000 0.230000 0.000000
v -0.695000 -0.173200 0.000000
v -0.695000 0.020000 0.237867
v -0.395000 0.060000 0.000000
v -0.695000 0.020000 -0.237867
v -0.995000 0.020000 0.000000
v -0.420000 -0.182400 0.144084
v -0.420000 0.240000 0.154008
v -0.420000 -0.182400 -0.144084
v -0.420000 0.240000 -0.154008
v 0.230000 -0.142400 0.083443
v 0.230000 0.280000 0.092568
v 0.230000 -0.142400 -0.083443
v 0.230000 0.280000 -0.092568
v -0.420000 -0.182400 0.000000
v -0.420000 0.020000 0.154008
v -0.420000 0.240000 0.000000
v -0.420000 0.020000 -0.154008
v -0.095000 -0.182400 -0.267243
v -0.095000 0.240000 -0.267600
v 0.230000 0.060000 -0.092568
v 0.230000 -0.142400 0.000000
v 0.230000 0.280000 0.000000
v 0.230000 0.060000 0.092568
v -0.095000 -0.182400 0.267243
v -0.095000 0.240000 0.267600
v -0.095000 0.240000 0.000000
v -0.095000 -0.182400 0.000000
v -0.095000 0.020000 0.267600
v 0.230000 0.060000 0.000000
v -0.095000 0.020000 -0.267600
v -0.420000 0.020000 0.000000
v 0.205000 -0.164000 0.112065
v 0.205000 0.220000 0.119784
v 0.205000 -0.164000 -0.112065
v 0.205000 0.220000 -0.119784
v 0.705000 -0.124000 0.064900
v 0.705000 0.260000 0.071997
v 0.705000 -0.124000 -0.064900
v 0.705000 0.260000 -0.071997
v 0.205000 -0.164000 0.000000
v 0.205000 0.020000 0.119784
v 0.205000 0.220000 0.000000
v 0.205000 0.020000 -0.119784
v 0.455000 -0.164000 -0.207856
v 0.455000 0.220000 -0.208133
v 0.705000 0.060000 -0.071997
v 0.705000 -0.124000 0.000000
v 0.705000 0.260000 0.000000
v 0.705000 0.060000 0.071997
v 0.455000 -0.164000 0.207856
v 0.455000 0.220000 0.208133
v 0.455000 0.220000 0.000000
v 0.455000 -0.164000 0.000000
v 0.455000 0.020000 0.208133
v 0.705000 0.060000 0.000000
v 0.455000 0.020000 -0.208133
v 0.205000 0.020000 0.000000
v -0.920000 -0.244400 0.070276
v -0.920000 -0.110000 0.075900
v -0.920000 -0.244400 -0.070276
v -0.920000 -0.110000 -0.075900
v 0.630000 -0.204400 0.038686
v 0.630000 -0.070000 0.043307
v 0.630000 -0.204400 -0.038686
v 0.630000 -0.070000 -0.043307
v -0.895000 0.217000 0.121922
v -0.895000 0.265000 0.128800
v -0.895000 0.217000 -0.121922
v -0.895000 0.265000 -0.128800
v 0.605000 0.257000 0.073965
v 0.605000 0.305000 0.081200
v 0.605000 0.257000 -0.073965
v 0.605000 0.305000 -0.081200
v -0.920000 0.037500 0.260000
v -0.920000 0.082500 0.260000
v -0.920000 0.037500 -0.260000
v -0.920000 0.082500 -0.260000
v 0.630000 0.037500 0.260000
v 0.630000 0.082500 0.260000
v 0.630000 0.037500 -0.260000
v 0.630000 0.082500 -0.260000
v -0.920000 0.320000 0.190000
v -0.920000 0.640000 0.190000
v -0.920000 0.320000 -0.190000
v -0.920000 0.640000 -0.190000
v -0.470000 0.320000 0.190000
v -0.470000 0.640000 0.190000
v -0.470000 0.320000 -0.190000
v -0.470000 0.640000 -0.190000
v 0.180000 0.300000 0.170000
v 0.180000 0.540000 0.170000
v 0.180000 0.300000 -0.170000
v 0.180000 0.540000 -0.170000
v 0.530000 0.300000 0.170000
v 0.530000 0.540000 0.170000
v 0.530000 0.300000 -0.170000
v 0.530000 0.540000 -0.170000
v -0.345000 0.325000 -0.038000
v -0.345000 1.575000 -0.038000
v -0.326000 0.325000 -0.032909
v -0.326000 1.575000 -0.032909
v -0.312091 0.325000 -0.019000
v -0.312091 1.575000 -0.019000
v -0.307000 0.325000 0.000000
v -0.307000 1.575000 0.000000
v -0.312091 0.325000 0.019000
v -0.312091 1.575000 0.019000
v -0.326000 0.325000 0.032909
v -0.326000 1.575000 0.032909
v -0.345000 0.325000 0.038000
v -0.345000 1.575000 0.038000
v -0.364000 0.325000 0.032909
v -0.364000 1.575000 0.032909
v -0.377909 0.325000 0.019000
v -0.377909 1.575000 0.019000
v -0.383000 0.325000 0.000000
v -0.383000 1.575000 0.000000
v -0.377909 0.325000 -0.019000
v -0.377909 1.575000 -0.019000
v -0.364000 0.325000 -0.032909
v -0.364000 1.575000 -0.032909
v -0.345000 1.166000 -0.425000
v -0.345000 1.166000 0.425000
v -0.333686 1.161314 -0.425000
v -0.333686 1.161314 0.425000
v -0.329000 1.150000 -0.425000
v -0.329000 1.150000 0.425000
v -0.333686 1.138686 -0.425000
v -0.333686 1.138686 0.425000
v -0.345000 1.134000 -0.425000
v -0.345000 1.134000 0.425000
v -0.356314 1.138686 -0.425000
v -0.356314 1.138686 0.425000
v -0.361000 1.150000 -0.425000
v -0.361000 1.150000 0.425000
v -0.356314 1.161314 -0.425000
v -0.356314 1.161314 0.425000
v -0.360000 0.525000 0.360000
v -0.360000 1.075000 0.360000
v -0.360000 0.525000 -0.360000
v -0.360000 1.075000 -0.360000
v -0.330000 0.525000 0.360000
v -0.330000 1.075000 0.360000
v -0.330000 0.525000 -0.360000
v -0.330000 1.075000 -0.360000
v 0.155000 0.325000 -0.038000
v 0.155000 1.575000 -0.038000
v 0.174000 0.325000 -0.032909
v 0.174000 1.575000 -0.032909
v 0.187909 0.325000 -0.019000
v 0.187909 1.575000 -0.019000
v 0.193000 0.325000 0.000000
v 0.193000 1.575000 0.000000
v 0.187909 0.325000 0.019000
v 0.187909 1.575000 0.019000
v 0.174000 0.325000 0.032909
v 0.174000 1.575000 0.032909
v 0.155000 0.325000 0.038000
v 0.155000 1.575000 0.038000
v 0.136000 0.325000 0.032909
v 0.136000 1.575000 0.032909
v 0.122091 0.325000 0.019000
v 0.122091 1.575000 0.019000
v 0.117000 0.325000 0.000000
v 0.117000 1.575000 0.000000
v 0.122091 0.325000 -0.019000
v 0.122091 1.575000 -0.019000
v 0.136000 0.325000 -0.032909
v 0.136000 1.575000 -0.032909
v 0.155000 1.166000 -0.425000
v 0.155000 1.166000 0.425000
v 0.166314 1.161314 -0.425000
v 0.166314 1.161314 0.425000
v 0.171000 1.150000 -0.425000
v 0.171000 1.150000 0.425000
v 0.166314 1.138686 -0.425000
v 0.166314 1.138686 0.425000
v 0.155000 1.134000 -0.425000
v 0.155000 1.134000 0.425000
v 0.143686 1.138686 -0.425000
v 0.143686 1.138686 0.425000
v 0.139000 1.150000 -0.425000
v 0.139000 1.150000 0.425000
v 0.143686 1.161314 -0.425000
v 0.143686 1.161314 0.425000
v 0.140000 0.525000 0.360000
v 0.140000 1.075000 0.360000
v 0.140000 0.525000 -0.360000
v 0.140000 1.075000 -0.360000
v 0.170000 0.525000 0.360000
v 0.170000 1.075000 0.360000
v 0.170000 0.525000 -0.360000
v 0.170000 1.075000 -0.360000
v 0.645000 0.100000 -0.140000
v 0.645000 0.017710 -0.113262
v 0.645000 -0.033148 -0.043262
v 0.645000 -0.033148 0.043262
v 0.645000 0.017710 0.113262
v 0.645000 0.100000 0.140000
v 0.645000 0.182290 0.113262
v 0.645000 0.233148 0.043262
v 0.645000 0.233148 -0.043262
v 0.645000 0.182290 -0.113262
v 0.965000 0.100000 0.000000
v 0.815000 -0.070000 0.040000
v 0.815000 0.030000 0.040000
v 0.815000 -0.070000 -0.040000
v 0.815000 0.030000 -0.040000
v 0.995000 -0.070000 0.040000
v 0.995000 0.030000 0.040000
v 0.995000 -0.070000 -0.040000
v 0.995000 0.030000 -0.040000
v 0.055000 0.115000 -0.300000
v 0.055000 0.115000 -0.260000
v 0.082500 0.107631 -0.300000
v 0.082500 0.107631 -0.260000
v 0.102631 0.087500 -0.300000
v 0.102631 0.087500 -0.260000
v 0.110000 0.060000 -0.300000
v 0.110000 0.060000 -0.260000
v 0.102631 0.032500 -0.300000
v 0.102631 0.032500 -0.260000
v 0.082500 0.012369 -0.300000
v 0.082500 0.012369 -0.260000
v 0.055000 0.005000 -0.300000
v 0.055000 0.005000 -0.260000
v 0.027500 0.012369 -0.300000
v 0.027500 0.012369 -0.260000
v 0.007369 0.032500 -0.300000
v 0.007369 0.032500 -0.260000
v 0.000000 0.060000 -0.300000
v 0.000000 0.060000 -0.260000
v 0.007369 0.087500 -0.300000
v 0.007369 0.087500 -0.260000
v 0.027500 0.107631 -0.300000
v 0.027500 0.107631 -0.260000
v 0.055000 0.088000 -0.315000
v 0.055000 0.088000 -0.245000
v 0.071458 0.082652 -0.315000
v 0.071458 0.082652 -0.245000
v 0.081630 0.068652 -0.315000
v 0.081630 0.068652 -0.245000
v 0.081630 0.051348 -0.315000
v 0.081630 0.051348 -0.245000
v 0.071458 0.037348 -0.315000
v 0.071458 0.037348 -0.245000
v 0.055000 0.032000 -0.315000
v 0.055000 0.032000 -0.245000
v 0.038542 0.037348 -0.315000
v 0.038542 0.037348 -0.245000
v 0.028370 0.051348 -0.315000
v 0.028370 0.051348 -0.245000
v 0.028370 0.068652 -0.315000
v 0.028370 0.068652 -0.245000
v 0.038542 0.082652 -0.315000
v 0.038542 0.082652 -0.245000
v 0.055000 0.115000 0.260000
v 0.055000 0.115000 0.300000
v 0.082500 0.107631 0.260000
v 0.082500 0.107631 0.300000
v 0.102631 0.087500 0.260000
v 0.102631 0.087500 0.300000
v 0.110000 0.060000 0.260000
v 0.110000 0.060000 0.300000
v 0.102631 0.032500 0.260000
v 0.102631 0.032500 0.300000
v 0.082500 0.012369 0.260000
v 0.082500 0.012369 0.300000
v 0.055000 0.005000 0.260000
v 0.055000 0.005000 0.300000
v 0.027500 0.012369 0.260000
v 0.027500 0.012369 0.300000
v 0.007369 0.032500 0.260000
v 0.007369 0.032500 0.300000
v 0.000000 0.060000 0.260000
v 0.000000 0.060000 0.300000
v 0.007369 0.087500 0.260000
v 0.007369 0.087500 0.300000
v 0.027500 0.107631 0.260000
v 0.027500 0.107631 0.300000
v 0.055000 0.088000 0.245000
v 0.055000 0.088000 0.315000
v 0.071458 0.082652 0.245000
v 0.071458 0.082652 0.315000
v 0.081630 0.068652 0.245000
v 0.081630 0.068652 0.315000
v 0.081630 0.051348 0.245000
v 0.081630 0.051348 0.315000
v 0.071458 0.037348 0.245000
v 0.071458 0.037348 0.315000
v 0.055000 0.032000 0.245000
v 0.055000 0.032000 0.315000
v 0.038542 0.037348 0.245000
v 0.038542 0.037348 0.315000
v 0.028370 0.051348 0.245000
v 0.028370 0.051348 0.315000
v 0.028370 0.068652 0.245000
v 0.028370 0.068652 0.315000
v 0.038542 0.082652 0.245000
v 0.038542 0.082652 0.315000
v -0.395000 0.115000 -0.300000
v -0.395000 0.115000 -0.260000
v -0.367500 0.107631 -0.300000
v -0.367500 0.107631 -0.260000
v -0.347369 0.087500 -0.300000
v -0.347369 0.087500 -0.260000
v -0.340000 0.060000 -0.300000
v -0.340000 0.060000 -0.260000
v -0.347369 0.032500 -0.300000
v -0.347369 0.032500 -0.260000
v -0.367500 0.012369 -0.300000
v -0.367500 0.012369 -0.260000
v -0.395000 0.005000 -0.300000
v -0.395000 0.005000 -0.260000
v -0.422500 0.012369 -0.300000
v -0.422500 0.012369 -0.260000
v -0.442631 0.032500 -0.300000
v -0.442631 0.032500 -0.260000
v -0.450000 0.060000 -0.300000
v -0.450000 0.060000 -0.260000
v -0.442631 0.087500 -0.300000
v -0.442631 0.087500 -0.260000
v -0.422500 0.107631 -0.300000
v -0.422500 0.107631 -0.260000
v -0.395000 0.088000 -0.315000
v -0.395000 0.088000 -0.245000
v -0.378542 0.082652 -0.315000
v -0.378542 0.082652 -0.245000
v -0.368370 0.068652 -0.315000
v -0.368370 0.068652 -0.245000
v -0.368370 0.051348 -0.315000
v -0.368370 0.051348 -0.245000
v -0.378542 0.037348 -0.315000
v -0.378542 0.037348 -0.245000
v -0.395000 0.032000 -0.315000
v -0.395000 0.032000 -0.245000
v -0.411458 0.037348 -0.315000
v -0.411458 0.037348 -0.245000
v -0.421630 0.051348 -0.315000
v -0.421630 0.051348 -0.245000
v -0.421630 0.068652 -0.315000
v -0.421630 0.068652 -0.245000
v -0.411458 0.082652 -0.315000
v -0.411458 0.082652 -0.245000
v -0.375000 1.520000 0.030000
v -0.375000 1.580000 0.030000
v -0.375000 1.520000 -0.030000
v -0.375000 1.580000 -0.030000
v -0.315000 1.520000 0.030000
v -0.315000 1.580000 0.030000
v -0.315000 1.520000 -0.030000
v -0.315000 1.580000 -0.030000
vn -1.0000 -0.0000 -0.0000
vn -0.7071 0.7071 -0.0000
vn -0.6519 0.5964 -0.4684
vn -0.8099 -0.0070 -0.5865
vn 0.0770 -0.0117 -0.9970
vn 0.0347 0.6150 -0.7878
vn 0.6338 0.6526 -0.4151
vn 0.8529 -0.0053 -0.5220
vn 1.0000 -0.0000 -0.0000
vn 0.6587 0.7524 -0.0000
vn 0.6338 0.6526 0.4151
vn 0.8529 -0.0053 0.5220
vn 0.0770 -0.0117 0.9970
vn 0.0347 0.6150 0.7878
vn -0.6519 0.5964 0.4684
vn -0.8099 -0.0070 0.5865
vn 0.0662 -0.9978 -0.0000
vn 0.7524 -0.6587 -0.0000
vn 0.7238 -0.5635 0.3983
vn 0.0846 -0.6453 0.7593
vn -0.0662 0.9978 -0.0000
vn -0.7071 -0.7071 -0.0000
vn -0.6571 -0.6030 0.4524
vn -0.6571 -0.6030 -0.4524
vn 0.0846 -0.6453 -0.7593
vn 0.7238 -0.5635 -0.3983
vn -0.6541 0.5971 -0.4643
vn -0.8131 -0.0074 -0.5821
vn 0.0789 -0.0125 -0.9968
vn 0.0388 0.6141 -0.7883
vn 0.6398 0.6505 -0.4094
vn 0.8568 -0.0056 -0.5156
vn 0.6625 0.7491 -0.0000
vn 0.6398 0.6505 0.4094
vn 0.8568 -0.0056 0.5156
vn 0.0789 -0.0125 0.9968
vn 0.0388 0.6141 0.7883
vn -0.6541 0.5971 0.4643
vn -0.8131 -0.0074 0.5821
vn 0.0612 -0.9981 -0.0000
vn 0.7491 -0.6625 -0.0000
vn 0.7235 -0.5685 0.3916
vn 0.0835 -0.6428 0.7614
vn -0.0612 0.9981 -0.0000
vn -0.6595 -0.6040 0.4474
vn -0.6595 -0.6040 -0.4474
vn 0.0835 -0.6428 -0.7614
vn 0.7235 -0.5685 -0.3916
vn -0.6548 0.5974 -0.4631
vn -0.8148 -0.0063 -0.5798
vn 0.0796 -0.0108 -0.9968
vn 0.0330 0.6094 -0.7922
vn 0.6274 0.6628 -0.4088
vn 0.8585 -0.0047 -0.5128
vn 0.6488 0.7609 -0.0000
vn 0.6274 0.6628 0.4088
vn 0.8585 -0.0047 0.5128
vn 0.0796 -0.0108 0.9968
vn 0.0330 0.6094 0.7922
vn -0.6548 0.5974 0.4631
vn -0.8148 -0.0063 0.5798
vn 0.0792 -0.9969 -0.0000
vn 0.7609 -0.6488 -0.0000
vn 0.7345 -0.5545 0.3912
vn 0.0909 -0.6433 0.7602
vn -0.0792 0.9969 -0.0000
vn -0.6595 -0.6038 0.4477
vn -0.6595 -0.6038 -0.4477
vn 0.0909 -0.6433 -0.7602
vn 0.7345 -0.5545 -0.3912
vn 0.0217 -0.0381 -0.9990
vn 0.0217 -0.0381 0.9990
vn 0.0258 -0.9997 -0.0000
vn -0.0258 0.9997 -0.0000
vn 0.0354 -0.1454 -0.9887
vn 0.0354 -0.1454 0.9887
vn 0.0267 -0.9996 -0.0000
vn -0.0267 0.9996 -0.0000
vn -0.0000 -0.0000 -1.0000
vn -0.0000 -0.0000 1.0000
vn -0.0000 -1.0000 -0.0000
vn -0.0000 1.0000 -0.0000
vn -0.0000 -0.6532 -0.7572
vn -0.0000 0.6532 -0.7572
vn 0.3786 0.6532 -0.6557
vn 0.3786 -0.6532 -0.6557
vn 0.6557 0.6532 -0.3786
vn 0.6557 -0.6532 -0.3786
vn 0.7572 0.6532 -0.0000
vn 0.7572 -0.6532 -0.0000
vn 0.6557 0.6532 0.3786
vn 0.6557 -0.6532 0.3786
vn 0.3786 0.6532 0.6557
vn 0.3786 -0.6532 0.6557
vn -0.0000 0.6532 0.7572
vn -0.0000 -0.6532 0.7572
vn -0.3786 0.6532 0.6557
vn -0.3786 -0.6532 0.6557
vn -0.6557 0.6532 0.3786
vn -0.6557 -0.6532 0.3786
vn -0.7572 0.6532 -0.0000
vn -0.7572 -0.6532 -0.0000
vn -0.6557 0.6532 -0.3786
vn -0.6557 -0.6532 -0.3786
vn -0.3786 0.6532 -0.6557
vn -0.3786 -0.6532 -0.6557
vn 0.3827 0.9239 -0.0000
vn 0.9239 0.3827 -0.0000
vn 0.9239 -0.3827 -0.0000
vn 0.3827 -0.9239 -0.0000
vn -0.3827 -0.9239 -0.0000
vn -0.9239 -0.3827 -0.0000
vn -0.9239 0.3827 -0.0000
vn -0.3827 0.9239 -0.0000
vn -0.4831 -0.0000 -0.8756
vn -0.4831 -0.5146 -0.7083
vn -0.4831 -0.8327 -0.2706
vn -0.4831 -0.8327 0.2706
vn -0.4831 -0.5146 0.7083
vn -0.4831 -0.0000 0.8756
vn -0.4831 0.5146 0.7083
vn -0.4831 0.8327 0.2706
vn -0.4831 0.8327 -0.2706
vn -0.4831 0.5146 -0.7083
vn -0.0000 0.7572 -0.6532
vn -0.0000 0.7572 0.6532
vn 0.3786 0.6557 0.6532
vn 0.3786 0.6557 -0.6532
vn 0.6557 0.3786 0.6532
vn 0.6557 0.3786 -0.6532
vn 0.7572 -0.0000 0.6532
vn 0.7572 -0.0000 -0.6532
vn 0.6557 -0.3786 0.6532
vn 0.6557 -0.3786 -0.6532
vn 0.3786 -0.6557 0.6532
vn 0.3786 -0.6557 -0.6532
vn -0.0000 -0.7572 0.6532
vn -0.0000 -0.7572 -0.6532
vn -0.3786 -0.6557 0.6532
vn -0.3786 -0.6557 -0.6532
vn -0.6557 -0.3786 0.6532
vn -0.6557 -0.3786 -0.6532
vn -0.7572 -0.0000 0.6532
vn -0.7572 -0.0000 -0.6532
vn -0.6557 0.3786 0.6532
vn -0.6557 0.3786 -0.6532
vn -0.3786 0.6557 0.6532
vn -0.3786 0.6557 -0.6532
vn 0.3090 0.9511 -0.0000
vn 0.8090 0.5878 -0.0000
vn 0.8090 -0.5878 -0.0000
vn 0.3090 -0.9511 -0.0000
vn -0.3090 -0.9511 -0.0000
vn -0.8090 -0.5878 -0.0000
vn -0.8090 0.5878 -0.0000
vn -0.3090 0.9511 -0.0000
vt 0.500000 0.125000
vt 0.625000 0.125000
vt 0.625000 0.250000
vt 0.500000 0.250000
vt 0.500000 0.375000
vt 0.625000 0.375000
vt 0.625000 0.500000
vt 0.500000 0.500000
vt 0.500000 0.625000
vt 0.625000 0.625000
vt 0.625000 0.750000
vt 0.500000 0.750000
vt 0.500000 0.875000
vt 0.625000 0.875000
vt 0.625000 1.000000
vt 0.500000 1.000000
vt 0.250000 0.625000
vt 0.375000 0.625000
vt 0.375000 0.750000
vt 0.250000 0.750000
vt 0.750000 0.625000
vt 0.875000 0.625000
vt 0.875000 0.750000
vt 0.750000 0.750000
vt 0.750000 0.500000
vt 0.875000 0.500000
vt 0.125000 0.625000
vt 0.125000 0.750000
vt 0.125000 0.500000
vt 0.250000 0.500000
vt 0.375000 0.500000
vt 0.375000 0.875000
vt 0.375000 1.000000
vt 0.375000 0.375000
vt 0.375000 0.250000
vt 0.375000 0.125000
vt 0.375000 0.000000
vt 0.500000 0.000000
vt 0.625000 0.000000
vt 1.000000 0.500000
vt 1.000000 1.000000
vt 0.916667 1.000000
vt 0.916667 0.500000
vt 0.833333 1.000000
vt 0.833333 0.500000
vt 0.750000 1.000000
vt 0.750000 0.500000
vt 0.666667 1.000000
vt 0.666667 0.500000
vt 0.583333 1.000000
vt 0.583333 0.500000
vt 0.500000 1.000000
vt 0.500000 0.500000
vt 0.416667 1.000000
vt 0.416667 0.500000
vt 0.333333 1.000000
vt 0.333333 0.500000
vt 0.250000 1.000000
vt 0.250000 0.500000
vt 0.166667 1.000000
vt 0.166667 0.500000
vt 0.370000 0.457846
vt 0.250000 0.490000
vt 0.130000 0.457846
vt 0.042154 0.370000
vt 0.010000 0.250000
vt 0.042154 0.130000
vt 0.130000 0.042154
vt 0.250000 0.010000
vt 0.370000 0.042154
vt 0.457846 0.130000
vt 0.490000 0.250000
vt 0.457846 0.370000
vt 0.083333 1.000000
vt 0.083333 0.500000
vt 0.000000 1.000000
vt 0.000000 0.500000
vt 0.750000 0.490000
vt 0.870000 0.457846
vt 0.957846 0.370000
vt 0.990000 0.250000
vt 0.957846 0.130000
vt 0.870000 0.042154
vt 0.750000 0.010000
vt 0.630000 0.042154
vt 0.542154 0.130000
vt 0.510000 0.250000
vt 0.542154 0.370000
vt 0.630000 0.457846
vt 0.875000 1.000000
vt 0.750000 1.000000
vt 0.250000 1.000000
vt 0.419706 0.419706
vt 0.080294 0.419706
vt 0.080294 0.080294
vt 0.419706 0.080294
vt 0.125000 1.000000
vt 0.000000 1.000000
vt 0.000000 0.500000
vt 0.919706 0.419706
vt 0.919706 0.080294
vt 0.580294 0.080294
vt 0.580294 0.419706
vt 0.250000 0.490000
vt 0.250000 0.250000
vt 0.391068 0.444164
vt 0.478254 0.324164
vt 0.478254 0.175836
vt 0.391068 0.055836
vt 0.250000 0.010000
vt 0.108932 0.055836
vt 0.021746 0.175836
vt 0.021746 0.324164
vt 0.750000 0.490000
vt 0.891068 0.444164
vt 0.978254 0.324164
vt 0.978254 0.175836
vt 0.891068 0.055836
vt 0.750000 0.010000
vt 0.608932 0.055836
vt 0.521746 0.175836
vt 0.521746 0.324164
vt 0.608932 0.444164
vt 0.108932 0.444164
vt 0.010000 0.250000
vt 0.250000 0.010000
vt 0.750000 0.010000
vt 0.900000 1.000000
vt 0.900000 0.500000
vt 0.800000 1.000000
vt 0.800000 0.500000
vt 0.700000 1.000000
vt 0.700000 0.500000
vt 0.600000 1.000000
vt 0.600000 0.500000
vt 0.500000 1.000000
vt 0.500000 0.500000
vt 0.400000 1.000000
vt 0.400000 0.500000
vt 0.300000 1.000000
vt 0.300000 0.500000
vt 0.200000 1.000000
vt 0.200000 0.500000
vt 0.391068 0.444164
vt 0.108932 0.444164
vt 0.021746 0.324164
vt 0.021746 0.175836
vt 0.108932 0.055836
vt 0.391068 0.055836
vt 0.478254 0.175836
vt 0.478254 0.324164
vt 0.100000 1.000000
vt 0.100000 0.500000
vt -0.000000 1.000000
vt -0.000000 0.500000
vt 0.891068 0.444164
vt 0.978254 0.324164
vt 0.978254 0.175836
vt 0.891068 0.055836
vt 0.608932 0.055836
vt 0.521746 0.175836
vt 0.521746 0.324164
vt 0.608932 0.444164
s 1
usemtl GhostHull
f 26/1/1 11/2/2 4/3/3 12/4/4
f 25/5/5 14/6/6 8/7/7 15/8/8
f 24/9/9 17/10/10 6/11/11 18/12/12
f 23/13/13 20/14/14 2/15/15 10/16/16
f 22/17/17 16/18/18 5/19/19 19/20/20
f 21/21/21 11/22/2 2/23/15 20/24/14
f 17/10/10 21/21/21 20/24/14 6/11/11
f 8/7/7 14/25/6 21/21/21 17/10/10
f 14/25/6 4/26/3 11/22/2 21/21/21
f 9/27/22 22/17/17 19/20/20 1/28/23
f 3/29/24 13/30/25 22/17/17 9/27/22
f 13/30/25 7/31/26 16/18/18 22/17/17
f 19/32/20 23/13/13 10/16/16 1/33/23
f 5/19/19 18/12/12 23/13/13 19/32/20
f 18/12/12 6/11/11 20/14/14 23/13/13
f 16/18/18 24/9/9 18/12/12 5/19/19
f 7/31/26 15/8/8 24/9/9 16/18/18
f 15/8/8 8/7/7 17/10/10 24/9/9
f 13/34/25 25/5/5 15/8/8 7/31/26
f 3/35/24 12/4/4 25/5/5 13/34/25
f 12/4/4 4/3/3 14/6/6 25/5/5
f 9/36/22 26/1/1 12/4/4 3/35/24
f 1/37/23 10/38/16 26/1/1 9/36/22
f 10/38/16 2/39/15 11/2/2 26/1/1
f 52/1/1 37/2/2 30/3/27 38/4/28
f 51/5/29 40/6/30 34/7/31 41/8/32
f 50/9/9 43/10/33 32/11/34 44/12/35
f 49/13/36 46/14/37 28/15/38 36/16/39
f 48/17/40 42/18/41 31/19/42 45/20/43
f 47/21/44 37/22/2 28/23/38 46/24/37
f 43/10/33 47/21/44 46/24/37 32/11/34
f 34/7/31 40/25/30 47/21/44 43/10/33
f 40/25/30 30/26/27 37/22/2 47/21/44
f 35/27/22 48/17/40 45/20/43 27/28/45
f 29/29/46 39/30/47 48/17/40 35/27/22
f 39/30/47 33/31/48 42/18/41 48/17/40
f 45/32/43 49/13/36 36/16/39 27/33/45
f 31/19/42 44/12/35 49/13/36 45/32/43
f 44/12/35 32/11/34 46/14/37 49/13/36
f 42/18/41 50/9/9 44/12/35 31/19/42
f 33/31/48 41/8/32 50/9/9 42/18/41
f 41/8/32 34/7/31 43/10/33 50/9/9
f 39/34/47 51/5/29 41/8/32 33/31/48
f 29/35/46 38/4/28 51/5/29 39/34/47
f 38/4/28 30/3/27 40/6/30 51/5/29
f 35/36/22 52/1/1 38/4/28 29/35/46
f 27/37/45 36/38/39 52/1/1 35/36/22
f 36/38/39 28/39/38 37/2/2 52/1/1
f 78/1/1 63/2/2 56/3/49 64/4/50
f 77/5/51 66/6/52 60/7/53 67/8/54
f 76/9/9 69/10/55 58/11/56 70/12/57
f 75/13/58 72/14/59 54/15/60 62/16/61
f 74/17/62 68/18/63 57/19/64 71/20/65
f 73/21/66 63/22/2 54/23/60 72/24/59
f 69/10/55 73/21/66 72/24/59 58/11/56
f 60/7/53 66/25/52 73/21/66 69/10/55
f 66/25/52 56/26/49 63/22/2 73/21/66
f 61/27/22 74/17/62 71/20/65 53/28/67
f 55/29/68 65/30/69 74/17/62 61/27/22
f 65/30/69 59/31/70 68/18/63 74/17/62
f 71/32/65 75/13/58 62/16/61 53/33/67
f 57/19/64 70/12/57 75/13/58 71/32/65
f 70/12/57 58/11/56 72/14/59 75/13/58
f 68/18/63 76/9/9 70/12/57 57/19/64
f 59/31/70 67/8/54 76/9/9 68/18/63
f 67/8/54 60/7/53 69/10/55 76/9/9
f 65/34/69 77/5/51 67/8/54 59/31/70
f 55/35/68 64/4/50 77/5/51 65/34/69
f 64/4/50 56/3/49 66/6/52 77/5/51
f 61/36/22 78/1/1 64/4/50 55/35/68
f 53/37/67 62/38/61 78/1/1 61/36/22
f 62/38/61 54/39/60 63/2/2 78/1/1
f 215/104/115 225/105/9 216/106/116
f 216/106/116 225/105/9 217/107/117
f 217/107/117 225/105/9 218/108/118
f 218/108/118 225/105/9 219/109/119
f 219/109/119 225/105/9 220/110/120
f 220/110/120 225/105/9 221/111/121
f 221/111/121 225/105/9 222/112/122
f 222/112/122 225/105/9 223/113/123
f 215/114/115 216/115/116 217/116/117 218/117/118 219/118/119 220/119/120 221/120/121 222/121/122 223/122/123 224/123/124
f 223/113/123 225/105/9 224/124/124
f 224/124/124 225/105/9 215/104/115
s 0
usemtl GhostDark
f 79/37/1 80/39/1 82/3/1 81/35/1
f 81/35/71 82/3/71 86/7/71 85/31/71
f 85/31/9 86/7/9 84/11/9 83/19/9
f 83/19/72 84/11/72 80/15/72 79/33/72
f 81/29/73 85/31/73 83/19/73 79/28/73
f 86/7/74 82/26/74 80/23/74 84/11/74
s 1
f 119/40/83 120/41/84 122/42/85 121/43/86
f 121/43/86 122/42/85 124/44/87 123/45/88
f 123/45/88 124/44/87 126/46/89 125/47/90
f 125/47/90 126/46/89 128/48/91 127/49/92
f 127/49/92 128/48/91 130/50/93 129/51/94
f 129/51/94 130/50/93 132/52/95 131/53/96
f 131/53/96 132/52/95 134/54/97 133/55/98
f 133/55/98 134/54/97 136/56/99 135/57/100
f 135/57/100 136/56/99 138/58/101 137/59/102
f 137/59/102 138/58/101 140/60/103 139/61/104
f 122/62/85 120/63/84 142/64/105 140/65/103 138/66/101 136/67/99 134/68/97 132/69/95 130/70/93 128/71/91 126/72/89 124/73/87
f 139/61/104 140/60/103 142/74/105 141/75/106
f 141/75/106 142/74/105 120/76/84 119/77/83
f 119/78/83 121/79/86 123/80/88 125/81/90 127/82/92 129/83/94 131/84/96 133/85/98 135/86/100 137/87/102 139/88/104 141/89/106
f 167/40/83 168/41/84 170/42/85 169/43/86
f 169/43/86 170/42/85 172/44/87 171/45/88
f 171/45/88 172/44/87 174/46/89 173/47/90
f 173/47/90 174/46/89 176/48/91 175/49/92
f 175/49/92 176/48/91 178/50/93 177/51/94
f 177/51/94 178/50/93 180/52/95 179/53/96
f 179/53/96 180/52/95 182/54/97 181/55/98
f 181/55/98 182/54/97 184/56/99 183/57/100
f 183/57/100 184/56/99 186/58/101 185/59/102
f 185/59/102 186/58/101 188/60/103 187/61/104
f 170/62/85 168/63/84 190/64/105 188/65/103 186/66/101 184/67/99 182/68/97 180/69/95 178/70/93 176/71/91 174/72/89 172/73/87
f 187/61/104 188/60/103 190/74/105 189/75/106
f 189/75/106 190/74/105 168/76/84 167/77/83
f 167/78/83 169/79/86 171/80/88 173/81/90 175/82/92 177/83/94 179/84/96 181/85/98 183/86/100 185/87/102 187/88/104 189/89/106
s 0
usemtl GhostDeck
f 87/37/1 88/39/1 90/3/1 89/35/1
f 89/35/75 90/3/75 94/7/75 93/31/75
f 93/31/9 94/7/9 92/11/9 91/19/9
f 91/19/76 92/11/76 88/15/76 87/33/76
f 89/29/77 93/31/77 91/19/77 87/28/77
f 94/7/78 90/26/78 88/23/78 92/11/78
usemtl CyanGlow
f 95/37/1 96/39/1 98/3/1 97/35/1
f 97/35/79 98/3/79 102/7/79 101/31/79
f 101/31/9 102/7/9 100/11/9 99/19/9
f 99/19/80 100/11/80 96/15/80 95/33/80
f 97/29/81 101/31/81 99/19/81 95/28/81
f 102/7/82 98/26/82 96/23/82 100/11/82
usemtl GhostWood
f 103/37/1 104/39/1 106/3/1 105/35/1
f 105/35/79 106/3/79 110/7/79 109/31/79
f 109/31/9 110/7/9 108/11/9 107/19/9
f 107/19/80 108/11/80 104/15/80 103/33/80
f 105/29/81 109/31/81 107/19/81 103/28/81
f 110/7/82 106/26/82 104/23/82 108/11/82
f 111/37/1 112/39/1 114/3/1 113/35/1
f 113/35/79 114/3/79 118/7/79 117/31/79
f 117/31/9 118/7/9 116/11/9 115/19/9
f 115/19/80 116/11/80 112/15/80 111/33/80
f 113/29/81 117/31/81 115/19/81 111/28/81
f 118/7/82 114/26/82 112/23/82 116/11/82
usemtl RopeGhost
f 143/40/107 144/41/107 146/90/107 145/26/107
f 145/26/108 146/90/108 148/91/108 147/25/108
f 147/25/109 148/91/109 150/15/109 149/7/109
f 149/7/110 150/15/110 152/16/110 151/8/110
f 151/8/111 152/16/111 154/33/111 153/31/111
f 153/31/112 154/33/112 156/92/112 155/30/112
f 146/93/80 144/63/80 158/94/80 156/66/80 154/95/80 152/69/80 150/96/80 148/72/80
f 155/30/113 156/92/113 158/97/113 157/29/113
f 157/29/114 158/97/114 144/98/114 143/99/114
f 143/78/79 145/100/79 147/81/79 149/101/79 151/84/79 153/102/79 155/87/79 157/103/79
f 191/40/107 192/41/107 194/90/107 193/26/107
f 193/26/108 194/90/108 196/91/108 195/25/108
f 195/25/109 196/91/109 198/15/109 197/7/109
f 197/7/110 198/15/110 200/16/110 199/8/110
f 199/8/111 200/16/111 202/33/111 201/31/111
f 201/31/112 202/33/112 204/92/112 203/30/112
f 194/93/80 192/63/80 206/94/80 204/66/80 202/95/80 200/69/80 198/96/80 196/72/80
f 203/30/113 204/92/113 206/97/113 205/29/113
f 205/29/114 206/97/114 192/98/114 191/99/114
f 191/78/79 193/100/79 195/81/79 197/101/79 199/84/79 201/102/79 203/87/79 205/103/79
usemtl GhostSail
f 159/37/1 160/39/1 162/3/1 161/35/1
f 161/35/79 162/3/79 166/7/79 165/31/79
f 165/31/9 166/7/9 164/11/9 163/19/9
f 163/19/80 164/11/80 160/15/80 159/33/80
f 161/29/81 165/31/81 163/19/81 159/28/81
f 166/7/82 162/26/82 160/23/82 164/11/82
f 207/37/1 208/39/1 210/3/1 209/35/1
f 209/35/79 210/3/79 214/7/79 213/31/79
f 213/31/9 214/7/9 212/11/9 211/19/9
f 211/19/80 212/11/80 208/15/80 207/33/80
f 209/29/81 213/31/81 211/19/81 207/28/81
f 214/7/82 210/26/82 208/23/82 212/11/82
usemtl GhostMetal
f 226/37/1 227/39/1 229/3/1 228/35/1
f 228/35/79 229/3/79 233/7/79 232/31/79
f 232/31/9 233/7/9 231/11/9 230/19/9
f 230/19/80 231/11/80 227/15/80 226/33/80
f 228/29/81 232/31/81 230/19/81 226/28/81
f 233/7/82 229/26/82 227/23/82 231/11/82
s 1
f 234/40/125 235/41/126 237/42/127 236/43/128
f 236/43/128 237/42/127 239/44/129 238/45/130
f 238/45/130 239/44/129 241/46/131 240/47/132
f 240/47/132 241/46/131 243/48/133 242/49/134
f 242/49/134 243/48/133 245/50/135 244/51/136
f 244/51/136 245/50/135 247/52/137 246/53/138
f 246/53/138 247/52/137 249/54/139 248/55/140
f 248/55/140 249/54/139 251/56/141 250/57/142
f 250/57/142 251/56/141 253/58/143 252/59/144
f 252/59/144 253/58/143 255/60/145 254/61/146
f 237/62/127 235/63/126 257/64/147 255/65/145 253/125/143 251/67/141 249/68/139 247/126/137 245/70/135 243/71/133 241/72/131 239/73/129
f 254/61/146 255/60/145 257/74/147 256/75/148
f 256/75/148 257/74/147 235/76/126 234/77/125
f 234/78/125 236/79/128 238/80/130 240/81/132 242/82/134 244/83/136 246/127/138 248/85/140 250/86/142 252/87/144 254/88/146 256/89/148
f 278/40/125 279/41/126 281/42/127 280/43/128
f 280/43/128 281/42/127 283/44/129 282/45/130
f 282/45/130 283/44/129 285/46/131 284/47/132
f 284/47/132 285/46/131 287/48/133 286/49/134
f 286/49/134 287/48/133 289/50/135 288/51/136
f 288/51/136 289/50/135 291/52/137 290/53/138
f 290/53/138 291/52/137 293/54/139 292/55/140
f 292/55/140 293/54/139 295/56/141 294/57/142
f 294/57/142 295/56/141 297/58/143 296/59/144
f 296/59/144 297/58/143 299/60/145 298/61/146
f 281/62/127 279/63/126 301/64/147 299/65/145 297/125/143 295/67/141 293/68/139 291/126/137 289/70/135 287/71/133 285/72/131 283/73/129
f 298/61/146 299/60/145 301/74/147 300/75/148
f 300/75/148 301/74/147 279/76/126 278/77/125
f 278/78/125 280/79/128 282/80/130 284/81/132 286/82/134 288/83/136 290/127/138 292/85/140 294/86/142 296/87/144 298/88/146 300/89/148
f 322/40/125 323/41/126 325/42/127 324/43/128
f 324/43/128 325/42/127 327/44/129 326/45/130
f 326/45/130 327/44/129 329/46/131 328/47/132
f 328/47/132 329/46/131 331/48/133 330/49/134
f 330/49/134 331/48/133 333/50/135 332/51/136
f 332/51/136 333/50/135 335/52/137 334/53/138
f 334/53/138 335/52/137 337/54/139 336/55/140
f 336/55/140 337/54/139 339/56/141 338/57/142
f 338/57/142 339/56/141 341/58/143 340/59/144
f 340/59/144 341/58/143 343/60/145 342/61/146
f 325/62/127 323/63/126 345/64/147 343/65/145 341/125/143 339/67/141 337/68/139 335/126/137 333/70/135 331/71/133 329/72/131 327/73/129
f 342/61/146 343/60/145 345/74/147 344/75/148
f 344/75/148 345/74/147 323/76/126 322/77/125
f 322/78/125 324/79/128 326/80/130 328/81/132 330/82/134 332/83/136 334/127/138 336/85/140 338/86/142 340/87/144 342/88/146 344/89/148
s 0
usemtl Blackish
f 258/40/149 259/41/149 261/128/149 260/129/149
f 260/129/150 261/128/150 263/130/150 262/131/150
f 262/131/9 263/130/9 265/132/9 264/133/9
f 264/133/151 265/132/151 267/134/151 266/135/151
f 266/135/152 267/134/152 269/136/152 268/137/152
f 268/137/153 269/136/153 271/138/153 270/139/153
f 270/139/154 271/138/154 273/140/154 272/141/154
f 272/141/1 273/140/1 275/142/1 274/143/1
f 261/144/80 259/63/80 277/145/80 275/146/80 273/147/80 271/148/80 269/69/80 267/149/80 265/150/80 263/151/80
f 274/143/155 275/142/155 277/152/155 276/153/155
f 276/153/156 277/152/156 259/154/156 258/155/156
f 258/78/79 260/156/79 262/157/79 264/158/79 266/159/79 268/84/79 270/160/79 272/161/79 274/162/79 276/163/79
f 302/40/149 303/41/149 305/128/149 304/129/149
f 304/129/150 305/128/150 307/130/150 306/131/150
f 306/131/9 307/130/9 309/132/9 308/133/9
f 308/133/151 309/132/151 311/134/151 310/135/151
f 310/135/152 311/134/152 313/136/152 312/137/152
f 312/137/153 313/136/153 315/138/153 314/139/153
f 314/139/154 315/138/154 317/140/154 316/141/154
f 316/141/1 317/140/1 319/142/1 318/143/1
f 305/144/80 303/63/80 321/145/80 319/146/80 317/147/80 315/148/80 313/69/80 311/149/80 309/150/80 307/151/80
f 318/143/155 319/142/155 321/152/155 320/153/155
f 320/153/156 321/152/156 303/154/156 302/155/156
f 302/78/79 304/156/79 306/157/79 308/158/79 310/159/79 312/84/79 314/160/79 316/161/79 318/162/79 320/163/79
f 346/40/149 347/41/149 349/128/149 348/129/149
f 348/129/150 349/128/150 351/130/150 350/131/150
f 350/131/9 351/130/9 353/132/9 352/133/9
f 352/133/151 353/132/151 355/134/151 354/135/151
f 354/135/152 355/134/152 357/136/152 356/137/152
f 356/137/153 357/136/153 359/138/153 358/139/153
f 358/139/154 359/138/154 361/140/154 360/141/154
f 360/141/1 361/140/1 363/142/1 362/143/1
f 349/144/80 347/63/80 365/145/80 363/146/80 361/147/80 359/148/80 357/69/80 355/149/80 353/150/80 351/151/80
f 362/143/155 363/142/155 365/152/155 364/153/155
f 364/153/156 365/152/156 347/154/156 346/155/156
f 346/78/79 348/156/79 350/157/79 352/158/79 354/159/79 356/84/79 358/160/79 360/161/79 362/162/79 364/163/79
usemtl PaleGlow
f 366/37/1 367/39/1 369/3/1 368/35/1
f 368/35/79 369/3/79 373/7/79 372/31/79
f 372/31/9 373/7/9 371/11/9 370/19/9
f 370/19/80 371/11/80 367/15/80 366/33/80
f 368/29/81 372/31/81 370/19/81 366/28/81
f 373/7/82 369/26/82 367/23/82 371/11/82
