# Blender 4.3.2
# www.blender.org
mtllib Phantom_Sailboat.mtl
o Phantom_Sailboat
v -0.682500 -0.156400 0.094291
v -0.682500 0.170000 0.101384
v -0.682500 -0.156400 -0.094291
v -0.682500 0.170000 -0.101384
v -0.182500 -0.116400 0.052223
v -0.182500 0.210000 0.058284
v -0.182500 -0.116400 -0.052223
v -0.182500 0.210000 -0.058284
v -0.682500 -0.156400 0.000000
v -0.682500 0.000000 0.101384
v -0.682500 0.170000 0.000000
v -0.682500 0.000000 -0.101384
v -0.432500 -0.156400 -0.188060
v -0.432500 0.170000 -0.188311
v -0.182500 0.040000 -0.058284
v -0.182500 -0.116400 0.000000
v -0.182500 0.210000 0.000000
v -0.182500 0.040000 0.058284
v -0.432500 -0.156400 0.188060
v -0.432500 0.170000 0.188311
v -0.432500 0.170000 0.000000
v -0.432500 -0.156400 0.000000
v -0.432500 0.000000 0.188311
v -0.182500 0.040000 0.000000
v -0.432500 0.000000 -0.188311
v -0.682500 0.000000 0.000000
v -0.232500 -0.165600 0.104217
v -0.232500 0.180000 0.112056
v -0.232500 -0.165600 -0.104217
v -0.232500 0.180000 -0.112056
v 0.267500 -0.125600 0.057720
v 0.267500 0.220000 0.064419
v 0.267500 -0.125600 -0.057720
v 0.267500 0.220000 -0.064419
v -0.232500 -0.165600 0.000000
v -0.232500 0.000000 0.112056
v -0.232500 0.180000 0.000000
v -0.232500 0.000000 -0.112056
v 0.017500 -0.165600 -0.207856
v 0.017500 0.180000 -0.208133
v 0.267500 0.040000 -0.064419
v 0.267500 -0.125600 0.000000
v 0.267500 0.220000 0.000000
v 0.267500 0.040000 0.064419
v 0.017500 -0.165600 0.207856
v 0.017500 0.180000 0.208133
v 0.017500 0.180000 0.000000
v 0.017500 -0.165600 0.000000
v 0.017500 0.000000 0.208133
v 0.267500 0.040000 0.000000
v 0.017500 0.000000 -0.208133
v -0.232500 0.000000 0.000000
v 0.217500 -0.156400 0.084366
v 0.217500 0.170000 0.090712
v 0.217500 -0.156400 -0.084366
v 0.217500 0.170000 -0.090712
v 0.617500 -0.116400 0.046726
v 0.617500 0.210000 0.052148
v 0.617500 -0.116400 -0.046726
v 0.617500 0.210000 -0.052148
v 0.217500 -0.156400 0.000000
v 0.217500 0.000000 0.090712
v 0.217500 0.170000 0.000000
v 0.217500 0.000000 -0.090712
v 0.417500 -0.156400 -0.168264
v 0.417500 0.170000 -0.168489
v 0.617500 0.040000 -0.052148
v 0.617500 -0.116400 0.000000
v 0.617500 0.210000 0.000000
v 0.617500 0.040000 0.052148
v 0.417500 -0.156400 0.168264
v 0.417500 0.170000 0.168489
v 0.417500 0.170000 0.000000
v 0.417500 -0.156400 0.000000
v 0.417500 0.000000 0.168489
v 0.617500 0.040000 0.000000
v 0.417500 0.000000 -0.168489
v 0.217500 0.000000 0.000000
v -0.632500 -0.195200 0.052916
v -0.632500 -0.080000 0.057408
v -0.632500 -0.195200 -0.052916
v -0.632500 -0.080000 -0.057408
v 0.567500 -0.155200 0.028927
v 0.567500 -0.040000 0.032480
v 0.567500 -0.155200 -0.028927
v 0.567500 -0.040000 -0.032480
v -0.607500 0.161600 0.094475
v -0.607500 0.200000 0.100096
v -0.607500 0.161600 -0.094475
v -0.607500 0.200000 -0.100096
v 0.542500 0.201600 0.054981
v 0.542500 0.240000 0.060629
v 0.542500 0.201600 -0.054981
v 0.542500 0.240000 -0.060629
v -0.642500 0.030000 0.210000
v -0.642500 0.070000 0.210000
v -0.642500 0.030000 -0.210000
v -0.642500 0.070000 -0.210000
v 0.577500 0.030000 0.210000
v 0.577500 0.070000 0.210000
v 0.577500 0.030000 -0.210000
v 0.577500 0.070000 -0.210000
v -0.422500 0.230000 0.140000
v -0.422500 0.490000 0.140000
v -0.422500 0.230000 -0.140000
v -0.422500 0.490000 -0.140000
v -0.042500 0.230000 0.140000
v -0.042500 0.490000 0.140000
v -0.042500 0.230000 -0.140000
v -0.042500 0.490000 -0.140000
v -0.442500 0.480000 0.160000
v -0.442500 0.520000 0.160000
v -0.442500 0.480000 -0.160000
v -0.442500 0.520000 -0.160000
v -0.022500 0.480000 0.160000
v -0.022500 0.520000 0.160000
v -0.022500 0.480000 -0.160000
v -0.022500 0.520000 -0.160000
v 0.087500 0.230000 -0.035000
v 0.087500 1.330000 -0.035000
v 0.105000 0.230000 -0.030311
v 0.105000 1.330000 -0.030311
v 0.117811 0.230000 -0.017500
v 0.117811 1.330000 -0.017500
v 0.122500 0.230000 0.000000
v 0.122500 1.330000 0.000000
v 0.117811 0.230000 0.017500
v 0.117811 1.330000 0.017500
v 0.105000 0.230000 0.030311
v 0.105000 1.330000 0.030311
v 0.087500 0.230000 0.035000
v 0.087500 1.330000 0.035000
v 0.070000 0.230000 0.030311
v 0.070000 1.330000 0.030311
v 0.057189 0.230000 0.017500
v 0.057189 1.330000 0.017500
v 0.052500 0.230000 0.000000
v 0.052500 1.330000 0.000000
v 0.057189 0.230000 -0.017500
v 0.057189 1.330000 -0.017500
v 0.070000 0.230000 -0.030311
v 0.070000 1.330000 -0.030311
v 0.087500 0.968000 -0.400000
v 0.087500 0.968000 0.400000
v 0.100228 0.962728 -0.400000
v 0.100228 0.962728 0.400000
v 0.105500 0.950000 -0.400000
v 0.105500 0.950000 0.400000
v 0.100228 0.937272 -0.400000
v 0.100228 0.937272 0.400000
v 0.087500 0.932000 -0.400000
v 0.087500 0.932000 0.400000
v 0.074772 0.937272 -0.400000
v 0.074772 0.937272 0.400000
v 0.069500 0.950000 -0.400000
v 0.069500 0.950000 0.400000
v 0.074772 0.962728 -0.400000
v 0.074772 0.962728 0.400000
v 0.070000 0.350000 0.340000
v 0.070000 0.950000 0.340000
v 0.070000 0.350000 -0.340000
v 0.070000 0.950000 -0.340000
v 0.105000 0.350000 0.340000
v 0.105000 0.950000 0.340000
v 0.105000 0.350000 -0.340000
v 0.105000 0.950000 -0.340000
v 0.100000 0.630000 0.350000
v 0.100000 0.670000 0.350000
v 0.100000 0.630000 -0.350000
v 0.100000 0.670000 -0.350000
v 0.115000 0.630000 0.350000
v 0.115000 0.670000 0.350000
v 0.115000 0.630000 -0.350000
v 0.115000 0.670000 -0.350000
v 0.547500 0.080000 -0.120000
v 0.547500 0.009466 -0.097082
v 0.547500 -0.034127 -0.037082
v 0.547500 -0.034127 0.037082
v 0.547500 0.009466 0.097082
v 0.547500 0.080000 0.120000
v 0.547500 0.150534 0.097082
v 0.547500 0.194127 0.037082
v 0.547500 0.194127 -0.037082
v 0.547500 0.150534 -0.097082
v 0.827500 0.080000 0.000000
v -0.752500 -0.040000 0.150000
v -0.752500 0.240000 0.150000
v -0.752500 -0.040000 -0.150000
v -0.752500 0.240000 -0.150000
v -0.672500 -0.040000 0.150000
v -0.672500 0.240000 0.150000
v -0.672500 -0.040000 -0.150000
v -0.672500 0.240000 -0.150000
v -0.827500 -0.130000 0.017500
v -0.827500 0.090000 0.017500
v -0.827500 -0.130000 -0.017500
v -0.827500 0.090000 -0.017500
v -0.757500 -0.130000 0.017500
v -0.757500 0.090000 0.017500
v -0.757500 -0.130000 -0.017500
v -0.757500 0.090000 -0.017500
v 0.087500 0.090000 -0.237500
v 0.087500 0.090000 -0.202500
v 0.112500 0.083301 -0.237500
v 0.112500 0.083301 -0.202500
v 0.130801 0.065000 -0.237500
v 0.130801 0.065000 -0.202500
v 0.137500 0.040000 -0.237500
v 0.137500 0.040000 -0.202500
v 0.130801 0.015000 -0.237500
v 0.130801 0.015000 -0.202500
v 0.112500 -0.003301 -0.237500
v 0.112500 -0.003301 -0.202500
v 0.087500 -0.010000 -0.237500
v 0.087500 -0.010000 -0.202500
v 0.062500 -0.003301 -0.237500
v 0.062500 -0.003301 -0.202500
v 0.044199 0.015000 -0.237500
v 0.044199 0.015000 -0.202500
v 0.037500 0.040000 -0.237500
v 0.037500 0.040000 -0.202500
v 0.044199 0.065000 -0.237500
v 0.044199 0.065000 -0.202500
v 0.062500 0.083301 -0.237500
v 0.062500 0.083301 -0.202500
v 0.062500 1.325000 0.025000
v 0.062500 1.375000 0.025000
v 0.062500 1.325000 -0.025000
v 0.062500 1.375000 -0.025000
v 0.112500 1.325000 0.025000
v 0.112500 1.375000 0.025000
v 0.112500 1.325000 -0.025000
v 0.112500 1.375000 -0.025000
vn -1.0000 -0.0000 -0.0000
vn -0.7071 0.7071 -0.0000
vn -0.6538 0.5970 -0.4649
vn -0.8128 -0.0069 -0.5825
vn 0.0725 -0.0113 -0.9973
vn 0.0266 0.6110 -0.7912
vn 0.6246 0.6613 -0.4154
vn 0.8534 -0.0048 -0.5213
vn 1.0000 -0.0000 -0.0000
vn 0.6488 0.7609 -0.0000
vn 0.6246 0.6613 0.4154
vn 0.8534 -0.0048 0.5213
vn 0.0725 -0.0113 0.9973
vn 0.0266 0.6110 0.7912
vn -0.6538 0.5970 0.4649
vn -0.8128 -0.0069 0.5825
vn 0.0792 -0.9969 -0.0000
vn 0.7609 -0.6488 -0.0000
vn 0.7313 -0.5531 0.3991
vn 0.0863 -0.6465 0.7580
vn -0.0792 0.9969 -0.0000
vn -0.7071 -0.7071 -0.0000
vn -0.6589 -0.6034 0.4492
vn -0.6589 -0.6034 -0.4492
vn 0.0863 -0.6465 -0.7580
vn 0.7313 -0.5531 -0.3991
vn -0.6599 0.5991 -0.4534
vn -0.8221 -0.0070 -0.5692
vn 0.0773 -0.0118 -0.9969
vn 0.0328 0.6056 -0.7951
vn 0.6306 0.6647 -0.4007
vn 0.8642 -0.0049 -0.5032
vn 0.6306 0.6647 0.4007
vn 0.8642 -0.0049 0.5032
vn 0.0773 -0.0118 0.9969
vn 0.0328 0.6056 0.7951
vn -0.6599 0.5991 0.4534
vn -0.8221 -0.0070 0.5692
vn 0.7381 -0.5559 0.3823
vn 0.0881 -0.6405 0.7629
vn -0.6649 -0.6059 0.4369
vn -0.6649 -0.6059 -0.4369
vn 0.0881 -0.6405 -0.7629
vn 0.7381 -0.5559 -0.3823
vn -0.6607 0.5994 -0.4519
vn -0.8239 -0.0060 -0.5668
vn 0.0780 -0.0102 -0.9969
vn 0.0270 0.6006 -0.7991
vn 0.6169 0.6777 -0.4002
vn 0.8658 -0.0040 -0.5003
vn 0.6340 0.7733 -0.0000
vn 0.6169 0.6777 0.4002
vn 0.8658 -0.0040 0.5003
vn 0.0780 -0.0102 0.9969
vn 0.0270 0.6006 0.7991
vn -0.6607 0.5994 0.4519
vn -0.8239 -0.0060 0.5668
vn 0.0985 -0.9951 -0.0000
vn 0.7733 -0.6340 -0.0000
vn 0.7497 -0.5408 0.3816
vn 0.0956 -0.6411 0.7615
vn -0.0985 0.9951 -0.0000
vn -0.6650 -0.6057 0.4369
vn -0.6650 -0.6057 -0.4369
vn 0.0956 -0.6411 -0.7615
vn 0.7497 -0.5408 -0.3816
vn 0.0215 -0.0349 -0.9992
vn 0.0215 -0.0349 0.9992
vn 0.0333 -0.9994 -0.0000
vn -0.0333 0.9994 -0.0000
vn 0.0390 -0.1451 -0.9887
vn 0.0390 -0.1451 0.9887
vn 0.0348 -0.9994 -0.0000
vn -0.0348 0.9994 -0.0000
vn -0.0000 -0.0000 -1.0000
vn -0.0000 -0.0000 1.0000
vn -0.0000 -1.0000 -0.0000
vn -0.0000 1.0000 -0.0000
vn -0.0000 -0.6532 -0.7572
vn -0.0000 0.6532 -0.7572
vn 0.3786 0.6532 -0.6557
vn 0.3786 -0.6532 -0.6557
vn 0.6557 0.6532 -0.3786
vn 0.6557 -0.6532 -0.3786
vn 0.7572 0.6532 -0.0000
vn 0.7572 -0.6532 -0.0000
vn 0.6557 0.6532 0.3786
vn 0.6557 -0.6532 0.3786
vn 0.3786 0.6532 0.6557
vn 0.3786 -0.6532 0.6557
vn -0.0000 0.6532 0.7572
vn -0.0000 -0.6532 0.7572
vn -0.3786 0.6532 0.6557
vn -0.3786 -0.6532 0.6557
vn -0.6557 0.6532 0.3786
vn -0.6557 -0.6532 0.3786
vn -0.7572 0.6532 -0.0000
vn -0.7572 -0.6532 -0.0000
vn -0.6557 0.6532 -0.3786
vn -0.6557 -0.6532 -0.3786
vn -0.3786 0.6532 -0.6557
vn -0.3786 -0.6532 -0.6557
vn 0.3827 0.9239 -0.0000
vn 0.9239 0.3827 -0.0000
vn 0.9239 -0.3827 -0.0000
vn 0.3827 -0.9239 -0.0000
vn -0.3827 -0.9239 -0.0000
vn -0.9239 -0.3827 -0.0000
vn -0.9239 0.3827 -0.0000
vn -0.3827 0.9239 -0.0000
vn -0.5774 -0.5774 0.5774
vn -0.5774 0.5774 0.5774
vn -0.5774 0.5774 -0.5774
vn -0.5774 -0.5774 -0.5774
vn 0.5774 0.5774 -0.5774
vn 0.5774 -0.5774 -0.5774
vn 0.5774 0.5774 0.5774
vn 0.5774 -0.5774 0.5774
vn -0.4861 -0.0000 -0.8739
vn -0.4861 -0.5137 -0.7070
vn -0.4861 -0.8311 -0.2700
vn -0.4861 -0.8311 0.2700
vn -0.4861 -0.5137 0.7070
vn -0.4861 -0.0000 0.8739
vn -0.4861 0.5137 0.7070
vn -0.4861 0.8311 0.2700
vn -0.4861 0.8311 -0.2700
vn -0.4861 0.5137 -0.7070
vn -0.0000 0.7572 -0.6532
vn -0.0000 0.7572 0.6532
vn 0.3786 0.6557 0.6532
vn 0.3786 0.6557 -0.6532
vn 0.6557 0.3786 0.6532
vn 0.6557 0.3786 -0.6532
vn 0.7572 -0.0000 0.6532
vn 0.7572 -0.0000 -0.6532
vn 0.6557 -0.3786 0.6532
vn 0.6557 -0.3786 -0.6532
vn 0.3786 -0.6557 0.6532
vn 0.3786 -0.6557 -0.6532
vn -0.0000 -0.7572 0.6532
vn -0.0000 -0.7572 -0.6532
vn -0.3786 -0.6557 0.6532
vn -0.3786 -0.6557 -0.6532
vn -0.6557 -0.3786 0.6532
vn -0.6557 -0.3786 -0.6532
vn -0.7572 -0.0000 0.6532
vn -0.7572 -0.0000 -0.6532
vn -0.6557 0.3786 0.6532
vn -0.6557 0.3786 -0.6532
vn -0.3786 0.6557 0.6532
vn -0.3786 0.6557 -0.6532
vt 0.500000 0.125000
vt 0.625000 0.125000
vt 0.625000 0.250000
vt 0.500000 0.250000
vt 0.500000 0.375000
vt 0.625000 0.375000
vt 0.625000 0.500000
vt 0.500000 0.500000
vt 0.500000 0.625000
vt 0.625000 0.625000
vt 0.625000 0.750000
vt 0.500000 0.750000
vt 0.500000 0.875000
vt 0.625000 0.875000
vt 0.625000 1.000000
vt 0.500000 1.000000
vt 0.250000 0.625000
vt 0.375000 0.625000
vt 0.375000 0.750000
vt 0.250000 0.750000
vt 0.750000 0.625000
vt 0.875000 0.625000
vt 0.875000 0.750000
vt 0.750000 0.750000
vt 0.750000 0.500000
vt 0.875000 0.500000
vt 0.125000 0.625000
vt 0.125000 0.750000
vt 0.125000 0.500000
vt 0.250000 0.500000
vt 0.375000 0.500000
vt 0.375000 0.875000
vt 0.375000 1.000000
vt 0.375000 0.375000
vt 0.375000 0.250000
vt 0.375000 0.125000
vt 0.375000 0.000000
vt 0.500000 0.000000
vt 0.625000 0.000000
vt 1.000000 0.500000
vt 1.000000 1.000000
vt 0.916667 1.000000
vt 0.916667 0.500000
vt 0.833333 1.000000
vt 0.833333 0.500000
vt 0.750000 1.000000
vt 0.750000 0.500000
vt 0.666667 1.000000
vt 0.666667 0.500000
vt 0.583333 1.000000
vt 0.583333 0.500000
vt 0.500000 1.000000
vt 0.500000 0.500000
vt 0.416667 1.000000
vt 0.416667 0.500000
vt 0.333333 1.000000
vt 0.333333 0.500000
vt 0.250000 1.000000
vt 0.250000 0.500000
vt 0.166667 1.000000
vt 0.166667 0.500000
vt 0.370000 0.457846
vt 0.250000 0.490000
vt 0.130000 0.457846
vt 0.042154 0.370000
vt 0.010000 0.250000
vt 0.042154 0.130000
vt 0.130000 0.042154
vt 0.250000 0.010000
vt 0.370000 0.042154
vt 0.457846 0.130000
vt 0.490000 0.250000
vt 0.457846 0.370000
vt 0.083333 1.000000
vt 0.083333 0.500000
vt 0.000000 1.000000
vt 0.000000 0.500000
vt 0.750000 0.490000
vt 0.870000 0.457846
vt 0.957846 0.370000
vt 0.990000 0.250000
vt 0.957846 0.130000
vt 0.870000 0.042154
vt 0.750000 0.010000
vt 0.630000 0.042154
vt 0.542154 0.130000
vt 0.510000 0.250000
vt 0.542154 0.370000
vt 0.630000 0.457846
vt 0.875000 1.000000
vt 0.750000 1.000000
vt 0.250000 1.000000
vt 0.419706 0.419706
vt 0.250000 0.490000
vt 0.080294 0.419706
vt 0.010000 0.250000
vt 0.080294 0.080294
vt 0.250000 0.010000
vt 0.419706 0.080294
vt 0.490000 0.250000
vt 0.125000 1.000000
vt 0.000000 1.000000
vt 0.000000 0.500000
vt 0.750000 0.490000
vt 0.919706 0.419706
vt 0.919706 0.080294
vt 0.750000 0.010000
vt 0.580294 0.080294
vt 0.580294 0.419706
vt 0.250000 0.250000
vt 0.391068 0.444164
vt 0.478254 0.324164
vt 0.478254 0.175836
vt 0.391068 0.055836
vt 0.108932 0.055836
vt 0.021746 0.175836
vt 0.021746 0.324164
vt 0.891068 0.444164
vt 0.978254 0.324164
vt 0.978254 0.175836
vt 0.891068 0.055836
vt 0.608932 0.055836
vt 0.521746 0.175836
vt 0.521746 0.324164
vt 0.608932 0.444164
vt 0.108932 0.444164
vt 0.130000 0.457846
vt 0.042154 0.130000
vt 0.130000 0.042154
vt 0.457846 0.130000
vt 0.957846 0.130000
vt 0.542154 0.130000
s 1
usemtl GhostHull
f 26/1/1 11/2/2 4/3/3 12/4/4
f 25/5/5 14/6/6 8/7/7 15/8/8
f 24/9/9 17/10/10 6/11/11 18/12/12
f 23/13/13 20/14/14 2/15/15 10/16/16
f 22/17/17 16/18/18 5/19/19 19/20/20
f 21/21/21 11/22/2 2/23/15 20/24/14
f 17/10/10 21/21/21 20/24/14 6/11/11
f 8/7/7 14/25/6 21/21/21 17/10/10
f 14/25/6 4/26/3 11/22/2 21/21/21
f 9/27/22 22/17/17 19/20/20 1/28/23
f 3/29/24 13/30/25 22/17/17 9/27/22
f 13/30/25 7/31/26 16/18/18 22/17/17
f 19/32/20 23/13/13 10/16/16 1/33/23
f 5/19/19 18/12/12 23/13/13 19/32/20
f 18/12/12 6/11/11 20/14/14 23/13/13
f 16/18/18 24/9/9 18/12/12 5/19/19
f 7/31/26 15/8/8 24/9/9 16/18/18
f 15/8/8 8/7/7 17/10/10 24/9/9
f 13/34/25 25/5/5 15/8/8 7/31/26
f 3/35/24 12/4/4 25/5/5 13/34/25
f 12/4/4 4/3/3 14/6/6 25/5/5
f 9/36/22 26/1/1 12/4/4 3/35/24
f 1/37/23 10/38/16 26/1/1 9/36/22
f 10/38/16 2/39/15 11/2/2 26/1/1
f 52/1/1 37/2/2 30/3/27 38/4/28
f 51/5/29 40/6/30 34/7/31 41/8/32
f 50/9/9 43/10/10 32/11/33 44/12/34
f 49/13/35 46/14/36 28/15/37 36/16/38
f 48/17/17 42/18/18 31/19/39 45/20/40
f 47/21/21 37/22/2 28/23/37 46/24/36
f 43/10/10 47/21/21 46/24/36 32/11/33
f 34/7/31 40/25/30 47/21/21 43/10/10
f 40/25/30 30/26/27 37/22/2 47/21/21
f 35/27/22 48/17/17 45/20/40 27/28/41
f 29/29/42 39/30/43 48/17/17 35/27/22
f 39/30/43 33/31/44 42/18/18 48/17/17
f 45/32/40 49/13/35 36/16/38 27/33/41
f 31/19/39 44/12/34 49/13/35 45/32/40
f 44/12/34 32/11/33 46/14/36 49/13/35
f 42/18/18 50/9/9 44/12/34 31/19/39
f 33/31/44 41/8/32 50/9/9 42/18/18
f 41/8/32 34/7/31 43/10/10 50/9/9
f 39/34/43 51/5/29 41/8/32 33/31/44
f 29/35/42 38/4/28 51/5/29 39/34/43
f 38/4/28 30/3/27 40/6/30 51/5/29
f 35/36/22 52/1/1 38/4/28 29/35/42
f 27/37/41 36/38/38 52/1/1 35/36/22
f 36/38/38 28/39/37 37/2/2 52/1/1
f 78/1/1 63/2/2 56/3/45 64/4/46
f 77/5/47 66/6/48 60/7/49 67/8/50
f 76/9/9 69/10/51 58/11/52 70/12/53
f 75/13/54 72/14/55 54/15/56 62/16/57
f 74/17/58 68/18/59 57/19/60 71/20/61
f 73/21/62 63/22/2 54/23/56 72/24/55
f 69/10/51 73/21/62 72/24/55 58/11/52
f 60/7/49 66/25/48 73/21/62 69/10/51
f 66/25/48 56/26/45 63/22/2 73/21/62
f 61/27/22 74/17/58 71/20/61 53/28/63
f 55/29/64 65/30/65 74/17/58 61/27/22
f 65/30/65 59/31/66 68/18/59 74/17/58
f 71/32/61 75/13/54 62/16/57 53/33/63
f 57/19/60 70/12/53 75/13/54 71/32/61
f 70/12/53 58/11/52 72/14/55 75/13/54
f 68/18/59 76/9/9 70/12/53 57/19/60
f 59/31/66 67/8/50 76/9/9 68/18/59
f 67/8/50 60/7/49 69/10/51 76/9/9
f 65/34/65 77/5/47 67/8/50 59/31/66
f 55/35/64 64/4/46 77/5/47 65/34/65
f 64/4/46 56/3/45 66/6/48 77/5/47
f 61/36/22 78/1/1 64/4/46 55/35/64
f 53/37/63 62/38/57 78/1/1 61/36/22
f 62/38/57 54/39/56 63/2/2 78/1/1
f 175/94/119 185/110/9 176/111/120
f 176/111/120 185/110/9 177/112/121
f 177/112/121 185/110/9 178/113/122
f 178/113/122 185/110/9 179/114/123
f 179/114/123 185/110/9 180/98/124
f 180/98/124 185/110/9 181/115/125
f 181/115/125 185/110/9 182/116/126
f 182/116/126 185/110/9 183/117/127
f 175/104/119 176/118/120 177/119/121 178/120/122 179/121/123 180/107/124 181/122/125 182/123/126 183/124/127 184/125/128
f 183/117/127 185/110/9 184/126/128
f 184/126/128 185/110/9 175/94/119
s 0
usemtl GhostDark
f 79/37/1 80/39/1 82/3/1 81/35/1
f 81/35/67 82/3/67 86/7/67 85/31/67
f 85/31/9 86/7/9 84/11/9 83/19/9
f 83/19/68 84/11/68 80/15/68 79/33/68
f 81/29/69 85/31/69 83/19/69 79/28/69
f 86/7/70 82/26/70 80/23/70 84/11/70
f 111/37/1 112/39/1 114/3/1 113/35/1
f 113/35/75 114/3/75 118/7/75 117/31/75
f 117/31/9 118/7/9 116/11/9 115/19/9
f 115/19/76 116/11/76 112/15/76 111/33/76
f 113/29/77 117/31/77 115/19/77 111/28/77
f 118/7/78 114/26/78 112/23/78 116/11/78
s 1
f 119/40/79 120/41/80 122/42/81 121/43/82
f 121/43/82 122/42/81 124/44/83 123/45/84
f 123/45/84 124/44/83 126/46/85 125/47/86
f 125/47/86 126/46/85 128/48/87 127/49/88
f 127/49/88 128/48/87 130/50/89 129/51/90
f 129/51/90 130/50/89 132/52/91 131/53/92
f 131/53/92 132/52/91 134/54/93 133/55/94
f 133/55/94 134/54/93 136/56/95 135/57/96
f 135/57/96 136/56/95 138/58/97 137/59/98
f 137/59/98 138/58/97 140/60/99 139/61/100
f 122/62/81 120/63/80 142/64/101 140/65/99 138/66/97 136/67/95 134/68/93 132/69/91 130/70/89 128/71/87 126/72/85 124/73/83
f 139/61/100 140/60/99 142/74/101 141/75/102
f 141/75/102 142/74/101 120/76/80 119/77/79
f 119/78/79 121/79/82 123/80/84 125/81/86 127/82/88 129/83/90 131/84/92 133/85/94 135/86/96 137/87/98 139/88/100 141/89/102
s 0
f 194/37/1 195/39/1 197/3/1 196/35/1
f 196/35/75 197/3/75 201/7/75 200/31/75
f 200/31/9 201/7/9 199/11/9 198/19/9
f 198/19/76 199/11/76 195/15/76 194/33/76
f 196/29/77 200/31/77 198/19/77 194/28/77
f 201/7/78 197/26/78 195/23/78 199/11/78
usemtl GhostDeck
f 87/37/1 88/39/1 90/3/1 89/35/1
f 89/35/71 90/3/71 94/7/71 93/31/71
f 93/31/9 94/7/9 92/11/9 91/19/9
f 91/19/72 92/11/72 88/15/72 87/33/72
f 89/29/73 93/31/73 91/19/73 87/28/73
f 94/7/74 90/26/74 88/23/74 92/11/74
usemtl CyanGlow
f 95/37/1 96/39/1 98/3/1 97/35/1
f 97/35/75 98/3/75 102/7/75 101/31/75
f 101/31/9 102/7/9 100/11/9 99/19/9
f 99/19/76 100/11/76 96/15/76 95/33/76
f 97/29/77 101/31/77 99/19/77 95/28/77
f 102/7/78 98/26/78 96/23/78 100/11/78
usemtl GhostWood
f 103/37/1 104/39/1 106/3/1 105/35/1
f 105/35/75 106/3/75 110/7/75 109/31/75
f 109/31/9 110/7/9 108/11/9 107/19/9
f 107/19/76 108/11/76 104/15/76 103/33/76
f 105/29/77 109/31/77 107/19/77 103/28/77
f 110/7/78 106/26/78 104/23/78 108/11/78
f 186/37/1 187/39/1 189/3/1 188/35/1
f 188/35/75 189/3/75 193/7/75 192/31/75
f 192/31/9 193/7/9 191/11/9 190/19/9
f 190/19/76 191/11/76 187/15/76 186/33/76
f 188/29/77 192/31/77 190/19/77 186/28/77
f 193/7/78 189/26/78 187/23/78 191/11/78
usemtl RopeGhost
f 143/40/103 144/41/103 146/90/103 145/26/103
f 145/26/104 146/90/104 148/91/104 147/25/104
f 147/25/105 148/91/105 150/15/105 149/7/105
f 149/7/106 150/15/106 152/16/106 151/8/106
f 151/8/107 152/16/107 154/33/107 153/31/107
f 153/31/108 154/33/108 156/92/108 155/30/108
f 146/93/76 144/94/76 158/95/76 156/96/76 154/97/76 152/98/76 150/99/76 148/100/76
f 155/30/109 156/92/109 158/101/109 157/29/109
f 157/29/110 158/101/110 144/102/110 143/103/110
f 143/104/75 145/105/75 147/81/75 149/106/75 151/107/75 153/108/75 155/87/75 157/109/75
s 1
usemtl GhostSail
f 159/37/111 160/39/112 162/3/113 161/35/114
f 161/35/114 162/3/113 166/7/115 165/31/116
f 165/31/116 166/7/115 164/11/117 163/19/118
f 163/19/118 164/11/117 160/15/112 159/33/111
f 161/29/114 165/31/116 163/19/118 159/28/111
f 166/7/115 162/26/113 160/23/112 164/11/117
s 0
usemtl PaleGlow
f 167/37/1 168/39/1 170/3/1 169/35/1
f 169/35/75 170/3/75 174/7/75 173/31/75
f 173/31/9 174/7/9 172/11/9 171/19/9
f 171/19/76 172/11/76 168/15/76 167/33/76
f 169/29/77 173/31/77 171/19/77 167/28/77
f 174/7/78 170/26/78 168/23/78 172/11/78
f 226/37/1 227/39/1 229/3/1 228/35/1
f 228/35/75 229/3/75 233/7/75 232/31/75
f 232/31/9 233/7/9 231/11/9 230/19/9
f 230/19/76 231/11/76 227/15/76 226/33/76
f 228/29/77 232/31/77 230/19/77 226/28/77
f 233/7/78 229/26/78 227/23/78 231/11/78
s 1
usemtl GhostMetal
f 202/40/129 203/41/130 205/42/131 204/43/132
f 204/43/132 205/42/131 207/44/133 206/45/134
f 206/45/134 207/44/133 209/46/135 208/47/136
f 208/47/136 209/46/135 211/48/137 210/49/138
f 210/49/138 211/48/137 213/50/139 212/51/140
f 212/51/140 213/50/139 215/52/141 214/53/142
f 214/53/142 215/52/141 217/54/143 216/55/144
f 216/55/144 217/54/143 219/56/145 218/57/146
f 218/57/146 219/56/145 221/58/147 220/59/148
f 220/59/148 221/58/147 223/60/149 222/61/150
f 205/62/131 203/94/130 225/127/151 223/65/149 221/96/147 219/128/145 217/129/143 215/98/141 213/70/139 211/130/137 209/100/135 207/73/133
f 222/61/150 223/60/149 225/74/151 224/75/152
f 224/75/152 225/74/151 203/76/130 202/77/129
f 202/104/129 204/79/132 206/80/134 208/81/136 210/131/138 212/83/140 214/107/142 216/85/144 218/132/146 220/87/148 222/88/150 224/89/152
