# Blender 4.3.2
# www.blender.org
mtllib Phantom_Carrier.mtl
o Phantom_Carrier
v -1.112500 -0.184000 0.213364
v -1.112500 0.200000 0.225400
v -1.112500 -0.184000 -0.213364
v -1.112500 0.200000 -0.225400
v 0.887500 -0.144000 0.160554
v 0.887500 0.240000 0.173678
v 0.887500 -0.144000 -0.160554
v 0.887500 0.240000 -0.173678
v -1.112500 -0.184000 0.000000
v -1.112500 0.000000 0.225400
v -1.112500 0.200000 0.000000
v -1.112500 0.000000 -0.225400
v -0.112500 -0.184000 -0.346426
v -0.112500 0.200000 -0.346889
v 0.887500 0.040000 -0.173678
v 0.887500 -0.144000 0.000000
v 0.887500 0.240000 0.000000
v 0.887500 0.040000 0.173678
v -0.112500 -0.184000 0.346426
v -0.112500 0.200000 0.346889
v -0.112500 0.200000 0.000000
v -0.112500 -0.184000 0.000000
v -0.112500 0.000000 0.346889
v 0.887500 0.040000 0.000000
v -0.112500 0.000000 -0.346889
v -1.112500 0.000000 0.000000
v -1.012500 -0.280000 0.175000
v -1.012500 -0.160000 0.175000
v -1.012500 -0.280000 -0.175000
v -1.012500 -0.160000 -0.175000
v 0.787500 -0.280000 0.175000
v 0.787500 -0.160000 0.175000
v 0.787500 -0.280000 -0.175000
v 0.787500 -0.160000 -0.175000
v -1.137500 0.250000 0.360000
v -1.137500 0.310000 0.360000
v -1.137500 0.250000 -0.360000
v -1.137500 0.310000 -0.360000
v 0.912500 0.250000 0.360000
v 0.912500 0.310000 0.360000
v 0.912500 0.250000 -0.360000
v 0.912500 0.310000 -0.360000
v -1.062500 0.310000 0.040000
v -1.062500 0.330000 0.040000
v -1.062500 0.310000 -0.040000
v -1.062500 0.330000 -0.040000
v 0.837500 0.310000 0.040000
v 0.837500 0.330000 0.040000
v 0.837500 0.310000 -0.040000
v 0.837500 0.330000 -0.040000
v -1.012500 0.312500 -0.270000
v -1.012500 0.327500 -0.270000
v -1.012500 0.312500 -0.290000
v -1.012500 0.327500 -0.290000
v 0.787500 0.312500 -0.270000
v 0.787500 0.327500 -0.270000
v 0.787500 0.312500 -0.290000
v 0.787500 0.327500 -0.290000
v -1.012500 0.312500 0.290000
v -1.012500 0.327500 0.290000
v -1.012500 0.312500 0.270000
v -1.012500 0.327500 0.270000
v 0.787500 0.312500 0.290000
v 0.787500 0.327500 0.290000
v 0.787500 0.312500 0.270000
v 0.787500 0.327500 0.270000
v -0.537500 0.350000 0.390000
v -0.537500 0.750000 0.390000
v -0.537500 0.350000 0.170000
v -0.537500 0.750000 0.170000
v -0.087500 0.350000 0.390000
v -0.087500 0.750000 0.390000
v -0.087500 0.350000 0.170000
v -0.087500 0.750000 0.170000
v -0.487500 0.730000 0.370000
v -0.487500 0.870000 0.370000
v -0.487500 0.730000 0.190000
v -0.487500 0.870000 0.190000
v -0.137500 0.730000 0.370000
v -0.137500 0.870000 0.370000
v -0.137500 0.730000 0.190000
v -0.137500 0.870000 0.190000
v -0.352500 0.890000 0.320000
v -0.352500 1.010000 0.320000
v -0.352500 0.890000 0.240000
v -0.352500 1.010000 0.240000
v -0.272500 0.890000 0.320000
v -0.272500 1.010000 0.320000
v -0.272500 0.890000 0.240000
v -0.272500 1.010000 0.240000
v -0.337500 1.025000 0.305000
v -0.337500 1.075000 0.305000
v -0.337500 1.025000 0.255000
v -0.337500 1.075000 0.255000
v -0.287500 1.025000 0.305000
v -0.287500 1.075000 0.305000
v -0.287500 1.025000 0.255000
v -0.287500 1.075000 0.255000
v -1.062500 -0.010000 0.200000
v -1.062500 0.210000 0.200000
v -1.062500 -0.010000 -0.200000
v -1.062500 0.210000 -0.200000
v -0.862500 -0.010000 0.200000
v -0.862500 0.210000 0.200000
v -0.862500 -0.010000 -0.200000
v -0.862500 0.210000 -0.200000
v -0.882500 -0.020000 0.210000
v -0.882500 0.220000 0.210000
v -0.882500 -0.020000 -0.210000
v -0.882500 0.220000 -0.210000
v -0.842500 -0.020000 0.210000
v -0.842500 0.220000 0.210000
v -0.842500 -0.020000 -0.210000
v -0.842500 0.220000 -0.210000
v 0.837500 0.050000 -0.180000
v 0.837500 -0.055801 -0.145623
v 0.837500 -0.121190 -0.055623
v 0.837500 -0.121190 0.055623
v 0.837500 -0.055801 0.145623
v 0.837500 0.050000 0.180000
v 0.837500 0.155801 0.145623
v 0.837500 0.221190 0.055623
v 0.837500 0.221190 -0.055623
v 0.837500 0.155801 -0.145623
v 1.137500 0.050000 0.000000
v 0.187500 0.095000 -0.397500
v 0.187500 0.095000 -0.362500
v 0.213950 0.086406 -0.397500
v 0.213950 0.086406 -0.362500
v 0.230298 0.063906 -0.397500
v 0.230298 0.063906 -0.362500
v 0.230298 0.036094 -0.397500
v 0.230298 0.036094 -0.362500
v 0.213950 0.013594 -0.397500
v 0.213950 0.013594 -0.362500
v 0.187500 0.005000 -0.397500
v 0.187500 0.005000 -0.362500
v 0.161050 0.013594 -0.397500
v 0.161050 0.013594 -0.362500
v 0.144702 0.036094 -0.397500
v 0.144702 0.036094 -0.362500
v 0.144702 0.063906 -0.397500
v 0.144702 0.063906 -0.362500
v 0.161050 0.086406 -0.397500
v 0.161050 0.086406 -0.362500
v 0.187500 0.095000 0.362500
v 0.187500 0.095000 0.397500
v 0.213950 0.086406 0.362500
v 0.213950 0.086406 0.397500
v 0.230298 0.063906 0.362500
v 0.230298 0.063906 0.397500
v 0.230298 0.036094 0.362500
v 0.230298 0.036094 0.397500
v 0.213950 0.013594 0.362500
v 0.213950 0.013594 0.397500
v 0.187500 0.005000 0.362500
v 0.187500 0.005000 0.397500
v 0.161050 0.013594 0.362500
v 0.161050 0.013594 0.397500
v 0.144702 0.036094 0.362500
v 0.144702 0.036094 0.397500
v 0.144702 0.063906 0.362500
v 0.144702 0.063906 0.397500
v 0.161050 0.086406 0.362500
v 0.161050 0.086406 0.397500
v -0.412500 0.095000 -0.397500
v -0.412500 0.095000 -0.362500
v -0.386050 0.086406 -0.397500
v -0.386050 0.086406 -0.362500
v -0.369702 0.063906 -0.397500
v -0.369702 0.063906 -0.362500
v -0.369702 0.036094 -0.397500
v -0.369702 0.036094 -0.362500
v -0.386050 0.013594 -0.397500
v -0.386050 0.013594 -0.362500
v -0.412500 0.005000 -0.397500
v -0.412500 0.005000 -0.362500
v -0.438950 0.013594 -0.397500
v -0.438950 0.013594 -0.362500
v -0.455298 0.036094 -0.397500
v -0.455298 0.036094 -0.362500
v -0.455298 0.063906 -0.397500
v -0.455298 0.063906 -0.362500
v -0.438950 0.086406 -0.397500
v -0.438950 0.086406 -0.362500
v 0.327500 0.375000 -0.150000
v 0.327500 0.425000 -0.150000
v 0.327500 0.375000 -0.210000
v 0.327500 0.425000 -0.210000
v 0.547500 0.375000 -0.150000
v 0.547500 0.425000 -0.150000
v 0.547500 0.375000 -0.210000
v 0.547500 0.425000 -0.210000
v 0.407500 0.390000 -0.080000
v 0.407500 0.410000 -0.080000
v 0.407500 0.390000 -0.280000
v 0.407500 0.410000 -0.280000
v 0.467500 0.390000 -0.080000
v 0.467500 0.410000 -0.080000
v 0.467500 0.390000 -0.280000
v 0.467500 0.410000 -0.280000
v 0.027500 0.375000 0.180000
v 0.027500 0.425000 0.180000
v 0.027500 0.375000 0.120000
v 0.027500 0.425000 0.120000
v 0.247500 0.375000 0.180000
v 0.247500 0.425000 0.180000
v 0.247500 0.375000 0.120000
v 0.247500 0.425000 0.120000
v 0.107500 0.390000 0.250000
v 0.107500 0.410000 0.250000
v 0.107500 0.390000 0.050000
v 0.107500 0.410000 0.050000
v 0.167500 0.390000 0.250000
v 0.167500 0.410000 0.250000
v 0.167500 0.390000 0.050000
v 0.167500 0.410000 0.050000
v -0.322500 0.375000 -0.090000
v -0.322500 0.425000 -0.090000
v -0.322500 0.375000 -0.150000
v -0.322500 0.425000 -0.150000
v -0.102500 0.375000 -0.090000
v -0.102500 0.425000 -0.090000
v -0.102500 0.375000 -0.150000
v -0.102500 0.425000 -0.150000
v -0.242500 0.390000 -0.020000
v -0.242500 0.410000 -0.020000
v -0.242500 0.390000 -0.220000
v -0.242500 0.410000 -0.220000
v -0.182500 0.390000 -0.020000
v -0.182500 0.410000 -0.020000
v -0.182500 0.390000 -0.220000
v -0.182500 0.410000 -0.220000
vn -1.0000 -0.0000 -0.0000
vn -0.7071 0.7071 -0.0000
vn -0.6076 0.5840 -0.5383
vn -0.7426 -0.0114 -0.6696
vn 0.0258 -0.0179 -0.9995
vn 0.0069 0.6712 -0.7413
vn 0.6076 0.6001 -0.5202
vn 0.7590 -0.0118 -0.6509
vn 1.0000 -0.0000 -0.0000
vn 0.6928 0.7211 -0.0000
vn 0.6076 0.6001 0.5202
vn 0.7590 -0.0118 0.6509
vn 0.0258 -0.0179 0.9995
vn 0.0069 0.6712 0.7413
vn -0.6076 0.5840 0.5383
vn -0.7426 -0.0114 0.6696
vn 0.0200 -0.9998 -0.0000
vn 0.7211 -0.6928 -0.0000
vn 0.6400 -0.5805 0.5034
vn 0.0306 -0.6912 0.7220
vn -0.0200 0.9998 -0.0000
vn -0.7071 -0.7071 -0.0000
vn -0.6165 -0.5904 0.5209
vn -0.6165 -0.5904 -0.5209
vn 0.0306 -0.6912 -0.7220
vn 0.6400 -0.5805 -0.5034
vn -0.0000 -0.0000 -1.0000
vn -0.0000 -0.0000 1.0000
vn -0.0000 -1.0000 -0.0000
vn -0.0000 1.0000 -0.0000
vn -0.4313 -0.0000 -0.9022
vn -0.4313 -0.5303 -0.7299
vn -0.4313 -0.8581 -0.2788
vn -0.4313 -0.8581 0.2788
vn -0.4313 -0.5303 0.7299
vn -0.4313 -0.0000 0.9022
vn -0.4313 0.5303 0.7299
vn -0.4313 0.8581 0.2788
vn -0.4313 0.8581 -0.2788
vn -0.4313 0.5303 -0.7299
vn 0.3090 0.9511 -0.0000
vn 0.8090 0.5878 -0.0000
vn 0.8090 -0.5878 -0.0000
vn 0.3090 -0.9511 -0.0000
vn -0.3090 -0.9511 -0.0000
vn -0.8090 -0.5878 -0.0000
vn -0.8090 0.5878 -0.0000
vn -0.3090 0.9511 -0.0000
vt 0.500000 0.125000
vt 0.625000 0.125000
vt 0.625000 0.250000
vt 0.500000 0.250000
vt 0.500000 0.375000
vt 0.625000 0.375000
vt 0.625000 0.500000
vt 0.500000 0.500000
vt 0.500000 0.625000
vt 0.625000 0.625000
vt 0.625000 0.750000
vt 0.500000 0.750000
vt 0.500000 0.875000
vt 0.625000 0.875000
vt 0.625000 1.000000
vt 0.500000 1.000000
vt 0.250000 0.625000
vt 0.375000 0.625000
vt 0.375000 0.750000
vt 0.250000 0.750000
vt 0.750000 0.625000
vt 0.875000 0.625000
vt 0.875000 0.750000
vt 0.750000 0.750000
vt 0.750000 0.500000
vt 0.875000 0.500000
vt 0.125000 0.625000
vt 0.125000 0.750000
vt 0.125000 0.500000
vt 0.250000 0.500000
vt 0.375000 0.500000
vt 0.375000 0.875000
vt 0.375000 1.000000
vt 0.375000 0.375000
vt 0.375000 0.250000
vt 0.375000 0.125000
vt 0.375000 0.000000
vt 0.500000 0.000000
vt 0.625000 0.000000
vt 0.250000 0.490000
vt 0.250000 0.250000
vt 0.391068 0.444164
vt 0.478254 0.324164
vt 0.478254 0.175836
vt 0.391068 0.055836
vt 0.250000 0.010000
vt 0.108932 0.055836
vt 0.021746 0.175836
vt 0.021746 0.324164
vt 0.750000 0.490000
vt 0.891068 0.444164
vt 0.978254 0.324164
vt 0.978254 0.175836
vt 0.891068 0.055836
vt 0.750000 0.010000
vt 0.608932 0.055836
vt 0.521746 0.175836
vt 0.521746 0.324164
vt 0.608932 0.444164
vt 0.108932 0.444164
vt 1.000000 0.500000
vt 1.000000 1.000000
vt 0.900000 1.000000
vt 0.900000 0.500000
vt 0.800000 1.000000
vt 0.800000 0.500000
vt 0.700000 1.000000
vt 0.700000 0.500000
vt 0.600000 1.000000
vt 0.600000 0.500000
vt 0.500000 1.000000
vt 0.500000 0.500000
vt 0.400000 1.000000
vt 0.400000 0.500000
vt 0.300000 1.000000
vt 0.300000 0.500000
vt 0.200000 1.000000
vt 0.200000 0.500000
vt 0.100000 1.000000
vt 0.100000 0.500000
vt -0.000000 1.000000
vt -0.000000 0.500000
s 1
usemtl GhostHull
f 26/1/1 11/2/2 4/3/3 12/4/4
f 25/5/5 14/6/6 8/7/7 15/8/8
f 24/9/9 17/10/10 6/11/11 18/12/12
f 23/13/13 20/14/14 2/15/15 10/16/16
f 22/17/17 16/18/18 5/19/19 19/20/20
f 21/21/21 11/22/2 2/23/15 20/24/14
f 17/10/10 21/21/21 20/24/14 6/11/11
f 8/7/7 14/25/6 21/21/21 17/10/10
f 14/25/6 4/26/3 11/22/2 21/21/21
f 9/27/22 22/17/17 19/20/20 1/28/23
f 3/29/24 13/30/25 22/17/17 9/27/22
f 13/30/25 7/31/26 16/18/18 22/17/17
f 19/32/20 23/13/13 10/16/16 1/33/23
f 5/19/19 18/12/12 23/13/13 19/32/20
f 18/12/12 6/11/11 20/14/14 23/13/13
f 16/18/18 24/9/9 18/12/12 5/19/19
f 7/31/26 15/8/8 24/9/9 16/18/18
f 15/8/8 8/7/7 17/10/10 24/9/9
f 13/34/25 25/5/5 15/8/8 7/31/26
f 3/35/24 12/4/4 25/5/5 13/34/25
f 12/4/4 4/3/3 14/6/6 25/5/5
f 9/36/22 26/1/1 12/4/4 3/35/24
f 1/37/23 10/38/16 26/1/1 9/36/22
f 10/38/16 2/39/15 11/2/2 26/1/1
f 115/40/31 125/41/9 116/42/32
f 116/42/32 125/41/9 117/43/33
f 117/43/33 125/41/9 118/44/34
f 118/44/34 125/41/9 119/45/35
f 119/45/35 125/41/9 120/46/36
f 120/46/36 125/41/9 121/47/37
f 121/47/37 125/41/9 122/48/38
f 122/48/38 125/41/9 123/49/39
f 115/50/31 116/51/32 117/52/33 118/53/34 119/54/35 120/55/36 121/56/37 122/57/38 123/58/39 124/59/40
f 123/49/39 125/41/9 124/60/40
f 124/60/40 125/41/9 115/40/31
s 0
usemtl GhostDark
f 27/37/1 28/39/1 30/3/1 29/35/1
f 29/35/27 30/3/27 34/7/27 33/31/27
f 33/31/9 34/7/9 32/11/9 31/19/9
f 31/19/28 32/11/28 28/15/28 27/33/28
f 29/29/29 33/31/29 31/19/29 27/28/29
f 34/7/30 30/26/30 28/23/30 32/11/30
f 75/37/1 76/39/1 78/3/1 77/35/1
f 77/35/27 78/3/27 82/7/27 81/31/27
f 81/31/9 82/7/9 80/11/9 79/19/9
f 79/19/28 80/11/28 76/15/28 75/33/28
f 77/29/29 81/31/29 79/19/29 75/28/29
f 82/7/30 78/26/30 76/23/30 80/11/30
f 194/37/1 195/39/1 197/3/1 196/35/1
f 196/35/27 197/3/27 201/7/27 200/31/27
f 200/31/9 201/7/9 199/11/9 198/19/9
f 198/19/28 199/11/28 195/15/28 194/33/28
f 196/29/29 200/31/29 198/19/29 194/28/29
f 201/7/30 197/26/30 195/23/30 199/11/30
f 210/37/1 211/39/1 213/3/1 212/35/1
f 212/35/27 213/3/27 217/7/27 216/31/27
f 216/31/9 217/7/9 215/11/9 214/19/9
f 214/19/28 215/11/28 211/15/28 210/33/28
f 212/29/29 216/31/29 214/19/29 210/28/29
f 217/7/30 213/26/30 211/23/30 215/11/30
f 226/37/1 227/39/1 229/3/1 228/35/1
f 228/35/27 229/3/27 233/7/27 232/31/27
f 232/31/9 233/7/9 231/11/9 230/19/9
f 230/19/28 231/11/28 227/15/28 226/33/28
f 228/29/29 232/31/29 230/19/29 226/28/29
f 233/7/30 229/26/30 227/23/30 231/11/30
usemtl GhostDeck
f 35/37/1 36/39/1 38/3/1 37/35/1
f 37/35/27 38/3/27 42/7/27 41/31/27
f 41/31/9 42/7/9 40/11/9 39/19/9
f 39/19/28 40/11/28 36/15/28 35/33/28
f 37/29/29 41/31/29 39/19/29 35/28/29
f 42/7/30 38/26/30 36/23/30 40/11/30
usemtl CyanGlow
f 43/37/1 44/39/1 46/3/1 45/35/1
f 45/35/27 46/3/27 50/7/27 49/31/27
f 49/31/9 50/7/9 48/11/9 47/19/9
f 47/19/28 48/11/28 44/15/28 43/33/28
f 45/29/29 49/31/29 47/19/29 43/28/29
f 50/7/30 46/26/30 44/23/30 48/11/30
f 107/37/1 108/39/1 110/3/1 109/35/1
f 109/35/27 110/3/27 114/7/27 113/31/27
f 113/31/9 114/7/9 112/11/9 111/19/9
f 111/19/28 112/11/28 108/15/28 107/33/28
f 109/29/29 113/31/29 111/19/29 107/28/29
f 114/7/30 110/26/30 108/23/30 112/11/30
usemtl PaleGlow
f 51/37/1 52/39/1 54/3/1 53/35/1
f 53/35/27 54/3/27 58/7/27 57/31/27
f 57/31/9 58/7/9 56/11/9 55/19/9
f 55/19/28 56/11/28 52/15/28 51/33/28
f 53/29/29 57/31/29 55/19/29 51/28/29
f 58/7/30 54/26/30 52/23/30 56/11/30
f 59/37/1 60/39/1 62/3/1 61/35/1
f 61/35/27 62/3/27 66/7/27 65/31/27
f 65/31/9 66/7/9 64/11/9 63/19/9
f 63/19/28 64/11/28 60/15/28 59/33/28
f 61/29/29 65/31/29 63/19/29 59/28/29
f 66/7/30 62/26/30 60/23/30 64/11/30
f 91/37/1 92/39/1 94/3/1 93/35/1
f 93/35/27 94/3/27 98/7/27 97/31/27
f 97/31/9 98/7/9 96/11/9 95/19/9
f 95/19/28 96/11/28 92/15/28 91/33/28
f 93/29/29 97/31/29 95/19/29 91/28/29
f 98/7/30 94/26/30 92/23/30 96/11/30
usemtl GhostWood
f 67/37/1 68/39/1 70/3/1 69/35/1
f 69/35/27 70/3/27 74/7/27 73/31/27
f 73/31/9 74/7/9 72/11/9 71/19/9
f 71/19/28 72/11/28 68/15/28 67/33/28
f 69/29/29 73/31/29 71/19/29 67/28/29
f 74/7/30 70/26/30 68/23/30 72/11/30
usemtl GhostMetal
f 83/37/1 84/39/1 86/3/1 85/35/1
f 85/35/27 86/3/27 90/7/27 89/31/27
f 89/31/9 90/7/9 88/11/9 87/19/9
f 87/19/28 88/11/28 84/15/28 83/33/28
f 85/29/29 89/31/29 87/19/29 83/28/29
f 90/7/30 86/26/30 84/23/30 88/11/30
f 126/61/41 127/62/41 129/63/41 128/64/41
f 128/64/42 129/63/42 131/65/42 130/66/42
f 130/66/9 131/65/9 133/67/9 132/68/9
f 132/68/43 133/67/43 135/69/43 134/70/43
f 134/70/44 135/69/44 137/71/44 136/72/44
f 136/72/45 137/71/45 139/73/45 138/74/45
f 138/74/46 139/73/46 141/75/46 140/76/46
f 140/76/1 141/75/1 143/77/1 142/78/1
f 129/42/28 127/40/28 145/60/28 143/49/28 141/48/28 139/47/28 137/46/28 135/45/28 133/44/28 131/43/28
f 142/78/47 143/77/47 145/79/47 144/80/47
f 144/80/48 145/79/48 127/81/48 126/82/48
f 126/50/27 128/51/27 130/52/27 132/53/27 134/54/27 136/55/27 138/56/27 140/57/27 142/58/27 144/59/27
f 146/61/41 147/62/41 149/63/41 148/64/41
f 148/64/42 149/63/42 151/65/42 150/66/42
f 150/66/9 151/65/9 153/67/9 152/68/9
f 152/68/43 153/67/43 155/69/43 154/70/43
f 154/70/44 155/69/44 157/71/44 156/72/44
f 156/72/45 157/71/45 159/73/45 158/74/45
f 158/74/46 159/73/46 161/75/46 160/76/46
f 160/76/1 161/75/1 163/77/1 162/78/1
f 149/42/28 147/40/28 165/60/28 163/49/28 161/48/28 159/47/28 157/46/28 155/45/28 153/44/28 151/43/28
f 162/78/47 163/77/47 165/79/47 164/80/47
f 164/80/48 165/79/48 147/81/48 146/82/48
f 146/50/27 148/51/27 150/52/27 152/53/27 154/54/27 156/55/27 158/56/27 160/57/27 162/58/27 164/59/27
f 166/61/41 167/62/41 169/63/41 168/64/41
f 168/64/42 169/63/42 171/65/42 170/66/42
f 170/66/9 171/65/9 173/67/9 172/68/9
f 172/68/43 173/67/43 175/69/43 174/70/43
f 174/70/44 175/69/44 177/71/44 176/72/44
f 176/72/45 177/71/45 179/73/45 178/74/45
f 178/74/46 179/73/46 181/75/46 180/76/46
f 180/76/1 181/75/1 183/77/1 182/78/1
f 169/42/28 167/40/28 185/60/28 183/49/28 181/48/28 179/47/28 177/46/28 175/45/28 173/44/28 171/43/28
f 182/78/47 183/77/47 185/79/47 184/80/47
f 184/80/48 185/79/48 167/81/48 166/82/48
f 166/50/27 168/51/27 170/52/27 172/53/27 174/54/27 176/55/27 178/56/27 180/57/27 182/58/27 184/59/27
f 186/37/1 187/39/1 189/3/1 188/35/1
f 188/35/27 189/3/27 193/7/27 192/31/27
f 192/31/9 193/7/9 191/11/9 190/19/9
f 190/19/28 191/11/28 187/15/28 186/33/28
f 188/29/29 192/31/29 190/19/29 186/28/29
f 193/7/30 189/26/30 187/23/30 191/11/30
f 202/37/1 203/39/1 205/3/1 204/35/1
f 204/35/27 205/3/27 209/7/27 208/31/27
f 208/31/9 209/7/9 207/11/9 206/19/9
f 206/19/28 207/11/28 203/15/28 202/33/28
f 204/29/29 208/31/29 206/19/29 202/28/29
f 209/7/30 205/26/30 203/23/30 207/11/30
f 218/37/1 219/39/1 221/3/1 220/35/1
f 220/35/27 221/3/27 225/7/27 224/31/27
f 224/31/9 225/7/9 223/11/9 222/19/9
f 222/19/28 223/11/28 219/15/28 218/33/28
f 220/29/29 224/31/29 222/19/29 218/28/29
f 225/7/30 221/26/30 219/23/30 223/11/30
usemtl Blackish
f 99/37/1 100/39/1 102/3/1 101/35/1
f 101/35/27 102/3/27 106/7/27 105/31/27
f 105/31/9 106/7/9 104/11/9 103/19/9
f 103/19/28 104/11/28 100/15/28 99/33/28
f 101/29/29 105/31/29 103/19/29 99/28/29
f 106/7/30 102/26/30 100/23/30 104/11/30
