# Blender v2.82 (sub 7) OBJ File: ''
# www.blender.org
mtllib Attacker.mtl
o Cube
v 0.675292 -0.497966 -0.465184
v 0.675292 -0.497966 0.465184
v -0.022034 0.584672 -0.465184
v -0.681308 -0.497966 -0.465184
v -0.022034 0.584672 0.465184
v -0.681308 -0.497966 0.465184
vt 0.625000 0.000000
vt 0.125000 0.750000
vt 0.375000 0.750000
vt 0.375000 0.250000
vt 0.625000 0.250000
vt 0.375000 0.500000
vt 0.375000 0.000000
vt 0.125000 0.500000
vn 0.0000 0.0000 1.0000
vn 0.0000 0.0000 -1.0000
vn -0.8541 0.5201 0.0000
vn 0.0000 -1.0000 0.0000
vn 0.8407 0.5415 0.0000
usemtl Material
s off
f 5/1/1 6/2/1 2/3/1
f 4/4/2 3/5/2 1/6/2
f 6/7/3 5/1/3 3/5/3 4/4/3
f 4/8/4 1/6/4 2/3/4 6/2/4
f 5/1/5 2/3/5 1/6/5 3/5/5
