# Blender v2.82 (sub 7) OBJ File: 'Nari.blend'
# www.blender.org
mtllib Nari.mtl
o Icosphere
v -0.011080 -0.313325 0.000000
v 0.430789 -0.191577 0.525725
v -0.276388 -0.332405 0.850649
v -0.557477 -0.312362 0.000000
v -0.179923 -0.312365 -0.850649
v 0.430966 -0.312365 -0.525725
v 0.246106 0.333207 0.819483
v -0.943305 0.488153 0.525725
v -0.622317 0.312365 -0.525725
v 0.190985 0.312365 -0.850649
v 1.059398 0.312362 -0.861461
v 0.000000 0.787266 -0.555506
v -0.162456 -0.307919 0.499995
v 0.274396 -0.307919 0.440412
v 0.262869 -0.356866 0.809012
v 0.508574 -0.367206 0.000000
v 0.248746 -0.307919 -0.309011
v -0.332243 -0.307918 0.000000
v -0.395371 -0.246418 0.499997
v -0.110322 -0.307919 -0.499995
v -0.431489 -0.367206 -0.499997
v 0.149505 -0.367207 -0.809012
v 0.951058 0.000000 0.309013
v 0.644613 0.000000 -0.309013
v 0.000000 0.000000 1.210170
v 0.461177 0.000000 0.890037
v -0.951058 0.000000 0.309013
v -0.461177 0.000000 0.890037
v -0.587786 0.000000 -0.809017
v -0.675392 0.000000 -0.309013
v 0.587786 0.000000 -0.809017
v 0.000000 0.000000 -1.000000
v 0.929974 0.447298 0.497786
v -0.262869 0.326986 0.809012
v -1.068696 0.367206 -0.853107
v -0.262869 0.367207 -0.809012
v 0.407443 0.367206 -0.294275
v 0.015646 0.307919 0.581462
v 0.408989 0.307918 0.000000
v -0.425323 0.307919 0.090277
v -0.425323 0.307919 -0.309011
v 0.023527 0.307919 -0.499995
v 0.006485 0.575596 0.200119
v 0.241280 0.497238 0.005433
v 0.024448 0.415352 0.443461
v -0.212661 0.497239 0.014872
vt 0.818181 0.000000
vt 0.772726 0.078731
vt 0.863635 0.078731
vt 0.727272 0.157461
vt 0.681818 0.078731
vt 0.636363 0.157461
vt 0.090909 0.000000
vt 0.045454 0.078731
vt 0.136363 0.078731
vt 0.272727 0.000000
vt 0.227273 0.078731
vt 0.318182 0.078731
vt 0.454545 0.000000
vt 0.409090 0.078731
vt 0.500000 0.078731
vt 0.681818 0.236191
vt 0.909090 0.157461
vt 0.818181 0.157461
vt 0.863635 0.236191
vt 0.181818 0.157461
vt 0.090909 0.157461
vt 0.136363 0.236191
vt 0.363636 0.157461
vt 0.272727 0.157461
vt 0.318182 0.236191
vt 0.545454 0.157461
vt 0.454545 0.157461
vt 0.500000 0.236191
vt 0.772726 0.236191
vt 0.954545 0.236191
vt 0.227273 0.236191
vt 0.409090 0.236191
vt 0.590909 0.236191
vt 0.818181 0.314921
vt 0.727272 0.314921
vt 0.772726 0.393651
vt 1.000000 0.314921
vt 0.909091 0.314921
vt 0.954545 0.393651
vt 0.272727 0.314921
vt 0.181818 0.314921
vt 0.227273 0.393651
vt 0.454545 0.314921
vt 0.363636 0.314921
vt 0.409090 0.393651
vt 0.636363 0.314921
vt 0.545454 0.314921
vt 0.590909 0.393651
vt 0.500000 0.393651
vt 0.545454 0.472382
vt 0.568181 0.433017
vt 0.318182 0.393651
vt 0.363636 0.472382
vt 0.136363 0.393651
vt 0.159091 0.433017
vt 0.181818 0.472382
vt 0.090909 0.314921
vt 0.931818 0.433017
vt 0.874999 0.413334
vt 0.886363 0.433017
vt 0.909090 0.472382
vt 0.863635 0.393651
vt 0.761363 0.413334
vt 0.704545 0.433017
vt 0.727272 0.472382
vt 0.749999 0.433017
vt 0.681818 0.393651
vt 0.045454 0.236191
vt 0.000000 0.157461
vt 0.590909 0.078731
vt 0.636363 0.000000
vn 0.0015 -0.9999 0.0113
vn 0.4333 -0.8336 0.3426
vn -0.0168 -0.9998 0.0057
vn -0.0168 -0.9998 -0.0075
vn 0.0064 -0.9999 -0.0121
vn 0.4469 -0.8265 0.3422
vn 0.0182 -0.7411 0.6712
vn -0.4651 -0.8455 0.2623
vn -0.5573 -0.6606 -0.5031
vn 0.5768 -0.6884 -0.4398
vn 0.4557 -0.8029 0.3842
vn -0.5268 -0.3828 0.7589
vn -0.7314 -0.5988 -0.3262
vn -0.2978 -0.2667 -0.9166
vn 0.8515 -0.5153 -0.0968
vn -0.1472 0.9884 0.0375
vn 0.2630 0.9611 -0.0849
vn 0.2978 0.9208 -0.2518
vn 0.1262 0.9893 0.0728
vn 0.2454 0.9506 0.1902
vn 0.8656 0.2136 -0.4529
vn -0.2497 0.9490 0.1925
vn -0.1272 0.9907 -0.0482
vn -0.3885 -0.1248 -0.9130
vn 0.0579 0.9890 0.1361
vn -0.0789 0.9926 0.0921
vn -0.7091 0.7029 0.0547
vn 0.0918 0.9958 0.0000
vn 0.2454 0.9635 -0.1068
vn -0.5389 0.7850 0.3055
vn 0.0394 0.9986 -0.0354
vn -0.0102 0.9953 -0.0959
vn 0.5101 0.8101 0.2891
vn -0.1595 0.9813 -0.1079
vn -0.1553 0.9815 -0.1122
vn -0.6258 -0.3768 -0.6829
vn 0.8345 0.5428 -0.0948
vn 0.6081 0.7314 -0.3087
vn -0.0283 0.4452 -0.8950
vn -0.2981 0.2638 -0.9174
vn -0.5785 0.5119 -0.6350
vn 0.4439 -0.5605 -0.6991
vn -0.4880 -0.8452 -0.2177
vn -0.9954 -0.0254 0.0927
vn -0.2754 0.3853 0.8807
vn -0.4998 0.4815 0.7200
vn -0.0226 0.7676 0.6405
vn 0.3355 0.3974 0.8541
vn 0.7441 -0.2297 0.6274
vn 0.9955 0.0072 0.0941
vn 0.2986 0.2569 -0.9191
vn 0.2899 -0.3461 -0.8923
vn 0.0381 -0.4488 -0.8928
vn -0.9839 0.0476 -0.1724
vn -0.8578 -0.4916 -0.1503
vn -0.8588 -0.4856 -0.1631
vn -0.7373 -0.2643 0.6217
vn -0.4836 -0.7745 0.4077
vn -0.8530 -0.4941 0.1683
vn 0.5013 0.4765 0.7222
vn 0.5093 -0.4496 0.7338
vn 0.8369 -0.5101 0.1984
vn 0.4046 -0.8922 -0.2006
vn 0.7320 -0.5766 -0.3629
vn 0.8652 -0.4692 -0.1767
vn 0.0935 -0.9907 0.0989
vn -0.0697 -0.9889 0.1311
vn -0.1697 -0.9844 0.0462
vn 0.1815 -0.9831 -0.0236
vn 0.1809 -0.9802 0.0803
vn 0.0196 -0.9933 0.1139
vn 0.0196 -0.9920 0.1245
vn -0.2543 -0.9632 0.0864
vn -0.2525 -0.9561 -0.1488
vn -0.1248 -0.9886 -0.0847
vn -0.2314 -0.9728 0.0079
vn 0.0200 -0.9998 -0.0007
vn -0.0518 -0.9949 -0.0863
vn -0.0180 -0.9911 -0.1322
vn 0.6238 -0.7771 -0.0837
vn 0.6842 0.5698 0.4553
vn -0.5273 0.7191 0.4527
usemtl None
s off
f 1/1/1 14/2/1 13/3/1
f 2/4/2 14/5/2 16/6/2
f 1/7/3 13/8/3 18/9/3
f 1/10/4 18/11/4 20/12/4
f 1/13/5 20/14/5 17/15/5
f 2/4/6 16/6/6 23/16/6
f 3/17/7 15/18/7 25/19/7
f 4/20/8 19/21/8 27/22/8
f 5/23/9 21/24/9 29/25/9
f 6/26/10 22/27/10 31/28/10
f 2/4/11 23/16/11 26/29/11
f 3/17/12 25/19/12 28/30/12
f 4/20/13 27/22/13 30/31/13
f 5/23/14 29/25/14 32/32/14
f 6/26/15 31/28/15 24/33/15
f 7/34/16 33/35/16 38/36/16
f 8/37/17 34/38/17 40/39/17
f 9/40/18 35/41/18 41/42/18
f 10/43/19 36/44/19 42/45/19
f 11/46/20 37/47/20 39/48/20
f 39/48/21 42/49/21 12/50/21 44/51/21
f 39/48/22 37/47/22 42/49/22
f 37/47/23 10/43/23 42/49/23
f 42/45/24 41/52/24 12/53/24
f 42/45/25 36/44/25 41/52/25
f 36/44/26 9/40/26 41/52/26
f 41/42/27 40/54/27 46/55/27 12/56/27
f 41/42/28 35/41/28 40/54/28
f 35/41/29 8/57/29 40/54/29
f 46/58/30 45/59/30 43/60/30 12/61/30
f 40/39/31 34/38/31 38/62/31
f 34/38/32 7/34/32 38/62/32
f 45/63/33 44/64/33 12/65/33 43/66/33
f 38/36/34 33/35/34 39/67/34
f 33/35/35 11/46/35 39/67/35
f 24/33/36 37/47/36 11/46/36
f 24/33/37 31/28/37 37/47/37
f 31/28/38 10/43/38 37/47/38
f 32/32/39 36/44/39 10/43/39
f 32/32/40 29/25/40 36/44/40
f 29/25/41 9/40/41 36/44/41
f 30/31/42 35/41/42 9/40/42
f 30/31/43 27/22/43 35/41/43
f 27/22/44 8/57/44 35/41/44
f 28/30/45 34/38/45 8/37/45
f 28/30/46 25/19/46 34/38/46
f 25/19/47 7/34/47 34/38/47
f 26/29/48 33/35/48 7/34/48
f 26/29/49 23/16/49 33/35/49
f 23/16/50 11/46/50 33/35/50
f 31/28/51 32/32/51 10/43/51
f 31/28/52 22/27/52 32/32/52
f 22/27/53 5/23/53 32/32/53
f 29/25/54 30/31/54 9/40/54
f 29/25/55 21/24/55 30/31/55
f 21/24/56 4/20/56 30/31/56
f 27/22/57 28/68/57 8/57/57
f 27/22/58 19/21/58 28/68/58
f 19/21/59 3/69/59 28/68/59
f 25/19/60 26/29/60 7/34/60
f 25/19/61 15/18/61 26/29/61
f 15/18/62 2/4/62 26/29/62
f 23/16/63 24/33/63 11/46/63
f 23/16/64 16/6/64 24/33/64
f 16/6/65 6/26/65 24/33/65
f 17/15/66 22/27/66 6/26/66
f 17/15/67 20/14/67 22/27/67
f 20/14/68 5/23/68 22/27/68
f 20/12/69 21/24/69 5/23/69
f 20/12/70 18/11/70 21/24/70
f 18/11/71 4/20/71 21/24/71
f 18/9/72 19/21/72 4/20/72
f 18/9/73 13/8/73 19/21/73
f 13/8/74 3/69/74 19/21/74
f 16/6/75 17/70/75 6/26/75
f 16/6/76 14/5/76 17/70/76
f 14/5/77 1/71/77 17/70/77
f 13/3/78 15/18/78 3/17/78
f 13/3/79 14/2/79 15/18/79
f 14/2/80 2/4/80 15/18/80
f 38/36/81 39/67/81 44/64/81 45/63/81
f 40/39/82 38/62/82 45/59/82 46/58/82
