# Blender v2.82 (sub 7) OBJ File: ''
# www.blender.org
mtllib Test.mtl
o Cube
v 1.000000 1.000000 -1.000000
v 1.000000 -1.000000 -1.000000
v -0.904439 -0.904439 -1.013196
v -0.904439 0.904439 -1.013196
v -1.000000 1.000000 -1.000000
v -1.000000 -1.000000 -1.000000
v 0.904439 -0.904439 -1.013196
v 0.904439 0.904439 -1.013196
v -0.904439 -0.904439 -2.012406
v -0.904439 0.904439 -2.012406
v 0.904439 -0.904439 -2.012406
v 0.904439 0.904439 -2.012406
v -0.782782 -0.782782 -2.152710
v -0.782782 0.782782 -2.152710
v 0.782782 -0.782782 -2.152710
v 0.782782 0.782782 -2.152710
v -0.974147 -0.974147 -2.911896
v -0.974147 0.974147 -2.911896
v 0.974147 -0.974147 -2.911896
v 0.974147 0.974147 -2.911896
v -0.689404 -0.689404 -2.823747
v -0.689404 0.689404 -2.823747
v 0.689404 -0.689404 -2.823747
v 0.689404 0.689404 -2.823747
v -0.689404 -0.689404 -4.458355
v -0.689404 0.689404 -4.458355
v 0.689404 -0.689404 -4.458355
v 0.689404 0.689404 -4.458355
v -0.689404 -0.689404 -4.458355
v -0.689404 0.689404 -4.458355
v 0.689404 -0.689404 -4.458355
v 0.689404 0.689404 -4.458355
v -0.506216 -0.506216 -4.444164
v -0.506216 0.506216 -4.444164
v 0.506216 -0.506216 -4.444164
v 0.506216 0.506216 -4.444164
v -0.315666 -0.315666 -5.101963
v -0.315666 0.315666 -5.101963
v 0.315666 -0.315666 -5.101963
v 0.315666 0.315666 -5.101963
v -1.000000 1.000000 -0.363636
v 1.000000 -1.000000 -0.363636
v -1.000000 -1.000000 -0.363636
v 1.000000 1.000000 -0.363636
v -1.340409 -1.340409 -0.363636
v 1.340409 1.340409 -0.363636
v -1.340409 1.340409 -0.363636
v 1.340409 -1.340409 -0.363636
v -1.000000 1.000000 -1.000000
v -1.000000 -1.000000 -1.000000
v 0.904439 -0.904439 -1.013196
v 0.904439 0.904439 -1.013196
v 1.000000 1.000000 -1.000000
v 1.000000 -1.000000 -1.000000
v -0.904439 -0.904439 -1.013196
v -0.904439 0.904439 -1.013196
v 0.904439 -0.904439 -2.012406
v 0.904439 0.904439 -2.012406
v -0.904439 -0.904439 -2.012406
v -0.904439 0.904439 -2.012406
v 0.782782 -0.782782 -2.152710
v 0.782782 0.782782 -2.152710
v -0.782782 -0.782782 -2.152710
v -0.782782 0.782782 -2.152710
v 0.974147 -0.974147 -2.911896
v 0.974147 0.974147 -2.911896
v -0.974147 -0.974147 -2.911896
v -0.974147 0.974147 -2.911896
v 0.689404 -0.689404 -2.823747
v 0.689404 0.689404 -2.823747
v -0.689404 -0.689404 -2.823747
v -0.689404 0.689404 -2.823747
v 0.689404 -0.689404 -4.458355
v 0.689404 0.689404 -4.458355
v -0.689404 -0.689404 -4.458355
v -0.689404 0.689404 -4.458355
v 0.689404 -0.689404 -4.458355
v 0.689404 0.689404 -4.458355
v -0.689404 -0.689404 -4.458355
v -0.689404 0.689404 -4.458355
v 0.506216 -0.506216 -4.444164
v 0.506216 0.506216 -4.444164
v -0.506216 -0.506216 -4.444164
v -0.506216 0.506216 -4.444164
v 0.315666 -0.315666 -5.101963
v 0.315666 0.315666 -5.101963
v -0.315666 -0.315666 -5.101963
v -0.315666 0.315666 -5.101963
v 1.000000 1.000000 -0.363636
v -1.000000 -1.000000 -0.363636
v 1.000000 -1.000000 -0.363636
v -1.000000 1.000000 -0.363636
v 1.340409 -1.340409 -0.363636
v -1.340409 1.340409 -0.363636
v 1.340409 1.340409 -0.363636
v -1.340409 -1.340409 -0.363636
v 1.000000 1.000000 1.000000
v 1.000000 -1.000000 1.000000
v -0.904439 -0.904439 1.013196
v -0.904439 0.904439 1.013196
v -1.000000 1.000000 1.000000
v -1.000000 -1.000000 1.000000
v 0.904439 -0.904439 1.013196
v 0.904439 0.904439 1.013196
v -1.344927 -1.344927 0.000000
v 1.344927 1.344927 0.000000
v -1.344927 1.344927 0.000000
v 1.344927 -1.344927 0.000000
v -0.904439 -0.904439 2.012406
v -0.904439 0.904439 2.012406
v 0.904439 -0.904439 2.012406
v 0.904439 0.904439 2.012406
v -0.782782 -0.782782 2.152710
v -0.782782 0.782782 2.152710
v 0.782782 -0.782782 2.152710
v 0.782782 0.782782 2.152710
v -0.974147 -0.974147 2.911896
v -0.974147 0.974147 2.911896
v 0.974147 -0.974147 2.911896
v 0.974147 0.974147 2.911896
v -0.689404 -0.689404 2.823747
v -0.689404 0.689404 2.823747
v 0.689404 -0.689404 2.823747
v 0.689404 0.689404 2.823747
v -0.689404 -0.689404 4.458355
v -0.689404 0.689404 4.458355
v 0.689404 -0.689404 4.458355
v 0.689404 0.689404 4.458355
v -0.689404 -0.689404 4.458355
v -0.689404 0.689404 4.458355
v 0.689404 -0.689404 4.458355
v 0.689404 0.689404 4.458355
v -0.506216 -0.506216 4.444164
v -0.506216 0.506216 4.444164
v 0.506216 -0.506216 4.444164
v 0.506216 0.506216 4.444164
v -0.315666 -0.315666 5.101963
v -0.315666 0.315666 5.101963
v 0.315666 -0.315666 5.101963
v 0.315666 0.315666 5.101963
v -1.000000 1.000000 0.363636
v 1.000000 -1.000000 0.363636
v -1.000000 -1.000000 0.363636
v 1.000000 1.000000 0.363636
v -1.340409 -1.340409 0.363636
v 1.340409 1.340409 0.363636
v -1.340409 1.340409 0.363636
v 1.340409 -1.340409 0.363636
v -1.000000 1.000000 1.000000
v -1.000000 -1.000000 1.000000
v 0.904439 -0.904439 1.013196
v 0.904439 0.904439 1.013196
v 1.000000 1.000000 1.000000
v 1.000000 -1.000000 1.000000
v -0.904439 -0.904439 1.013196
v -0.904439 0.904439 1.013196
v 1.344927 -1.344927 0.000000
v -1.344927 1.344927 0.000000
v 1.344927 1.344927 0.000000
v -1.344927 -1.344927 0.000000
v 0.904439 -0.904439 2.012406
v 0.904439 0.904439 2.012406
v -0.904439 -0.904439 2.012406
v -0.904439 0.904439 2.012406
v 0.782782 -0.782782 2.152710
v 0.782782 0.782782 2.152710
v -0.782782 -0.782782 2.152710
v -0.782782 0.782782 2.152710
v 0.974147 -0.974147 2.911896
v 0.974147 0.974147 2.911896
v -0.974147 -0.974147 2.911896
v -0.974147 0.974147 2.911896
v 0.689404 -0.689404 2.823747
v 0.689404 0.689404 2.823747
v -0.689404 -0.689404 2.823747
v -0.689404 0.689404 2.823747
v 0.689404 -0.689404 4.458355
v 0.689404 0.689404 4.458355
v -0.689404 -0.689404 4.458355
v -0.689404 0.689404 4.458355
v 0.689404 -0.689404 4.458355
v 0.689404 0.689404 4.458355
v -0.689404 -0.689404 4.458355
v -0.689404 0.689404 4.458355
v 0.506216 -0.506216 4.444164
v 0.506216 0.506216 4.444164
v -0.506216 -0.506216 4.444164
v -0.506216 0.506216 4.444164
v 0.315666 -0.315666 5.101963
v 0.315666 0.315666 5.101963
v -0.315666 -0.315666 5.101963
v -0.315666 0.315666 5.101963
v 1.000000 1.000000 0.363636
v -1.000000 -1.000000 0.363636
v 1.000000 -1.000000 0.363636
v -1.000000 1.000000 0.363636
v 1.340409 -1.340409 0.363636
v -1.340409 1.340409 0.363636
v 1.340409 1.340409 0.363636
v -1.340409 -1.340409 0.363636
vt 0.375000 0.500000
vt 0.125000 0.500000
vt 0.125000 0.500000
vt 0.375000 0.500000
vt 0.875000 0.500000
vt 0.625000 0.500000
vt 0.625000 0.500000
vt 0.875000 0.500000
vt 0.375000 0.170455
vt 0.625000 0.170455
vt 0.625000 0.250000
vt 0.375000 0.250000
vt 0.625000 0.250000
vt 0.375000 0.250000
vt 0.625000 0.500000
vt 0.375000 0.500000
vt 0.375000 0.500000
vt 0.625000 0.500000
vt 0.375000 0.579545
vt 0.625000 0.579545
vt 0.625000 0.625000
vt 0.375000 0.625000
vt 0.125000 0.579545
vt 0.125000 0.625000
vt 0.875000 0.500000
vt 0.875000 0.579545
vt 0.875000 0.625000
vt 0.125000 0.500000
vt 0.625000 0.250000
vt 0.375000 0.250000
vt 0.125000 0.500000
vt 0.125000 0.500000
vt 0.375000 0.500000
vt 0.875000 0.500000
vt 0.625000 0.250000
vt 0.375000 0.250000
vt 0.875000 0.500000
vt 0.625000 0.500000
vt 0.625000 0.500000
vt 0.875000 0.500000
vt 0.625000 0.250000
vt 0.375000 0.250000
vt 0.375000 0.500000
vt 0.375000 0.500000
vt 0.625000 0.500000
vt 0.625000 0.250000
vt 0.375000 0.250000
vt 0.125000 0.500000
vt 0.875000 0.500000
vt 0.625000 0.500000
vt 0.875000 0.500000
vt 0.125000 0.500000
vt 0.625000 0.250000
vt 0.375000 0.250000
vt 0.375000 0.250000
vt 0.625000 0.250000
vt 0.625000 0.250000
vt 0.375000 0.250000
vt 0.375000 0.500000
vt 0.125000 0.500000
vt 0.625000 0.500000
vt 0.375000 0.500000
vt 0.375000 0.500000
vt 0.625000 0.500000
vt 0.125000 0.500000
vt 0.875000 0.500000
vt 0.375000 0.250000
vt 0.625000 0.250000
vt 0.125000 0.500000
vt 0.875000 0.500000
vt 0.875000 0.579545
vt 0.625000 0.579545
vt 0.375000 0.579545
vt 0.125000 0.579545
vt 0.375000 0.170455
vt 0.625000 0.170455
vt 0.375000 0.125000
vt 0.625000 0.125000
vt 0.375000 0.500000
vt 0.375000 0.500000
vt 0.125000 0.500000
vt 0.125000 0.500000
vt 0.875000 0.500000
vt 0.875000 0.500000
vt 0.625000 0.500000
vt 0.625000 0.500000
vt 0.375000 0.170455
vt 0.375000 0.250000
vt 0.625000 0.250000
vt 0.625000 0.170455
vt 0.375000 0.250000
vt 0.625000 0.250000
vt 0.625000 0.500000
vt 0.625000 0.500000
vt 0.375000 0.500000
vt 0.375000 0.500000
vt 0.375000 0.579545
vt 0.375000 0.625000
vt 0.625000 0.625000
vt 0.625000 0.579545
vt 0.125000 0.579545
vt 0.125000 0.625000
vt 0.875000 0.500000
vt 0.875000 0.625000
vt 0.875000 0.579545
vt 0.125000 0.500000
vt 0.375000 0.250000
vt 0.625000 0.250000
vt 0.375000 0.500000
vt 0.125000 0.500000
vt 0.125000 0.500000
vt 0.875000 0.500000
vt 0.375000 0.250000
vt 0.625000 0.250000
vt 0.875000 0.500000
vt 0.875000 0.500000
vt 0.625000 0.500000
vt 0.625000 0.500000
vt 0.375000 0.250000
vt 0.625000 0.250000
vt 0.625000 0.500000
vt 0.375000 0.500000
vt 0.375000 0.500000
vt 0.375000 0.250000
vt 0.625000 0.250000
vt 0.125000 0.500000
vt 0.875000 0.500000
vt 0.875000 0.500000
vt 0.625000 0.500000
vt 0.125000 0.500000
vt 0.375000 0.250000
vt 0.625000 0.250000
vt 0.375000 0.250000
vt 0.375000 0.250000
vt 0.625000 0.250000
vt 0.625000 0.250000
vt 0.375000 0.500000
vt 0.125000 0.500000
vt 0.625000 0.500000
vt 0.625000 0.500000
vt 0.375000 0.500000
vt 0.375000 0.500000
vt 0.125000 0.500000
vt 0.875000 0.500000
vt 0.375000 0.250000
vt 0.625000 0.250000
vt 0.125000 0.500000
vt 0.875000 0.500000
vt 0.625000 0.579545
vt 0.875000 0.579545
vt 0.125000 0.579545
vt 0.375000 0.579545
vt 0.375000 0.170455
vt 0.625000 0.170455
vt 0.375000 0.125000
vt 0.625000 0.125000
vt 0.375000 0.500000
vt 0.375000 0.500000
vt 0.125000 0.500000
vt 0.125000 0.500000
vt 0.875000 0.500000
vt 0.875000 0.500000
vt 0.625000 0.500000
vt 0.625000 0.500000
vt 0.375000 0.170455
vt 0.375000 0.250000
vt 0.625000 0.250000
vt 0.625000 0.170455
vt 0.375000 0.250000
vt 0.625000 0.250000
vt 0.625000 0.500000
vt 0.625000 0.500000
vt 0.375000 0.500000
vt 0.375000 0.500000
vt 0.375000 0.579545
vt 0.625000 0.579545
vt 0.125000 0.579545
vt 0.875000 0.500000
vt 0.875000 0.579545
vt 0.125000 0.500000
vt 0.375000 0.250000
vt 0.625000 0.250000
vt 0.375000 0.500000
vt 0.125000 0.500000
vt 0.125000 0.500000
vt 0.875000 0.500000
vt 0.375000 0.250000
vt 0.625000 0.250000
vt 0.875000 0.500000
vt 0.875000 0.500000
vt 0.625000 0.500000
vt 0.625000 0.500000
vt 0.375000 0.250000
vt 0.625000 0.250000
vt 0.625000 0.500000
vt 0.375000 0.500000
vt 0.375000 0.500000
vt 0.375000 0.250000
vt 0.625000 0.250000
vt 0.125000 0.500000
vt 0.875000 0.500000
vt 0.875000 0.500000
vt 0.625000 0.500000
vt 0.125000 0.500000
vt 0.375000 0.250000
vt 0.625000 0.250000
vt 0.375000 0.250000
vt 0.375000 0.250000
vt 0.625000 0.250000
vt 0.625000 0.250000
vt 0.375000 0.500000
vt 0.125000 0.500000
vt 0.625000 0.500000
vt 0.625000 0.500000
vt 0.375000 0.500000
vt 0.375000 0.500000
vt 0.125000 0.500000
vt 0.875000 0.500000
vt 0.375000 0.250000
vt 0.625000 0.250000
vt 0.125000 0.500000
vt 0.875000 0.500000
vt 0.625000 0.579545
vt 0.875000 0.579545
vt 0.125000 0.579545
vt 0.375000 0.579545
vt 0.375000 0.170455
vt 0.625000 0.170455
vt 0.375000 0.500000
vt 0.125000 0.500000
vt 0.125000 0.500000
vt 0.375000 0.500000
vt 0.875000 0.500000
vt 0.625000 0.500000
vt 0.625000 0.500000
vt 0.875000 0.500000
vt 0.375000 0.170455
vt 0.625000 0.170455
vt 0.625000 0.250000
vt 0.375000 0.250000
vt 0.625000 0.250000
vt 0.375000 0.250000
vt 0.625000 0.500000
vt 0.375000 0.500000
vt 0.375000 0.500000
vt 0.625000 0.500000
vt 0.375000 0.579545
vt 0.625000 0.579545
vt 0.125000 0.579545
vt 0.875000 0.500000
vt 0.875000 0.579545
vt 0.125000 0.500000
vt 0.625000 0.250000
vt 0.375000 0.250000
vt 0.125000 0.500000
vt 0.125000 0.500000
vt 0.375000 0.500000
vt 0.875000 0.500000
vt 0.625000 0.250000
vt 0.375000 0.250000
vt 0.875000 0.500000
vt 0.625000 0.500000
vt 0.625000 0.500000
vt 0.875000 0.500000
vt 0.625000 0.250000
vt 0.375000 0.250000
vt 0.375000 0.500000
vt 0.375000 0.500000
vt 0.625000 0.500000
vt 0.625000 0.250000
vt 0.375000 0.250000
vt 0.125000 0.500000
vt 0.875000 0.500000
vt 0.625000 0.500000
vt 0.875000 0.500000
vt 0.125000 0.500000
vt 0.625000 0.250000
vt 0.375000 0.250000
vt 0.375000 0.250000
vt 0.625000 0.250000
vt 0.625000 0.250000
vt 0.375000 0.250000
vt 0.375000 0.500000
vt 0.125000 0.500000
vt 0.625000 0.500000
vt 0.375000 0.500000
vt 0.375000 0.500000
vt 0.625000 0.500000
vt 0.125000 0.500000
vt 0.875000 0.500000
vt 0.375000 0.250000
vt 0.625000 0.250000
vt 0.125000 0.500000
vt 0.875000 0.500000
vt 0.875000 0.579545
vt 0.625000 0.579545
vt 0.375000 0.579545
vt 0.125000 0.579545
vt 0.375000 0.170455
vt 0.625000 0.170455
vn 0.0000 -0.1368 -0.9906
vn 0.0000 0.1368 -0.9906
vn -1.0000 0.0000 0.0000
vn -0.1368 0.0000 -0.9906
vn 0.7555 0.0000 -0.6551
vn 0.1368 0.0000 -0.9906
vn 0.9999 0.0000 -0.0124
vn 0.0000 -0.9999 -0.0124
vn 0.0000 1.0000 0.0000
vn 0.0000 0.9999 -0.0124
vn 0.0000 -1.0000 0.0000
vn 1.0000 0.0000 0.0000
vn 0.0000 -0.9697 0.2444
vn 0.0000 -0.7555 -0.6551
vn 0.0000 0.7555 -0.6551
vn -0.7555 0.0000 -0.6551
vn 0.0000 -0.2957 -0.9553
vn 0.0000 0.9697 0.2444
vn -0.9697 0.0000 0.2444
vn 0.9697 0.0000 0.2444
vn 0.2957 0.0000 -0.9553
vn -0.2957 0.0000 -0.9553
vn 0.0000 0.2957 -0.9553
vn 0.0000 0.0000 1.0000
vn 0.0772 0.0000 -0.9970
vn 0.9605 0.0000 -0.2782
vn -0.0772 0.0000 -0.9970
vn 0.0000 0.0772 -0.9970
vn 0.0000 -0.0772 -0.9970
vn 0.0000 0.0000 -1.0000
vn 0.0000 -0.9605 -0.2782
vn 0.0000 0.9605 -0.2782
vn -0.9605 0.0000 -0.2782
vn -0.9999 0.0000 -0.0124
vn 0.0000 -0.1368 0.9906
vn 0.0000 0.1368 0.9906
vn -0.1368 0.0000 0.9906
vn 0.7555 0.0000 0.6551
vn 0.1368 0.0000 0.9906
vn 0.9999 0.0000 0.0124
vn 0.0000 -0.9999 0.0124
vn 0.0000 0.9999 0.0124
vn 0.0000 -0.9697 -0.2444
vn 0.0000 -0.7555 0.6551
vn 0.0000 0.7555 0.6551
vn -0.7555 0.0000 0.6551
vn 0.0000 -0.2957 0.9553
vn 0.0000 0.9697 -0.2444
vn -0.9697 0.0000 -0.2444
vn 0.9697 0.0000 -0.2444
vn 0.2957 0.0000 0.9553
vn -0.2957 0.0000 0.9553
vn 0.0000 0.2957 0.9553
vn 0.0772 0.0000 0.9970
vn 0.9605 0.0000 0.2782
vn -0.0772 0.0000 0.9970
vn 0.0000 0.0772 0.9970
vn 0.0000 -0.0772 0.9970
vn 0.0000 -0.9605 0.2782
vn 0.0000 0.9605 0.2782
vn -0.9605 0.0000 0.2782
vn -0.9999 0.0000 0.0124
usemtl Material
s off
f 2/1/1 6/2/1 3/3/1 7/4/1
f 5/5/2 1/6/2 8/7/2 4/8/2
f 43/9/3 41/10/3 5/11/3 6/12/3
f 6/12/4 5/11/4 4/13/4 3/14/4
f 12/15/5 11/16/5 15/17/5 16/18/5
f 1/6/6 2/1/6 7/4/6 8/7/6
f 48/19/7 46/20/7 106/21/7 108/22/7
f 45/23/8 48/19/8 108/22/8 105/24/8
f 4/8/9 8/7/9 12/15/9 10/25/9
f 46/20/10 47/26/10 107/27/10 106/21/10
f 7/4/11 3/3/11 9/28/11 11/16/11
f 3/14/3 4/13/3 10/29/3 9/30/3
f 8/7/12 7/4/12 11/16/12 12/15/12
f 15/17/13 13/31/13 17/32/13 19/33/13
f 11/16/14 9/28/14 13/31/14 15/17/14
f 10/25/15 12/15/15 16/18/15 14/34/15
f 9/30/16 10/29/16 14/35/16 13/36/16
f 18/37/17 20/38/17 24/39/17 22/40/17
f 14/34/18 16/18/18 20/38/18 18/37/18
f 13/36/19 14/35/19 18/41/19 17/42/19
f 16/18/20 15/17/20 19/33/20 20/38/20
f 24/39/12 23/43/12 27/44/12 28/45/12
f 17/42/21 18/41/21 22/46/21 21/47/21
f 20/38/22 19/33/22 23/43/22 24/39/22
f 19/33/23 17/32/23 21/48/23 23/43/23
f 26/49/24 28/45/24 32/50/24 30/51/24
f 23/43/11 21/48/11 25/52/11 27/44/11
f 22/40/9 24/39/9 28/45/9 26/49/9
f 21/47/3 22/46/3 26/53/3 25/54/3
f 29/55/25 30/56/25 34/57/25 33/58/25
f 25/54/24 26/53/24 30/56/24 29/55/24
f 28/45/24 27/44/24 31/59/24 32/50/24
f 27/44/24 25/52/24 29/60/24 31/59/24
f 36/61/26 35/62/26 39/63/26 40/64/26
f 32/50/27 31/59/27 35/62/27 36/61/27
f 31/59/28 29/60/28 33/65/28 35/62/28
f 30/51/29 32/50/29 36/61/29 34/66/29
f 37/67/30 38/68/30 40/64/30 39/63/30
f 35/62/31 33/65/31 37/69/31 39/63/31
f 34/66/32 36/61/32 40/64/32 38/70/32
f 33/58/33 34/57/33 38/68/33 37/67/33
f 1/6/9 5/5/9 41/71/9 44/72/9
f 6/2/11 2/1/11 42/73/11 43/74/11
f 2/1/12 1/6/12 44/72/12 42/73/12
f 45/75/30 47/76/30 41/10/30 43/9/30
f 105/77/34 107/78/34 47/76/34 45/75/34
f 44/72/30 41/71/30 47/26/30 46/20/30
f 43/74/30 42/73/30 48/19/30 45/23/30
f 42/73/30 44/72/30 46/20/30 48/19/30
f 50/79/1 55/80/1 51/81/1 54/82/1
f 53/83/2 52/84/2 56/85/2 49/86/2
f 91/87/12 54/88/12 53/89/12 89/90/12
f 54/88/6 51/91/6 52/92/6 53/89/6
f 60/93/16 64/94/16 63/95/16 59/96/16
f 49/86/4 56/85/4 55/80/4 50/79/4
f 96/97/34 160/98/34 158/99/34 94/100/34
f 93/101/8 157/102/8 160/98/8 96/97/8
f 52/84/9 58/103/9 60/93/9 56/85/9
f 94/100/10 158/99/10 159/104/10 95/105/10
f 55/80/11 59/96/11 57/106/11 51/81/11
f 51/91/12 57/107/12 58/108/12 52/92/12
f 56/85/3 60/93/3 59/96/3 55/80/3
f 63/95/13 67/109/13 65/110/13 61/111/13
f 59/96/14 63/95/14 61/111/14 57/106/14
f 58/103/15 62/112/15 64/94/15 60/93/15
f 57/107/5 61/113/5 62/114/5 58/108/5
f 66/115/17 70/116/17 72/117/17 68/118/17
f 62/112/18 66/115/18 68/118/18 64/94/18
f 61/113/20 65/119/20 66/120/20 62/114/20
f 64/94/19 68/118/19 67/109/19 63/95/19
f 72/117/3 76/121/3 75/122/3 71/123/3
f 65/119/22 69/124/22 70/125/22 66/120/22
f 68/118/21 72/117/21 71/123/21 67/109/21
f 67/109/23 71/123/23 69/126/23 65/110/23
f 74/127/24 78/128/24 80/129/24 76/121/24
f 71/123/11 75/122/11 73/130/11 69/126/11
f 70/116/9 74/127/9 76/121/9 72/117/9
f 69/124/12 73/131/12 74/132/12 70/125/12
f 77/133/27 81/134/27 82/135/27 78/136/27
f 73/131/24 77/133/24 78/136/24 74/132/24
f 76/121/24 80/129/24 79/137/24 75/122/24
f 75/122/24 79/137/24 77/138/24 73/130/24
f 84/139/33 88/140/33 87/141/33 83/142/33
f 80/129/25 84/139/25 83/142/25 79/137/25
f 79/137/28 83/142/28 81/143/28 77/138/28
f 78/128/29 82/144/29 84/139/29 80/129/29
f 85/145/30 87/141/30 88/140/30 86/146/30
f 83/142/31 87/141/31 85/147/31 81/143/31
f 82/144/32 86/148/32 88/140/32 84/139/32
f 81/134/26 85/145/26 86/146/26 82/135/26
f 49/86/9 92/149/9 89/150/9 53/83/9
f 54/82/11 91/151/11 90/152/11 50/79/11
f 50/79/3 90/152/3 92/149/3 49/86/3
f 93/153/30 91/87/30 89/90/30 95/154/30
f 157/155/7 93/153/7 95/154/7 159/156/7
f 92/149/30 94/100/30 95/105/30 89/150/30
f 91/151/30 93/101/30 96/97/30 90/152/30
f 90/152/30 96/97/30 94/100/30 92/149/30
f 98/157/35 103/158/35 99/159/35 102/160/35
f 101/161/36 100/162/36 104/163/36 97/164/36
f 143/165/3 102/166/3 101/167/3 141/168/3
f 102/166/37 99/169/37 100/170/37 101/167/37
f 112/171/38 116/172/38 115/173/38 111/174/38
f 97/164/39 104/163/39 103/158/39 98/157/39
f 148/175/40 108/22/40 106/21/40 146/176/40
f 145/177/41 105/24/41 108/22/41 148/175/41
f 100/162/9 110/178/9 112/171/9 104/163/9
f 146/176/42 106/21/42 107/27/42 147/179/42
f 103/158/11 111/174/11 109/180/11 99/159/11
f 99/169/3 109/181/3 110/182/3 100/170/3
f 104/163/12 112/171/12 111/174/12 103/158/12
f 115/173/43 119/183/43 117/184/43 113/185/43
f 111/174/44 115/173/44 113/185/44 109/180/44
f 110/178/45 114/186/45 116/172/45 112/171/45
f 109/181/46 113/187/46 114/188/46 110/182/46
f 118/189/47 122/190/47 124/191/47 120/192/47
f 114/186/48 118/189/48 120/192/48 116/172/48
f 113/187/49 117/193/49 118/194/49 114/188/49
f 116/172/50 120/192/50 119/183/50 115/173/50
f 124/191/12 128/195/12 127/196/12 123/197/12
f 117/193/51 121/198/51 122/199/51 118/194/51
f 120/192/52 124/191/52 123/197/52 119/183/52
f 119/183/53 123/197/53 121/200/53 117/184/53
f 126/201/24 130/202/24 132/203/24 128/195/24
f 123/197/11 127/196/11 125/204/11 121/200/11
f 122/190/9 126/201/9 128/195/9 124/191/9
f 121/198/3 125/205/3 126/206/3 122/199/3
f 129/207/54 133/208/54 134/209/54 130/210/54
f 125/205/24 129/207/24 130/210/24 126/206/24
f 128/195/24 132/203/24 131/211/24 127/196/24
f 127/196/24 131/211/24 129/212/24 125/204/24
f 136/213/55 140/214/55 139/215/55 135/216/55
f 132/203/56 136/213/56 135/216/56 131/211/56
f 131/211/57 135/216/57 133/217/57 129/212/57
f 130/202/58 134/218/58 136/213/58 132/203/58
f 137/219/24 139/215/24 140/214/24 138/220/24
f 135/216/59 139/215/59 137/221/59 133/217/59
f 134/218/60 138/222/60 140/214/60 136/213/60
f 133/208/61 137/219/61 138/220/61 134/209/61
f 97/164/9 144/223/9 141/224/9 101/161/9
f 102/160/11 143/225/11 142/226/11 98/157/11
f 98/157/12 142/226/12 144/223/12 97/164/12
f 145/227/24 143/165/24 141/168/24 147/228/24
f 105/77/62 145/227/62 147/228/62 107/78/62
f 144/223/24 146/176/24 147/179/24 141/224/24
f 143/225/24 145/177/24 148/175/24 142/226/24
f 142/226/24 148/175/24 146/176/24 144/223/24
f 150/229/35 154/230/35 151/231/35 155/232/35
f 153/233/36 149/234/36 156/235/36 152/236/36
f 195/237/12 193/238/12 153/239/12 154/240/12
f 154/240/39 153/239/39 152/241/39 151/242/39
f 164/243/46 163/244/46 167/245/46 168/246/46
f 149/234/37 150/229/37 155/232/37 156/235/37
f 200/247/62 198/248/62 158/99/62 160/98/62
f 197/249/41 200/247/41 160/98/41 157/102/41
f 152/236/9 156/235/9 164/243/9 162/250/9
f 198/248/42 199/251/42 159/104/42 158/99/42
f 155/232/11 151/231/11 161/252/11 163/244/11
f 151/242/12 152/241/12 162/253/12 161/254/12
f 156/235/3 155/232/3 163/244/3 164/243/3
f 167/245/43 165/255/43 169/256/43 171/257/43
f 163/244/44 161/252/44 165/255/44 167/245/44
f 162/250/45 164/243/45 168/246/45 166/258/45
f 161/254/38 162/253/38 166/259/38 165/260/38
f 170/261/47 172/262/47 176/263/47 174/264/47
f 166/258/48 168/246/48 172/262/48 170/261/48
f 165/260/50 166/259/50 170/265/50 169/266/50
f 168/246/49 167/245/49 171/257/49 172/262/49
f 176/263/3 175/267/3 179/268/3 180/269/3
f 169/266/52 170/265/52 174/270/52 173/271/52
f 172/262/51 171/257/51 175/267/51 176/263/51
f 171/257/53 169/256/53 173/272/53 175/267/53
f 178/273/24 180/269/24 184/274/24 182/275/24
f 175/267/11 173/272/11 177/276/11 179/268/11
f 174/264/9 176/263/9 180/269/9 178/273/9
f 173/271/12 174/270/12 178/277/12 177/278/12
f 181/279/56 182/280/56 186/281/56 185/282/56
f 177/278/24 178/277/24 182/280/24 181/279/24
f 180/269/24 179/268/24 183/283/24 184/274/24
f 179/268/24 177/276/24 181/284/24 183/283/24
f 188/285/61 187/286/61 191/287/61 192/288/61
f 184/274/54 183/283/54 187/286/54 188/285/54
f 183/283/57 181/284/57 185/289/57 187/286/57
f 182/275/58 184/274/58 188/285/58 186/290/58
f 189/291/24 190/292/24 192/288/24 191/287/24
f 187/286/59 185/289/59 189/293/59 191/287/59
f 186/290/60 188/285/60 192/288/60 190/294/60
f 185/282/55 186/281/55 190/292/55 189/291/55
f 149/234/9 153/233/9 193/295/9 196/296/9
f 154/230/11 150/229/11 194/297/11 195/298/11
f 150/229/3 149/234/3 196/296/3 194/297/3
f 197/299/24 199/300/24 193/238/24 195/237/24
f 157/155/40 159/156/40 199/300/40 197/299/40
f 196/296/24 193/295/24 199/251/24 198/248/24
f 195/298/24 194/297/24 200/247/24 197/249/24
f 194/297/24 196/296/24 198/248/24 200/247/24
