# Blender v2.82 (sub 7) OBJ File: ''
# www.blender.org
mtllib Trigger.mtl
o Cube
v 1.000000 1.000000 -1.000000
v 1.000000 -1.000000 -1.000000
v -1.000000 1.000000 -1.000000
v -1.000000 -1.000000 -1.000000
v -1.000000 -1.952550 -2.038121
v -1.000000 0.047450 -2.038121
v 0.307856 2.497992 -0.307856
v 1.000000 -1.952550 -2.038121
v -0.307856 2.497992 -0.307856
v 1.000000 0.047450 -2.038121
v -1.000000 1.000000 -1.000000
v -1.000000 -1.000000 -1.000000
v 1.000000 1.000000 -1.000000
v 1.000000 -1.000000 -1.000000
v 1.000000 -1.952550 -2.038121
v 1.000000 0.047450 -2.038121
v -0.307856 2.497992 -0.307856
v -1.000000 -1.952550 -2.038121
v 0.307856 2.497992 -0.307856
v -1.000000 0.047450 -2.038121
v 1.000000 1.000000 1.000000
v 1.000000 -1.000000 1.000000
v -1.000000 1.000000 1.000000
v -1.000000 -1.000000 1.000000
v -1.000000 -1.952550 2.038121
v -1.000000 0.047450 2.038121
v 0.307856 2.497992 0.307856
v 1.000000 -1.952550 2.038121
v -0.307856 2.497992 0.307856
v 1.000000 0.047450 2.038121
v -1.000000 -1.000000 0.000000
v 1.000000 1.000000 0.000000
v -1.000000 1.000000 0.000000
v 1.000000 -1.000000 0.000000
v 0.307856 2.497992 0.000000
v -0.307856 2.497992 0.000000
v -1.000000 1.000000 1.000000
v -1.000000 -1.000000 1.000000
v 1.000000 1.000000 1.000000
v 1.000000 -1.000000 1.000000
v 1.000000 -1.952550 2.038121
v 1.000000 0.047450 2.038121
v -0.307856 2.497992 0.307856
v -1.000000 -1.952550 2.038121
v 0.307856 2.497992 0.307856
v -1.000000 0.047450 2.038121
v 1.000000 -1.000000 0.000000
v -1.000000 1.000000 0.000000
v 1.000000 1.000000 0.000000
v -1.000000 -1.000000 0.000000
v -0.307856 2.497992 0.000000
v 0.307856 2.497992 0.000000
vt 0.625000 0.500000
vt 0.625000 0.250000
vt 0.625000 0.250000
vt 0.625000 0.500000
vt 0.375000 0.125000
vt 0.625000 0.125000
vt 0.375000 0.250000
vt 0.375000 0.500000
vt 0.125000 0.500000
vt 0.125000 0.500000
vt 0.375000 0.500000
vt 0.625000 0.500000
vt 0.625000 0.250000
vt 0.375000 0.250000
vt 0.625000 0.625000
vt 0.625000 0.625000
vt 0.625000 0.125000
vt 0.875000 0.500000
vt 0.875000 0.625000
vt 0.375000 0.625000
vt 0.125000 0.625000
vt 0.625000 0.500000
vt 0.625000 0.500000
vt 0.625000 0.250000
vt 0.625000 0.250000
vt 0.375000 0.125000
vt 0.375000 0.250000
vt 0.625000 0.125000
vt 0.375000 0.500000
vt 0.375000 0.500000
vt 0.125000 0.500000
vt 0.125000 0.500000
vt 0.625000 0.250000
vt 0.625000 0.500000
vt 0.375000 0.250000
vt 0.625000 0.625000
vt 0.625000 0.625000
vt 0.625000 0.125000
vt 0.875000 0.625000
vt 0.875000 0.500000
vt 0.375000 0.625000
vt 0.125000 0.625000
vt 0.625000 0.500000
vt 0.625000 0.500000
vt 0.625000 0.250000
vt 0.625000 0.250000
vt 0.375000 0.250000
vt 0.375000 0.500000
vt 0.375000 0.500000
vt 0.125000 0.500000
vt 0.125000 0.500000
vt 0.625000 0.250000
vt 0.625000 0.500000
vt 0.375000 0.250000
vt 0.875000 0.500000
vt 0.625000 0.500000
vt 0.625000 0.250000
vt 0.625000 0.250000
vt 0.625000 0.500000
vt 0.375000 0.250000
vt 0.375000 0.500000
vt 0.125000 0.500000
vt 0.125000 0.500000
vt 0.375000 0.500000
vt 0.625000 0.500000
vt 0.625000 0.250000
vt 0.375000 0.250000
vt 0.875000 0.500000
vn 0.0000 0.4194 -0.9078
vn -1.0000 0.0000 0.0000
vn 0.0000 -0.7368 0.6761
vn 0.0000 0.7368 -0.6761
vn 0.0000 0.0000 -1.0000
vn 1.0000 0.0000 0.0000
vn 0.9078 0.4194 0.0000
vn -0.9078 0.4194 0.0000
vn 0.0000 1.0000 0.0000
vn 0.0000 -1.0000 0.0000
vn 0.0000 0.4194 0.9078
vn 0.0000 -0.7368 -0.6761
vn 0.0000 0.7368 0.6761
vn 0.0000 0.0000 1.0000
usemtl Material
s off
f 1/1/1 3/2/1 9/3/1 7/4/1
f 31/5/2 33/6/2 3/2/2 4/7/2
f 2/8/3 4/9/3 5/10/3 8/11/3
f 3/2/4 1/1/4 10/12/4 6/13/4
f 5/14/5 6/13/5 10/12/5 8/11/5
f 1/1/6 2/8/6 8/11/6 10/12/6
f 32/15/7 1/1/7 7/4/7 35/16/7
f 3/2/8 33/6/8 36/17/8 9/3/8
f 7/4/9 9/18/9 36/19/9 35/16/9
f 2/8/6 1/1/6 32/15/6 34/20/6
f 4/9/10 2/8/10 34/20/10 31/21/10
f 4/7/2 3/2/2 6/13/2 5/14/2
f 11/22/1 17/23/1 19/24/1 13/25/1
f 47/26/6 14/27/6 13/25/6 49/28/6
f 12/29/3 18/30/3 15/31/3 14/32/3
f 13/25/4 16/33/4 20/34/4 11/22/4
f 15/35/5 18/30/5 20/34/5 16/33/5
f 11/22/2 20/34/2 18/30/2 12/29/2
f 48/36/8 51/37/8 17/23/8 11/22/8
f 13/25/7 19/24/7 52/38/7 49/28/7
f 17/23/9 51/37/9 52/39/9 19/40/9
f 12/29/2 50/41/2 48/36/2 11/22/2
f 14/32/10 47/42/10 50/41/10 12/29/10
f 14/27/6 15/35/6 16/33/6 13/25/6
f 21/43/11 27/44/11 29/45/11 23/46/11
f 31/5/2 24/47/2 23/46/2 33/6/2
f 22/48/12 28/49/12 25/50/12 24/51/12
f 23/46/13 26/52/13 30/53/13 21/43/13
f 25/54/14 28/49/14 30/53/14 26/52/14
f 21/43/6 30/53/6 28/49/6 22/48/6
f 32/15/7 35/16/7 27/44/7 21/43/7
f 23/46/8 29/45/8 36/17/8 33/6/8
f 27/44/9 35/16/9 36/19/9 29/55/9
f 22/48/6 34/20/6 32/15/6 21/43/6
f 24/51/10 31/21/10 34/20/10 22/48/10
f 24/47/2 25/54/2 26/52/2 23/46/2
f 37/56/11 39/57/11 45/58/11 43/59/11
f 47/26/6 49/28/6 39/57/6 40/60/6
f 38/61/12 40/62/12 41/63/12 44/64/12
f 39/57/13 37/56/13 46/65/13 42/66/13
f 41/67/14 42/66/14 46/65/14 44/64/14
f 37/56/2 38/61/2 44/64/2 46/65/2
f 48/36/8 37/56/8 43/59/8 51/37/8
f 39/57/7 49/28/7 52/38/7 45/58/7
f 43/59/9 45/68/9 52/39/9 51/37/9
f 38/61/2 37/56/2 48/36/2 50/41/2
f 40/62/10 38/61/10 50/41/10 47/42/10
f 40/60/6 39/57/6 42/66/6 41/67/6
