# Blender v2.82 (sub 7) OBJ File: ''
# www.blender.org
mtllib Obo2.mtl
o Cube
v 1.000000 0.430658 -0.404457
v -1.000000 0.430658 -0.404457
v 1.000000 0.714158 -0.404457
v -1.000000 0.714158 -0.404457
v 1.000000 0.627236 -1.256625
v -1.000000 0.627236 -1.256625
v -1.000000 0.692304 -0.825802
v 1.000000 0.692304 -0.825802
v -1.000000 0.408804 -0.825802
v 1.000000 0.408804 -0.825802
v -1.000000 0.343736 -1.256625
v 1.000000 0.343736 -1.256625
v 1.000000 0.509224 -1.534387
v -1.000000 0.509224 -1.534387
v -1.000000 0.225724 -1.534387
v 1.000000 0.225724 -1.534387
v 1.000000 0.520410 -1.986879
v -1.000000 0.520410 -1.986879
v -1.000000 0.236910 -1.986879
v 1.000000 0.236910 -1.986879
v -1.000000 0.430658 -0.404457
v 1.000000 0.430658 -0.404457
v -1.000000 0.714158 -0.404457
v 1.000000 0.714158 -0.404457
v -1.000000 0.627236 -1.256625
v 1.000000 0.627236 -1.256625
v 1.000000 0.692304 -0.825802
v -1.000000 0.692304 -0.825802
v 1.000000 0.408804 -0.825802
v -1.000000 0.408804 -0.825802
v 1.000000 0.343736 -1.256625
v -1.000000 0.343736 -1.256625
v -1.000000 0.509224 -1.534387
v 1.000000 0.509224 -1.534387
v 1.000000 0.225724 -1.534387
v -1.000000 0.225724 -1.534387
v -1.000000 0.520410 -1.986879
v 1.000000 0.520410 -1.986879
v 1.000000 0.236910 -1.986879
v -1.000000 0.236910 -1.986879
v 1.000000 0.430658 0.404457
v -1.000000 0.430658 0.404457
v -1.000000 0.408393 0.000000
v 1.000000 0.408393 0.000000
v 1.000000 0.714158 0.404457
v -1.000000 0.714158 0.404457
v 1.000000 0.724900 0.000000
v -1.000000 0.724900 0.000000
v 1.000000 0.627236 1.256625
v -1.000000 0.627236 1.256625
v -1.000000 0.692304 0.825802
v 1.000000 0.692304 0.825802
v -1.000000 0.408804 0.825802
v 1.000000 0.408804 0.825802
v -1.000000 0.343736 1.256625
v 1.000000 0.343736 1.256625
v 1.000000 0.509224 1.534387
v -1.000000 0.509224 1.534387
v -1.000000 0.225724 1.534387
v 1.000000 0.225724 1.534387
v 1.000000 0.520410 1.986879
v -1.000000 0.520410 1.986879
v -1.000000 0.236910 1.986879
v 1.000000 0.236910 1.986879
v -1.000000 0.430658 0.404457
v 1.000000 0.430658 0.404457
v 1.000000 0.408393 0.000000
v -1.000000 0.408393 0.000000
v -1.000000 0.714158 0.404457
v 1.000000 0.714158 0.404457
v -1.000000 0.724900 0.000000
v 1.000000 0.724900 0.000000
v -1.000000 0.627236 1.256625
v 1.000000 0.627236 1.256625
v 1.000000 0.692304 0.825802
v -1.000000 0.692304 0.825802
v 1.000000 0.408804 0.825802
v -1.000000 0.408804 0.825802
v 1.000000 0.343736 1.256625
v -1.000000 0.343736 1.256625
v -1.000000 0.509224 1.534387
v 1.000000 0.509224 1.534387
v 1.000000 0.225724 1.534387
v -1.000000 0.225724 1.534387
v -1.000000 0.520410 1.986879
v 1.000000 0.520410 1.986879
v 1.000000 0.236910 1.986879
v -1.000000 0.236910 1.986879
vt 0.375000 0.250000
vt 0.494801 0.250000
vt 0.494801 0.250000
vt 0.375000 0.250000
vt 0.125000 0.500000
vt 0.375000 0.500000
vt 0.375000 0.625000
vt 0.125000 0.625000
vt 0.494801 0.500000
vt 0.494801 0.625000
vt 0.375000 0.125000
vt 0.494801 0.125000
vt 0.494801 0.500000
vt 0.494801 0.500000
vt 0.494801 0.250000
vt 0.375000 0.500000
vt 0.125000 0.500000
vt 0.125000 0.500000
vt 0.375000 0.500000
vt 0.375000 0.500000
vt 0.125000 0.500000
vt 0.375000 0.250000
vt 0.125000 0.500000
vt 0.375000 0.500000
vt 0.494801 0.500000
vt 0.494801 0.250000
vt 0.375000 0.250000
vt 0.375000 0.250000
vt 0.494801 0.250000
vt 0.494801 0.500000
vt 0.375000 0.250000
vt 0.375000 0.250000
vt 0.494801 0.250000
vt 0.494801 0.250000
vt 0.125000 0.500000
vt 0.125000 0.625000
vt 0.375000 0.625000
vt 0.375000 0.500000
vt 0.494801 0.625000
vt 0.494801 0.500000
vt 0.375000 0.125000
vt 0.494801 0.125000
vt 0.494801 0.500000
vt 0.494801 0.250000
vt 0.494801 0.500000
vt 0.375000 0.500000
vt 0.375000 0.500000
vt 0.125000 0.500000
vt 0.125000 0.500000
vt 0.375000 0.500000
vt 0.125000 0.500000
vt 0.375000 0.250000
vt 0.375000 0.500000
vt 0.125000 0.500000
vt 0.494801 0.250000
vt 0.494801 0.500000
vt 0.375000 0.250000
vt 0.375000 0.250000
vt 0.494801 0.500000
vt 0.494801 0.250000
vt 0.375000 0.250000
vt 0.375000 0.250000
vt 0.494801 0.250000
vt 0.494801 0.250000
vt 0.125000 0.500000
vt 0.375000 0.500000
vt 0.494801 0.500000
vt 0.494801 0.500000
vt 0.494801 0.250000
vt 0.494801 0.500000
vt 0.375000 0.500000
vt 0.375000 0.500000
vt 0.125000 0.500000
vt 0.125000 0.500000
vt 0.375000 0.500000
vt 0.125000 0.500000
vt 0.375000 0.250000
vt 0.375000 0.500000
vt 0.125000 0.500000
vt 0.494801 0.250000
vt 0.494801 0.500000
vt 0.375000 0.250000
vt 0.375000 0.250000
vt 0.494801 0.500000
vt 0.494801 0.250000
vt 0.375000 0.250000
vt 0.494801 0.250000
vt 0.494801 0.250000
vt 0.375000 0.250000
vt 0.125000 0.500000
vt 0.375000 0.500000
vt 0.494801 0.500000
vt 0.494801 0.500000
vt 0.494801 0.500000
vt 0.494801 0.250000
vt 0.375000 0.500000
vt 0.125000 0.500000
vt 0.125000 0.500000
vt 0.375000 0.500000
vt 0.375000 0.500000
vt 0.125000 0.500000
vt 0.375000 0.250000
vt 0.125000 0.500000
vt 0.375000 0.500000
vt 0.494801 0.500000
vt 0.494801 0.250000
vt 0.375000 0.250000
vt 0.375000 0.250000
vt 0.494801 0.250000
vt 0.494801 0.500000
vn -1.0000 0.0000 0.0000
vn 0.0000 -0.9985 -0.0550
vn 1.0000 0.0000 0.0000
vn 0.0000 0.9987 -0.0518
vn 0.0000 0.9888 -0.1493
vn 0.0000 -0.9204 0.3910
vn 0.0000 -0.9888 0.1493
vn 0.0000 -0.9987 0.0518
vn 0.0000 0.9996 -0.0265
vn 0.0000 -0.9997 -0.0247
vn 0.0000 0.9204 -0.3910
vn 0.0000 0.0000 -1.0000
vn 0.0000 0.9997 0.0247
vn 0.0000 -0.9985 0.0550
vn 0.0000 0.9987 0.0518
vn 0.0000 0.9888 0.1493
vn 0.0000 -0.9204 -0.3910
vn 0.0000 -0.9888 -0.1493
vn 0.0000 -0.9987 -0.0518
vn 0.0000 0.9996 0.0265
vn 0.0000 -0.9997 0.0247
vn 0.0000 0.9204 0.3910
vn 0.0000 0.0000 1.0000
vn 0.0000 0.9997 -0.0247
usemtl Material
s off
f 2/1/1 4/2/1 7/3/1 9/4/1
f 2/5/2 1/6/2 44/7/2 43/8/2
f 1/6/3 3/9/3 47/10/3 44/7/3
f 43/11/1 48/12/1 4/2/1 2/1/1
f 4/2/4 3/9/4 8/13/4 7/3/4
f 7/3/5 8/13/5 5/14/5 6/15/5
f 12/16/6 11/17/6 15/18/6 16/19/6
f 10/20/7 9/21/7 11/17/7 12/16/7
f 1/6/8 2/5/8 9/21/8 10/20/8
f 3/9/3 1/6/3 10/20/3 8/13/3
f 3/9/9 4/2/9 48/12/9 47/10/9
f 8/13/3 10/20/3 12/16/3 5/14/3
f 9/4/1 7/3/1 6/15/1 11/22/1
f 16/19/10 15/18/10 19/23/10 20/24/10
f 6/15/11 5/14/11 13/25/11 14/26/11
f 11/22/1 6/15/1 14/26/1 15/27/1
f 5/14/3 12/16/3 16/19/3 13/25/3
f 19/28/12 18/29/12 17/30/12 20/24/12
f 14/26/13 13/25/13 17/30/13 18/29/13
f 15/27/1 14/26/1 18/29/1 19/28/1
f 13/25/3 16/19/3 20/24/3 17/30/3
f 22/31/3 29/32/3 27/33/3 24/34/3
f 22/35/2 67/36/2 68/37/2 21/38/2
f 21/38/1 68/37/1 71/39/1 23/40/1
f 67/41/3 22/31/3 24/34/3 72/42/3
f 24/34/4 27/33/4 28/43/4 23/40/4
f 27/33/5 26/44/5 25/45/5 28/43/5
f 32/46/6 36/47/6 35/48/6 31/49/6
f 30/50/7 32/46/7 31/49/7 29/51/7
f 21/38/8 30/50/8 29/51/8 22/35/8
f 23/40/1 28/43/1 30/50/1 21/38/1
f 23/40/9 71/39/9 72/42/9 24/34/9
f 28/43/1 25/45/1 32/46/1 30/50/1
f 29/32/3 31/52/3 26/44/3 27/33/3
f 36/47/10 40/53/10 39/54/10 35/48/10
f 26/44/11 34/55/11 33/56/11 25/45/11
f 31/52/3 35/57/3 34/55/3 26/44/3
f 25/45/1 33/56/1 36/47/1 32/46/1
f 39/58/12 40/53/12 37/59/12 38/60/12
f 34/55/13 38/60/13 37/59/13 33/56/13
f 35/57/3 39/58/3 38/60/3 34/55/3
f 33/56/1 37/59/1 40/53/1 36/47/1
f 42/61/1 53/62/1 51/63/1 46/64/1
f 42/65/14 43/8/14 44/7/14 41/66/14
f 41/66/3 44/7/3 47/10/3 45/67/3
f 43/11/1 42/61/1 46/64/1 48/12/1
f 46/64/15 51/63/15 52/68/15 45/67/15
f 51/63/16 50/69/16 49/70/16 52/68/16
f 56/71/17 60/72/17 59/73/17 55/74/17
f 54/75/18 56/71/18 55/74/18 53/76/18
f 41/66/19 54/75/19 53/76/19 42/65/19
f 45/67/3 52/68/3 54/75/3 41/66/3
f 45/67/20 47/10/20 48/12/20 46/64/20
f 52/68/3 49/70/3 56/71/3 54/75/3
f 53/62/1 55/77/1 50/69/1 51/63/1
f 60/72/21 64/78/21 63/79/21 59/73/21
f 50/69/22 58/80/22 57/81/22 49/70/22
f 55/77/1 59/82/1 58/80/1 50/69/1
f 49/70/3 57/81/3 60/72/3 56/71/3
f 63/83/23 64/78/23 61/84/23 62/85/23
f 58/80/24 62/85/24 61/84/24 57/81/24
f 59/82/1 63/83/1 62/85/1 58/80/1
f 57/81/3 61/84/3 64/78/3 60/72/3
f 66/86/3 70/87/3 75/88/3 77/89/3
f 66/90/14 65/91/14 68/37/14 67/36/14
f 65/91/1 69/92/1 71/39/1 68/37/1
f 67/41/3 72/42/3 70/87/3 66/86/3
f 70/87/15 69/92/15 76/93/15 75/88/15
f 75/88/16 76/93/16 73/94/16 74/95/16
f 80/96/17 79/97/17 83/98/17 84/99/17
f 78/100/18 77/101/18 79/97/18 80/96/18
f 65/91/19 66/90/19 77/101/19 78/100/19
f 69/92/1 65/91/1 78/100/1 76/93/1
f 69/92/20 70/87/20 72/42/20 71/39/20
f 76/93/1 78/100/1 80/96/1 73/94/1
f 77/89/3 75/88/3 74/95/3 79/102/3
f 84/99/21 83/98/21 87/103/21 88/104/21
f 74/95/22 73/94/22 81/105/22 82/106/22
f 79/102/3 74/95/3 82/106/3 83/107/3
f 73/94/1 80/96/1 84/99/1 81/105/1
f 87/108/23 86/109/23 85/110/23 88/104/23
f 82/106/24 81/105/24 85/110/24 86/109/24
f 83/107/3 82/106/3 86/109/3 87/108/3
f 81/105/1 84/99/1 88/104/1 85/110/1
