# Blender 4.3.2
# www.blender.org
mtllib FC_Fast.mtl
o FC_Fast
v -0.250100 -0.090200 0.057400
v -0.250100 -0.008200 0.057400
v -0.250100 -0.090200 -0.057400
v -0.250100 -0.008200 -0.057400
v 0.200900 -0.075850 0.025830
v 0.200900 -0.022550 0.025830
v 0.200900 -0.075850 -0.025830
v 0.200900 -0.022550 -0.025830
v -0.250100 -0.090200 0.000000
v -0.250100 -0.049200 0.057400
v -0.250100 -0.008200 0.000000
v -0.250100 -0.049200 -0.057400
v -0.024600 -0.090200 -0.057400
v -0.024600 -0.008200 -0.057400
v 0.200900 -0.049200 -0.025830
v 0.200900 -0.075850 0.000000
v 0.200900 -0.022550 0.000000
v 0.200900 -0.049200 0.025830
v -0.024600 -0.090200 0.057400
v -0.024600 -0.008200 0.057400
v -0.024600 -0.008200 0.000000
v -0.024600 -0.090200 0.000000
v -0.024600 -0.049200 0.057400
v 0.200900 -0.049200 0.000000
v -0.024600 -0.049200 -0.057400
v -0.250100 -0.049200 0.000000
v 0.188600 -0.049200 -0.041000
v 0.188600 -0.078191 -0.028991
v 0.188600 -0.090200 0.000000
v 0.188600 -0.078191 0.028991
v 0.188600 -0.049200 0.041000
v 0.188600 -0.020209 0.028991
v 0.188600 -0.008200 0.000000
v 0.188600 -0.020209 -0.028991
v 0.418200 -0.049200 0.000000
v 0.393600 -0.049200 -0.014760
v 0.393600 -0.061983 -0.007380
v 0.393600 -0.061983 0.007380
v 0.393600 -0.049200 0.014760
v 0.393600 -0.036417 0.007380
v 0.393600 -0.036417 -0.007380
v 0.459200 -0.049200 0.000000
v 0.008200 -0.012300 0.041000
v 0.008200 0.028700 0.041000
v 0.008200 -0.012300 -0.041000
v 0.008200 0.028700 -0.041000
v 0.139400 -0.012300 0.041000
v 0.139400 0.028700 0.041000
v 0.139400 -0.012300 -0.041000
v 0.139400 0.028700 -0.041000
v -0.131200 -0.012300 0.049200
v -0.131200 0.012300 0.049200
v -0.131200 -0.012300 -0.049200
v -0.131200 0.012300 -0.049200
v 0.049200 -0.012300 0.049200
v 0.049200 0.012300 0.049200
v 0.049200 -0.012300 -0.049200
v 0.049200 0.012300 -0.049200
v 0.000497 0.016400 0.026092
v 0.000497 0.024600 0.026092
v -0.034292 0.016400 -0.008697
v -0.034292 0.024600 -0.008697
v 0.017892 0.016400 0.008697
v 0.017892 0.024600 0.008697
v -0.016897 0.016400 -0.026092
v -0.016897 0.024600 -0.026092
v -0.083492 0.016400 0.008697
v -0.083492 0.024600 0.008697
v -0.048703 0.016400 -0.026092
v -0.048703 0.024600 -0.026092
v -0.066097 0.016400 0.026092
v -0.066097 0.024600 0.026092
v -0.031308 0.016400 -0.008697
v -0.031308 0.024600 -0.008697
v 0.008344 0.021320 -0.025876
v 0.008344 0.027880 -0.025876
v 0.013988 0.021320 -0.033937
v 0.013988 0.027880 -0.033937
v 0.035212 0.021320 -0.007063
v 0.035212 0.027880 -0.007063
v 0.040856 0.021320 -0.015124
v 0.040856 0.027880 -0.015124
v 0.013988 0.021320 0.033937
v 0.013988 0.027880 0.033937
v 0.008344 0.021320 0.025876
v 0.008344 0.027880 0.025876
v 0.040856 0.021320 0.015124
v 0.040856 0.027880 0.015124
v 0.035212 0.021320 0.007063
v 0.035212 0.027880 0.007063
v -0.040856 0.021320 -0.025876
v -0.040856 0.027880 -0.025876
v -0.035212 0.021320 -0.033937
v -0.035212 0.027880 -0.033937
v -0.013988 0.021320 -0.007063
v -0.013988 0.027880 -0.007063
v -0.008344 0.021320 -0.015124
v -0.008344 0.027880 -0.015124
v -0.035212 0.021320 0.033937
v -0.035212 0.027880 0.033937
v -0.040856 0.021320 0.025876
v -0.040856 0.027880 0.025876
v -0.008344 0.021320 0.015124
v -0.008344 0.027880 0.015124
v -0.013988 0.021320 0.007063
v -0.013988 0.027880 0.007063
v -0.127100 0.021320 -0.012300
v -0.127100 0.027880 -0.012300
v -0.127100 0.021320 -0.053300
v -0.127100 0.027880 -0.053300
v -0.118900 0.021320 -0.012300
v -0.118900 0.027880 -0.012300
v -0.118900 0.021320 -0.053300
v -0.118900 0.027880 -0.053300
v -0.118900 0.021320 -0.045100
v -0.118900 0.027880 -0.045100
v -0.118900 0.021320 -0.053300
v -0.118900 0.027880 -0.053300
v -0.094300 0.021320 -0.045100
v -0.094300 0.027880 -0.045100
v -0.094300 0.021320 -0.053300
v -0.094300 0.027880 -0.053300
v -0.120950 0.021320 -0.028700
v -0.120950 0.027880 -0.028700
v -0.120950 0.021320 -0.036900
v -0.120950 0.027880 -0.036900
v -0.100450 0.021320 -0.028700
v -0.100450 0.027880 -0.028700
v -0.100450 0.021320 -0.036900
v -0.100450 0.027880 -0.036900
v -0.192700 0.021320 -0.012300
v -0.192700 0.027880 -0.012300
v -0.192700 0.021320 -0.053300
v -0.192700 0.027880 -0.053300
v -0.184500 0.021320 -0.012300
v -0.184500 0.027880 -0.012300
v -0.184500 0.021320 -0.053300
v -0.184500 0.027880 -0.053300
v -0.217300 0.021320 -0.012300
v -0.217300 0.027880 -0.012300
v -0.217300 0.021320 -0.053300
v -0.217300 0.027880 -0.053300
v -0.209100 0.021320 -0.012300
v -0.209100 0.027880 -0.012300
v -0.209100 0.021320 -0.053300
v -0.209100 0.027880 -0.053300
v -0.213200 0.021320 -0.045100
v -0.213200 0.027880 -0.045100
v -0.213200 0.021320 -0.053300
v -0.213200 0.027880 -0.053300
v -0.188600 0.021320 -0.045100
v -0.188600 0.027880 -0.045100
v -0.188600 0.021320 -0.053300
v -0.188600 0.027880 -0.053300
v -0.213200 0.021320 -0.028700
v -0.213200 0.027880 -0.028700
v -0.213200 0.021320 -0.036900
v -0.213200 0.027880 -0.036900
v -0.188600 0.021320 -0.028700
v -0.188600 0.027880 -0.028700
v -0.188600 0.021320 -0.036900
v -0.188600 0.027880 -0.036900
v -0.282900 0.021320 -0.045100
v -0.282900 0.027880 -0.045100
v -0.282900 0.021320 -0.053300
v -0.282900 0.027880 -0.053300
v -0.250100 0.021320 -0.045100
v -0.250100 0.027880 -0.045100
v -0.250100 0.021320 -0.053300
v -0.250100 0.027880 -0.053300
v -0.282900 0.021320 -0.028700
v -0.282900 0.027880 -0.028700
v -0.282900 0.021320 -0.036900
v -0.282900 0.027880 -0.036900
v -0.250100 0.021320 -0.028700
v -0.250100 0.027880 -0.028700
v -0.250100 0.021320 -0.036900
v -0.250100 0.027880 -0.036900
v -0.282900 0.021320 -0.012300
v -0.282900 0.027880 -0.012300
v -0.282900 0.021320 -0.020500
v -0.282900 0.027880 -0.020500
v -0.250100 0.021320 -0.012300
v -0.250100 0.027880 -0.012300
v -0.250100 0.021320 -0.020500
v -0.250100 0.027880 -0.020500
v -0.348500 0.021320 -0.045100
v -0.348500 0.027880 -0.045100
v -0.348500 0.021320 -0.053300
v -0.348500 0.027880 -0.053300
v -0.315700 0.021320 -0.045100
v -0.315700 0.027880 -0.045100
v -0.315700 0.021320 -0.053300
v -0.315700 0.027880 -0.053300
v -0.336200 0.021320 -0.010250
v -0.336200 0.027880 -0.010250
v -0.336200 0.021320 -0.047150
v -0.336200 0.027880 -0.047150
v -0.328000 0.021320 -0.010250
v -0.328000 0.027880 -0.010250
v -0.328000 0.021320 -0.047150
v -0.328000 0.027880 -0.047150
v -0.237800 -0.059450 -0.048380
v -0.237800 -0.038950 -0.048380
v -0.237800 -0.059450 -0.312420
v -0.237800 -0.038950 -0.312420
v 0.054940 -0.059450 -0.151700
v 0.054940 -0.038950 -0.151700
v 0.054940 -0.059450 -0.209100
v 0.054940 -0.038950 -0.209100
v -0.090200 -0.047150 -0.098400
v -0.090200 -0.034850 -0.098400
v -0.090200 -0.047150 -0.196800
v -0.090200 -0.034850 -0.196800
v 0.073800 -0.047150 -0.127920
v 0.073800 -0.034850 -0.127920
v 0.073800 -0.047150 -0.167280
v 0.073800 -0.034850 -0.167280
v -0.237800 -0.059450 0.312420
v -0.237800 -0.038950 0.312420
v -0.237800 -0.059450 0.048380
v -0.237800 -0.038950 0.048380
v 0.054940 -0.059450 0.209100
v 0.054940 -0.038950 0.209100
v 0.054940 -0.059450 0.151700
v 0.054940 -0.038950 0.151700
v -0.090200 -0.047150 0.196800
v -0.090200 -0.034850 0.196800
v -0.090200 -0.047150 0.098400
v -0.090200 -0.034850 0.098400
v 0.073800 -0.047150 0.167280
v 0.073800 -0.034850 0.167280
v 0.073800 -0.047150 0.127920
v 0.073800 -0.034850 0.127920
v -0.311600 -0.024600 -0.057400
v -0.311600 0.090200 -0.057400
v -0.311600 -0.024600 -0.073800
v -0.311600 0.090200 -0.073800
v -0.196800 -0.024600 -0.057400
v -0.196800 0.090200 -0.057400
v -0.196800 -0.024600 -0.073800
v -0.196800 0.090200 -0.073800
v -0.311600 -0.024600 0.073800
v -0.311600 0.090200 0.073800
v -0.311600 -0.024600 0.057400
v -0.311600 0.090200 0.057400
v -0.196800 -0.024600 0.073800
v -0.196800 0.090200 0.073800
v -0.196800 -0.024600 0.057400
v -0.196800 0.090200 0.057400
v -0.328000 -0.049200 -0.069700
v -0.246000 -0.049200 -0.069700
v -0.328000 -0.066069 -0.064219
v -0.246000 -0.066069 -0.064219
v -0.328000 -0.076495 -0.049869
v -0.246000 -0.076495 -0.049869
v -0.328000 -0.076495 -0.032131
v -0.246000 -0.076495 -0.032131
v -0.328000 -0.066069 -0.017781
v -0.246000 -0.066069 -0.017781
v -0.328000 -0.049200 -0.012300
v -0.246000 -0.049200 -0.012300
v -0.328000 -0.032331 -0.017781
v -0.246000 -0.032331 -0.017781
v -0.328000 -0.021905 -0.032131
v -0.246000 -0.021905 -0.032131
v -0.328000 -0.021905 -0.049869
v -0.246000 -0.021905 -0.049869
v -0.328000 -0.032331 -0.064219
v -0.246000 -0.032331 -0.064219
v -0.385400 -0.049200 -0.063960
v -0.319800 -0.049200 -0.063960
v -0.385400 -0.065435 -0.057235
v -0.319800 -0.065435 -0.057235
v -0.385400 -0.072160 -0.041000
v -0.319800 -0.072160 -0.041000
v -0.385400 -0.065435 -0.024765
v -0.319800 -0.065435 -0.024765
v -0.385400 -0.049200 -0.018040
v -0.319800 -0.049200 -0.018040
v -0.385400 -0.032965 -0.024765
v -0.319800 -0.032965 -0.024765
v -0.385400 -0.026240 -0.041000
v -0.319800 -0.026240 -0.041000
v -0.385400 -0.032965 -0.057235
v -0.319800 -0.032965 -0.057235
v -0.377200 -0.049200 -0.059040
v -0.377200 -0.033577 -0.050020
v -0.377200 -0.033577 -0.031980
v -0.377200 -0.049200 -0.022960
v -0.377200 -0.064823 -0.031980
v -0.377200 -0.064823 -0.050020
v -0.459200 -0.049200 -0.041000
v -0.328000 -0.049200 0.012300
v -0.246000 -0.049200 0.012300
v -0.328000 -0.066069 0.017781
v -0.246000 -0.066069 0.017781
v -0.328000 -0.076495 0.032131
v -0.246000 -0.076495 0.032131
v -0.328000 -0.076495 0.049869
v -0.246000 -0.076495 0.049869
v -0.328000 -0.066069 0.064219
v -0.246000 -0.066069 0.064219
v -0.328000 -0.049200 0.069700
v -0.246000 -0.049200 0.069700
v -0.328000 -0.032331 0.064219
v -0.246000 -0.032331 0.064219
v -0.328000 -0.021905 0.049869
v -0.246000 -0.021905 0.049869
v -0.328000 -0.021905 0.032131
v -0.246000 -0.021905 0.032131
v -0.328000 -0.032331 0.017781
v -0.246000 -0.032331 0.017781
v -0.385400 -0.049200 0.018040
v -0.319800 -0.049200 0.018040
v -0.385400 -0.065435 0.024765
v -0.319800 -0.065435 0.024765
v -0.385400 -0.072160 0.041000
v -0.319800 -0.072160 0.041000
v -0.385400 -0.065435 0.057235
v -0.319800 -0.065435 0.057235
v -0.385400 -0.049200 0.063960
v -0.319800 -0.049200 0.063960
v -0.385400 -0.032965 0.057235
v -0.319800 -0.032965 0.057235
v -0.385400 -0.026240 0.041000
v -0.319800 -0.026240 0.041000
v -0.385400 -0.032965 0.024765
v -0.319800 -0.032965 0.024765
v -0.377200 -0.049200 0.022960
v -0.377200 -0.033577 0.031980
v -0.377200 -0.033577 0.050020
v -0.377200 -0.049200 0.059040
v -0.377200 -0.064823 0.050020
v -0.377200 -0.064823 0.031980
v -0.459200 -0.049200 0.041000
vn -1.0000 -0.0000 -0.0000
vn 0.1386 -0.0000 -0.9903
vn 1.0000 -0.0000 -0.0000
vn -0.0000 -0.0000 1.0000
vn 0.0635 -0.9980 -0.0000
vn -0.0000 1.0000 -0.0000
vn 0.0635 0.9980 -0.0000
vn -0.0000 -1.0000 -0.0000
vn 0.1386 -0.0000 0.9903
vn -0.0000 -0.0000 -1.0000
vn 0.1628 -0.3776 -0.9116
vn 0.1628 -0.9116 -0.3776
vn 0.1628 -0.9116 0.3776
vn 0.1628 -0.3776 0.9116
vn 0.1628 0.3776 0.9116
vn 0.1628 0.9116 0.3776
vn 0.1628 0.9116 -0.3776
vn 0.1628 0.3776 -0.9116
vn 0.1913 -0.4908 -0.8500
vn 0.1913 -0.9815 -0.0000
vn 0.1913 -0.4908 0.8500
vn 0.1913 0.4908 0.8500
vn 0.1913 0.9815 -0.0000
vn 0.1913 0.4908 -0.8500
vn -0.7071 -0.0000 0.7071
vn -0.7071 -0.0000 -0.7071
vn 0.7071 -0.0000 -0.7071
vn 0.7071 -0.0000 0.7071
vn -0.8192 -0.0000 -0.5736
vn 0.5736 -0.0000 -0.8192
vn 0.8192 -0.0000 0.5736
vn -0.5736 -0.0000 0.8192
vn -0.8192 -0.0000 0.5736
vn -0.5736 -0.0000 -0.8192
vn 0.8192 -0.0000 -0.5736
vn 0.5736 -0.0000 0.8192
vn 0.3328 -0.0000 -0.9430
vn 0.3328 -0.0000 0.9430
vn 0.1772 -0.0000 -0.9842
vn 0.1772 -0.0000 0.9842
vn -0.0000 -0.3090 -0.9511
vn -0.0000 -0.8090 -0.5878
vn -0.0000 -0.8090 0.5878
vn -0.0000 -0.3090 0.9511
vn -0.0000 0.3090 0.9511
vn -0.0000 0.8090 0.5878
vn -0.0000 0.8090 -0.5878
vn -0.0000 0.3090 -0.9511
vn -0.0000 -0.3827 -0.9239
vn -0.0000 -0.9239 -0.3827
vn -0.0000 -0.9239 0.3827
vn -0.0000 -0.3827 0.9239
vn -0.0000 0.3827 0.9239
vn -0.0000 0.9239 0.3827
vn -0.0000 0.9239 -0.3827
vn -0.0000 0.3827 -0.9239
vn -0.1872 0.4912 -0.8507
vn -0.1872 0.9823 -0.0000
vn -0.1872 0.4912 0.8507
vn -0.1872 -0.4912 0.8507
vn -0.1872 -0.9823 -0.0000
vn -0.1872 -0.4912 -0.8507
vt 0.500000 0.125000
vt 0.625000 0.125000
vt 0.625000 0.250000
vt 0.500000 0.250000
vt 0.500000 0.375000
vt 0.625000 0.375000
vt 0.625000 0.500000
vt 0.500000 0.500000
vt 0.500000 0.625000
vt 0.625000 0.625000
vt 0.625000 0.750000
vt 0.500000 0.750000
vt 0.500000 0.875000
vt 0.625000 0.875000
vt 0.625000 1.000000
vt 0.500000 1.000000
vt 0.250000 0.625000
vt 0.375000 0.625000
vt 0.375000 0.750000
vt 0.250000 0.750000
vt 0.750000 0.625000
vt 0.875000 0.625000
vt 0.875000 0.750000
vt 0.750000 0.750000
vt 0.750000 0.500000
vt 0.875000 0.500000
vt 0.125000 0.625000
vt 0.125000 0.750000
vt 0.125000 0.500000
vt 0.250000 0.500000
vt 0.375000 0.500000
vt 0.375000 0.875000
vt 0.375000 1.000000
vt 0.375000 0.375000
vt 0.375000 0.250000
vt 0.375000 0.125000
vt 0.375000 0.000000
vt 0.500000 0.000000
vt 0.625000 0.000000
vt 0.250000 0.490000
vt 0.250000 0.250000
vt 0.419706 0.419706
vt 0.490000 0.250000
vt 0.419706 0.080294
vt 0.250000 0.010000
vt 0.080294 0.080294
vt 0.010000 0.250000
vt 0.750000 0.490000
vt 0.919706 0.419706
vt 0.990000 0.250000
vt 0.919706 0.080294
vt 0.750000 0.010000
vt 0.580294 0.080294
vt 0.510000 0.250000
vt 0.580294 0.419706
vt 0.080294 0.419706
vt 0.457846 0.370000
vt 0.457846 0.130000
vt 0.042154 0.130000
vt 0.957846 0.370000
vt 0.957846 0.130000
vt 0.542154 0.130000
vt 0.542154 0.370000
vt 0.042154 0.370000
vt 1.000000 0.500000
vt 1.000000 1.000000
vt 0.900000 1.000000
vt 0.900000 0.500000
vt 0.800000 1.000000
vt 0.800000 0.500000
vt 0.700000 1.000000
vt 0.700000 0.500000
vt 0.600000 1.000000
vt 0.600000 0.500000
vt 0.500000 1.000000
vt 0.500000 0.500000
vt 0.400000 1.000000
vt 0.400000 0.500000
vt 0.300000 1.000000
vt 0.300000 0.500000
vt 0.200000 1.000000
vt 0.200000 0.500000
vt 0.391068 0.444164
vt 0.250000 0.490000
vt 0.108932 0.444164
vt 0.021746 0.324164
vt 0.021746 0.175836
vt 0.108932 0.055836
vt 0.250000 0.010000
vt 0.391068 0.055836
vt 0.478254 0.175836
vt 0.478254 0.324164
vt 0.100000 1.000000
vt 0.100000 0.500000
vt -0.000000 1.000000
vt -0.000000 0.500000
vt 0.750000 0.490000
vt 0.891068 0.444164
vt 0.978254 0.324164
vt 0.978254 0.175836
vt 0.891068 0.055836
vt 0.750000 0.010000
vt 0.608932 0.055836
vt 0.521746 0.175836
vt 0.521746 0.324164
vt 0.608932 0.444164
vt 0.875000 1.000000
vt 0.750000 1.000000
vt 0.250000 1.000000
vt 0.125000 1.000000
vt 0.000000 1.000000
vt 0.000000 0.500000
vt 0.042154 0.130000
vt 0.042154 0.370000
s 0
usemtl HullPrimary
f 26/1/1 11/2/1 4/3/1 12/4/1
f 25/5/2 14/6/2 8/7/2 15/8/2
f 24/9/3 17/10/3 6/11/3 18/12/3
f 23/13/4 20/14/4 2/15/4 10/16/4
f 22/17/5 16/18/5 5/19/5 19/20/5
f 21/21/6 11/22/6 2/23/6 20/24/6
f 17/10/7 21/21/7 20/24/7 6/11/7
f 8/7/7 14/25/7 21/21/7 17/10/7
f 14/25/6 4/26/6 11/22/6 21/21/6
f 9/27/8 22/17/8 19/20/8 1/28/8
f 3/29/8 13/30/8 22/17/8 9/27/8
f 13/30/5 7/31/5 16/18/5 22/17/5
f 19/32/4 23/13/4 10/16/4 1/33/4
f 5/19/9 18/12/9 23/13/9 19/32/9
f 18/12/9 6/11/9 20/14/9 23/13/9
f 16/18/3 24/9/3 18/12/3 5/19/3
f 7/31/3 15/8/3 24/9/3 16/18/3
f 15/8/3 8/7/3 17/10/3 24/9/3
f 13/34/2 25/5/2 15/8/2 7/31/2
f 3/35/10 12/4/10 25/5/10 13/34/10
f 12/4/10 4/3/10 14/6/10 25/5/10
f 9/36/1 26/1/1 12/4/1 3/35/1
f 1/37/1 10/38/1 26/1/1 9/36/1
f 10/38/1 2/39/1 11/2/1 26/1/1
usemtl HullPanel
f 27/40/11 35/41/11 28/42/11
f 28/42/12 35/41/12 29/43/12
f 29/43/13 35/41/13 30/44/13
f 30/44/14 35/41/14 31/45/14
f 31/45/15 35/41/15 32/46/15
f 32/46/16 35/41/16 33/47/16
f 27/48/1 28/49/1 29/50/1 30/51/1 31/52/1 32/53/1 33/54/1 34/55/1
f 33/47/17 35/41/17 34/56/17
f 34/56/18 35/41/18 27/40/18
f 211/37/1 212/39/1 214/3/1 213/35/1
f 213/35/39 214/3/39 218/7/39 217/31/39
f 217/31/3 218/7/3 216/11/3 215/19/3
f 215/19/40 216/11/40 212/15/40 211/33/40
f 213/29/8 217/31/8 215/19/8 211/28/8
f 218/7/6 214/26/6 212/23/6 216/11/6
f 227/37/1 228/39/1 230/3/1 229/35/1
f 229/35/39 230/3/39 234/7/39 233/31/39
f 233/31/3 234/7/3 232/11/3 231/19/3
f 231/19/40 232/11/40 228/15/40 227/33/40
f 229/29/8 233/31/8 231/19/8 227/28/8
f 234/7/6 230/26/6 228/23/6 232/11/6
f 235/37/1 236/39/1 238/3/1 237/35/1
f 237/35/10 238/3/10 242/7/10 241/31/10
f 241/31/3 242/7/3 240/11/3 239/19/3
f 239/19/4 240/11/4 236/15/4 235/33/4
f 237/29/8 241/31/8 239/19/8 235/28/8
f 242/7/6 238/26/6 236/23/6 240/11/6
f 243/37/1 244/39/1 246/3/1 245/35/1
f 245/35/10 246/3/10 250/7/10 249/31/10
f 249/31/3 250/7/3 248/11/3 247/19/3
f 247/19/4 248/11/4 244/15/4 243/33/4
f 245/29/8 249/31/8 247/19/8 243/28/8
f 250/7/6 246/26/6 244/23/6 248/11/6
usemtl HullDark
f 36/40/19 42/41/19 37/57/19
f 37/57/20 42/41/20 38/58/20
f 38/58/21 42/41/21 39/45/21
f 39/45/22 42/41/22 40/59/22
f 36/48/1 37/60/1 38/61/1 39/52/1 40/62/1 41/63/1
f 40/59/23 42/41/23 41/64/23
f 41/64/24 42/41/24 36/40/24
f 51/37/1 52/39/1 54/3/1 53/35/1
f 53/35/10 54/3/10 58/7/10 57/31/10
f 57/31/3 58/7/3 56/11/3 55/19/3
f 55/19/4 56/11/4 52/15/4 51/33/4
f 53/29/8 57/31/8 55/19/8 51/28/8
f 58/7/6 54/26/6 52/23/6 56/11/6
usemtl CockpitGlass
f 43/37/1 44/39/1 46/3/1 45/35/1
f 45/35/10 46/3/10 50/7/10 49/31/10
f 49/31/3 50/7/3 48/11/3 47/19/3
f 47/19/4 48/11/4 44/15/4 43/33/4
f 45/29/8 49/31/8 47/19/8 43/28/8
f 50/7/6 46/26/6 44/23/6 48/11/6
usemtl DecalWhite
f 59/37/25 60/39/25 62/3/25 61/35/25
f 61/35/26 62/3/26 66/7/26 65/31/26
f 65/31/27 66/7/27 64/11/27 63/19/27
f 63/19/28 64/11/28 60/15/28 59/33/28
f 61/29/8 65/31/8 63/19/8 59/28/8
f 66/7/6 62/26/6 60/23/6 64/11/6
f 67/37/26 68/39/26 70/3/26 69/35/26
f 69/35/27 70/3/27 74/7/27 73/31/27
f 73/31/28 74/7/28 72/11/28 71/19/28
f 71/19/25 72/11/25 68/15/25 67/33/25
f 69/29/8 73/31/8 71/19/8 67/28/8
f 74/7/6 70/26/6 68/23/6 72/11/6
f 75/37/29 76/39/29 78/3/29 77/35/29
f 77/35/30 78/3/30 82/7/30 81/31/30
f 81/31/31 82/7/31 80/11/31 79/19/31
f 79/19/32 80/11/32 76/15/32 75/33/32
f 77/29/8 81/31/8 79/19/8 75/28/8
f 82/7/6 78/26/6 76/23/6 80/11/6
f 83/37/33 84/39/33 86/3/33 85/35/33
f 85/35/34 86/3/34 90/7/34 89/31/34
f 89/31/35 90/7/35 88/11/35 87/19/35
f 87/19/36 88/11/36 84/15/36 83/33/36
f 85/29/8 89/31/8 87/19/8 83/28/8
f 90/7/6 86/26/6 84/23/6 88/11/6
f 91/37/29 92/39/29 94/3/29 93/35/29
f 93/35/30 94/3/30 98/7/30 97/31/30
f 97/31/31 98/7/31 96/11/31 95/19/31
f 95/19/32 96/11/32 92/15/32 91/33/32
f 93/29/8 97/31/8 95/19/8 91/28/8
f 98/7/6 94/26/6 92/23/6 96/11/6
f 99/37/33 100/39/33 102/3/33 101/35/33
f 101/35/34 102/3/34 106/7/34 105/31/34
f 105/31/35 106/7/35 104/11/35 103/19/35
f 103/19/36 104/11/36 100/15/36 99/33/36
f 101/29/8 105/31/8 103/19/8 99/28/8
f 106/7/6 102/26/6 100/23/6 104/11/6
f 107/37/1 108/39/1 110/3/1 109/35/1
f 109/35/10 110/3/10 114/7/10 113/31/10
f 113/31/3 114/7/3 112/11/3 111/19/3
f 111/19/4 112/11/4 108/15/4 107/33/4
f 109/29/8 113/31/8 111/19/8 107/28/8
f 114/7/6 110/26/6 108/23/6 112/11/6
f 115/37/1 116/39/1 118/3/1 117/35/1
f 117/35/10 118/3/10 122/7/10 121/31/10
f 121/31/3 122/7/3 120/11/3 119/19/3
f 119/19/4 120/11/4 116/15/4 115/33/4
f 117/29/8 121/31/8 119/19/8 115/28/8
f 122/7/6 118/26/6 116/23/6 120/11/6
f 123/37/1 124/39/1 126/3/1 125/35/1
f 125/35/10 126/3/10 130/7/10 129/31/10
f 129/31/3 130/7/3 128/11/3 127/19/3
f 127/19/4 128/11/4 124/15/4 123/33/4
f 125/29/8 129/31/8 127/19/8 123/28/8
f 130/7/6 126/26/6 124/23/6 128/11/6
f 131/37/1 132/39/1 134/3/1 133/35/1
f 133/35/10 134/3/10 138/7/10 137/31/10
f 137/31/3 138/7/3 136/11/3 135/19/3
f 135/19/4 136/11/4 132/15/4 131/33/4
f 133/29/8 137/31/8 135/19/8 131/28/8
f 138/7/6 134/26/6 132/23/6 136/11/6
f 139/37/1 140/39/1 142/3/1 141/35/1
f 141/35/10 142/3/10 146/7/10 145/31/10
f 145/31/3 146/7/3 144/11/3 143/19/3
f 143/19/4 144/11/4 140/15/4 139/33/4
f 141/29/8 145/31/8 143/19/8 139/28/8
f 146/7/6 142/26/6 140/23/6 144/11/6
f 147/37/1 148/39/1 150/3/1 149/35/1
f 149/35/10 150/3/10 154/7/10 153/31/10
f 153/31/3 154/7/3 152/11/3 151/19/3
f 151/19/4 152/11/4 148/15/4 147/33/4
f 149/29/8 153/31/8 151/19/8 147/28/8
f 154/7/6 150/26/6 148/23/6 152/11/6
f 155/37/1 156/39/1 158/3/1 157/35/1
f 157/35/10 158/3/10 162/7/10 161/31/10
f 161/31/3 162/7/3 160/11/3 159/19/3
f 159/19/4 160/11/4 156/15/4 155/33/4
f 157/29/8 161/31/8 159/19/8 155/28/8
f 162/7/6 158/26/6 156/23/6 160/11/6
f 163/37/1 164/39/1 166/3/1 165/35/1
f 165/35/10 166/3/10 170/7/10 169/31/10
f 169/31/3 170/7/3 168/11/3 167/19/3
f 167/19/4 168/11/4 164/15/4 163/33/4
f 165/29/8 169/31/8 167/19/8 163/28/8
f 170/7/6 166/26/6 164/23/6 168/11/6
f 171/37/1 172/39/1 174/3/1 173/35/1
f 173/35/10 174/3/10 178/7/10 177/31/10
f 177/31/3 178/7/3 176/11/3 175/19/3
f 175/19/4 176/11/4 172/15/4 171/33/4
f 173/29/8 177/31/8 175/19/8 171/28/8
f 178/7/6 174/26/6 172/23/6 176/11/6
f 179/37/1 180/39/1 182/3/1 181/35/1
f 181/35/10 182/3/10 186/7/10 185/31/10
f 185/31/3 186/7/3 184/11/3 183/19/3
f 183/19/4 184/11/4 180/15/4 179/33/4
f 181/29/8 185/31/8 183/19/8 179/28/8
f 186/7/6 182/26/6 180/23/6 184/11/6
f 187/37/1 188/39/1 190/3/1 189/35/1
f 189/35/10 190/3/10 194/7/10 193/31/10
f 193/31/3 194/7/3 192/11/3 191/19/3
f 191/19/4 192/11/4 188/15/4 187/33/4
f 189/29/8 193/31/8 191/19/8 187/28/8
f 194/7/6 190/26/6 188/23/6 192/11/6
f 195/37/1 196/39/1 198/3/1 197/35/1
f 197/35/10 198/3/10 202/7/10 201/31/10
f 201/31/3 202/7/3 200/11/3 199/19/3
f 199/19/4 200/11/4 196/15/4 195/33/4
f 197/29/8 201/31/8 199/19/8 195/28/8
f 202/7/6 198/26/6 196/23/6 200/11/6
usemtl HullMid
f 203/37/1 204/39/1 206/3/1 205/35/1
f 205/35/37 206/3/37 210/7/37 209/31/37
f 209/31/3 210/7/3 208/11/3 207/19/3
f 207/19/38 208/11/38 204/15/38 203/33/38
f 205/29/8 209/31/8 207/19/8 203/28/8
f 210/7/6 206/26/6 204/23/6 208/11/6
f 219/37/1 220/39/1 222/3/1 221/35/1
f 221/35/37 222/3/37 226/7/37 225/31/37
f 225/31/3 226/7/3 224/11/3 223/19/3
f 223/19/38 224/11/38 220/15/38 219/33/38
f 221/29/8 225/31/8 223/19/8 219/28/8
f 226/7/6 222/26/6 220/23/6 224/11/6
usemtl EngineDark
f 251/65/41 252/66/41 254/67/41 253/68/41
f 253/68/42 254/67/42 256/69/42 255/70/42
f 255/70/8 256/69/8 258/71/8 257/72/8
f 257/72/43 258/71/43 260/73/43 259/74/43
f 259/74/44 260/73/44 262/75/44 261/76/44
f 261/76/45 262/75/45 264/77/45 263/78/45
f 263/78/46 264/77/46 266/79/46 265/80/46
f 265/80/6 266/79/6 268/81/6 267/82/6
f 254/83/3 252/84/3 270/85/3 268/86/3 266/87/3 264/88/3 262/89/3 260/90/3 258/91/3 256/92/3
f 267/82/47 268/81/47 270/93/47 269/94/47
f 269/94/48 270/93/48 252/95/48 251/96/48
f 251/97/1 253/98/1 255/99/1 257/100/1 259/101/1 261/102/1 263/103/1 265/104/1 267/105/1 269/106/1
f 294/65/41 295/66/41 297/67/41 296/68/41
f 296/68/42 297/67/42 299/69/42 298/70/42
f 298/70/8 299/69/8 301/71/8 300/72/8
f 300/72/43 301/71/43 303/73/43 302/74/43
f 302/74/44 303/73/44 305/75/44 304/76/44
f 304/76/45 305/75/45 307/77/45 306/78/45
f 306/78/46 307/77/46 309/79/46 308/80/46
f 308/80/6 309/79/6 311/81/6 310/82/6
f 297/83/3 295/84/3 313/85/3 311/86/3 309/87/3 307/88/3 305/89/3 303/90/3 301/91/3 299/92/3
f 310/82/47 311/81/47 313/93/47 312/94/47
f 312/94/48 313/93/48 295/95/48 294/96/48
f 294/97/1 296/98/1 298/99/1 300/100/1 302/101/1 304/102/1 306/103/1 308/104/1 310/105/1 312/106/1
usemtl AccentGreen
f 271/65/49 272/66/49 274/107/49 273/26/49
f 273/26/50 274/107/50 276/108/50 275/25/50
f 275/25/51 276/108/51 278/15/51 277/7/51
f 277/7/52 278/15/52 280/16/52 279/8/52
f 279/8/53 280/16/53 282/33/53 281/31/53
f 281/31/54 282/33/54 284/109/54 283/30/54
f 274/42/3 272/40/3 286/56/3 284/47/3 282/46/3 280/45/3 278/44/3 276/43/3
f 283/30/55 284/109/55 286/110/55 285/29/55
f 285/29/56 286/110/56 272/111/56 271/112/56
f 271/48/1 273/49/1 275/50/1 277/51/1 279/52/1 281/53/1 283/54/1 285/55/1
f 287/40/57 293/41/57 288/57/57
f 288/57/58 293/41/58 289/58/58
f 289/58/59 293/41/59 290/45/59
f 290/45/60 293/41/60 291/113/60
f 287/48/3 288/60/3 289/61/3 290/52/3 291/62/3 292/63/3
f 291/113/61 293/41/61 292/114/61
f 292/114/62 293/41/62 287/40/62
f 314/65/49 315/66/49 317/107/49 316/26/49
f 316/26/50 317/107/50 319/108/50 318/25/50
f 318/25/51 319/108/51 321/15/51 320/7/51
f 320/7/52 321/15/52 323/16/52 322/8/52
f 322/8/53 323/16/53 325/33/53 324/31/53
f 324/31/54 325/33/54 327/109/54 326/30/54
f 317/42/3 315/40/3 329/56/3 327/47/3 325/46/3 323/45/3 321/44/3 319/43/3
f 326/30/55 327/109/55 329/110/55 328/29/55
f 328/29/56 329/110/56 315/111/56 314/112/56
f 314/48/1 316/49/1 318/50/1 320/51/1 322/52/1 324/53/1 326/54/1 328/55/1
f 330/40/57 336/41/57 331/57/57
f 331/57/58 336/41/58 332/58/58
f 332/58/59 336/41/59 333/45/59
f 333/45/60 336/41/60 334/113/60
f 330/48/3 331/60/3 332/61/3 333/52/3 334/62/3 335/63/3
f 334/113/61 336/41/61 335/114/61
f 335/114/62 336/41/62 330/40/62
