# Blender 4.3.2
# www.blender.org
mtllib FC_Heavy.mtl
o FC_Heavy
v -0.329550 -0.152100 0.140400
v -0.329550 0.081900 0.140400
v -0.329550 -0.152100 -0.140400
v -0.329550 0.081900 -0.140400
v 0.099450 -0.152100 0.140400
v 0.099450 0.081900 0.140400
v 0.099450 -0.152100 -0.140400
v 0.099450 0.081900 -0.140400
v -0.302250 -0.120900 -0.128700
v -0.302250 0.081900 -0.128700
v -0.302250 -0.120900 -0.167700
v -0.302250 0.081900 -0.167700
v 0.072150 -0.120900 -0.128700
v 0.072150 0.081900 -0.128700
v 0.072150 -0.120900 -0.167700
v 0.072150 0.081900 -0.167700
v -0.302250 -0.120900 0.167700
v -0.302250 0.081900 0.167700
v -0.302250 -0.120900 0.128700
v -0.302250 0.081900 0.128700
v 0.072150 -0.120900 0.167700
v 0.072150 0.081900 0.167700
v 0.072150 -0.120900 0.128700
v 0.072150 0.081900 0.128700
v -0.161850 0.066300 0.062400
v -0.161850 0.144300 0.062400
v -0.161850 0.066300 -0.062400
v -0.161850 0.144300 -0.062400
v -0.021450 0.066300 0.062400
v -0.021450 0.144300 0.062400
v -0.021450 0.066300 -0.062400
v -0.021450 0.144300 -0.062400
v -0.068250 0.120900 0.019500
v -0.068250 0.152100 0.019500
v -0.068250 0.120900 -0.019500
v -0.068250 0.152100 -0.019500
v -0.021450 0.120900 0.019500
v -0.021450 0.152100 0.019500
v -0.021450 0.120900 -0.019500
v -0.021450 0.152100 -0.019500
v -0.099450 0.120900 -0.035100
v -0.099450 0.152100 -0.035100
v -0.099450 0.120900 -0.058500
v -0.099450 0.152100 -0.058500
v -0.052650 0.120900 -0.035100
v -0.052650 0.152100 -0.035100
v -0.052650 0.120900 -0.058500
v -0.052650 0.152100 -0.058500
v -0.099450 0.120900 0.058500
v -0.099450 0.152100 0.058500
v -0.099450 0.120900 0.035100
v -0.099450 0.152100 0.035100
v -0.052650 0.120900 0.058500
v -0.052650 0.152100 0.058500
v -0.052650 0.120900 0.035100
v -0.052650 0.152100 0.035100
v 0.056550 -0.144300 0.117000
v 0.056550 0.042900 0.117000
v 0.056550 -0.144300 -0.117000
v 0.056550 0.042900 -0.117000
v 0.228150 -0.144300 0.117000
v 0.228150 0.042900 0.117000
v 0.228150 -0.144300 -0.117000
v 0.228150 0.042900 -0.117000
v 0.204750 -0.066300 -0.097500
v 0.454350 -0.066300 -0.097500
v 0.204750 -0.086931 -0.090797
v 0.454350 -0.086931 -0.090797
v 0.204750 -0.099682 -0.073246
v 0.454350 -0.099682 -0.073246
v 0.204750 -0.099682 -0.051554
v 0.454350 -0.099682 -0.051554
v 0.204750 -0.086931 -0.034003
v 0.454350 -0.086931 -0.034003
v 0.204750 -0.066300 -0.027300
v 0.454350 -0.066300 -0.027300
v 0.204750 -0.045669 -0.034003
v 0.454350 -0.045669 -0.034003
v 0.204750 -0.032918 -0.051554
v 0.454350 -0.032918 -0.051554
v 0.204750 -0.032918 -0.073246
v 0.454350 -0.032918 -0.073246
v 0.204750 -0.045669 -0.090797
v 0.454350 -0.045669 -0.090797
v 0.241800 -0.066300 -0.105300
v 0.261300 -0.066300 -0.105300
v 0.241800 -0.091516 -0.097107
v 0.261300 -0.091516 -0.097107
v 0.241800 -0.107100 -0.075657
v 0.261300 -0.107100 -0.075657
v 0.241800 -0.107100 -0.049143
v 0.261300 -0.107100 -0.049143
v 0.241800 -0.091516 -0.027693
v 0.261300 -0.091516 -0.027693
v 0.241800 -0.066300 -0.019500
v 0.261300 -0.066300 -0.019500
v 0.241800 -0.041084 -0.027693
v 0.261300 -0.041084 -0.027693
v 0.241800 -0.025500 -0.049143
v 0.261300 -0.025500 -0.049143
v 0.241800 -0.025500 -0.075657
v 0.261300 -0.025500 -0.075657
v 0.241800 -0.041084 -0.097107
v 0.261300 -0.041084 -0.097107
v 0.288600 -0.066300 -0.105300
v 0.308100 -0.066300 -0.105300
v 0.288600 -0.091516 -0.097107
v 0.308100 -0.091516 -0.097107
v 0.288600 -0.107100 -0.075657
v 0.308100 -0.107100 -0.075657
v 0.288600 -0.107100 -0.049143
v 0.308100 -0.107100 -0.049143
v 0.288600 -0.091516 -0.027693
v 0.308100 -0.091516 -0.027693
v 0.288600 -0.066300 -0.019500
v 0.308100 -0.066300 -0.019500
v 0.288600 -0.041084 -0.027693
v 0.308100 -0.041084 -0.027693
v 0.288600 -0.025500 -0.049143
v 0.308100 -0.025500 -0.049143
v 0.288600 -0.025500 -0.075657
v 0.308100 -0.025500 -0.075657
v 0.288600 -0.041084 -0.097107
v 0.308100 -0.041084 -0.097107
v 0.335400 -0.066300 -0.105300
v 0.354900 -0.066300 -0.105300
v 0.335400 -0.091516 -0.097107
v 0.354900 -0.091516 -0.097107
v 0.335400 -0.107100 -0.075657
v 0.354900 -0.107100 -0.075657
v 0.335400 -0.107100 -0.049143
v 0.354900 -0.107100 -0.049143
v 0.335400 -0.091516 -0.027693
v 0.354900 -0.091516 -0.027693
v 0.335400 -0.066300 -0.019500
v 0.354900 -0.066300 -0.019500
v 0.335400 -0.041084 -0.027693
v 0.354900 -0.041084 -0.027693
v 0.335400 -0.025500 -0.049143
v 0.354900 -0.025500 -0.049143
v 0.335400 -0.025500 -0.075657
v 0.354900 -0.025500 -0.075657
v 0.335400 -0.041084 -0.097107
v 0.354900 -0.041084 -0.097107
v 0.438750 -0.066300 -0.099840
v 0.469950 -0.066300 -0.099840
v 0.438750 -0.088307 -0.092690
v 0.469950 -0.088307 -0.092690
v 0.438750 -0.101908 -0.073970
v 0.469950 -0.101908 -0.073970
v 0.438750 -0.101908 -0.050830
v 0.469950 -0.101908 -0.050830
v 0.438750 -0.088307 -0.032110
v 0.469950 -0.088307 -0.032110
v 0.438750 -0.066300 -0.024960
v 0.469950 -0.066300 -0.024960
v 0.438750 -0.044293 -0.032110
v 0.469950 -0.044293 -0.032110
v 0.438750 -0.030692 -0.050830
v 0.469950 -0.030692 -0.050830
v 0.438750 -0.030692 -0.073970
v 0.469950 -0.030692 -0.073970
v 0.438750 -0.044293 -0.092690
v 0.469950 -0.044293 -0.092690
v 0.458250 -0.066300 -0.079560
v 0.481650 -0.066300 -0.079560
v 0.458250 -0.078434 -0.074534
v 0.481650 -0.078434 -0.074534
v 0.458250 -0.083460 -0.062400
v 0.481650 -0.083460 -0.062400
v 0.458250 -0.078434 -0.050266
v 0.481650 -0.078434 -0.050266
v 0.458250 -0.066300 -0.045240
v 0.481650 -0.066300 -0.045240
v 0.458250 -0.054166 -0.050266
v 0.481650 -0.054166 -0.050266
v 0.458250 -0.049140 -0.062400
v 0.481650 -0.049140 -0.062400
v 0.458250 -0.054166 -0.074534
v 0.481650 -0.054166 -0.074534
v 0.204750 -0.066300 0.027300
v 0.454350 -0.066300 0.027300
v 0.204750 -0.086931 0.034003
v 0.454350 -0.086931 0.034003
v 0.204750 -0.099682 0.051554
v 0.454350 -0.099682 0.051554
v 0.204750 -0.099682 0.073246
v 0.454350 -0.099682 0.073246
v 0.204750 -0.086931 0.090797
v 0.454350 -0.086931 0.090797
v 0.204750 -0.066300 0.097500
v 0.454350 -0.066300 0.097500
v 0.204750 -0.045669 0.090797
v 0.454350 -0.045669 0.090797
v 0.204750 -0.032918 0.073246
v 0.454350 -0.032918 0.073246
v 0.204750 -0.032918 0.051554
v 0.454350 -0.032918 0.051554
v 0.204750 -0.045669 0.034003
v 0.454350 -0.045669 0.034003
v 0.241800 -0.066300 0.019500
v 0.261300 -0.066300 0.019500
v 0.241800 -0.091516 0.027693
v 0.261300 -0.091516 0.027693
v 0.241800 -0.107100 0.049143
v 0.261300 -0.107100 0.049143
v 0.241800 -0.107100 0.075657
v 0.261300 -0.107100 0.075657
v 0.241800 -0.091516 0.097107
v 0.261300 -0.091516 0.097107
v 0.241800 -0.066300 0.105300
v 0.261300 -0.066300 0.105300
v 0.241800 -0.041084 0.097107
v 0.261300 -0.041084 0.097107
v 0.241800 -0.025500 0.075657
v 0.261300 -0.025500 0.075657
v 0.241800 -0.025500 0.049143
v 0.261300 -0.025500 0.049143
v 0.241800 -0.041084 0.027693
v 0.261300 -0.041084 0.027693
v 0.288600 -0.066300 0.019500
v 0.308100 -0.066300 0.019500
v 0.288600 -0.091516 0.027693
v 0.308100 -0.091516 0.027693
v 0.288600 -0.107100 0.049143
v 0.308100 -0.107100 0.049143
v 0.288600 -0.107100 0.075657
v 0.308100 -0.107100 0.075657
v 0.288600 -0.091516 0.097107
v 0.308100 -0.091516 0.097107
v 0.288600 -0.066300 0.105300
v 0.308100 -0.066300 0.105300
v 0.288600 -0.041084 0.097107
v 0.308100 -0.041084 0.097107
v 0.288600 -0.025500 0.075657
v 0.308100 -0.025500 0.075657
v 0.288600 -0.025500 0.049143
v 0.308100 -0.025500 0.049143
v 0.288600 -0.041084 0.027693
v 0.308100 -0.041084 0.027693
v 0.335400 -0.066300 0.019500
v 0.354900 -0.066300 0.019500
v 0.335400 -0.091516 0.027693
v 0.354900 -0.091516 0.027693
v 0.335400 -0.107100 0.049143
v 0.354900 -0.107100 0.049143
v 0.335400 -0.107100 0.075657
v 0.354900 -0.107100 0.075657
v 0.335400 -0.091516 0.097107
v 0.354900 -0.091516 0.097107
v 0.335400 -0.066300 0.105300
v 0.354900 -0.066300 0.105300
v 0.335400 -0.041084 0.097107
v 0.354900 -0.041084 0.097107
v 0.335400 -0.025500 0.075657
v 0.354900 -0.025500 0.075657
v 0.335400 -0.025500 0.049143
v 0.354900 -0.025500 0.049143
v 0.335400 -0.041084 0.027693
v 0.354900 -0.041084 0.027693
v 0.438750 -0.066300 0.024960
v 0.469950 -0.066300 0.024960
v 0.438750 -0.088307 0.032110
v 0.469950 -0.088307 0.032110
v 0.438750 -0.101908 0.050830
v 0.469950 -0.101908 0.050830
v 0.438750 -0.101908 0.073970
v 0.469950 -0.101908 0.073970
v 0.438750 -0.088307 0.092690
v 0.469950 -0.088307 0.092690
v 0.438750 -0.066300 0.099840
v 0.469950 -0.066300 0.099840
v 0.438750 -0.044293 0.092690
v 0.469950 -0.044293 0.092690
v 0.438750 -0.030692 0.073970
v 0.469950 -0.030692 0.073970
v 0.438750 -0.030692 0.050830
v 0.469950 -0.030692 0.050830
v 0.438750 -0.044293 0.032110
v 0.469950 -0.044293 0.032110
v 0.458250 -0.066300 0.045240
v 0.481650 -0.066300 0.045240
v 0.458250 -0.078434 0.050266
v 0.481650 -0.078434 0.050266
v 0.458250 -0.083460 0.062400
v 0.481650 -0.083460 0.062400
v 0.458250 -0.078434 0.074534
v 0.481650 -0.078434 0.074534
v 0.458250 -0.066300 0.079560
v 0.481650 -0.066300 0.079560
v 0.458250 -0.054166 0.074534
v 0.481650 -0.054166 0.074534
v 0.458250 -0.049140 0.062400
v 0.481650 -0.049140 0.062400
v 0.458250 -0.054166 0.050266
v 0.481650 -0.054166 0.050266
v -0.263250 -0.081900 -0.156000
v -0.263250 -0.019500 -0.156000
v -0.263250 -0.081900 -0.280800
v -0.263250 -0.019500 -0.280800
v -0.044850 -0.081900 -0.156000
v -0.044850 -0.019500 -0.156000
v -0.044850 -0.081900 -0.280800
v -0.044850 -0.019500 -0.280800
v -0.224250 -0.105300 -0.179400
v -0.224250 -0.074100 -0.179400
v -0.224250 -0.105300 -0.257400
v -0.224250 -0.074100 -0.257400
v -0.083850 -0.105300 -0.179400
v -0.083850 -0.074100 -0.179400
v -0.083850 -0.105300 -0.257400
v -0.083850 -0.074100 -0.257400
v -0.263250 -0.081900 0.280800
v -0.263250 -0.019500 0.280800
v -0.263250 -0.081900 0.156000
v -0.263250 -0.019500 0.156000
v -0.044850 -0.081900 0.280800
v -0.044850 -0.019500 0.280800
v -0.044850 -0.081900 0.156000
v -0.044850 -0.019500 0.156000
v -0.224250 -0.105300 0.257400
v -0.224250 -0.074100 0.257400
v -0.224250 -0.105300 0.179400
v -0.224250 -0.074100 0.179400
v -0.083850 -0.105300 0.257400
v -0.083850 -0.074100 0.257400
v -0.083850 -0.105300 0.179400
v -0.083850 -0.074100 0.179400
v -0.427050 0.003900 -0.066300
v -0.427050 0.144300 -0.066300
v -0.427050 0.003900 -0.089700
v -0.427050 0.144300 -0.089700
v -0.317850 0.003900 -0.066300
v -0.317850 0.144300 -0.066300
v -0.317850 0.003900 -0.089700
v -0.317850 0.144300 -0.089700
v -0.427050 0.003900 0.089700
v -0.427050 0.144300 0.089700
v -0.427050 0.003900 0.066300
v -0.427050 0.144300 0.066300
v -0.317850 0.003900 0.089700
v -0.317850 0.144300 0.089700
v -0.317850 0.003900 0.066300
v -0.317850 0.144300 0.066300
v -0.450450 -0.144300 0.109200
v -0.450450 0.042900 0.109200
v -0.450450 -0.144300 -0.109200
v -0.450450 0.042900 -0.109200
v -0.325650 -0.144300 0.109200
v -0.325650 0.042900 0.109200
v -0.325650 -0.144300 -0.109200
v -0.325650 0.042900 -0.109200
v -0.481650 -0.050700 -0.105300
v -0.450450 -0.050700 -0.105300
v -0.481650 -0.070004 -0.097304
v -0.450450 -0.070004 -0.097304
v -0.481650 -0.078000 -0.078000
v -0.450450 -0.078000 -0.078000
v -0.481650 -0.070004 -0.058696
v -0.450450 -0.070004 -0.058696
v -0.481650 -0.050700 -0.050700
v -0.450450 -0.050700 -0.050700
v -0.481650 -0.031396 -0.058696
v -0.450450 -0.031396 -0.058696
v -0.481650 -0.023400 -0.078000
v -0.450450 -0.023400 -0.078000
v -0.481650 -0.031396 -0.097304
v -0.450450 -0.031396 -0.097304
v -0.481650 -0.050700 0.050700
v -0.450450 -0.050700 0.050700
v -0.481650 -0.070004 0.058696
v -0.450450 -0.070004 0.058696
v -0.481650 -0.078000 0.078000
v -0.450450 -0.078000 0.078000
v -0.481650 -0.070004 0.097304
v -0.450450 -0.070004 0.097304
v -0.481650 -0.050700 0.105300
v -0.450450 -0.050700 0.105300
v -0.481650 -0.031396 0.097304
v -0.450450 -0.031396 0.097304
v -0.481650 -0.023400 0.078000
v -0.450450 -0.023400 0.078000
v -0.481650 -0.031396 0.058696
v -0.450450 -0.031396 0.058696
v -0.102640 0.042097 -0.184010
v -0.093556 0.029250 -0.193094
v -0.090231 0.011700 -0.196419
v -0.093556 -0.005850 -0.193094
v -0.102640 -0.018697 -0.184010
v -0.097500 0.042097 -0.171600
v -0.084652 0.029250 -0.171600
v -0.079950 0.011700 -0.171600
v -0.084652 -0.005850 -0.171600
v -0.097500 -0.018697 -0.171600
v -0.102640 0.042097 -0.159190
v -0.093556 0.029250 -0.150106
v -0.090231 0.011700 -0.146781
v -0.093556 -0.005850 -0.150106
v -0.102640 -0.018697 -0.159190
v -0.115050 0.042097 -0.154050
v -0.115050 0.029250 -0.141203
v -0.115050 0.011700 -0.136500
v -0.115050 -0.005850 -0.141203
v -0.115050 -0.018697 -0.154050
v -0.115050 0.046800 -0.171600
v -0.127460 0.042097 -0.159190
v -0.136544 0.029250 -0.150106
v -0.139869 0.011700 -0.146781
v -0.136544 -0.005850 -0.150106
v -0.127460 -0.018697 -0.159190
v -0.115050 -0.023400 -0.171600
v -0.132600 0.042097 -0.171600
v -0.145447 0.029250 -0.171600
v -0.150150 0.011700 -0.171600
v -0.145447 -0.005850 -0.171600
v -0.132600 -0.018697 -0.171600
v -0.127460 0.042097 -0.184010
v -0.136544 0.029250 -0.193094
v -0.139869 0.011700 -0.196419
v -0.136544 -0.005850 -0.193094
v -0.127460 -0.018697 -0.184010
v -0.115050 0.042097 -0.189150
v -0.115050 0.029250 -0.201997
v -0.115050 0.011700 -0.206700
v -0.115050 -0.005850 -0.201997
v -0.115050 -0.018697 -0.189150
v -0.130650 -0.011700 -0.163800
v -0.130650 0.003900 -0.163800
v -0.130650 -0.011700 -0.179400
v -0.130650 0.003900 -0.179400
v -0.099450 -0.011700 -0.163800
v -0.099450 0.003900 -0.163800
v -0.099450 -0.011700 -0.179400
v -0.099450 0.003900 -0.179400
v -0.130650 -0.042900 -0.163800
v -0.130650 -0.027300 -0.163800
v -0.130650 -0.042900 -0.179400
v -0.130650 -0.027300 -0.179400
v -0.099450 -0.042900 -0.163800
v -0.099450 -0.027300 -0.163800
v -0.099450 -0.042900 -0.179400
v -0.099450 -0.027300 -0.179400
v -0.146250 0.031200 -0.165750
v -0.146250 0.054600 -0.165750
v -0.146250 0.031200 -0.177450
v -0.146250 0.054600 -0.177450
v -0.083850 0.031200 -0.165750
v -0.083850 0.054600 -0.165750
v -0.083850 0.031200 -0.177450
v -0.083850 0.054600 -0.177450
v -0.146250 -0.031200 -0.165750
v -0.146250 -0.007800 -0.165750
v -0.146250 -0.031200 -0.177450
v -0.146250 -0.007800 -0.177450
v -0.083850 -0.031200 -0.165750
v -0.083850 -0.007800 -0.165750
v -0.083850 -0.031200 -0.177450
v -0.083850 -0.007800 -0.177450
v -0.083850 -0.001950 -0.165750
v -0.083850 0.025350 -0.165750
v -0.083850 -0.001950 -0.177450
v -0.083850 0.025350 -0.177450
v -0.037050 -0.001950 -0.165750
v -0.037050 0.025350 -0.165750
v -0.037050 -0.001950 -0.177450
v -0.037050 0.025350 -0.177450
v -0.193050 -0.001950 -0.165750
v -0.193050 0.025350 -0.165750
v -0.193050 -0.001950 -0.177450
v -0.193050 0.025350 -0.177450
v -0.146250 -0.001950 -0.165750
v -0.146250 0.025350 -0.165750
v -0.146250 -0.001950 -0.177450
v -0.146250 0.025350 -0.177450
v 0.070200 0.048750 -0.130650
v 0.070200 0.068250 -0.130650
v 0.070200 0.048750 -0.150150
v 0.070200 0.068250 -0.150150
v 0.089700 0.048750 -0.130650
v 0.089700 0.068250 -0.130650
v 0.089700 0.048750 -0.150150
v 0.089700 0.068250 -0.150150
v -0.046800 0.033150 0.150150
v -0.046800 0.052650 0.150150
v -0.046800 0.033150 0.130650
v -0.046800 0.052650 0.130650
v -0.027300 0.033150 0.150150
v -0.027300 0.052650 0.150150
v -0.027300 0.033150 0.130650
v -0.027300 0.052650 0.130650
v -0.241800 0.079950 -0.115050
v -0.241800 0.099450 -0.115050
v -0.241800 0.079950 -0.134550
v -0.241800 0.099450 -0.134550
v -0.222300 0.079950 -0.115050
v -0.222300 0.099450 -0.115050
v -0.222300 0.079950 -0.134550
v -0.222300 0.099450 -0.134550
v 0.109200 -0.122850 0.103350
v 0.109200 -0.103350 0.103350
v 0.109200 -0.122850 0.083850
v 0.109200 -0.103350 0.083850
v 0.128700 -0.122850 0.103350
v 0.128700 -0.103350 0.103350
v 0.128700 -0.122850 0.083850
v 0.128700 -0.103350 0.083850
v -0.319800 0.017550 0.118950
v -0.319800 0.037050 0.118950
v -0.319800 0.017550 0.099450
v -0.319800 0.037050 0.099450
v -0.300300 0.017550 0.118950
v -0.300300 0.037050 0.118950
v -0.300300 0.017550 0.099450
v -0.300300 0.037050 0.099450
v -0.163800 0.111150 -0.068250
v -0.163800 0.130650 -0.068250
v -0.163800 0.111150 -0.087750
v -0.163800 0.130650 -0.087750
v -0.144300 0.111150 -0.068250
v -0.144300 0.130650 -0.068250
v -0.144300 0.111150 -0.087750
v -0.144300 0.130650 -0.087750
vn -1.0000 -0.0000 -0.0000
vn -0.0000 -0.0000 -1.0000
vn 1.0000 -0.0000 -0.0000
vn -0.0000 -0.0000 1.0000
vn -0.0000 -1.0000 -0.0000
vn -0.0000 1.0000 -0.0000
vn -0.0000 -0.3090 -0.9511
vn -0.0000 -0.8090 -0.5878
vn -0.0000 -0.8090 0.5878
vn -0.0000 -0.3090 0.9511
vn -0.0000 0.3090 0.9511
vn -0.0000 0.8090 0.5878
vn -0.0000 0.8090 -0.5878
vn -0.0000 0.3090 -0.9511
vn -0.0000 -0.3827 -0.9239
vn -0.0000 -0.9239 -0.3827
vn -0.0000 -0.9239 0.3827
vn -0.0000 -0.3827 0.9239
vn -0.0000 0.3827 0.9239
vn -0.0000 0.9239 0.3827
vn -0.0000 0.9239 -0.3827
vn -0.0000 0.3827 -0.9239
vn 0.2811 -0.6786 -0.6786
vn 0.3715 0.2403 -0.8968
vn 0.1066 0.9604 -0.2573
vn 0.1066 -0.9604 -0.2573
vn 0.3715 -0.2403 -0.8968
vn 0.2811 0.6786 -0.6786
vn 0.2573 -0.9604 -0.1066
vn 0.8968 -0.2403 -0.3715
vn 0.6786 0.6786 -0.2811
vn 0.6786 -0.6786 -0.2811
vn 0.8968 0.2403 -0.3715
vn 0.2573 0.9604 -0.1066
vn 0.2573 -0.9604 0.1066
vn 0.8968 -0.2403 0.3715
vn 0.6786 0.6786 0.2811
vn 0.6786 -0.6786 0.2811
vn 0.8968 0.2403 0.3715
vn 0.2573 0.9604 0.1066
vn 0.1066 -0.9604 0.2573
vn 0.3715 -0.2403 0.8968
vn 0.2811 0.6786 0.6786
vn 0.2811 -0.6786 0.6786
vn 0.3715 0.2403 0.8968
vn 0.1066 0.9604 0.2573
vn -0.3715 -0.2403 0.8968
vn -0.2811 0.6786 0.6786
vn -0.2811 -0.6786 0.6786
vn -0.3715 0.2403 0.8968
vn -0.1066 0.9604 0.2573
vn -0.1066 -0.9604 0.2573
vn -0.6786 0.6786 0.2811
vn -0.6786 -0.6786 0.2811
vn -0.8968 0.2403 0.3715
vn -0.2573 0.9604 0.1066
vn -0.2573 -0.9604 0.1066
vn -0.8968 -0.2403 0.3715
vn -0.6786 -0.6786 -0.2811
vn -0.8968 0.2403 -0.3715
vn -0.2573 0.9604 -0.1066
vn -0.2573 -0.9604 -0.1066
vn -0.8968 -0.2403 -0.3715
vn -0.6786 0.6786 -0.2811
vn -0.2811 -0.6786 -0.6786
vn -0.3715 0.2403 -0.8968
vn -0.1066 0.9604 -0.2573
vn -0.1066 -0.9604 -0.2573
vn -0.3715 -0.2403 -0.8968
vn -0.2811 0.6786 -0.6786
vt 0.375000 0.000000
vt 0.625000 0.000000
vt 0.625000 0.250000
vt 0.375000 0.250000
vt 0.625000 0.500000
vt 0.375000 0.500000
vt 0.625000 0.750000
vt 0.375000 0.750000
vt 0.625000 1.000000
vt 0.375000 1.000000
vt 0.125000 0.500000
vt 0.125000 0.750000
vt 0.875000 0.500000
vt 0.875000 0.750000
vt 1.000000 0.500000
vt 1.000000 1.000000
vt 0.900000 1.000000
vt 0.900000 0.500000
vt 0.800000 1.000000
vt 0.800000 0.500000
vt 0.700000 1.000000
vt 0.700000 0.500000
vt 0.600000 1.000000
vt 0.600000 0.500000
vt 0.500000 1.000000
vt 0.500000 0.500000
vt 0.400000 1.000000
vt 0.400000 0.500000
vt 0.300000 1.000000
vt 0.300000 0.500000
vt 0.200000 1.000000
vt 0.200000 0.500000
vt 0.391068 0.444164
vt 0.250000 0.490000
vt 0.108932 0.444164
vt 0.021746 0.324164
vt 0.021746 0.175836
vt 0.108932 0.055836
vt 0.250000 0.010000
vt 0.391068 0.055836
vt 0.478254 0.175836
vt 0.478254 0.324164
vt 0.100000 1.000000
vt 0.100000 0.500000
vt -0.000000 1.000000
vt -0.000000 0.500000
vt 0.750000 0.490000
vt 0.891068 0.444164
vt 0.978254 0.324164
vt 0.978254 0.175836
vt 0.891068 0.055836
vt 0.750000 0.010000
vt 0.608932 0.055836
vt 0.521746 0.175836
vt 0.521746 0.324164
vt 0.608932 0.444164
vt 0.108932 0.055836
vt 0.250000 0.010000
vt 0.391068 0.055836
vt 0.891068 0.055836
vt 0.750000 0.010000
vt 0.608932 0.055836
vt 0.875000 1.000000
vt 0.750000 1.000000
vt 0.750000 0.500000
vt 0.500000 1.000000
vt 0.500000 0.500000
vt 0.250000 1.000000
vt 0.250000 0.500000
vt 0.419706 0.419706
vt 0.080294 0.419706
vt 0.010000 0.250000
vt 0.080294 0.080294
vt 0.419706 0.080294
vt 0.490000 0.250000
vt 0.125000 1.000000
vt 0.000000 1.000000
vt 0.000000 0.500000
vt 0.919706 0.419706
vt 0.990000 0.250000
vt 0.919706 0.080294
vt 0.580294 0.080294
vt 0.510000 0.250000
vt 0.580294 0.419706
vt 0.250000 0.490000
vt 0.010000 0.250000
vt 0.250000 0.010000
vt 0.490000 0.250000
vt 0.750000 0.490000
vt 0.750000 0.010000
vt 0.750000 0.166667
vt 0.750000 0.333333
vt 0.625000 0.333333
vt 0.625000 0.166667
vt 0.750000 0.666667
vt 0.625000 0.666667
vt 0.750000 0.833333
vt 0.687500 1.000000
vt 0.625000 0.833333
vt 0.687500 0.000000
vt 0.562500 0.000000
vt 0.500000 0.166667
vt 0.500000 0.333333
vt 0.500000 0.833333
vt 0.500000 0.666667
vt 0.562500 1.000000
vt 0.437500 0.000000
vt 0.375000 0.166667
vt 0.375000 0.333333
vt 0.375000 0.833333
vt 0.375000 0.666667
vt 0.437500 1.000000
vt 0.312500 0.000000
vt 0.250000 0.166667
vt 0.250000 0.333333
vt 0.250000 0.833333
vt 0.250000 0.666667
vt 0.312500 1.000000
vt 0.125000 0.333333
vt 0.125000 0.833333
vt 0.125000 0.666667
vt 0.125000 0.166667
vt 0.187500 1.000000
vt 0.187500 0.000000
vt 0.000000 0.833333
vt 0.000000 0.666667
vt 0.000000 0.333333
vt 0.000000 0.166667
vt 0.062500 1.000000
vt 0.062500 0.000000
vt 1.000000 0.166667
vt 1.000000 0.333333
vt 0.875000 0.333333
vt 0.875000 0.166667
vt 1.000000 0.666667
vt 0.875000 0.666667
vt 1.000000 0.833333
vt 0.937500 1.000000
vt 0.875000 0.833333
vt 0.937500 0.000000
vt 0.812500 1.000000
vt 0.812500 0.000000
s 0
usemtl HullPrimary
f 1/1/1 2/2/1 4/3/1 3/4/1
f 3/4/2 4/3/2 8/5/2 7/6/2
f 7/6/3 8/5/3 6/7/3 5/8/3
f 5/8/4 6/7/4 2/9/4 1/10/4
f 3/11/5 7/6/5 5/8/5 1/12/5
f 8/5/6 4/13/6 2/14/6 6/7/6
usemtl HullPanel
f 9/1/1 10/2/1 12/3/1 11/4/1
f 11/4/2 12/3/2 16/5/2 15/6/2
f 15/6/3 16/5/3 14/7/3 13/8/3
f 13/8/4 14/7/4 10/9/4 9/10/4
f 11/11/5 15/6/5 13/8/5 9/12/5
f 16/5/6 12/13/6 10/14/6 14/7/6
f 17/1/1 18/2/1 20/3/1 19/4/1
f 19/4/2 20/3/2 24/5/2 23/6/2
f 23/6/3 24/5/3 22/7/3 21/8/3
f 21/8/4 22/7/4 18/9/4 17/10/4
f 19/11/5 23/6/5 21/8/5 17/12/5
f 24/5/6 20/13/6 18/14/6 22/7/6
f 329/1/1 330/2/1 332/3/1 331/4/1
f 331/4/2 332/3/2 336/5/2 335/6/2
f 335/6/3 336/5/3 334/7/3 333/8/3
f 333/8/4 334/7/4 330/9/4 329/10/4
f 331/11/5 335/6/5 333/8/5 329/12/5
f 336/5/6 332/13/6 330/14/6 334/7/6
f 337/1/1 338/2/1 340/3/1 339/4/1
f 339/4/2 340/3/2 344/5/2 343/6/2
f 343/6/3 344/5/3 342/7/3 341/8/3
f 341/8/4 342/7/4 338/9/4 337/10/4
f 339/11/5 343/6/5 341/8/5 337/12/5
f 344/5/6 340/13/6 338/14/6 342/7/6
usemtl HullMid
f 25/1/1 26/2/1 28/3/1 27/4/1
f 27/4/2 28/3/2 32/5/2 31/6/2
f 31/6/3 32/5/3 30/7/3 29/8/3
f 29/8/4 30/7/4 26/9/4 25/10/4
f 27/11/5 31/6/5 29/8/5 25/12/5
f 32/5/6 28/13/6 26/14/6 30/7/6
f 85/15/7 86/16/7 88/17/7 87/18/7
f 87/18/8 88/17/8 90/19/8 89/20/8
f 89/20/5 90/19/5 92/21/5 91/22/5
f 91/22/9 92/21/9 94/23/9 93/24/9
f 93/24/10 94/23/10 96/25/10 95/26/10
f 95/26/11 96/25/11 98/27/11 97/28/11
f 97/28/12 98/27/12 100/29/12 99/30/12
f 99/30/6 100/29/6 102/31/6 101/32/6
f 88/33/3 86/34/3 104/35/3 102/36/3 100/37/3 98/57/3 96/58/3 94/59/3 92/41/3 90/42/3
f 101/32/13 102/31/13 104/43/13 103/44/13
f 103/44/14 104/43/14 86/45/14 85/46/14
f 85/47/1 87/48/1 89/49/1 91/50/1 93/60/1 95/61/1 97/62/1 99/54/1 101/55/1 103/56/1
f 105/15/7 106/16/7 108/17/7 107/18/7
f 107/18/8 108/17/8 110/19/8 109/20/8
f 109/20/5 110/19/5 112/21/5 111/22/5
f 111/22/9 112/21/9 114/23/9 113/24/9
f 113/24/10 114/23/10 116/25/10 115/26/10
f 115/26/11 116/25/11 118/27/11 117/28/11
f 117/28/12 118/27/12 120/29/12 119/30/12
f 119/30/6 120/29/6 122/31/6 121/32/6
f 108/33/3 106/34/3 124/35/3 122/36/3 120/37/3 118/57/3 116/58/3 114/59/3 112/41/3 110/42/3
f 121/32/13 122/31/13 124/43/13 123/44/13
f 123/44/14 124/43/14 106/45/14 105/46/14
f 105/47/1 107/48/1 109/49/1 111/50/1 113/60/1 115/61/1 117/62/1 119/54/1 121/55/1 123/56/1
f 125/15/7 126/16/7 128/17/7 127/18/7
f 127/18/8 128/17/8 130/19/8 129/20/8
f 129/20/5 130/19/5 132/21/5 131/22/5
f 131/22/9 132/21/9 134/23/9 133/24/9
f 133/24/10 134/23/10 136/25/10 135/26/10
f 135/26/11 136/25/11 138/27/11 137/28/11
f 137/28/12 138/27/12 140/29/12 139/30/12
f 139/30/6 140/29/6 142/31/6 141/32/6
f 128/33/3 126/34/3 144/35/3 142/36/3 140/37/3 138/57/3 136/58/3 134/59/3 132/41/3 130/42/3
f 141/32/13 142/31/13 144/43/13 143/44/13
f 143/44/14 144/43/14 126/45/14 125/46/14
f 125/47/1 127/48/1 129/49/1 131/50/1 133/60/1 135/61/1 137/62/1 139/54/1 141/55/1 143/56/1
f 201/15/7 202/16/7 204/17/7 203/18/7
f 203/18/8 204/17/8 206/19/8 205/20/8
f 205/20/5 206/19/5 208/21/5 207/22/5
f 207/22/9 208/21/9 210/23/9 209/24/9
f 209/24/10 210/23/10 212/25/10 211/26/10
f 211/26/11 212/25/11 214/27/11 213/28/11
f 213/28/12 214/27/12 216/29/12 215/30/12
f 215/30/6 216/29/6 218/31/6 217/32/6
f 204/33/3 202/34/3 220/35/3 218/36/3 216/37/3 214/57/3 212/58/3 210/59/3 208/41/3 206/42/3
f 217/32/13 218/31/13 220/43/13 219/44/13
f 219/44/14 220/43/14 202/45/14 201/46/14
f 201/47/1 203/48/1 205/49/1 207/50/1 209/60/1 211/61/1 213/62/1 215/54/1 217/55/1 219/56/1
f 221/15/7 222/16/7 224/17/7 223/18/7
f 223/18/8 224/17/8 226/19/8 225/20/8
f 225/20/5 226/19/5 228/21/5 227/22/5
f 227/22/9 228/21/9 230/23/9 229/24/9
f 229/24/10 230/23/10 232/25/10 231/26/10
f 231/26/11 232/25/11 234/27/11 233/28/11
f 233/28/12 234/27/12 236/29/12 235/30/12
f 235/30/6 236/29/6 238/31/6 237/32/6
f 224/33/3 222/34/3 240/35/3 238/36/3 236/37/3 234/57/3 232/58/3 230/59/3 228/41/3 226/42/3
f 237/32/13 238/31/13 240/43/13 239/44/13
f 239/44/14 240/43/14 222/45/14 221/46/14
f 221/47/1 223/48/1 225/49/1 227/50/1 229/60/1 231/61/1 233/62/1 235/54/1 237/55/1 239/56/1
f 241/15/7 242/16/7 244/17/7 243/18/7
f 243/18/8 244/17/8 246/19/8 245/20/8
f 245/20/5 246/19/5 248/21/5 247/22/5
f 247/22/9 248/21/9 250/23/9 249/24/9
f 249/24/10 250/23/10 252/25/10 251/26/10
f 251/26/11 252/25/11 254/27/11 253/28/11
f 253/28/12 254/27/12 256/29/12 255/30/12
f 255/30/6 256/29/6 258/31/6 257/32/6
f 244/33/3 242/34/3 260/35/3 258/36/3 256/37/3 254/57/3 252/58/3 250/59/3 248/41/3 246/42/3
f 257/32/13 258/31/13 260/43/13 259/44/13
f 259/44/14 260/43/14 242/45/14 241/46/14
f 241/47/1 243/48/1 245/49/1 247/50/1 249/60/1 251/61/1 253/62/1 255/54/1 257/55/1 259/56/1
f 297/1/1 298/2/1 300/3/1 299/4/1
f 299/4/2 300/3/2 304/5/2 303/6/2
f 303/6/3 304/5/3 302/7/3 301/8/3
f 301/8/4 302/7/4 298/9/4 297/10/4
f 299/11/5 303/6/5 301/8/5 297/12/5
f 304/5/6 300/13/6 298/14/6 302/7/6
f 313/1/1 314/2/1 316/3/1 315/4/1
f 315/4/2 316/3/2 320/5/2 319/6/2
f 319/6/3 320/5/3 318/7/3 317/8/3
f 317/8/4 318/7/4 314/9/4 313/10/4
f 315/11/5 319/6/5 317/8/5 313/12/5
f 320/5/6 316/13/6 314/14/6 318/7/6
f 345/1/1 346/2/1 348/3/1 347/4/1
f 347/4/2 348/3/2 352/5/2 351/6/2
f 351/6/3 352/5/3 350/7/3 349/8/3
f 349/8/4 350/7/4 346/9/4 345/10/4
f 347/11/5 351/6/5 349/8/5 345/12/5
f 352/5/6 348/13/6 346/14/6 350/7/6
usemtl CockpitGlass
f 33/1/1 34/2/1 36/3/1 35/4/1
f 35/4/2 36/3/2 40/5/2 39/6/2
f 39/6/3 40/5/3 38/7/3 37/8/3
f 37/8/4 38/7/4 34/9/4 33/10/4
f 35/11/5 39/6/5 37/8/5 33/12/5
f 40/5/6 36/13/6 34/14/6 38/7/6
f 41/1/1 42/2/1 44/3/1 43/4/1
f 43/4/2 44/3/2 48/5/2 47/6/2
f 47/6/3 48/5/3 46/7/3 45/8/3
f 45/8/4 46/7/4 42/9/4 41/10/4
f 43/11/5 47/6/5 45/8/5 41/12/5
f 48/5/6 44/13/6 42/14/6 46/7/6
f 49/1/1 50/2/1 52/3/1 51/4/1
f 51/4/2 52/3/2 56/5/2 55/6/2
f 55/6/3 56/5/3 54/7/3 53/8/3
f 53/8/4 54/7/4 50/9/4 49/10/4
f 51/11/5 55/6/5 53/8/5 49/12/5
f 56/5/6 52/13/6 50/14/6 54/7/6
usemtl HullDark
f 57/1/1 58/2/1 60/3/1 59/4/1
f 59/4/2 60/3/2 64/5/2 63/6/2
f 63/6/3 64/5/3 62/7/3 61/8/3
f 61/8/4 62/7/4 58/9/4 57/10/4
f 59/11/5 63/6/5 61/8/5 57/12/5
f 64/5/6 60/13/6 58/14/6 62/7/6
f 145/15/7 146/16/7 148/17/7 147/18/7
f 147/18/8 148/17/8 150/19/8 149/20/8
f 149/20/5 150/19/5 152/21/5 151/22/5
f 151/22/9 152/21/9 154/23/9 153/24/9
f 153/24/10 154/23/10 156/25/10 155/26/10
f 155/26/11 156/25/11 158/27/11 157/28/11
f 157/28/12 158/27/12 160/29/12 159/30/12
f 159/30/6 160/29/6 162/31/6 161/32/6
f 148/33/3 146/34/3 164/35/3 162/36/3 160/37/3 158/38/3 156/58/3 154/40/3 152/41/3 150/42/3
f 161/32/13 162/31/13 164/43/13 163/44/13
f 163/44/14 164/43/14 146/45/14 145/46/14
f 145/47/1 147/48/1 149/49/1 151/50/1 153/51/1 155/61/1 157/53/1 159/54/1 161/55/1 163/56/1
f 261/15/7 262/16/7 264/17/7 263/18/7
f 263/18/8 264/17/8 266/19/8 265/20/8
f 265/20/5 266/19/5 268/21/5 267/22/5
f 267/22/9 268/21/9 270/23/9 269/24/9
f 269/24/10 270/23/10 272/25/10 271/26/10
f 271/26/11 272/25/11 274/27/11 273/28/11
f 273/28/12 274/27/12 276/29/12 275/30/12
f 275/30/6 276/29/6 278/31/6 277/32/6
f 264/33/3 262/34/3 280/35/3 278/36/3 276/37/3 274/38/3 272/58/3 270/40/3 268/41/3 266/42/3
f 277/32/13 278/31/13 280/43/13 279/44/13
f 279/44/14 280/43/14 262/45/14 261/46/14
f 261/47/1 263/48/1 265/49/1 267/50/1 269/51/1 271/61/1 273/53/1 275/54/1 277/55/1 279/56/1
f 305/1/1 306/2/1 308/3/1 307/4/1
f 307/4/2 308/3/2 312/5/2 311/6/2
f 311/6/3 312/5/3 310/7/3 309/8/3
f 309/8/4 310/7/4 306/9/4 305/10/4
f 307/11/5 311/6/5 309/8/5 305/12/5
f 312/5/6 308/13/6 306/14/6 310/7/6
f 321/1/1 322/2/1 324/3/1 323/4/1
f 323/4/2 324/3/2 328/5/2 327/6/2
f 327/6/3 328/5/3 326/7/3 325/8/3
f 325/8/4 326/7/4 322/9/4 321/10/4
f 323/11/5 327/6/5 325/8/5 321/12/5
f 328/5/6 324/13/6 322/14/6 326/7/6
usemtl EngineDark
f 65/15/7 66/16/7 68/17/7 67/18/7
f 67/18/8 68/17/8 70/19/8 69/20/8
f 69/20/5 70/19/5 72/21/5 71/22/5
f 71/22/9 72/21/9 74/23/9 73/24/9
f 73/24/10 74/23/10 76/25/10 75/26/10
f 75/26/11 76/25/11 78/27/11 77/28/11
f 77/28/12 78/27/12 80/29/12 79/30/12
f 79/30/6 80/29/6 82/31/6 81/32/6
f 68/33/3 66/34/3 84/35/3 82/36/3 80/37/3 78/38/3 76/39/3 74/40/3 72/41/3 70/42/3
f 81/32/13 82/31/13 84/43/13 83/44/13
f 83/44/14 84/43/14 66/45/14 65/46/14
f 65/47/1 67/48/1 69/49/1 71/50/1 73/51/1 75/52/1 77/53/1 79/54/1 81/55/1 83/56/1
f 165/15/15 166/16/15 168/63/15 167/13/15
f 167/13/16 168/63/16 170/64/16 169/65/16
f 169/65/17 170/64/17 172/9/17 171/5/17
f 171/5/18 172/9/18 174/66/18 173/67/18
f 173/67/19 174/66/19 176/10/19 175/6/19
f 175/6/20 176/10/20 178/68/20 177/69/20
f 168/70/3 166/34/3 180/71/3 178/72/3 176/73/3 174/39/3 172/74/3 170/75/3
f 177/69/21 178/68/21 180/76/21 179/11/21
f 179/11/22 180/76/22 166/77/22 165/78/22
f 165/47/1 167/79/1 169/80/1 171/81/1 173/52/1 175/82/1 177/83/1 179/84/1
f 181/15/7 182/16/7 184/17/7 183/18/7
f 183/18/8 184/17/8 186/19/8 185/20/8
f 185/20/5 186/19/5 188/21/5 187/22/5
f 187/22/9 188/21/9 190/23/9 189/24/9
f 189/24/10 190/23/10 192/25/10 191/26/10
f 191/26/11 192/25/11 194/27/11 193/28/11
f 193/28/12 194/27/12 196/29/12 195/30/12
f 195/30/6 196/29/6 198/31/6 197/32/6
f 184/33/3 182/34/3 200/35/3 198/36/3 196/37/3 194/38/3 192/39/3 190/40/3 188/41/3 186/42/3
f 197/32/13 198/31/13 200/43/13 199/44/13
f 199/44/14 200/43/14 182/45/14 181/46/14
f 181/47/1 183/48/1 185/49/1 187/50/1 189/51/1 191/52/1 193/53/1 195/54/1 197/55/1 199/56/1
f 281/15/15 282/16/15 284/63/15 283/13/15
f 283/13/16 284/63/16 286/64/16 285/65/16
f 285/65/17 286/64/17 288/9/17 287/5/17
f 287/5/18 288/9/18 290/66/18 289/67/18
f 289/67/19 290/66/19 292/10/19 291/6/19
f 291/6/20 292/10/20 294/68/20 293/69/20
f 284/70/3 282/34/3 296/71/3 294/72/3 292/73/3 290/39/3 288/74/3 286/75/3
f 293/69/21 294/68/21 296/76/21 295/11/21
f 295/11/22 296/76/22 282/77/22 281/78/22
f 281/47/1 283/79/1 285/80/1 287/81/1 289/52/1 291/82/1 293/83/1 295/84/1
usemtl AccentGreen
f 353/15/15 354/16/15 356/63/15 355/13/15
f 355/13/16 356/63/16 358/64/16 357/65/16
f 357/65/17 358/64/17 360/9/17 359/5/17
f 359/5/18 360/9/18 362/66/18 361/67/18
f 361/67/19 362/66/19 364/10/19 363/6/19
f 363/6/20 364/10/20 366/68/20 365/69/20
f 356/70/3 354/85/3 368/71/3 366/86/3 364/73/3 362/87/3 360/74/3 358/88/3
f 365/69/21 366/68/21 368/76/21 367/11/21
f 367/11/22 368/76/22 354/77/22 353/78/22
f 353/89/1 355/79/1 357/80/1 359/81/1 361/90/1 363/82/1 365/83/1 367/84/1
f 369/15/15 370/16/15 372/63/15 371/13/15
f 371/13/16 372/63/16 374/64/16 373/65/16
f 373/65/17 374/64/17 376/9/17 375/5/17
f 375/5/18 376/9/18 378/66/18 377/67/18
f 377/67/19 378/66/19 380/10/19 379/6/19
f 379/6/20 380/10/20 382/68/20 381/69/20
f 372/70/3 370/85/3 384/71/3 382/86/3 380/73/3 378/87/3 376/74/3 374/88/3
f 381/69/21 382/68/21 384/76/21 383/11/21
f 383/11/22 384/76/22 370/77/22 369/78/22
f 369/89/1 371/79/1 373/80/1 375/81/1 377/90/1 379/82/1 381/83/1 383/84/1
usemtl DecalWhite
f 426/91/23 425/92/23 388/93/23 389/94/23
f 424/65/24 423/95/24 386/96/24 387/5/24
f 422/97/25 405/98/25 385/99/25
f 411/100/26 426/91/26 389/94/26
f 425/92/27 424/65/27 387/5/27 388/93/27
f 423/95/28 422/97/28 385/99/28 386/96/28
f 411/101/29 389/94/29 394/102/29
f 388/93/30 387/5/30 392/67/30 393/103/30
f 386/96/31 385/99/31 390/104/31 391/105/31
f 389/94/32 388/93/32 393/103/32 394/102/32
f 387/5/33 386/96/33 391/105/33 392/67/33
f 385/99/34 405/106/34 390/104/34
f 411/107/35 394/102/35 399/108/35
f 393/103/36 392/67/36 397/6/36 398/109/36
f 391/105/37 390/104/37 395/110/37 396/111/37
f 394/102/38 393/103/38 398/109/38 399/108/38
f 392/67/39 391/105/39 396/111/39 397/6/39
f 390/104/40 405/112/40 395/110/40
f 411/113/41 399/108/41 404/114/41
f 398/109/42 397/6/42 402/69/42 403/115/42
f 396/111/43 395/110/43 400/116/43 401/117/43
f 399/108/44 398/109/44 403/115/44 404/114/44
f 397/6/45 396/111/45 401/117/45 402/69/45
f 395/110/46 405/118/46 400/116/46
f 403/115/47 402/69/47 408/11/47 409/119/47
f 401/117/48 400/116/48 406/120/48 407/121/48
f 404/114/49 403/115/49 409/119/49 410/122/49
f 402/69/50 401/117/50 407/121/50 408/11/50
f 400/116/51 405/123/51 406/120/51
f 411/124/52 404/114/52 410/122/52
f 407/121/53 406/120/53 412/125/53 413/126/53
f 410/122/54 409/119/54 415/127/54 416/128/54
f 408/11/55 407/121/55 413/126/55 414/78/55
f 406/120/56 405/129/56 412/125/56
f 411/130/57 410/122/57 416/128/57
f 409/119/58 408/11/58 414/78/58 415/127/58
f 416/131/59 415/132/59 420/133/59 421/134/59
f 414/15/60 413/135/60 418/136/60 419/13/60
f 412/137/61 405/138/61 417/139/61
f 411/140/62 416/131/62 421/134/62
f 415/132/63 414/15/63 419/13/63 420/133/63
f 413/135/64 412/137/64 417/139/64 418/136/64
f 421/134/65 420/133/65 425/92/65 426/91/65
f 419/13/66 418/136/66 423/95/66 424/65/66
f 417/139/67 405/141/67 422/97/67
f 411/142/68 421/134/68 426/91/68
f 420/133/69 419/13/69 424/65/69 425/92/69
f 418/136/70 417/139/70 422/97/70 423/95/70
f 427/1/1 428/2/1 430/3/1 429/4/1
f 429/4/2 430/3/2 434/5/2 433/6/2
f 433/6/3 434/5/3 432/7/3 431/8/3
f 431/8/4 432/7/4 428/9/4 427/10/4
f 429/11/5 433/6/5 431/8/5 427/12/5
f 434/5/6 430/13/6 428/14/6 432/7/6
f 435/1/1 436/2/1 438/3/1 437/4/1
f 437/4/2 438/3/2 442/5/2 441/6/2
f 441/6/3 442/5/3 440/7/3 439/8/3
f 439/8/4 440/7/4 436/9/4 435/10/4
f 437/11/5 441/6/5 439/8/5 435/12/5
f 442/5/6 438/13/6 436/14/6 440/7/6
f 443/1/1 444/2/1 446/3/1 445/4/1
f 445/4/2 446/3/2 450/5/2 449/6/2
f 449/6/3 450/5/3 448/7/3 447/8/3
f 447/8/4 448/7/4 444/9/4 443/10/4
f 445/11/5 449/6/5 447/8/5 443/12/5
f 450/5/6 446/13/6 444/14/6 448/7/6
f 451/1/1 452/2/1 454/3/1 453/4/1
f 453/4/2 454/3/2 458/5/2 457/6/2
f 457/6/3 458/5/3 456/7/3 455/8/3
f 455/8/4 456/7/4 452/9/4 451/10/4
f 453/11/5 457/6/5 455/8/5 451/12/5
f 458/5/6 454/13/6 452/14/6 456/7/6
f 459/1/1 460/2/1 462/3/1 461/4/1
f 461/4/2 462/3/2 466/5/2 465/6/2
f 465/6/3 466/5/3 464/7/3 463/8/3
f 463/8/4 464/7/4 460/9/4 459/10/4
f 461/11/5 465/6/5 463/8/5 459/12/5
f 466/5/6 462/13/6 460/14/6 464/7/6
f 467/1/1 468/2/1 470/3/1 469/4/1
f 469/4/2 470/3/2 474/5/2 473/6/2
f 473/6/3 474/5/3 472/7/3 471/8/3
f 471/8/4 472/7/4 468/9/4 467/10/4
f 469/11/5 473/6/5 471/8/5 467/12/5
f 474/5/6 470/13/6 468/14/6 472/7/6
usemtl AccentYellow
f 475/1/1 476/2/1 478/3/1 477/4/1
f 477/4/2 478/3/2 482/5/2 481/6/2
f 481/6/3 482/5/3 480/7/3 479/8/3
f 479/8/4 480/7/4 476/9/4 475/10/4
f 477/11/5 481/6/5 479/8/5 475/12/5
f 482/5/6 478/13/6 476/14/6 480/7/6
f 483/1/1 484/2/1 486/3/1 485/4/1
f 485/4/2 486/3/2 490/5/2 489/6/2
f 489/6/3 490/5/3 488/7/3 487/8/3
f 487/8/4 488/7/4 484/9/4 483/10/4
f 485/11/5 489/6/5 487/8/5 483/12/5
f 490/5/6 486/13/6 484/14/6 488/7/6
f 491/1/1 492/2/1 494/3/1 493/4/1
f 493/4/2 494/3/2 498/5/2 497/6/2
f 497/6/3 498/5/3 496/7/3 495/8/3
f 495/8/4 496/7/4 492/9/4 491/10/4
f 493/11/5 497/6/5 495/8/5 491/12/5
f 498/5/6 494/13/6 492/14/6 496/7/6
f 499/1/1 500/2/1 502/3/1 501/4/1
f 501/4/2 502/3/2 506/5/2 505/6/2
f 505/6/3 506/5/3 504/7/3 503/8/3
f 503/8/4 504/7/4 500/9/4 499/10/4
f 501/11/5 505/6/5 503/8/5 499/12/5
f 506/5/6 502/13/6 500/14/6 504/7/6
f 507/1/1 508/2/1 510/3/1 509/4/1
f 509/4/2 510/3/2 514/5/2 513/6/2
f 513/6/3 514/5/3 512/7/3 511/8/3
f 511/8/4 512/7/4 508/9/4 507/10/4
f 509/11/5 513/6/5 511/8/5 507/12/5
f 514/5/6 510/13/6 508/14/6 512/7/6
f 515/1/1 516/2/1 518/3/1 517/4/1
f 517/4/2 518/3/2 522/5/2 521/6/2
f 521/6/3 522/5/3 520/7/3 519/8/3
f 519/8/4 520/7/4 516/9/4 515/10/4
f 517/11/5 521/6/5 519/8/5 515/12/5
f 522/5/6 518/13/6 516/14/6 520/7/6
