# Blender 4.3.2
# www.blender.org
mtllib FC_Mothership.mtl
o FC_Mothership
v -1.060300 -0.262560 0.271584
v -1.060300 0.179040 0.271584
v -1.060300 -0.262560 -0.271584
v -1.060300 0.179040 -0.271584
v 1.055700 -0.236064 0.258336
v 1.055700 0.152544 0.258336
v 1.055700 -0.236064 -0.258336
v 1.055700 0.152544 -0.258336
v -1.060300 -0.262560 -0.090528
v -1.060300 -0.262560 0.090528
v -1.060300 -0.115360 0.271584
v -1.060300 0.031840 0.271584
v -1.060300 0.179040 0.090528
v -1.060300 0.179040 -0.090528
v -1.060300 0.031840 -0.271584
v -1.060300 -0.115360 -0.271584
v 0.350367 -0.262560 -0.331200
v -0.354967 -0.262560 -0.331200
v -0.354967 0.170208 -0.331200
v 0.350367 0.170208 -0.331200
v 1.055700 0.023008 -0.258336
v 1.055700 -0.106528 -0.258336
v 1.055700 -0.236064 0.086112
v 1.055700 -0.236064 -0.086112
v 1.055700 0.152544 -0.086112
v 1.055700 0.152544 0.086112
v 1.055700 0.023008 0.258336
v 1.055700 -0.106528 0.258336
v -0.354967 -0.262560 0.331200
v 0.350367 -0.262560 0.331200
v 0.350367 0.170208 0.331200
v -0.354967 0.170208 0.331200
v 0.350367 0.170208 -0.110400
v 0.350367 0.170208 0.110400
v -0.354967 0.170208 -0.110400
v -0.354967 0.170208 0.110400
v -0.354967 -0.262560 -0.110400
v -0.354967 -0.262560 0.110400
v 0.350367 -0.262560 -0.110400
v 0.350367 -0.262560 0.110400
v 0.350367 -0.115360 0.331200
v -0.354967 -0.115360 0.331200
v 0.350367 0.031840 0.331200
v -0.354967 0.031840 0.331200
v 1.055700 -0.106528 -0.086112
v 1.055700 -0.106528 0.086112
v 1.055700 0.023008 -0.086112
v 1.055700 0.023008 0.086112
v -0.354967 -0.115360 -0.331200
v 0.350367 -0.115360 -0.331200
v -0.354967 0.031840 -0.331200
v 0.350367 0.031840 -0.331200
v -1.060300 -0.115360 0.090528
v -1.060300 -0.115360 -0.090528
v -1.060300 0.031840 0.090528
v -1.060300 0.031840 -0.090528
v -0.899300 0.133040 0.285200
v -0.899300 0.206640 0.285200
v -0.899300 0.133040 -0.285200
v -0.899300 0.206640 -0.285200
v 0.986700 0.133040 0.285200
v 0.986700 0.206640 0.285200
v 0.986700 0.133040 -0.285200
v 0.986700 0.206640 -0.285200
v 0.940700 -0.207360 0.266800
v 0.940700 0.179040 0.266800
v 0.940700 -0.207360 -0.266800
v 0.940700 0.179040 -0.266800
v 1.262700 -0.207360 0.266800
v 1.262700 0.179040 0.266800
v 1.262700 -0.207360 -0.266800
v 1.262700 0.179040 -0.266800
v 1.046500 -0.262560 0.184000
v 1.046500 -0.133760 0.184000
v 1.046500 -0.262560 -0.184000
v 1.046500 -0.133760 -0.184000
v 1.304100 -0.262560 0.184000
v 1.304100 -0.133760 0.184000
v 1.304100 -0.262560 -0.184000
v 1.304100 -0.133760 -0.184000
v 1.230500 0.006540 0.147200
v 1.230500 0.038740 0.147200
v 1.230500 0.006540 -0.147200
v 1.230500 0.038740 -0.147200
v 1.267300 0.006540 0.147200
v 1.267300 0.038740 0.147200
v 1.267300 0.006540 -0.147200
v 1.267300 0.038740 -0.147200
v 1.230500 -0.085460 0.147200
v 1.230500 -0.053260 0.147200
v 1.230500 -0.085460 -0.147200
v 1.230500 -0.053260 -0.147200
v 1.267300 -0.085460 0.147200
v 1.267300 -0.053260 0.147200
v 1.267300 -0.085460 -0.147200
v 1.267300 -0.053260 -0.147200
v 1.230500 -0.159060 0.147200
v 1.230500 -0.126860 0.147200
v 1.230500 -0.159060 -0.147200
v 1.230500 -0.126860 -0.147200
v 1.267300 -0.159060 0.147200
v 1.267300 -0.126860 0.147200
v 1.267300 -0.159060 -0.147200
v 1.267300 -0.126860 -0.147200
v 1.248900 -0.253360 -0.013800
v 1.322500 -0.253360 -0.013800
v 1.248900 -0.265311 -0.006900
v 1.322500 -0.265311 -0.006900
v 1.248900 -0.265311 0.006900
v 1.322500 -0.265311 0.006900
v 1.248900 -0.253360 0.013800
v 1.322500 -0.253360 0.013800
v 1.248900 -0.241409 0.006900
v 1.322500 -0.241409 0.006900
v 1.248900 -0.241409 -0.006900
v 1.322500 -0.241409 -0.006900
v -0.278300 -0.262560 0.358800
v -0.278300 0.123840 0.358800
v -0.278300 -0.262560 -0.358800
v -0.278300 0.123840 -0.358800
v 0.365700 -0.262560 0.358800
v 0.365700 0.123840 0.358800
v 0.365700 -0.262560 -0.358800
v 0.365700 0.123840 -0.358800
v 0.029900 0.188240 -0.373502
v 0.057500 0.188240 -0.325698
v 0.223100 0.059440 -0.485046
v 0.250700 0.059440 -0.437242
v 0.223100 -0.198160 -0.485046
v 0.250700 -0.198160 -0.437242
v 0.029900 -0.326960 -0.373502
v 0.057500 -0.326960 -0.325698
v -0.163300 -0.198160 -0.261958
v -0.135700 -0.198160 -0.214154
v -0.163300 0.059440 -0.261958
v -0.135700 0.059440 -0.214154
v 0.034500 0.133040 -0.365535
v 0.052900 0.133040 -0.333665
v 0.186300 0.031840 -0.453177
v 0.204700 0.031840 -0.421307
v 0.186300 -0.170560 -0.453177
v 0.204700 -0.170560 -0.421307
v 0.034500 -0.271760 -0.365535
v 0.052900 -0.271760 -0.333665
v -0.117300 -0.170560 -0.277893
v -0.098900 -0.170560 -0.246023
v -0.117300 0.031840 -0.277893
v -0.098900 0.031840 -0.246023
v 0.029900 0.188240 0.325698
v 0.057500 0.188240 0.373502
v 0.223100 0.059440 0.214154
v 0.250700 0.059440 0.261958
v 0.223100 -0.198160 0.214154
v 0.250700 -0.198160 0.261958
v 0.029900 -0.326960 0.325698
v 0.057500 -0.326960 0.373502
v -0.163300 -0.198160 0.437242
v -0.135700 -0.198160 0.485046
v -0.163300 0.059440 0.437242
v -0.135700 0.059440 0.485046
v 0.034500 0.133040 0.333665
v 0.052900 0.133040 0.365535
v 0.186300 0.031840 0.246023
v 0.204700 0.031840 0.277893
v 0.186300 -0.170560 0.246023
v 0.204700 -0.170560 0.277893
v 0.034500 -0.271760 0.333665
v 0.052900 -0.271760 0.365535
v -0.117300 -0.170560 0.421307
v -0.098900 -0.170560 0.453177
v -0.117300 0.031840 0.421307
v -0.098900 0.031840 0.453177
v -0.204700 -0.244160 0.230000
v -0.204700 -0.225760 0.230000
v -0.204700 -0.244160 -0.230000
v -0.204700 -0.225760 -0.230000
v -0.131100 -0.244160 0.230000
v -0.131100 -0.225760 0.230000
v -0.131100 -0.244160 -0.230000
v -0.131100 -0.225760 -0.230000
v -0.094300 -0.244160 0.230000
v -0.094300 -0.225760 0.230000
v -0.094300 -0.244160 -0.230000
v -0.094300 -0.225760 -0.230000
v -0.020700 -0.244160 0.230000
v -0.020700 -0.225760 0.230000
v -0.020700 -0.244160 -0.230000
v -0.020700 -0.225760 -0.230000
v 0.016100 -0.244160 0.230000
v 0.016100 -0.225760 0.230000
v 0.016100 -0.244160 -0.230000
v 0.016100 -0.225760 -0.230000
v 0.089700 -0.244160 0.230000
v 0.089700 -0.225760 0.230000
v 0.089700 -0.244160 -0.230000
v 0.089700 -0.225760 -0.230000
v 0.126500 -0.244160 0.230000
v 0.126500 -0.225760 0.230000
v 0.126500 -0.244160 -0.230000
v 0.126500 -0.225760 -0.230000
v 0.200100 -0.244160 0.230000
v 0.200100 -0.225760 0.230000
v 0.200100 -0.244160 -0.230000
v 0.200100 -0.225760 -0.230000
v -0.085100 -0.129160 0.036800
v -0.085100 -0.083160 0.036800
v -0.085100 -0.129160 -0.036800
v -0.085100 -0.083160 -0.036800
v 0.172500 -0.129160 0.036800
v 0.172500 -0.083160 0.036800
v 0.172500 -0.129160 -0.036800
v 0.172500 -0.083160 -0.036800
v -0.066700 -0.113060 0.101200
v -0.066700 -0.099260 0.101200
v -0.066700 -0.113060 -0.101200
v -0.066700 -0.099260 -0.101200
v 0.062100 -0.113060 0.101200
v 0.062100 -0.099260 0.101200
v 0.062100 -0.113060 -0.101200
v 0.062100 -0.099260 -0.101200
v -0.821100 0.169840 -0.055200
v -0.821100 0.537840 -0.055200
v -0.821100 0.169840 -0.239200
v -0.821100 0.537840 -0.239200
v -0.563500 0.169840 -0.055200
v -0.563500 0.537840 -0.055200
v -0.563500 0.169840 -0.239200
v -0.563500 0.537840 -0.239200
v -0.784300 0.510240 -0.082800
v -0.784300 0.639040 -0.082800
v -0.784300 0.510240 -0.211600
v -0.784300 0.639040 -0.211600
v -0.600300 0.510240 -0.082800
v -0.600300 0.639040 -0.082800
v -0.600300 0.510240 -0.211600
v -0.600300 0.639040 -0.211600
v -0.710700 0.639040 -0.128800
v -0.710700 0.694240 -0.128800
v -0.710700 0.639040 -0.165600
v -0.710700 0.694240 -0.165600
v -0.673900 0.639040 -0.128800
v -0.673900 0.694240 -0.128800
v -0.673900 0.639040 -0.165600
v -0.673900 0.694240 -0.165600
v -0.568100 0.280240 -0.092000
v -0.568100 0.317040 -0.092000
v -0.568100 0.280240 -0.202400
v -0.568100 0.317040 -0.202400
v -0.540500 0.280240 -0.092000
v -0.540500 0.317040 -0.092000
v -0.540500 0.280240 -0.202400
v -0.540500 0.317040 -0.202400
v -0.568100 0.372240 -0.092000
v -0.568100 0.409040 -0.092000
v -0.568100 0.372240 -0.202400
v -0.568100 0.409040 -0.202400
v -0.540500 0.372240 -0.092000
v -0.540500 0.409040 -0.092000
v -0.540500 0.372240 -0.202400
v -0.540500 0.409040 -0.202400
v -0.568100 0.464240 -0.092000
v -0.568100 0.501040 -0.092000
v -0.568100 0.464240 -0.202400
v -0.568100 0.501040 -0.202400
v -0.540500 0.464240 -0.092000
v -0.540500 0.501040 -0.092000
v -0.540500 0.464240 -0.202400
v -0.540500 0.501040 -0.202400
v -0.821100 0.169840 0.239200
v -0.821100 0.537840 0.239200
v -0.821100 0.169840 0.055200
v -0.821100 0.537840 0.055200
v -0.563500 0.169840 0.239200
v -0.563500 0.537840 0.239200
v -0.563500 0.169840 0.055200
v -0.563500 0.537840 0.055200
v -0.784300 0.510240 0.211600
v -0.784300 0.639040 0.211600
v -0.784300 0.510240 0.082800
v -0.784300 0.639040 0.082800
v -0.600300 0.510240 0.211600
v -0.600300 0.639040 0.211600
v -0.600300 0.510240 0.082800
v -0.600300 0.639040 0.082800
v -0.710700 0.639040 0.165600
v -0.710700 0.694240 0.165600
v -0.710700 0.639040 0.128800
v -0.710700 0.694240 0.128800
v -0.673900 0.639040 0.165600
v -0.673900 0.694240 0.165600
v -0.673900 0.639040 0.128800
v -0.673900 0.694240 0.128800
v -0.568100 0.280240 0.202400
v -0.568100 0.317040 0.202400
v -0.568100 0.280240 0.092000
v -0.568100 0.317040 0.092000
v -0.540500 0.280240 0.202400
v -0.540500 0.317040 0.202400
v -0.540500 0.280240 0.092000
v -0.540500 0.317040 0.092000
v -0.568100 0.372240 0.202400
v -0.568100 0.409040 0.202400
v -0.568100 0.372240 0.092000
v -0.568100 0.409040 0.092000
v -0.540500 0.372240 0.202400
v -0.540500 0.409040 0.202400
v -0.540500 0.372240 0.092000
v -0.540500 0.409040 0.092000
v -0.568100 0.464240 0.202400
v -0.568100 0.501040 0.202400
v -0.568100 0.464240 0.092000
v -0.568100 0.501040 0.092000
v -0.540500 0.464240 0.202400
v -0.540500 0.501040 0.202400
v -0.540500 0.464240 0.092000
v -0.540500 0.501040 0.092000
v 0.402500 0.169840 0.110400
v 0.402500 0.427440 0.110400
v 0.402500 0.169840 -0.110400
v 0.402500 0.427440 -0.110400
v 0.604900 0.169840 0.110400
v 0.604900 0.427440 0.110400
v 0.604900 0.169840 -0.110400
v 0.604900 0.427440 -0.110400
v 0.430100 0.399840 0.073600
v 0.430100 0.491840 0.073600
v 0.430100 0.399840 -0.073600
v 0.430100 0.491840 -0.073600
v 0.577300 0.399840 0.073600
v 0.577300 0.491840 0.073600
v 0.577300 0.399840 -0.073600
v 0.577300 0.491840 -0.073600
v 0.487600 0.496440 0.016100
v 0.487600 0.542440 0.016100
v 0.487600 0.496440 -0.016100
v 0.487600 0.542440 -0.016100
v 0.519800 0.496440 0.016100
v 0.519800 0.542440 0.016100
v 0.519800 0.496440 -0.016100
v 0.519800 0.542440 -0.016100
v 0.749340 -0.017840 -0.330280
v 0.749340 0.063120 -0.330280
v 0.749340 -0.017840 -0.350520
v 0.749340 0.063120 -0.350520
v 0.810060 -0.017840 -0.330280
v 0.810060 0.063120 -0.330280
v 0.810060 -0.017840 -0.350520
v 0.810060 0.063120 -0.350520
v 0.749340 0.007460 -0.360640
v 0.749340 0.037820 -0.360640
v 0.749340 0.007460 -0.441600
v 0.749340 0.037820 -0.441600
v 0.789820 0.007460 -0.360640
v 0.789820 0.037820 -0.360640
v 0.789820 0.007460 -0.441600
v 0.789820 0.037820 -0.441600
v 0.749340 0.007460 -0.239200
v 0.749340 0.037820 -0.239200
v 0.749340 0.007460 -0.320160
v 0.749340 0.037820 -0.320160
v 0.789820 0.007460 -0.239200
v 0.789820 0.037820 -0.239200
v 0.789820 0.007460 -0.320160
v 0.789820 0.037820 -0.320160
v -0.351900 -0.014160 -0.331200
v -0.351900 0.059440 -0.331200
v -0.351900 -0.014160 -0.349600
v -0.351900 0.059440 -0.349600
v -0.296700 -0.014160 -0.331200
v -0.296700 0.059440 -0.331200
v -0.296700 -0.014160 -0.349600
v -0.296700 0.059440 -0.349600
v -0.351900 0.008840 -0.358800
v -0.351900 0.036440 -0.358800
v -0.351900 0.008840 -0.432400
v -0.351900 0.036440 -0.432400
v -0.315100 0.008840 -0.358800
v -0.315100 0.036440 -0.358800
v -0.315100 0.008840 -0.432400
v -0.315100 0.036440 -0.432400
v -0.351900 0.008840 -0.248400
v -0.351900 0.036440 -0.248400
v -0.351900 0.008840 -0.322000
v -0.351900 0.036440 -0.322000
v -0.315100 0.008840 -0.248400
v -0.315100 0.036440 -0.248400
v -0.315100 0.008840 -0.322000
v -0.315100 0.036440 -0.322000
v -1.281100 -0.069360 -0.110400
v -1.023500 -0.069360 -0.110400
v -1.281100 -0.124560 -0.095609
v -1.023500 -0.124560 -0.095609
v -1.281100 -0.164969 -0.055200
v -1.023500 -0.164969 -0.055200
v -1.281100 -0.179760 0.000000
v -1.023500 -0.179760 0.000000
v -1.281100 -0.164969 0.055200
v -1.023500 -0.164969 0.055200
v -1.281100 -0.124560 0.095609
v -1.023500 -0.124560 0.095609
v -1.281100 -0.069360 0.110400
v -1.023500 -0.069360 0.110400
v -1.281100 -0.014160 0.095609
v -1.023500 -0.014160 0.095609
v -1.281100 0.026249 0.055200
v -1.023500 0.026249 0.055200
v -1.281100 0.041040 0.000000
v -1.023500 0.041040 0.000000
v -1.281100 0.026249 -0.055200
v -1.023500 0.026249 -0.055200
v -1.281100 -0.014160 -0.095609
v -1.023500 -0.014160 -0.095609
v -1.290300 -0.069360 -0.119600
v -1.253500 -0.069360 -0.119600
v -1.290300 -0.129160 -0.103577
v -1.253500 -0.129160 -0.103577
v -1.290300 -0.172937 -0.059800
v -1.253500 -0.172937 -0.059800
v -1.290300 -0.188960 0.000000
v -1.253500 -0.188960 0.000000
v -1.290300 -0.172937 0.059800
v -1.253500 -0.172937 0.059800
v -1.290300 -0.129160 0.103577
v -1.253500 -0.129160 0.103577
v -1.290300 -0.069360 0.119600
v -1.253500 -0.069360 0.119600
v -1.290300 -0.009560 0.103577
v -1.253500 -0.009560 0.103577
v -1.290300 0.034217 0.059800
v -1.253500 0.034217 0.059800
v -1.290300 0.050240 0.000000
v -1.253500 0.050240 0.000000
v -1.290300 0.034217 -0.059800
v -1.253500 0.034217 -0.059800
v -1.290300 -0.009560 -0.103577
v -1.253500 -0.009560 -0.103577
v -1.322500 -0.069360 -0.082800
v -1.294900 -0.069360 -0.082800
v -1.322500 -0.118029 -0.066987
v -1.294900 -0.118029 -0.066987
v -1.322500 -0.148107 -0.025587
v -1.294900 -0.148107 -0.025587
v -1.322500 -0.148107 0.025587
v -1.294900 -0.148107 0.025587
v -1.322500 -0.118029 0.066987
v -1.294900 -0.118029 0.066987
v -1.322500 -0.069360 0.082800
v -1.294900 -0.069360 0.082800
v -1.322500 -0.020691 0.066987
v -1.294900 -0.020691 0.066987
v -1.322500 0.009388 0.025587
v -1.294900 0.009388 0.025587
v -1.322500 0.009388 -0.025587
v -1.294900 0.009388 -0.025587
v -1.322500 -0.020691 -0.066987
v -1.294900 -0.020691 -0.066987
v -1.281100 -0.106160 -0.239200
v -1.023500 -0.106160 -0.239200
v -1.281100 -0.161360 -0.224409
v -1.023500 -0.161360 -0.224409
v -1.281100 -0.201769 -0.184000
v -1.023500 -0.201769 -0.184000
v -1.281100 -0.216560 -0.128800
v -1.023500 -0.216560 -0.128800
v -1.281100 -0.201769 -0.073600
v -1.023500 -0.201769 -0.073600
v -1.281100 -0.161360 -0.033191
v -1.023500 -0.161360 -0.033191
v -1.281100 -0.106160 -0.018400
v -1.023500 -0.106160 -0.018400
v -1.281100 -0.050960 -0.033191
v -1.023500 -0.050960 -0.033191
v -1.281100 -0.010551 -0.073600
v -1.023500 -0.010551 -0.073600
v -1.281100 0.004240 -0.128800
v -1.023500 0.004240 -0.128800
v -1.281100 -0.010551 -0.184000
v -1.023500 -0.010551 -0.184000
v -1.281100 -0.050960 -0.224409
v -1.023500 -0.050960 -0.224409
v -1.290300 -0.106160 -0.248400
v -1.253500 -0.106160 -0.248400
v -1.290300 -0.165960 -0.232377
v -1.253500 -0.165960 -0.232377
v -1.290300 -0.209737 -0.188600
v -1.253500 -0.209737 -0.188600
v -1.290300 -0.225760 -0.128800
v -1.253500 -0.225760 -0.128800
v -1.290300 -0.209737 -0.069000
v -1.253500 -0.209737 -0.069000
v -1.290300 -0.165960 -0.025223
v -1.253500 -0.165960 -0.025223
v -1.290300 -0.106160 -0.009200
v -1.253500 -0.106160 -0.009200
v -1.290300 -0.046360 -0.025223
v -1.253500 -0.046360 -0.025223
v -1.290300 -0.002583 -0.069000
v -1.253500 -0.002583 -0.069000
v -1.290300 0.013440 -0.128800
v -1.253500 0.013440 -0.128800
v -1.290300 -0.002583 -0.188600
v -1.253500 -0.002583 -0.188600
v -1.290300 -0.046360 -0.232377
v -1.253500 -0.046360 -0.232377
v -1.322500 -0.106160 -0.211600
v -1.294900 -0.106160 -0.211600
v -1.322500 -0.154829 -0.195787
v -1.294900 -0.154829 -0.195787
v -1.322500 -0.184907 -0.154387
v -1.294900 -0.184907 -0.154387
v -1.322500 -0.184907 -0.103213
v -1.294900 -0.184907 -0.103213
v -1.322500 -0.154829 -0.061813
v -1.294900 -0.154829 -0.061813
v -1.322500 -0.106160 -0.046000
v -1.294900 -0.106160 -0.046000
v -1.322500 -0.057491 -0.061813
v -1.294900 -0.057491 -0.061813
v -1.322500 -0.027412 -0.103213
v -1.294900 -0.027412 -0.103213
v -1.322500 -0.027412 -0.154387
v -1.294900 -0.027412 -0.154387
v -1.322500 -0.057491 -0.195787
v -1.294900 -0.057491 -0.195787
v -1.281100 -0.106160 0.018400
v -1.023500 -0.106160 0.018400
v -1.281100 -0.161360 0.033191
v -1.023500 -0.161360 0.033191
v -1.281100 -0.201769 0.073600
v -1.023500 -0.201769 0.073600
v -1.281100 -0.216560 0.128800
v -1.023500 -0.216560 0.128800
v -1.281100 -0.201769 0.184000
v -1.023500 -0.201769 0.184000
v -1.281100 -0.161360 0.224409
v -1.023500 -0.161360 0.224409
v -1.281100 -0.106160 0.239200
v -1.023500 -0.106160 0.239200
v -1.281100 -0.050960 0.224409
v -1.023500 -0.050960 0.224409
v -1.281100 -0.010551 0.184000
v -1.023500 -0.010551 0.184000
v -1.281100 0.004240 0.128800
v -1.023500 0.004240 0.128800
v -1.281100 -0.010551 0.073600
v -1.023500 -0.010551 0.073600
v -1.281100 -0.050960 0.033191
v -1.023500 -0.050960 0.033191
v -1.290300 -0.106160 0.009200
v -1.253500 -0.106160 0.009200
v -1.290300 -0.165960 0.025223
v -1.253500 -0.165960 0.025223
v -1.290300 -0.209737 0.069000
v -1.253500 -0.209737 0.069000
v -1.290300 -0.225760 0.128800
v -1.253500 -0.225760 0.128800
v -1.290300 -0.209737 0.188600
v -1.253500 -0.209737 0.188600
v -1.290300 -0.165960 0.232377
v -1.253500 -0.165960 0.232377
v -1.290300 -0.106160 0.248400
v -1.253500 -0.106160 0.248400
v -1.290300 -0.046360 0.232377
v -1.253500 -0.046360 0.232377
v -1.290300 -0.002583 0.188600
v -1.253500 -0.002583 0.188600
v -1.290300 0.013440 0.128800
v -1.253500 0.013440 0.128800
v -1.290300 -0.002583 0.069000
v -1.253500 -0.002583 0.069000
v -1.290300 -0.046360 0.025223
v -1.253500 -0.046360 0.025223
v -1.322500 -0.106160 0.046000
v -1.294900 -0.106160 0.046000
v -1.322500 -0.154829 0.061813
v -1.294900 -0.154829 0.061813
v -1.322500 -0.184907 0.103213
v -1.294900 -0.184907 0.103213
v -1.322500 -0.184907 0.154387
v -1.294900 -0.184907 0.154387
v -1.322500 -0.154829 0.195787
v -1.294900 -0.154829 0.195787
v -1.322500 -0.106160 0.211600
v -1.294900 -0.106160 0.211600
v -1.322500 -0.057491 0.195787
v -1.294900 -0.057491 0.195787
v -1.322500 -0.027412 0.154387
v -1.294900 -0.027412 0.154387
v -1.322500 -0.027412 0.103213
v -1.294900 -0.027412 0.103213
v -1.322500 -0.057491 0.061813
v -1.294900 -0.057491 0.061813
v -1.221300 -0.011511 -0.216555
v -1.221300 0.143536 -0.086455
v -1.221300 0.012144 -0.244745
v -1.221300 0.167191 -0.114645
v -0.899300 -0.011511 -0.216555
v -0.899300 0.143536 -0.086455
v -0.899300 0.012144 -0.244745
v -0.899300 0.167191 -0.114645
v -1.221300 0.012144 0.244745
v -1.221300 0.167191 0.114645
v -1.221300 -0.011511 0.216555
v -1.221300 0.143536 0.086455
v -0.899300 0.012144 0.244745
v -0.899300 0.167191 0.114645
v -0.899300 -0.011511 0.216555
v -0.899300 0.143536 0.086455
v -1.221300 -0.282256 -0.086455
v -1.221300 -0.127209 -0.216555
v -1.221300 -0.305911 -0.114645
v -1.221300 -0.150864 -0.244745
v -0.899300 -0.282256 -0.086455
v -0.899300 -0.127209 -0.216555
v -0.899300 -0.305911 -0.114645
v -0.899300 -0.150864 -0.244745
v -1.221300 -0.305911 0.114645
v -1.221300 -0.150864 0.244745
v -1.221300 -0.282256 0.086455
v -1.221300 -0.127209 0.216555
v -0.899300 -0.305911 0.114645
v -0.899300 -0.150864 0.244745
v -0.899300 -0.282256 0.086455
v -0.899300 -0.127209 0.216555
v 0.568100 -0.372960 -0.147200
v 0.568100 -0.317760 -0.147200
v 0.568100 -0.372960 -0.257600
v 0.568100 -0.317760 -0.257600
v 0.715300 -0.372960 -0.147200
v 0.715300 -0.317760 -0.147200
v 0.715300 -0.372960 -0.257600
v 0.715300 -0.317760 -0.257600
v 0.586500 -0.418960 -0.161000
v 0.586500 -0.382160 -0.161000
v 0.586500 -0.418960 -0.243800
v 0.586500 -0.382160 -0.243800
v 0.696900 -0.418960 -0.161000
v 0.696900 -0.382160 -0.161000
v 0.696900 -0.418960 -0.243800
v 0.696900 -0.382160 -0.243800
v 0.568100 -0.372960 0.257600
v 0.568100 -0.317760 0.257600
v 0.568100 -0.372960 0.147200
v 0.568100 -0.317760 0.147200
v 0.715300 -0.372960 0.257600
v 0.715300 -0.317760 0.257600
v 0.715300 -0.372960 0.147200
v 0.715300 -0.317760 0.147200
v 0.586500 -0.418960 0.243800
v 0.586500 -0.382160 0.243800
v 0.586500 -0.418960 0.161000
v 0.586500 -0.382160 0.161000
v 0.696900 -0.418960 0.243800
v 0.696900 -0.382160 0.243800
v 0.696900 -0.418960 0.161000
v 0.696900 -0.382160 0.161000
v -0.443900 -0.372960 -0.147200
v -0.443900 -0.317760 -0.147200
v -0.443900 -0.372960 -0.257600
v -0.443900 -0.317760 -0.257600
v -0.296700 -0.372960 -0.147200
v -0.296700 -0.317760 -0.147200
v -0.296700 -0.372960 -0.257600
v -0.296700 -0.317760 -0.257600
v -0.425500 -0.418960 -0.161000
v -0.425500 -0.382160 -0.161000
v -0.425500 -0.418960 -0.243800
v -0.425500 -0.382160 -0.243800
v -0.315100 -0.418960 -0.161000
v -0.315100 -0.382160 -0.161000
v -0.315100 -0.418960 -0.243800
v -0.315100 -0.382160 -0.243800
v -0.443900 -0.372960 0.257600
v -0.443900 -0.317760 0.257600
v -0.443900 -0.372960 0.147200
v -0.443900 -0.317760 0.147200
v -0.296700 -0.372960 0.257600
v -0.296700 -0.317760 0.257600
v -0.296700 -0.372960 0.147200
v -0.296700 -0.317760 0.147200
v -0.425500 -0.418960 0.243800
v -0.425500 -0.382160 0.243800
v -0.425500 -0.418960 0.161000
v -0.425500 -0.382160 0.161000
v -0.315100 -0.418960 0.243800
v -0.315100 -0.382160 0.243800
v -0.315100 -0.418960 0.161000
v -0.315100 -0.382160 0.161000
v 0.062100 -0.372960 0.055200
v 0.062100 -0.317760 0.055200
v 0.062100 -0.372960 -0.055200
v 0.062100 -0.317760 -0.055200
v 0.209300 -0.372960 0.055200
v 0.209300 -0.317760 0.055200
v 0.209300 -0.372960 -0.055200
v 0.209300 -0.317760 -0.055200
v 0.080500 -0.418960 0.041400
v 0.080500 -0.382160 0.041400
v 0.080500 -0.418960 -0.041400
v 0.080500 -0.382160 -0.041400
v 0.190900 -0.418960 0.041400
v 0.190900 -0.382160 0.041400
v 0.190900 -0.418960 -0.041400
v 0.190900 -0.382160 -0.041400
v -0.913100 -0.216560 0.312800
v -0.913100 -0.050960 0.312800
v -0.913100 -0.216560 -0.312800
v -0.913100 -0.050960 -0.312800
v -0.839500 -0.216560 0.312800
v -0.839500 -0.050960 0.312800
v -0.839500 -0.216560 -0.312800
v -0.839500 -0.050960 -0.312800
v -0.499100 -0.216560 0.312800
v -0.499100 -0.050960 0.312800
v -0.499100 -0.216560 -0.312800
v -0.499100 -0.050960 -0.312800
v -0.425500 -0.216560 0.312800
v -0.425500 -0.050960 0.312800
v -0.425500 -0.216560 -0.312800
v -0.425500 -0.050960 -0.312800
v 0.282900 -0.216560 0.312800
v 0.282900 -0.050960 0.312800
v 0.282900 -0.216560 -0.312800
v 0.282900 -0.050960 -0.312800
v 0.356500 -0.216560 0.312800
v 0.356500 -0.050960 0.312800
v 0.356500 -0.216560 -0.312800
v 0.356500 -0.050960 -0.312800
v 0.788900 -0.216560 0.312800
v 0.788900 -0.050960 0.312800
v 0.788900 -0.216560 -0.312800
v 0.788900 -0.050960 -0.312800
v 0.862500 -0.216560 0.312800
v 0.862500 -0.050960 0.312800
v 0.862500 -0.216560 -0.312800
v 0.862500 -0.050960 -0.312800
v 0.949900 0.100840 -0.262200
v 0.949900 0.128440 -0.262200
v 0.949900 0.100840 -0.289800
v 0.949900 0.128440 -0.289800
v 0.977500 0.100840 -0.262200
v 0.977500 0.128440 -0.262200
v 0.977500 0.100840 -0.289800
v 0.977500 0.128440 -0.289800
v 0.351900 0.174440 -0.280600
v 0.351900 0.202040 -0.280600
v 0.351900 0.174440 -0.308200
v 0.351900 0.202040 -0.308200
v 0.379500 0.174440 -0.280600
v 0.379500 0.202040 -0.280600
v 0.379500 0.174440 -0.308200
v 0.379500 0.202040 -0.308200
v -0.844100 0.404440 -0.188600
v -0.844100 0.432040 -0.188600
v -0.844100 0.404440 -0.216200
v -0.844100 0.432040 -0.216200
v -0.816500 0.404440 -0.188600
v -0.816500 0.432040 -0.188600
v -0.816500 0.404440 -0.216200
v -0.816500 0.432040 -0.216200
v 0.949900 0.100840 0.289800
v 0.949900 0.128440 0.289800
v 0.949900 0.100840 0.262200
v 0.949900 0.128440 0.262200
v 0.977500 0.100840 0.289800
v 0.977500 0.128440 0.289800
v 0.977500 0.100840 0.262200
v 0.977500 0.128440 0.262200
v -0.522100 0.082440 0.271400
v -0.522100 0.110040 0.271400
v -0.522100 0.082440 0.243800
v -0.522100 0.110040 0.243800
v -0.494500 0.082440 0.271400
v -0.494500 0.110040 0.271400
v -0.494500 0.082440 0.243800
v -0.494500 0.110040 0.243800
vn -1.0000 -0.0000 -0.0000
vn 0.1028 -0.0000 -0.9947
vn 1.0000 -0.0000 -0.0000
vn -0.0842 -0.0000 0.9964
vn 0.0375 -0.9993 -0.0000
vn 0.0125 0.9999 -0.0000
vn 0.0250 0.9997 -0.0000
vn -0.0000 1.0000 -0.0000
vn -0.0000 -1.0000 -0.0000
vn 0.1028 -0.0000 0.9947
vn -0.0000 -0.0000 1.0000
vn -0.0842 -0.0000 -0.9964
vn -0.0000 -0.0000 -1.0000
vn -0.0000 -0.5000 -0.8660
vn -0.0000 -0.5000 0.8660
vn -0.0000 0.5000 0.8660
vn -0.0000 0.5000 -0.8660
vn 0.4330 0.8660 -0.2500
vn 0.8660 -0.0000 -0.5000
vn 0.4330 -0.8660 -0.2500
vn -0.4330 -0.8660 0.2500
vn 0.5000 -0.0000 0.8660
vn -0.8660 -0.0000 0.5000
vn -0.4330 0.8660 0.2500
vn -0.5000 -0.0000 -0.8660
vn -0.0000 -0.2588 -0.9659
vn -0.0000 -0.7071 -0.7071
vn -0.0000 -0.9659 -0.2588
vn -0.0000 -0.9659 0.2588
vn -0.0000 -0.7071 0.7071
vn -0.0000 -0.2588 0.9659
vn -0.0000 0.2588 0.9659
vn -0.0000 0.7071 0.7071
vn -0.0000 0.9659 0.2588
vn -0.0000 0.9659 -0.2588
vn -0.0000 0.7071 -0.7071
vn -0.0000 0.2588 -0.9659
vn -0.0000 -0.3090 -0.9511
vn -0.0000 -0.8090 -0.5878
vn -0.0000 -0.8090 0.5878
vn -0.0000 -0.3090 0.9511
vn -0.0000 0.3090 0.9511
vn -0.0000 0.8090 0.5878
vn -0.0000 0.8090 -0.5878
vn -0.0000 0.3090 -0.9511
vn -0.0000 0.6428 -0.7660
vn -0.0000 -0.6428 0.7660
vn -0.0000 -0.7660 -0.6428
vn -0.0000 0.7660 0.6428
vn -0.0000 -0.6428 -0.7660
vn -0.0000 0.6428 0.7660
vn -0.0000 -0.7660 0.6428
vn -0.0000 0.7660 -0.6428
vt 0.541667 0.166667
vt 0.625000 0.166667
vt 0.625000 0.250000
vt 0.541667 0.250000
vt 0.541667 0.416667
vt 0.625000 0.416667
vt 0.625000 0.500000
vt 0.541667 0.500000
vt 0.541667 0.666667
vt 0.625000 0.666667
vt 0.625000 0.750000
vt 0.541667 0.750000
vt 0.541667 0.916667
vt 0.625000 0.916667
vt 0.625000 1.000000
vt 0.541667 1.000000
vt 0.291667 0.666667
vt 0.375000 0.666667
vt 0.375000 0.750000
vt 0.291667 0.750000
vt 0.791667 0.666667
vt 0.875000 0.666667
vt 0.875000 0.750000
vt 0.791667 0.750000
vt 0.708333 0.666667
vt 0.708333 0.750000
vt 0.708333 0.500000
vt 0.708333 0.583333
vt 0.625000 0.583333
vt 0.791667 0.500000
vt 0.791667 0.583333
vt 0.875000 0.500000
vt 0.875000 0.583333
vt 0.125000 0.666667
vt 0.208333 0.666667
vt 0.208333 0.750000
vt 0.125000 0.750000
vt 0.125000 0.500000
vt 0.208333 0.500000
vt 0.208333 0.583333
vt 0.125000 0.583333
vt 0.291667 0.500000
vt 0.291667 0.583333
vt 0.375000 0.500000
vt 0.375000 0.583333
vt 0.375000 0.916667
vt 0.458333 0.916667
vt 0.458333 1.000000
vt 0.375000 1.000000
vt 0.458333 0.750000
vt 0.458333 0.833333
vt 0.375000 0.833333
vt 0.541667 0.833333
vt 0.625000 0.833333
vt 0.458333 0.666667
vt 0.458333 0.500000
vt 0.458333 0.583333
vt 0.541667 0.583333
vt 0.375000 0.416667
vt 0.458333 0.416667
vt 0.375000 0.250000
vt 0.458333 0.250000
vt 0.458333 0.333333
vt 0.375000 0.333333
vt 0.541667 0.333333
vt 0.625000 0.333333
vt 0.375000 0.166667
vt 0.458333 0.166667
vt 0.375000 0.000000
vt 0.458333 0.000000
vt 0.458333 0.083333
vt 0.375000 0.083333
vt 0.541667 0.000000
vt 0.541667 0.083333
vt 0.625000 0.000000
vt 0.625000 0.083333
vt 1.000000 0.500000
vt 1.000000 1.000000
vt 0.833333 1.000000
vt 0.833333 0.500000
vt 0.666667 1.000000
vt 0.666667 0.500000
vt 0.500000 1.000000
vt 0.500000 0.500000
vt 0.333333 1.000000
vt 0.333333 0.500000
vt 0.457846 0.370000
vt 0.250000 0.490000
vt 0.042154 0.370000
vt 0.042154 0.130000
vt 0.250000 0.010000
vt 0.457846 0.130000
vt 0.166667 1.000000
vt 0.166667 0.500000
vt -0.000000 1.000000
vt -0.000000 0.500000
vt 0.750000 0.490000
vt 0.957846 0.370000
vt 0.957846 0.130000
vt 0.750000 0.010000
vt 0.542154 0.130000
vt 0.542154 0.370000
vt 0.457846 0.370000
vt 0.250000 0.490000
vt 0.042154 0.370000
vt 0.042154 0.130000
vt 0.250000 0.010000
vt 0.457846 0.130000
vt 0.750000 0.490000
vt 0.957846 0.370000
vt 0.957846 0.130000
vt 0.750000 0.010000
vt 0.542154 0.130000
vt 0.542154 0.370000
vt 0.042154 0.370000
vt 0.042154 0.130000
vt 0.250000 0.010000
vt 0.750000 0.010000
vt 0.916667 1.000000
vt 0.916667 0.500000
vt 0.833333 1.000000
vt 0.833333 0.500000
vt 0.750000 1.000000
vt 0.750000 0.500000
vt 0.666667 1.000000
vt 0.666667 0.500000
vt 0.583333 1.000000
vt 0.583333 0.500000
vt 0.500000 1.000000
vt 0.500000 0.500000
vt 0.416667 1.000000
vt 0.416667 0.500000
vt 0.333333 1.000000
vt 0.333333 0.500000
vt 0.250000 1.000000
vt 0.250000 0.500000
vt 0.166667 1.000000
vt 0.166667 0.500000
vt 0.370000 0.457846
vt 0.130000 0.457846
vt 0.010000 0.250000
vt 0.130000 0.042154
vt 0.370000 0.042154
vt 0.490000 0.250000
vt 0.083333 1.000000
vt 0.083333 0.500000
vt 0.000000 1.000000
vt 0.000000 0.500000
vt 0.870000 0.457846
vt 0.990000 0.250000
vt 0.870000 0.042154
vt 0.630000 0.042154
vt 0.510000 0.250000
vt 0.630000 0.457846
vt 0.900000 1.000000
vt 0.900000 0.500000
vt 0.800000 1.000000
vt 0.800000 0.500000
vt 0.700000 1.000000
vt 0.700000 0.500000
vt 0.600000 1.000000
vt 0.600000 0.500000
vt 0.500000 1.000000
vt 0.500000 0.500000
vt 0.400000 1.000000
vt 0.400000 0.500000
vt 0.300000 1.000000
vt 0.300000 0.500000
vt 0.200000 1.000000
vt 0.200000 0.500000
vt 0.391068 0.444164
vt 0.108932 0.444164
vt 0.021746 0.324164
vt 0.021746 0.175836
vt 0.108932 0.055836
vt 0.391068 0.055836
vt 0.478254 0.175836
vt 0.478254 0.324164
vt 0.100000 1.000000
vt 0.100000 0.500000
vt -0.000000 1.000000
vt -0.000000 0.500000
vt 0.891068 0.444164
vt 0.978254 0.324164
vt 0.978254 0.175836
vt 0.891068 0.055836
vt 0.608932 0.055836
vt 0.521746 0.175836
vt 0.521746 0.324164
vt 0.608932 0.444164
s 0
usemtl HullPrimary
f 56/1/1 14/2/1 4/3/1 15/4/1
f 52/5/2 20/6/2 8/7/2 21/8/2
f 48/9/3 26/10/3 6/11/3 27/12/3
f 44/13/4 32/14/4 2/15/4 12/16/4
f 40/17/5 23/18/5 5/19/5 30/20/5
f 36/21/6 13/22/6 2/23/6 32/24/6
f 26/10/7 34/25/7 31/26/7 6/11/7
f 34/25/8 36/21/8 32/24/8 31/26/8
f 8/7/7 20/27/7 33/28/7 25/29/7
f 25/29/7 33/28/7 34/25/7 26/10/7
f 20/27/8 19/30/8 35/31/8 33/28/8
f 33/28/8 35/31/8 36/21/8 34/25/8
f 19/30/6 4/32/6 14/33/6 35/31/6
f 35/31/6 14/33/6 13/22/6 36/21/6
f 10/34/9 38/35/9 29/36/9 1/37/9
f 38/35/9 40/17/9 30/20/9 29/36/9
f 3/38/9 18/39/9 37/40/9 9/41/9
f 9/41/9 37/40/9 38/35/9 10/34/9
f 18/39/9 17/42/9 39/43/9 37/40/9
f 37/40/9 39/43/9 40/17/9 38/35/9
f 17/42/5 7/44/5 24/45/5 39/43/5
f 39/43/5 24/45/5 23/18/5 40/17/5
f 29/46/4 42/47/4 11/48/4 1/49/4
f 42/47/4 44/13/4 12/16/4 11/48/4
f 5/19/10 28/50/10 41/51/10 30/52/10
f 30/52/11 41/51/11 42/47/11 29/46/11
f 28/50/10 27/12/10 43/53/10 41/51/10
f 41/51/11 43/53/11 44/13/11 42/47/11
f 27/12/10 6/11/10 31/54/10 43/53/10
f 43/53/11 31/54/11 32/14/11 44/13/11
f 23/18/3 46/55/3 28/50/3 5/19/3
f 46/55/3 48/9/3 27/12/3 28/50/3
f 7/44/3 22/56/3 45/57/3 24/45/3
f 24/45/3 45/57/3 46/55/3 23/18/3
f 22/56/3 21/8/3 47/58/3 45/57/3
f 45/57/3 47/58/3 48/9/3 46/55/3
f 21/8/3 8/7/3 25/29/3 47/58/3
f 47/58/3 25/29/3 26/10/3 48/9/3
f 17/59/2 50/60/2 22/56/2 7/44/2
f 50/60/2 52/5/2 21/8/2 22/56/2
f 3/61/12 16/62/12 49/63/12 18/64/12
f 18/64/13 49/63/13 50/60/13 17/59/13
f 16/62/12 15/4/12 51/65/12 49/63/12
f 49/63/13 51/65/13 52/5/13 50/60/13
f 15/4/12 4/3/12 19/66/12 51/65/12
f 51/65/13 19/66/13 20/6/13 52/5/13
f 9/67/1 54/68/1 16/62/1 3/61/1
f 54/68/1 56/1/1 15/4/1 16/62/1
f 1/69/1 11/70/1 53/71/1 10/72/1
f 10/72/1 53/71/1 54/68/1 9/67/1
f 11/70/1 12/73/1 55/74/1 53/71/1
f 53/71/1 55/74/1 56/1/1 54/68/1
f 12/73/1 2/75/1 13/76/1 55/74/1
f 55/74/1 13/76/1 14/2/1 56/1/1
usemtl HullPanel
f 57/69/1 58/75/1 60/3/1 59/61/1
f 59/61/13 60/3/13 64/7/13 63/44/13
f 63/44/3 64/7/3 62/11/3 61/19/3
f 61/19/11 62/11/11 58/15/11 57/49/11
f 59/38/9 63/44/9 61/19/9 57/37/9
f 64/7/8 60/32/8 58/23/8 62/11/8
f 205/69/1 206/75/1 208/3/1 207/61/1
f 207/61/13 208/3/13 212/7/13 211/44/13
f 211/44/3 212/7/3 210/11/3 209/19/3
f 209/19/11 210/11/11 206/15/11 205/49/11
f 207/38/9 211/44/9 209/19/9 205/37/9
f 212/7/8 208/32/8 206/23/8 210/11/8
f 229/69/1 230/75/1 232/3/1 231/61/1
f 231/61/13 232/3/13 236/7/13 235/44/13
f 235/44/3 236/7/3 234/11/3 233/19/3
f 233/19/11 234/11/11 230/15/11 229/49/11
f 231/38/9 235/44/9 233/19/9 229/37/9
f 236/7/8 232/32/8 230/23/8 234/11/8
f 277/69/1 278/75/1 280/3/1 279/61/1
f 279/61/13 280/3/13 284/7/13 283/44/13
f 283/44/3 284/7/3 282/11/3 281/19/3
f 281/19/11 282/11/11 278/15/11 277/49/11
f 279/38/9 283/44/9 281/19/9 277/37/9
f 284/7/8 280/32/8 278/23/8 282/11/8
f 325/69/1 326/75/1 328/3/1 327/61/1
f 327/61/13 328/3/13 332/7/13 331/44/13
f 331/44/3 332/7/3 330/11/3 329/19/3
f 329/19/11 330/11/11 326/15/11 325/49/11
f 327/38/9 331/44/9 329/19/9 325/37/9
f 332/7/8 328/32/8 326/23/8 330/11/8
f 593/69/1 594/75/1 596/3/1 595/61/1
f 595/61/46 596/3/46 600/7/46 599/44/46
f 599/44/3 600/7/3 598/11/3 597/19/3
f 597/19/47 598/11/47 594/15/47 593/49/47
f 595/38/48 599/44/48 597/19/48 593/37/48
f 600/7/49 596/32/49 594/23/49 598/11/49
f 601/69/1 602/75/1 604/3/1 603/61/1
f 603/61/50 604/3/50 608/7/50 607/44/50
f 607/44/3 608/7/3 606/11/3 605/19/3
f 605/19/51 606/11/51 602/15/51 601/49/51
f 603/38/52 607/44/52 605/19/52 601/37/52
f 608/7/53 604/32/53 602/23/53 606/11/53
f 609/69/1 610/75/1 612/3/1 611/61/1
f 611/61/50 612/3/50 616/7/50 615/44/50
f 615/44/3 616/7/3 614/11/3 613/19/3
f 613/19/51 614/11/51 610/15/51 609/49/51
f 611/38/52 615/44/52 613/19/52 609/37/52
f 616/7/53 612/32/53 610/23/53 614/11/53
f 617/69/1 618/75/1 620/3/1 619/61/1
f 619/61/46 620/3/46 624/7/46 623/44/46
f 623/44/3 624/7/3 622/11/3 621/19/3
f 621/19/47 622/11/47 618/15/47 617/49/47
f 619/38/48 623/44/48 621/19/48 617/37/48
f 624/7/49 620/32/49 618/23/49 622/11/49
usemtl HullMid
f 65/69/1 66/75/1 68/3/1 67/61/1
f 67/61/13 68/3/13 72/7/13 71/44/13
f 71/44/3 72/7/3 70/11/3 69/19/3
f 69/19/11 70/11/11 66/15/11 65/49/11
f 67/38/9 71/44/9 69/19/9 65/37/9
f 72/7/8 68/32/8 66/23/8 70/11/8
f 213/69/1 214/75/1 216/3/1 215/61/1
f 215/61/13 216/3/13 220/7/13 219/44/13
f 219/44/3 220/7/3 218/11/3 217/19/3
f 217/19/11 218/11/11 214/15/11 213/49/11
f 215/38/9 219/44/9 217/19/9 213/37/9
f 220/7/8 216/32/8 214/23/8 218/11/8
f 221/69/1 222/75/1 224/3/1 223/61/1
f 223/61/13 224/3/13 228/7/13 227/44/13
f 227/44/3 228/7/3 226/11/3 225/19/3
f 225/19/11 226/11/11 222/15/11 221/49/11
f 223/38/9 227/44/9 225/19/9 221/37/9
f 228/7/8 224/32/8 222/23/8 226/11/8
f 269/69/1 270/75/1 272/3/1 271/61/1
f 271/61/13 272/3/13 276/7/13 275/44/13
f 275/44/3 276/7/3 274/11/3 273/19/3
f 273/19/11 274/11/11 270/15/11 269/49/11
f 271/38/9 275/44/9 273/19/9 269/37/9
f 276/7/8 272/32/8 270/23/8 274/11/8
f 317/69/1 318/75/1 320/3/1 319/61/1
f 319/61/13 320/3/13 324/7/13 323/44/13
f 323/44/3 324/7/3 322/11/3 321/19/3
f 321/19/11 322/11/11 318/15/11 317/49/11
f 319/38/9 323/44/9 321/19/9 317/37/9
f 324/7/8 320/32/8 318/23/8 322/11/8
f 705/69/1 706/75/1 708/3/1 707/61/1
f 707/61/13 708/3/13 712/7/13 711/44/13
f 711/44/3 712/7/3 710/11/3 709/19/3
f 709/19/11 710/11/11 706/15/11 705/49/11
f 707/38/9 711/44/9 709/19/9 705/37/9
f 712/7/8 708/32/8 706/23/8 710/11/8
f 713/69/1 714/75/1 716/3/1 715/61/1
f 715/61/13 716/3/13 720/7/13 719/44/13
f 719/44/3 720/7/3 718/11/3 717/19/3
f 717/19/11 718/11/11 714/15/11 713/49/11
f 715/38/9 719/44/9 717/19/9 713/37/9
f 720/7/8 716/32/8 714/23/8 718/11/8
f 721/69/1 722/75/1 724/3/1 723/61/1
f 723/61/13 724/3/13 728/7/13 727/44/13
f 727/44/3 728/7/3 726/11/3 725/19/3
f 725/19/11 726/11/11 722/15/11 721/49/11
f 723/38/9 727/44/9 725/19/9 721/37/9
f 728/7/8 724/32/8 722/23/8 726/11/8
f 729/69/1 730/75/1 732/3/1 731/61/1
f 731/61/13 732/3/13 736/7/13 735/44/13
f 735/44/3 736/7/3 734/11/3 733/19/3
f 733/19/11 734/11/11 730/15/11 729/49/11
f 731/38/9 735/44/9 733/19/9 729/37/9
f 736/7/8 732/32/8 730/23/8 734/11/8
usemtl HullDark
f 73/69/1 74/75/1 76/3/1 75/61/1
f 75/61/13 76/3/13 80/7/13 79/44/13
f 79/44/3 80/7/3 78/11/3 77/19/3
f 77/19/11 78/11/11 74/15/11 73/49/11
f 75/38/9 79/44/9 77/19/9 73/37/9
f 80/7/8 76/32/8 74/23/8 78/11/8
f 81/69/1 82/75/1 84/3/1 83/61/1
f 83/61/13 84/3/13 88/7/13 87/44/13
f 87/44/3 88/7/3 86/11/3 85/19/3
f 85/19/11 86/11/11 82/15/11 81/49/11
f 83/38/9 87/44/9 85/19/9 81/37/9
f 88/7/8 84/32/8 82/23/8 86/11/8
f 89/69/1 90/75/1 92/3/1 91/61/1
f 91/61/13 92/3/13 96/7/13 95/44/13
f 95/44/3 96/7/3 94/11/3 93/19/3
f 93/19/11 94/11/11 90/15/11 89/49/11
f 91/38/9 95/44/9 93/19/9 89/37/9
f 96/7/8 92/32/8 90/23/8 94/11/8
f 97/69/1 98/75/1 100/3/1 99/61/1
f 99/61/13 100/3/13 104/7/13 103/44/13
f 103/44/3 104/7/3 102/11/3 101/19/3
f 101/19/11 102/11/11 98/15/11 97/49/11
f 99/38/9 103/44/9 101/19/9 97/37/9
f 104/7/8 100/32/8 98/23/8 102/11/8
f 117/69/1 118/75/1 120/3/1 119/61/1
f 119/61/13 120/3/13 124/7/13 123/44/13
f 123/44/3 124/7/3 122/11/3 121/19/3
f 121/19/11 122/11/11 118/15/11 117/49/11
f 119/38/9 123/44/9 121/19/9 117/37/9
f 124/7/8 120/32/8 118/23/8 122/11/8
f 137/77/18 138/78/18 140/79/18 139/80/18
f 139/80/19 140/79/19 142/81/19 141/82/19
f 141/82/20 142/81/20 144/83/20 143/84/20
f 143/84/21 144/83/21 146/85/21 145/86/21
f 140/87/22 138/88/22 148/115/22 146/116/22 144/117/22 142/92/22
f 145/86/23 146/85/23 148/93/23 147/94/23
f 147/94/24 148/93/24 138/95/24 137/96/24
f 137/97/25 139/98/25 141/99/25 143/118/25 145/101/25 147/102/25
f 161/77/18 162/78/18 164/79/18 163/80/18
f 163/80/19 164/79/19 166/81/19 165/82/19
f 165/82/20 166/81/20 168/83/20 167/84/20
f 167/84/21 168/83/21 170/85/21 169/86/21
f 164/87/22 162/88/22 172/115/22 170/116/22 168/117/22 166/92/22
f 169/86/23 170/85/23 172/93/23 171/94/23
f 171/94/24 172/93/24 162/95/24 161/96/24
f 161/97/25 163/98/25 165/99/25 167/118/25 169/101/25 171/102/25
f 389/77/26 390/78/26 392/119/26 391/120/26
f 391/120/27 392/119/27 394/121/27 393/122/27
f 393/122/28 394/121/28 396/123/28 395/124/28
f 395/124/29 396/123/29 398/125/29 397/126/29
f 397/126/30 398/125/30 400/127/30 399/128/30
f 399/128/31 400/127/31 402/129/31 401/130/31
f 401/130/32 402/129/32 404/131/32 403/132/32
f 403/132/33 404/131/33 406/133/33 405/134/33
f 405/134/34 406/133/34 408/135/34 407/136/34
f 407/136/35 408/135/35 410/137/35 409/138/35
f 392/139/3 390/88/3 412/140/3 410/89/3 408/141/3 406/90/3 404/142/3 402/91/3 400/143/3 398/92/3 396/144/3 394/87/3
f 409/138/36 410/137/36 412/145/36 411/146/36
f 411/146/37 412/145/37 390/147/37 389/148/37
f 389/97/1 391/149/1 393/98/1 395/150/1 397/99/1 399/151/1 401/100/1 403/152/1 405/101/1 407/153/1 409/102/1 411/154/1
f 457/77/26 458/78/26 460/119/26 459/120/26
f 459/120/27 460/119/27 462/121/27 461/122/27
f 461/122/28 462/121/28 464/123/28 463/124/28
f 463/124/29 464/123/29 466/125/29 465/126/29
f 465/126/30 466/125/30 468/127/30 467/128/30
f 467/128/31 468/127/31 470/129/31 469/130/31
f 469/130/32 470/129/32 472/131/32 471/132/32
f 471/132/33 472/131/33 474/133/33 473/134/33
f 473/134/34 474/133/34 476/135/34 475/136/34
f 475/136/35 476/135/35 478/137/35 477/138/35
f 460/139/3 458/88/3 480/140/3 478/89/3 476/141/3 474/90/3 472/142/3 470/91/3 468/143/3 466/92/3 464/144/3 462/87/3
f 477/138/36 478/137/36 480/145/36 479/146/36
f 479/146/37 480/145/37 458/147/37 457/148/37
f 457/97/1 459/149/1 461/98/1 463/150/1 465/99/1 467/151/1 469/100/1 471/152/1 473/101/1 475/153/1 477/102/1 479/154/1
f 525/77/26 526/78/26 528/119/26 527/120/26
f 527/120/27 528/119/27 530/121/27 529/122/27
f 529/122/28 530/121/28 532/123/28 531/124/28
f 531/124/29 532/123/29 534/125/29 533/126/29
f 533/126/30 534/125/30 536/127/30 535/128/30
f 535/128/31 536/127/31 538/129/31 537/130/31
f 537/130/32 538/129/32 540/131/32 539/132/32
f 539/132/33 540/131/33 542/133/33 541/134/33
f 541/134/34 542/133/34 544/135/34 543/136/34
f 543/136/35 544/135/35 546/137/35 545/138/35
f 528/139/3 526/88/3 548/140/3 546/89/3 544/141/3 542/90/3 540/142/3 538/91/3 536/143/3 534/92/3 532/144/3 530/87/3
f 545/138/36 546/137/36 548/145/36 547/146/36
f 547/146/37 548/145/37 526/147/37 525/148/37
f 525/97/1 527/149/1 529/98/1 531/150/1 533/99/1 535/151/1 537/100/1 539/152/1 541/101/1 543/153/1 545/102/1 547/154/1
f 625/69/1 626/75/1 628/3/1 627/61/1
f 627/61/13 628/3/13 632/7/13 631/44/13
f 631/44/3 632/7/3 630/11/3 629/19/3
f 629/19/11 630/11/11 626/15/11 625/49/11
f 627/38/9 631/44/9 629/19/9 625/37/9
f 632/7/8 628/32/8 626/23/8 630/11/8
f 641/69/1 642/75/1 644/3/1 643/61/1
f 643/61/13 644/3/13 648/7/13 647/44/13
f 647/44/3 648/7/3 646/11/3 645/19/3
f 645/19/11 646/11/11 642/15/11 641/49/11
f 643/38/9 647/44/9 645/19/9 641/37/9
f 648/7/8 644/32/8 642/23/8 646/11/8
f 657/69/1 658/75/1 660/3/1 659/61/1
f 659/61/13 660/3/13 664/7/13 663/44/13
f 663/44/3 664/7/3 662/11/3 661/19/3
f 661/19/11 662/11/11 658/15/11 657/49/11
f 659/38/9 663/44/9 661/19/9 657/37/9
f 664/7/8 660/32/8 658/23/8 662/11/8
f 673/69/1 674/75/1 676/3/1 675/61/1
f 675/61/13 676/3/13 680/7/13 679/44/13
f 679/44/3 680/7/3 678/11/3 677/19/3
f 677/19/11 678/11/11 674/15/11 673/49/11
f 675/38/9 679/44/9 677/19/9 673/37/9
f 680/7/8 676/32/8 674/23/8 678/11/8
f 689/69/1 690/75/1 692/3/1 691/61/1
f 691/61/13 692/3/13 696/7/13 695/44/13
f 695/44/3 696/7/3 694/11/3 693/19/3
f 693/19/11 694/11/11 690/15/11 689/49/11
f 691/38/9 695/44/9 693/19/9 689/37/9
f 696/7/8 692/32/8 690/23/8 694/11/8
usemtl TrimSteel
f 105/77/14 106/78/14 108/79/14 107/80/14
f 107/80/9 108/79/9 110/81/9 109/82/9
f 109/82/15 110/81/15 112/83/15 111/84/15
f 111/84/16 112/83/16 114/85/16 113/86/16
f 108/87/3 106/88/3 116/89/3 114/90/3 112/91/3 110/92/3
f 113/86/8 114/85/8 116/93/8 115/94/8
f 115/94/17 116/93/17 106/95/17 105/96/17
f 105/97/1 107/98/1 109/99/1 111/100/1 113/101/1 115/102/1
f 125/77/18 126/78/18 128/79/18 127/80/18
f 127/80/19 128/79/19 130/81/19 129/82/19
f 129/82/20 130/81/20 132/83/20 131/84/20
f 131/84/21 132/83/21 134/85/21 133/86/21
f 128/103/22 126/104/22 136/105/22 134/106/22 132/107/22 130/108/22
f 133/86/23 134/85/23 136/93/23 135/94/23
f 135/94/24 136/93/24 126/95/24 125/96/24
f 125/109/25 127/110/25 129/111/25 131/112/25 133/113/25 135/114/25
f 149/77/18 150/78/18 152/79/18 151/80/18
f 151/80/19 152/79/19 154/81/19 153/82/19
f 153/82/20 154/81/20 156/83/20 155/84/20
f 155/84/21 156/83/21 158/85/21 157/86/21
f 152/103/22 150/104/22 160/105/22 158/106/22 156/107/22 154/108/22
f 157/86/23 158/85/23 160/93/23 159/94/23
f 159/94/24 160/93/24 150/95/24 149/96/24
f 149/109/25 151/110/25 153/111/25 155/112/25 157/113/25 159/114/25
f 413/77/26 414/78/26 416/119/26 415/120/26
f 415/120/27 416/119/27 418/121/27 417/122/27
f 417/122/28 418/121/28 420/123/28 419/124/28
f 419/124/29 420/123/29 422/125/29 421/126/29
f 421/126/30 422/125/30 424/127/30 423/128/30
f 423/128/31 424/127/31 426/129/31 425/130/31
f 425/130/32 426/129/32 428/131/32 427/132/32
f 427/132/33 428/131/33 430/133/33 429/134/33
f 429/134/34 430/133/34 432/135/34 431/136/34
f 431/136/35 432/135/35 434/137/35 433/138/35
f 416/139/3 414/88/3 436/140/3 434/89/3 432/141/3 430/90/3 428/142/3 426/91/3 424/143/3 422/92/3 420/144/3 418/87/3
f 433/138/36 434/137/36 436/145/36 435/146/36
f 435/146/37 436/145/37 414/147/37 413/148/37
f 413/97/1 415/149/1 417/98/1 419/150/1 421/99/1 423/151/1 425/100/1 427/152/1 429/101/1 431/153/1 433/102/1 435/154/1
f 481/77/26 482/78/26 484/119/26 483/120/26
f 483/120/27 484/119/27 486/121/27 485/122/27
f 485/122/28 486/121/28 488/123/28 487/124/28
f 487/124/29 488/123/29 490/125/29 489/126/29
f 489/126/30 490/125/30 492/127/30 491/128/30
f 491/128/31 492/127/31 494/129/31 493/130/31
f 493/130/32 494/129/32 496/131/32 495/132/32
f 495/132/33 496/131/33 498/133/33 497/134/33
f 497/134/34 498/133/34 500/135/34 499/136/34
f 499/136/35 500/135/35 502/137/35 501/138/35
f 484/139/3 482/88/3 504/140/3 502/89/3 500/141/3 498/90/3 496/142/3 494/91/3 492/143/3 490/92/3 488/144/3 486/87/3
f 501/138/36 502/137/36 504/145/36 503/146/36
f 503/146/37 504/145/37 482/147/37 481/148/37
f 481/97/1 483/149/1 485/98/1 487/150/1 489/99/1 491/151/1 493/100/1 495/152/1 497/101/1 499/153/1 501/102/1 503/154/1
f 549/77/26 550/78/26 552/119/26 551/120/26
f 551/120/27 552/119/27 554/121/27 553/122/27
f 553/122/28 554/121/28 556/123/28 555/124/28
f 555/124/29 556/123/29 558/125/29 557/126/29
f 557/126/30 558/125/30 560/127/30 559/128/30
f 559/128/31 560/127/31 562/129/31 561/130/31
f 561/130/32 562/129/32 564/131/32 563/132/32
f 563/132/33 564/131/33 566/133/33 565/134/33
f 565/134/34 566/133/34 568/135/34 567/136/34
f 567/136/35 568/135/35 570/137/35 569/138/35
f 552/139/3 550/88/3 572/140/3 570/89/3 568/141/3 566/90/3 564/142/3 562/91/3 560/143/3 558/92/3 556/144/3 554/87/3
f 569/138/36 570/137/36 572/145/36 571/146/36
f 571/146/37 572/145/37 550/147/37 549/148/37
f 549/97/1 551/149/1 553/98/1 555/150/1 557/99/1 559/151/1 561/100/1 563/152/1 565/101/1 567/153/1 569/102/1 571/154/1
f 633/69/1 634/75/1 636/3/1 635/61/1
f 635/61/13 636/3/13 640/7/13 639/44/13
f 639/44/3 640/7/3 638/11/3 637/19/3
f 637/19/11 638/11/11 634/15/11 633/49/11
f 635/38/9 639/44/9 637/19/9 633/37/9
f 640/7/8 636/32/8 634/23/8 638/11/8
f 649/69/1 650/75/1 652/3/1 651/61/1
f 651/61/13 652/3/13 656/7/13 655/44/13
f 655/44/3 656/7/3 654/11/3 653/19/3
f 653/19/11 654/11/11 650/15/11 649/49/11
f 651/38/9 655/44/9 653/19/9 649/37/9
f 656/7/8 652/32/8 650/23/8 654/11/8
f 665/69/1 666/75/1 668/3/1 667/61/1
f 667/61/13 668/3/13 672/7/13 671/44/13
f 671/44/3 672/7/3 670/11/3 669/19/3
f 669/19/11 670/11/11 666/15/11 665/49/11
f 667/38/9 671/44/9 669/19/9 665/37/9
f 672/7/8 668/32/8 666/23/8 670/11/8
f 681/69/1 682/75/1 684/3/1 683/61/1
f 683/61/13 684/3/13 688/7/13 687/44/13
f 687/44/3 688/7/3 686/11/3 685/19/3
f 685/19/11 686/11/11 682/15/11 681/49/11
f 683/38/9 687/44/9 685/19/9 681/37/9
f 688/7/8 684/32/8 682/23/8 686/11/8
f 697/69/1 698/75/1 700/3/1 699/61/1
f 699/61/13 700/3/13 704/7/13 703/44/13
f 703/44/3 704/7/3 702/11/3 701/19/3
f 701/19/11 702/11/11 698/15/11 697/49/11
f 699/38/9 703/44/9 701/19/9 697/37/9
f 704/7/8 700/32/8 698/23/8 702/11/8
usemtl HazardYellow
f 173/69/1 174/75/1 176/3/1 175/61/1
f 175/61/13 176/3/13 180/7/13 179/44/13
f 179/44/3 180/7/3 178/11/3 177/19/3
f 177/19/11 178/11/11 174/15/11 173/49/11
f 175/38/9 179/44/9 177/19/9 173/37/9
f 180/7/8 176/32/8 174/23/8 178/11/8
f 181/69/1 182/75/1 184/3/1 183/61/1
f 183/61/13 184/3/13 188/7/13 187/44/13
f 187/44/3 188/7/3 186/11/3 185/19/3
f 185/19/11 186/11/11 182/15/11 181/49/11
f 183/38/9 187/44/9 185/19/9 181/37/9
f 188/7/8 184/32/8 182/23/8 186/11/8
f 189/69/1 190/75/1 192/3/1 191/61/1
f 191/61/13 192/3/13 196/7/13 195/44/13
f 195/44/3 196/7/3 194/11/3 193/19/3
f 193/19/11 194/11/11 190/15/11 189/49/11
f 191/38/9 195/44/9 193/19/9 189/37/9
f 196/7/8 192/32/8 190/23/8 194/11/8
f 197/69/1 198/75/1 200/3/1 199/61/1
f 199/61/13 200/3/13 204/7/13 203/44/13
f 203/44/3 204/7/3 202/11/3 201/19/3
f 201/19/11 202/11/11 198/15/11 197/49/11
f 199/38/9 203/44/9 201/19/9 197/37/9
f 204/7/8 200/32/8 198/23/8 202/11/8
usemtl AccentGreen
f 237/69/1 238/75/1 240/3/1 239/61/1
f 239/61/13 240/3/13 244/7/13 243/44/13
f 243/44/3 244/7/3 242/11/3 241/19/3
f 241/19/11 242/11/11 238/15/11 237/49/11
f 239/38/9 243/44/9 241/19/9 237/37/9
f 244/7/8 240/32/8 238/23/8 242/11/8
f 285/69/1 286/75/1 288/3/1 287/61/1
f 287/61/13 288/3/13 292/7/13 291/44/13
f 291/44/3 292/7/3 290/11/3 289/19/3
f 289/19/11 290/11/11 286/15/11 285/49/11
f 287/38/9 291/44/9 289/19/9 285/37/9
f 292/7/8 288/32/8 286/23/8 290/11/8
f 333/69/1 334/75/1 336/3/1 335/61/1
f 335/61/13 336/3/13 340/7/13 339/44/13
f 339/44/3 340/7/3 338/11/3 337/19/3
f 337/19/11 338/11/11 334/15/11 333/49/11
f 335/38/9 339/44/9 337/19/9 333/37/9
f 340/7/8 336/32/8 334/23/8 338/11/8
f 437/77/38 438/78/38 440/155/38 439/156/38
f 439/156/39 440/155/39 442/157/39 441/158/39
f 441/158/9 442/157/9 444/159/9 443/160/9
f 443/160/40 444/159/40 446/161/40 445/162/40
f 445/162/41 446/161/41 448/163/41 447/164/41
f 447/164/42 448/163/42 450/165/42 449/166/42
f 449/166/43 450/165/43 452/167/43 451/168/43
f 451/168/8 452/167/8 454/169/8 453/170/8
f 440/171/3 438/88/3 456/172/3 454/173/3 452/174/3 450/175/3 448/91/3 446/176/3 444/177/3 442/178/3
f 453/170/44 454/169/44 456/179/44 455/180/44
f 455/180/45 456/179/45 438/181/45 437/182/45
f 437/97/1 439/183/1 441/184/1 443/185/1 445/186/1 447/100/1 449/187/1 451/188/1 453/189/1 455/190/1
f 505/77/38 506/78/38 508/155/38 507/156/38
f 507/156/39 508/155/39 510/157/39 509/158/39
f 509/158/9 510/157/9 512/159/9 511/160/9
f 511/160/40 512/159/40 514/161/40 513/162/40
f 513/162/41 514/161/41 516/163/41 515/164/41
f 515/164/42 516/163/42 518/165/42 517/166/42
f 517/166/43 518/165/43 520/167/43 519/168/43
f 519/168/8 520/167/8 522/169/8 521/170/8
f 508/171/3 506/88/3 524/172/3 522/173/3 520/174/3 518/175/3 516/91/3 514/176/3 512/177/3 510/178/3
f 521/170/44 522/169/44 524/179/44 523/180/44
f 523/180/45 524/179/45 506/181/45 505/182/45
f 505/97/1 507/183/1 509/184/1 511/185/1 513/186/1 515/100/1 517/187/1 519/188/1 521/189/1 523/190/1
f 573/77/38 574/78/38 576/155/38 575/156/38
f 575/156/39 576/155/39 578/157/39 577/158/39
f 577/158/9 578/157/9 580/159/9 579/160/9
f 579/160/40 580/159/40 582/161/40 581/162/40
f 581/162/41 582/161/41 584/163/41 583/164/41
f 583/164/42 584/163/42 586/165/42 585/166/42
f 585/166/43 586/165/43 588/167/43 587/168/43
f 587/168/8 588/167/8 590/169/8 589/170/8
f 576/171/3 574/88/3 592/172/3 590/173/3 588/174/3 586/175/3 584/91/3 582/176/3 580/177/3 578/178/3
f 589/170/44 590/169/44 592/179/44 591/180/44
f 591/180/45 592/179/45 574/181/45 573/182/45
f 573/97/1 575/183/1 577/184/1 579/185/1 581/186/1 583/100/1 585/187/1 587/188/1 589/189/1 591/190/1
f 737/69/1 738/75/1 740/3/1 739/61/1
f 739/61/13 740/3/13 744/7/13 743/44/13
f 743/44/3 744/7/3 742/11/3 741/19/3
f 741/19/11 742/11/11 738/15/11 737/49/11
f 739/38/9 743/44/9 741/19/9 737/37/9
f 744/7/8 740/32/8 738/23/8 742/11/8
f 745/69/1 746/75/1 748/3/1 747/61/1
f 747/61/13 748/3/13 752/7/13 751/44/13
f 751/44/3 752/7/3 750/11/3 749/19/3
f 749/19/11 750/11/11 746/15/11 745/49/11
f 747/38/9 751/44/9 749/19/9 745/37/9
f 752/7/8 748/32/8 746/23/8 750/11/8
f 753/69/1 754/75/1 756/3/1 755/61/1
f 755/61/13 756/3/13 760/7/13 759/44/13
f 759/44/3 760/7/3 758/11/3 757/19/3
f 757/19/11 758/11/11 754/15/11 753/49/11
f 755/38/9 759/44/9 757/19/9 753/37/9
f 760/7/8 756/32/8 754/23/8 758/11/8
f 761/69/1 762/75/1 764/3/1 763/61/1
f 763/61/13 764/3/13 768/7/13 767/44/13
f 767/44/3 768/7/3 766/11/3 765/19/3
f 765/19/11 766/11/11 762/15/11 761/49/11
f 763/38/9 767/44/9 765/19/9 761/37/9
f 768/7/8 764/32/8 762/23/8 766/11/8
f 769/69/1 770/75/1 772/3/1 771/61/1
f 771/61/13 772/3/13 776/7/13 775/44/13
f 775/44/3 776/7/3 774/11/3 773/19/3
f 773/19/11 774/11/11 770/15/11 769/49/11
f 771/38/9 775/44/9 773/19/9 769/37/9
f 776/7/8 772/32/8 770/23/8 774/11/8
usemtl CockpitGlass
f 245/69/1 246/75/1 248/3/1 247/61/1
f 247/61/13 248/3/13 252/7/13 251/44/13
f 251/44/3 252/7/3 250/11/3 249/19/3
f 249/19/11 250/11/11 246/15/11 245/49/11
f 247/38/9 251/44/9 249/19/9 245/37/9
f 252/7/8 248/32/8 246/23/8 250/11/8
f 253/69/1 254/75/1 256/3/1 255/61/1
f 255/61/13 256/3/13 260/7/13 259/44/13
f 259/44/3 260/7/3 258/11/3 257/19/3
f 257/19/11 258/11/11 254/15/11 253/49/11
f 255/38/9 259/44/9 257/19/9 253/37/9
f 260/7/8 256/32/8 254/23/8 258/11/8
f 261/69/1 262/75/1 264/3/1 263/61/1
f 263/61/13 264/3/13 268/7/13 267/44/13
f 267/44/3 268/7/3 266/11/3 265/19/3
f 265/19/11 266/11/11 262/15/11 261/49/11
f 263/38/9 267/44/9 265/19/9 261/37/9
f 268/7/8 264/32/8 262/23/8 266/11/8
f 293/69/1 294/75/1 296/3/1 295/61/1
f 295/61/13 296/3/13 300/7/13 299/44/13
f 299/44/3 300/7/3 298/11/3 297/19/3
f 297/19/11 298/11/11 294/15/11 293/49/11
f 295/38/9 299/44/9 297/19/9 293/37/9
f 300/7/8 296/32/8 294/23/8 298/11/8
f 301/69/1 302/75/1 304/3/1 303/61/1
f 303/61/13 304/3/13 308/7/13 307/44/13
f 307/44/3 308/7/3 306/11/3 305/19/3
f 305/19/11 306/11/11 302/15/11 301/49/11
f 303/38/9 307/44/9 305/19/9 301/37/9
f 308/7/8 304/32/8 302/23/8 306/11/8
f 309/69/1 310/75/1 312/3/1 311/61/1
f 311/61/13 312/3/13 316/7/13 315/44/13
f 315/44/3 316/7/3 314/11/3 313/19/3
f 313/19/11 314/11/11 310/15/11 309/49/11
f 311/38/9 315/44/9 313/19/9 309/37/9
f 316/7/8 312/32/8 310/23/8 314/11/8
usemtl DecalWhite
f 341/69/1 342/75/1 344/3/1 343/61/1
f 343/61/13 344/3/13 348/7/13 347/44/13
f 347/44/3 348/7/3 346/11/3 345/19/3
f 345/19/11 346/11/11 342/15/11 341/49/11
f 343/38/9 347/44/9 345/19/9 341/37/9
f 348/7/8 344/32/8 342/23/8 346/11/8
f 349/69/1 350/75/1 352/3/1 351/61/1
f 351/61/13 352/3/13 356/7/13 355/44/13
f 355/44/3 356/7/3 354/11/3 353/19/3
f 353/19/11 354/11/11 350/15/11 349/49/11
f 351/38/9 355/44/9 353/19/9 349/37/9
f 356/7/8 352/32/8 350/23/8 354/11/8
f 357/69/1 358/75/1 360/3/1 359/61/1
f 359/61/13 360/3/13 364/7/13 363/44/13
f 363/44/3 364/7/3 362/11/3 361/19/3
f 361/19/11 362/11/11 358/15/11 357/49/11
f 359/38/9 363/44/9 361/19/9 357/37/9
f 364/7/8 360/32/8 358/23/8 362/11/8
f 365/69/1 366/75/1 368/3/1 367/61/1
f 367/61/13 368/3/13 372/7/13 371/44/13
f 371/44/3 372/7/3 370/11/3 369/19/3
f 369/19/11 370/11/11 366/15/11 365/49/11
f 367/38/9 371/44/9 369/19/9 365/37/9
f 372/7/8 368/32/8 366/23/8 370/11/8
f 373/69/1 374/75/1 376/3/1 375/61/1
f 375/61/13 376/3/13 380/7/13 379/44/13
f 379/44/3 380/7/3 378/11/3 377/19/3
f 377/19/11 378/11/11 374/15/11 373/49/11
f 375/38/9 379/44/9 377/19/9 373/37/9
f 380/7/8 376/32/8 374/23/8 378/11/8
f 381/69/1 382/75/1 384/3/1 383/61/1
f 383/61/13 384/3/13 388/7/13 387/44/13
f 387/44/3 388/7/3 386/11/3 385/19/3
f 385/19/11 386/11/11 382/15/11 381/49/11
f 383/38/9 387/44/9 385/19/9 381/37/9
f 388/7/8 384/32/8 382/23/8 386/11/8
