# Blender 4.3.2
# www.blender.org
mtllib FC_Shield.mtl
o FC_Shield
v -0.335000 -0.150000 0.140000
v -0.335000 0.110000 0.140000
v -0.335000 -0.150000 -0.140000
v -0.335000 0.110000 -0.140000
v 0.085000 -0.150000 0.140000
v 0.085000 0.110000 0.140000
v 0.085000 -0.150000 -0.140000
v 0.085000 0.110000 -0.140000
v -0.175000 0.060000 0.150000
v -0.175000 0.140000 0.150000
v -0.175000 0.060000 -0.150000
v -0.175000 0.140000 -0.150000
v 0.125000 0.060000 0.150000
v 0.125000 0.140000 0.150000
v 0.125000 0.060000 -0.150000
v 0.125000 0.140000 -0.150000
v -0.335000 0.070000 0.120000
v -0.335000 0.170000 0.120000
v -0.335000 0.070000 -0.120000
v -0.335000 0.170000 -0.120000
v -0.115000 0.070000 0.120000
v -0.115000 0.170000 0.120000
v -0.115000 0.070000 -0.120000
v -0.115000 0.170000 -0.120000
v -0.105000 0.110000 0.070000
v -0.105000 0.210000 0.070000
v -0.105000 0.110000 -0.070000
v -0.105000 0.210000 -0.070000
v 0.055000 0.110000 0.070000
v 0.055000 0.210000 0.070000
v 0.055000 0.110000 -0.070000
v 0.055000 0.210000 -0.070000
v 0.015000 0.145000 0.060000
v 0.015000 0.215000 0.060000
v 0.015000 0.145000 -0.060000
v 0.015000 0.215000 -0.060000
v 0.075000 0.145000 0.060000
v 0.075000 0.215000 0.060000
v 0.075000 0.145000 -0.060000
v 0.075000 0.215000 -0.060000
v 0.055000 0.070000 0.025000
v 0.055000 0.130000 0.025000
v 0.055000 0.070000 -0.025000
v 0.055000 0.130000 -0.025000
v 0.075000 0.070000 0.025000
v 0.075000 0.130000 0.025000
v 0.075000 0.070000 -0.025000
v 0.075000 0.130000 -0.025000
v 0.245000 0.289778 -0.077646
v 0.245000 0.259808 -0.150000
v 0.245000 -0.000000 -0.300000
v 0.245000 -0.259808 -0.150000
v 0.247399 0.289778 -0.073845
v 0.249635 0.259808 -0.142658
v 0.251555 0.212132 -0.201750
v 0.253029 0.150000 -0.247092
v 0.253955 0.077646 -0.275595
v 0.254271 -0.000000 -0.285317
v 0.253955 -0.077646 -0.275595
v 0.253029 -0.150000 -0.247092
v 0.251555 -0.212132 -0.201750
v 0.249635 -0.259808 -0.142658
v 0.247399 -0.289778 -0.073845
v 0.249564 0.289778 -0.062817
v 0.253817 0.259808 -0.121353
v 0.257469 0.212132 -0.171618
v 0.260271 0.150000 -0.210189
v 0.262033 0.077646 -0.234435
v 0.262634 -0.000000 -0.242705
v 0.262033 -0.077646 -0.234435
v 0.260271 -0.150000 -0.210189
v 0.257469 -0.212132 -0.171618
v 0.253817 -0.259808 -0.121353
v 0.249564 -0.289778 -0.062817
v 0.251282 0.289778 -0.045639
v 0.257135 0.259808 -0.088168
v 0.262162 0.212132 -0.124688
v 0.266019 0.150000 -0.152711
v 0.268444 0.077646 -0.170327
v 0.269271 -0.000000 -0.176336
v 0.268444 -0.077646 -0.170327
v 0.266019 -0.150000 -0.152711
v 0.262162 -0.212132 -0.124688
v 0.257135 -0.259808 -0.088168
v 0.251282 -0.289778 -0.045639
v 0.252385 0.289778 -0.023994
v 0.259266 0.259808 -0.046353
v 0.265175 0.212132 -0.065552
v 0.269709 0.150000 -0.080285
v 0.272560 0.077646 -0.089546
v 0.273532 -0.000000 -0.092705
v 0.272560 -0.077646 -0.089546
v 0.269709 -0.150000 -0.080285
v 0.265175 -0.212132 -0.065552
v 0.259266 -0.259808 -0.046353
v 0.252385 -0.289778 -0.023994
v 0.245000 -0.300000 0.000000
v 0.252765 0.289778 0.000000
v 0.260000 0.259808 0.000000
v 0.266213 0.212132 -0.000000
v 0.270981 0.150000 -0.000000
v 0.273978 0.077646 -0.000000
v 0.275000 -0.000000 0.000000
v 0.273978 -0.077646 -0.000000
v 0.270981 -0.150000 -0.000000
v 0.266213 -0.212132 -0.000000
v 0.260000 -0.259808 0.000000
v 0.252765 -0.289778 0.000000
v 0.252385 0.289778 0.023994
v 0.259266 0.259808 0.046353
v 0.265175 0.212132 0.065552
v 0.269709 0.150000 0.080285
v 0.272560 0.077646 0.089546
v 0.273532 -0.000000 0.092705
v 0.272560 -0.077646 0.089546
v 0.269709 -0.150000 0.080285
v 0.265175 -0.212132 0.065552
v 0.259266 -0.259808 0.046353
v 0.252385 -0.289778 0.023994
v 0.251282 0.289778 0.045639
v 0.257135 0.259808 0.088168
v 0.262162 0.212132 0.124688
v 0.266019 0.150000 0.152711
v 0.268444 0.077646 0.170327
v 0.269271 -0.000000 0.176336
v 0.268444 -0.077646 0.170327
v 0.266019 -0.150000 0.152711
v 0.262162 -0.212132 0.124688
v 0.257135 -0.259808 0.088168
v 0.251282 -0.289778 0.045639
v 0.249564 0.289778 0.062817
v 0.253817 0.259808 0.121353
v 0.257469 0.212132 0.171618
v 0.260271 0.150000 0.210189
v 0.262033 0.077646 0.234435
v 0.262634 -0.000000 0.242705
v 0.262033 -0.077646 0.234435
v 0.260271 -0.150000 0.210189
v 0.257469 -0.212132 0.171618
v 0.253817 -0.259808 0.121353
v 0.249564 -0.289778 0.062817
v 0.247399 0.289778 0.073845
v 0.249635 0.259808 0.142659
v 0.251555 0.212132 0.201750
v 0.253029 0.150000 0.247092
v 0.253955 0.077646 0.275595
v 0.254271 -0.000000 0.285317
v 0.253955 -0.077646 0.275595
v 0.253029 -0.150000 0.247092
v 0.251555 -0.212132 0.201750
v 0.249635 -0.259808 0.142659
v 0.247399 -0.289778 0.073845
v 0.245000 0.289778 0.077646
v 0.245000 0.259808 0.150000
v 0.245000 0.212132 0.212132
v 0.245000 0.150000 0.259808
v 0.245000 0.077646 0.289778
v 0.245000 -0.000000 0.300000
v 0.245000 -0.077646 0.289778
v 0.245000 -0.150000 0.259808
v 0.245000 -0.212132 0.212132
v 0.245000 -0.259808 0.150000
v 0.245000 -0.289778 0.077646
v 0.242601 0.289778 0.073845
v 0.240365 0.259808 0.142659
v 0.238445 0.212132 0.201750
v 0.236971 0.150000 0.247092
v 0.236045 0.077646 0.275595
v 0.235729 -0.000000 0.285317
v 0.236045 -0.077646 0.275595
v 0.236971 -0.150000 0.247092
v 0.238445 -0.212132 0.201750
v 0.240365 -0.259808 0.142659
v 0.242601 -0.289778 0.073845
v 0.240436 0.289778 0.062817
v 0.236183 0.259808 0.121353
v 0.232531 0.212132 0.171618
v 0.229729 0.150000 0.210189
v 0.227967 0.077646 0.234435
v 0.227366 -0.000000 0.242705
v 0.227967 -0.077646 0.234435
v 0.229729 -0.150000 0.210189
v 0.232531 -0.212132 0.171618
v 0.236183 -0.259808 0.121353
v 0.240436 -0.289778 0.062817
v 0.245000 0.300000 0.000000
v 0.238718 0.289778 0.045639
v 0.232865 0.259808 0.088168
v 0.227838 0.212132 0.124688
v 0.223981 0.150000 0.152711
v 0.221556 0.077646 0.170327
v 0.220730 -0.000000 0.176336
v 0.221556 -0.077646 0.170327
v 0.223981 -0.150000 0.152711
v 0.227838 -0.212132 0.124688
v 0.232865 -0.259808 0.088168
v 0.238718 -0.289778 0.045639
v 0.237615 0.289778 0.023994
v 0.230734 0.259808 0.046353
v 0.224825 0.212132 0.065552
v 0.220291 0.150000 0.080285
v 0.217440 0.077646 0.089546
v 0.216468 -0.000000 0.092705
v 0.217440 -0.077646 0.089546
v 0.220291 -0.150000 0.080285
v 0.224825 -0.212132 0.065552
v 0.230734 -0.259808 0.046353
v 0.237615 -0.289778 0.023994
v 0.237235 0.289778 0.000000
v 0.230000 0.259808 -0.000000
v 0.223787 0.212132 0.000000
v 0.219019 0.150000 0.000000
v 0.216022 0.077646 0.000000
v 0.215000 -0.000000 -0.000000
v 0.216022 -0.077646 0.000000
v 0.219019 -0.150000 0.000000
v 0.223787 -0.212132 0.000000
v 0.230000 -0.259808 -0.000000
v 0.237235 -0.289778 0.000000
v 0.237615 0.289778 -0.023994
v 0.230734 0.259808 -0.046353
v 0.224825 0.212132 -0.065552
v 0.220291 0.150000 -0.080285
v 0.217440 0.077646 -0.089546
v 0.216468 -0.000000 -0.092705
v 0.217440 -0.077646 -0.089546
v 0.220291 -0.150000 -0.080285
v 0.224825 -0.212132 -0.065552
v 0.230734 -0.259808 -0.046353
v 0.237615 -0.289778 -0.023994
v 0.238718 0.289778 -0.045639
v 0.232865 0.259808 -0.088168
v 0.227838 0.212132 -0.124688
v 0.223981 0.150000 -0.152711
v 0.221556 0.077646 -0.170327
v 0.220730 -0.000000 -0.176336
v 0.221556 -0.077646 -0.170327
v 0.223981 -0.150000 -0.152711
v 0.227838 -0.212132 -0.124688
v 0.232865 -0.259808 -0.088168
v 0.238718 -0.289778 -0.045639
v 0.240436 0.289778 -0.062817
v 0.236183 0.259808 -0.121353
v 0.232531 0.212132 -0.171618
v 0.229729 0.150000 -0.210189
v 0.227967 0.077646 -0.234435
v 0.227366 -0.000000 -0.242705
v 0.227967 -0.077646 -0.234435
v 0.229729 -0.150000 -0.210189
v 0.232531 -0.212132 -0.171618
v 0.236183 -0.259808 -0.121353
v 0.240436 -0.289778 -0.062817
v 0.242601 0.289778 -0.073846
v 0.240365 0.259808 -0.142659
v 0.238445 0.212132 -0.201750
v 0.236971 0.150000 -0.247092
v 0.236045 0.077646 -0.275595
v 0.235729 -0.000000 -0.285317
v 0.236045 -0.077646 -0.275595
v 0.236971 -0.150000 -0.247092
v 0.238445 -0.212132 -0.201750
v 0.240365 -0.259808 -0.142659
v 0.242601 -0.289778 -0.073846
v 0.245000 0.212132 -0.212132
v 0.245000 0.150000 -0.259808
v 0.245000 0.077646 -0.289778
v 0.245000 -0.077646 -0.289778
v 0.245000 -0.150000 -0.259808
v 0.245000 -0.212132 -0.212132
v 0.245000 -0.289778 -0.077646
v 0.265000 -0.250000 0.000000
v 0.286213 -0.241213 0.000000
v 0.295000 -0.220000 0.000000
v 0.286213 -0.198787 0.000000
v 0.265000 -0.190000 0.000000
v 0.243787 -0.198787 0.000000
v 0.235000 -0.220000 0.000000
v 0.243787 -0.241213 0.000000
v 0.265000 -0.237764 -0.077254
v 0.286213 -0.229407 -0.074539
v 0.295000 -0.209232 -0.067984
v 0.286213 -0.189057 -0.061428
v 0.265000 -0.180701 -0.058713
v 0.243787 -0.189057 -0.061428
v 0.235000 -0.209232 -0.067984
v 0.243787 -0.229407 -0.074539
v 0.265000 -0.202254 -0.146946
v 0.286213 -0.195146 -0.141782
v 0.295000 -0.177984 -0.129313
v 0.286213 -0.160822 -0.116844
v 0.265000 -0.153713 -0.111679
v 0.243787 -0.160822 -0.116844
v 0.235000 -0.177984 -0.129313
v 0.243787 -0.195146 -0.141782
v 0.265000 -0.146946 -0.202254
v 0.286213 -0.141782 -0.195146
v 0.295000 -0.129313 -0.177984
v 0.286213 -0.116844 -0.160822
v 0.265000 -0.111679 -0.153713
v 0.243787 -0.116844 -0.160822
v 0.235000 -0.129313 -0.177984
v 0.243787 -0.141782 -0.195146
v 0.265000 -0.077254 -0.237764
v 0.286213 -0.074539 -0.229407
v 0.295000 -0.067984 -0.209232
v 0.286213 -0.061429 -0.189057
v 0.265000 -0.058713 -0.180701
v 0.243787 -0.061429 -0.189057
v 0.235000 -0.067984 -0.209232
v 0.243787 -0.074539 -0.229407
v 0.265000 -0.000000 -0.250000
v 0.286213 -0.000000 -0.241213
v 0.295000 -0.000000 -0.220000
v 0.286213 -0.000000 -0.198787
v 0.265000 -0.000000 -0.190000
v 0.243787 -0.000000 -0.198787
v 0.235000 -0.000000 -0.220000
v 0.243787 -0.000000 -0.241213
v 0.265000 0.077254 -0.237764
v 0.286213 0.074539 -0.229407
v 0.295000 0.067984 -0.209232
v 0.286213 0.061428 -0.189057
v 0.265000 0.058713 -0.180701
v 0.243787 0.061428 -0.189057
v 0.235000 0.067984 -0.209232
v 0.243787 0.074539 -0.229407
v 0.265000 0.146946 -0.202254
v 0.286213 0.141782 -0.195146
v 0.295000 0.129313 -0.177984
v 0.286213 0.116844 -0.160822
v 0.265000 0.111679 -0.153713
v 0.243787 0.116844 -0.160822
v 0.235000 0.129313 -0.177984
v 0.243787 0.141782 -0.195146
v 0.265000 0.202254 -0.146946
v 0.286213 0.195146 -0.141782
v 0.295000 0.177984 -0.129313
v 0.286213 0.160822 -0.116844
v 0.265000 0.153713 -0.111679
v 0.243787 0.160822 -0.116844
v 0.235000 0.177984 -0.129313
v 0.243787 0.195146 -0.141782
v 0.265000 0.237764 -0.077254
v 0.286213 0.229407 -0.074539
v 0.295000 0.209232 -0.067984
v 0.286213 0.189057 -0.061429
v 0.265000 0.180701 -0.058713
v 0.243787 0.189057 -0.061429
v 0.235000 0.209232 -0.067984
v 0.243787 0.229407 -0.074539
v 0.265000 0.250000 -0.000000
v 0.286213 0.241213 -0.000000
v 0.295000 0.220000 -0.000000
v 0.286213 0.198787 -0.000000
v 0.265000 0.190000 -0.000000
v 0.243787 0.198787 -0.000000
v 0.235000 0.220000 -0.000000
v 0.243787 0.241213 -0.000000
v 0.265000 0.237764 0.077254
v 0.286213 0.229407 0.074539
v 0.295000 0.209232 0.067984
v 0.286213 0.189057 0.061428
v 0.265000 0.180701 0.058713
v 0.243787 0.189057 0.061428
v 0.235000 0.209232 0.067984
v 0.243787 0.229407 0.074539
v 0.265000 0.202254 0.146946
v 0.286213 0.195146 0.141782
v 0.295000 0.177984 0.129313
v 0.286213 0.160822 0.116844
v 0.265000 0.153713 0.111679
v 0.243787 0.160822 0.116844
v 0.235000 0.177984 0.129313
v 0.243787 0.195146 0.141782
v 0.265000 0.146946 0.202254
v 0.286213 0.141782 0.195146
v 0.295000 0.129313 0.177984
v 0.286213 0.116844 0.160822
v 0.265000 0.111679 0.153713
v 0.243787 0.116844 0.160822
v 0.235000 0.129313 0.177984
v 0.243787 0.141782 0.195146
v 0.265000 0.077254 0.237764
v 0.286213 0.074539 0.229407
v 0.295000 0.067984 0.209232
v 0.286213 0.061428 0.189057
v 0.265000 0.058713 0.180701
v 0.243787 0.061428 0.189057
v 0.235000 0.067984 0.209232
v 0.243787 0.074539 0.229407
v 0.265000 -0.000000 0.250000
v 0.286213 -0.000000 0.241213
v 0.295000 -0.000000 0.220000
v 0.286213 -0.000000 0.198787
v 0.265000 -0.000000 0.190000
v 0.243787 -0.000000 0.198787
v 0.235000 -0.000000 0.220000
v 0.243787 -0.000000 0.241213
v 0.265000 -0.077254 0.237764
v 0.286213 -0.074539 0.229407
v 0.295000 -0.067984 0.209232
v 0.286213 -0.061429 0.189057
v 0.265000 -0.058713 0.180701
v 0.243787 -0.061429 0.189057
v 0.235000 -0.067984 0.209232
v 0.243787 -0.074539 0.229407
v 0.265000 -0.146946 0.202254
v 0.286213 -0.141781 0.195146
v 0.295000 -0.129313 0.177984
v 0.286213 -0.116844 0.160822
v 0.265000 -0.111679 0.153713
v 0.243787 -0.116844 0.160822
v 0.235000 -0.129313 0.177984
v 0.243787 -0.141781 0.195146
v 0.265000 -0.202254 0.146946
v 0.286213 -0.195146 0.141782
v 0.295000 -0.177984 0.129313
v 0.286213 -0.160822 0.116844
v 0.265000 -0.153713 0.111679
v 0.243787 -0.160822 0.116844
v 0.235000 -0.177984 0.129313
v 0.243787 -0.195146 0.141782
v 0.265000 -0.237764 0.077254
v 0.286213 -0.229407 0.074539
v 0.295000 -0.209232 0.067984
v 0.286213 -0.189057 0.061429
v 0.265000 -0.180701 0.058713
v 0.243787 -0.189057 0.061429
v 0.235000 -0.209232 0.067984
v 0.243787 -0.229407 0.074539
v 0.285000 -0.282000 0.000000
v 0.300556 -0.275556 0.000000
v 0.307000 -0.260000 0.000000
v 0.300556 -0.244444 0.000000
v 0.285000 -0.238000 0.000000
v 0.269444 -0.244444 0.000000
v 0.263000 -0.260000 0.000000
v 0.269444 -0.275556 0.000000
v 0.285000 -0.268198 -0.087143
v 0.300556 -0.262070 -0.085152
v 0.307000 -0.247275 -0.080344
v 0.300556 -0.232480 -0.075537
v 0.285000 -0.226351 -0.073546
v 0.269444 -0.232480 -0.075537
v 0.263000 -0.247275 -0.080344
v 0.269444 -0.262070 -0.085152
v 0.285000 -0.228143 -0.165755
v 0.300556 -0.222930 -0.161968
v 0.307000 -0.210344 -0.152824
v 0.300556 -0.197759 -0.143680
v 0.285000 -0.192546 -0.139893
v 0.269444 -0.197759 -0.143680
v 0.263000 -0.210344 -0.152824
v 0.269444 -0.222930 -0.161968
v 0.285000 -0.165755 -0.228143
v 0.300556 -0.161968 -0.222930
v 0.307000 -0.152824 -0.210344
v 0.300556 -0.143680 -0.197759
v 0.285000 -0.139893 -0.192546
v 0.269444 -0.143680 -0.197759
v 0.263000 -0.152824 -0.210344
v 0.269444 -0.161968 -0.222930
v 0.285000 -0.087143 -0.268198
v 0.300556 -0.085152 -0.262070
v 0.307000 -0.080344 -0.247275
v 0.300556 -0.075537 -0.232480
v 0.285000 -0.073546 -0.226351
v 0.269444 -0.075537 -0.232480
v 0.263000 -0.080344 -0.247275
v 0.269444 -0.085152 -0.262070
v 0.285000 -0.000000 -0.282000
v 0.300556 -0.000000 -0.275556
v 0.307000 -0.000000 -0.260000
v 0.300556 -0.000000 -0.244444
v 0.285000 -0.000000 -0.238000
v 0.269444 -0.000000 -0.244444
v 0.263000 -0.000000 -0.260000
v 0.269444 -0.000000 -0.275556
v 0.285000 0.087143 -0.268198
v 0.300556 0.085152 -0.262070
v 0.307000 0.080344 -0.247275
v 0.300556 0.075537 -0.232480
v 0.285000 0.073546 -0.226351
v 0.269444 0.075537 -0.232480
v 0.263000 0.080344 -0.247275
v 0.269444 0.085152 -0.262070
v 0.285000 0.165755 -0.228143
v 0.300556 0.161968 -0.222930
v 0.307000 0.152824 -0.210344
v 0.300556 0.143680 -0.197759
v 0.285000 0.139893 -0.192546
v 0.269444 0.143680 -0.197759
v 0.263000 0.152824 -0.210344
v 0.269444 0.161968 -0.222930
v 0.285000 0.228143 -0.165755
v 0.300556 0.222930 -0.161968
v 0.307000 0.210344 -0.152824
v 0.300556 0.197759 -0.143680
v 0.285000 0.192546 -0.139893
v 0.269444 0.197759 -0.143680
v 0.263000 0.210344 -0.152824
v 0.269444 0.222930 -0.161968
v 0.285000 0.268198 -0.087143
v 0.300556 0.262070 -0.085152
v 0.307000 0.247275 -0.080344
v 0.300556 0.232480 -0.075537
v 0.285000 0.226351 -0.073546
v 0.269444 0.232480 -0.075537
v 0.263000 0.247275 -0.080344
v 0.269444 0.262070 -0.085152
v 0.285000 0.282000 -0.000000
v 0.300556 0.275556 -0.000000
v 0.307000 0.260000 -0.000000
v 0.300556 0.244444 -0.000000
v 0.285000 0.238000 -0.000000
v 0.269444 0.244444 -0.000000
v 0.263000 0.260000 -0.000000
v 0.269444 0.275556 -0.000000
v 0.285000 0.268198 0.087143
v 0.300556 0.262070 0.085151
v 0.307000 0.247275 0.080344
v 0.300556 0.232480 0.075537
v 0.285000 0.226351 0.073546
v 0.269444 0.232480 0.075537
v 0.263000 0.247275 0.080344
v 0.269444 0.262070 0.085151
v 0.285000 0.228143 0.165755
v 0.300556 0.222930 0.161968
v 0.307000 0.210344 0.152824
v 0.300556 0.197759 0.143680
v 0.285000 0.192546 0.139893
v 0.269444 0.197759 0.143680
v 0.263000 0.210344 0.152824
v 0.269444 0.222930 0.161968
v 0.285000 0.165755 0.228143
v 0.300556 0.161968 0.222930
v 0.307000 0.152824 0.210344
v 0.300556 0.143680 0.197759
v 0.285000 0.139893 0.192546
v 0.269444 0.143680 0.197759
v 0.263000 0.152824 0.210344
v 0.269444 0.161968 0.222930
v 0.285000 0.087143 0.268198
v 0.300556 0.085152 0.262070
v 0.307000 0.080344 0.247275
v 0.300556 0.075537 0.232480
v 0.285000 0.073546 0.226351
v 0.269444 0.075537 0.232480
v 0.263000 0.080344 0.247275
v 0.269444 0.085152 0.262070
v 0.285000 -0.000000 0.282000
v 0.300556 -0.000000 0.275556
v 0.307000 -0.000000 0.260000
v 0.300556 -0.000000 0.244444
v 0.285000 -0.000000 0.238000
v 0.269444 -0.000000 0.244444
v 0.263000 -0.000000 0.260000
v 0.269444 -0.000000 0.275556
v 0.285000 -0.087143 0.268198
v 0.300556 -0.085152 0.262070
v 0.307000 -0.080344 0.247275
v 0.300556 -0.075537 0.232480
v 0.285000 -0.073546 0.226351
v 0.269444 -0.075537 0.232480
v 0.263000 -0.080344 0.247275
v 0.269444 -0.085152 0.262070
v 0.285000 -0.165755 0.228143
v 0.300556 -0.161968 0.222930
v 0.307000 -0.152824 0.210345
v 0.300556 -0.143680 0.197759
v 0.285000 -0.139893 0.192546
v 0.269444 -0.143680 0.197759
v 0.263000 -0.152824 0.210345
v 0.269444 -0.161968 0.222930
v 0.285000 -0.228143 0.165756
v 0.300556 -0.222930 0.161968
v 0.307000 -0.210344 0.152824
v 0.300556 -0.197759 0.143680
v 0.285000 -0.192546 0.139893
v 0.269444 -0.197759 0.143680
v 0.263000 -0.210344 0.152824
v 0.269444 -0.222930 0.161968
v 0.285000 -0.268198 0.087143
v 0.300556 -0.262070 0.085152
v 0.307000 -0.247275 0.080345
v 0.300556 -0.232480 0.075537
v 0.285000 -0.226351 0.073546
v 0.269444 -0.232480 0.075537
v 0.263000 -0.247275 0.080345
v 0.269444 -0.262070 0.085152
v 0.255000 -0.345000 0.000000
v 0.276651 -0.332500 0.000000
v 0.276651 -0.307500 0.000000
v 0.255000 -0.295000 0.000000
v 0.233349 -0.307500 0.000000
v 0.233349 -0.332500 0.000000
v 0.255000 -0.328115 -0.106611
v 0.276651 -0.316226 -0.102748
v 0.276651 -0.292450 -0.095023
v 0.255000 -0.280562 -0.091160
v 0.233349 -0.292450 -0.095023
v 0.233349 -0.316226 -0.102748
v 0.255000 -0.279111 -0.202786
v 0.276651 -0.268998 -0.195439
v 0.276651 -0.248773 -0.180744
v 0.255000 -0.238660 -0.173397
v 0.233349 -0.248773 -0.180744
v 0.233349 -0.268998 -0.195439
v 0.255000 -0.202786 -0.279111
v 0.276651 -0.195439 -0.268998
v 0.276651 -0.180744 -0.248773
v 0.255000 -0.173397 -0.238660
v 0.233349 -0.180744 -0.248773
v 0.233349 -0.195439 -0.268998
v 0.255000 -0.106611 -0.328114
v 0.276651 -0.102748 -0.316226
v 0.276651 -0.095023 -0.292450
v 0.255000 -0.091160 -0.280562
v 0.233349 -0.095023 -0.292450
v 0.233349 -0.102748 -0.316226
v 0.255000 -0.000000 -0.345000
v 0.276651 -0.000000 -0.332500
v 0.276651 -0.000000 -0.307500
v 0.255000 -0.000000 -0.295000
v 0.233349 -0.000000 -0.307500
v 0.233349 -0.000000 -0.332500
v 0.255000 0.106611 -0.328114
v 0.276651 0.102748 -0.316226
v 0.276651 0.095023 -0.292450
v 0.255000 0.091160 -0.280562
v 0.233349 0.095023 -0.292450
v 0.233349 0.102748 -0.316226
v 0.255000 0.202786 -0.279111
v 0.276651 0.195439 -0.268998
v 0.276651 0.180744 -0.248773
v 0.255000 0.173397 -0.238660
v 0.233349 0.180744 -0.248773
v 0.233349 0.195439 -0.268998
v 0.255000 0.279111 -0.202786
v 0.276651 0.268998 -0.195439
v 0.276651 0.248773 -0.180744
v 0.255000 0.238660 -0.173397
v 0.233349 0.248773 -0.180744
v 0.233349 0.268998 -0.195439
v 0.255000 0.328114 -0.106611
v 0.276651 0.316226 -0.102748
v 0.276651 0.292450 -0.095023
v 0.255000 0.280562 -0.091160
v 0.233349 0.292450 -0.095023
v 0.233349 0.316226 -0.102748
v 0.255000 0.345000 -0.000000
v 0.276651 0.332500 -0.000000
v 0.276651 0.307500 -0.000000
v 0.255000 0.295000 -0.000000
v 0.233349 0.307500 -0.000000
v 0.233349 0.332500 -0.000000
v 0.255000 0.328115 0.106611
v 0.276651 0.316226 0.102748
v 0.276651 0.292450 0.095023
v 0.255000 0.280562 0.091160
v 0.233349 0.292450 0.095023
v 0.233349 0.316226 0.102748
v 0.255000 0.279111 0.202786
v 0.276651 0.268998 0.195439
v 0.276651 0.248773 0.180744
v 0.255000 0.238660 0.173397
v 0.233349 0.248773 0.180744
v 0.233349 0.268998 0.195439
v 0.255000 0.202786 0.279111
v 0.276651 0.195439 0.268998
v 0.276651 0.180744 0.248773
v 0.255000 0.173397 0.238660
v 0.233349 0.180744 0.248773
v 0.233349 0.195439 0.268998
v 0.255000 0.106611 0.328114
v 0.276651 0.102748 0.316226
v 0.276651 0.095023 0.292450
v 0.255000 0.091160 0.280562
v 0.233349 0.095023 0.292450
v 0.233349 0.102748 0.316226
v 0.255000 -0.000000 0.345000
v 0.276651 -0.000000 0.332500
v 0.276651 -0.000000 0.307500
v 0.255000 -0.000000 0.295000
v 0.233349 -0.000000 0.307500
v 0.233349 -0.000000 0.332500
v 0.255000 -0.106611 0.328114
v 0.276651 -0.102748 0.316226
v 0.276651 -0.095023 0.292450
v 0.255000 -0.091160 0.280562
v 0.233349 -0.095023 0.292450
v 0.233349 -0.102748 0.316226
v 0.255000 -0.202786 0.279111
v 0.276651 -0.195438 0.268998
v 0.276651 -0.180744 0.248773
v 0.255000 -0.173397 0.238660
v 0.233349 -0.180744 0.248773
v 0.233349 -0.195438 0.268998
v 0.255000 -0.279111 0.202786
v 0.276651 -0.268998 0.195439
v 0.276651 -0.248773 0.180744
v 0.255000 -0.238660 0.173397
v 0.233349 -0.248773 0.180744
v 0.233349 -0.268998 0.195439
v 0.255000 -0.328114 0.106611
v 0.276651 -0.316226 0.102748
v 0.276651 -0.292450 0.095023
v 0.255000 -0.280562 0.091160
v 0.233349 -0.292450 0.095023
v 0.233349 -0.316226 0.102748
v 0.285000 -0.000000 -0.080000
v 0.325000 -0.000000 -0.080000
v 0.285000 -0.069282 -0.040000
v 0.325000 -0.069282 -0.040000
v 0.285000 -0.069282 0.040000
v 0.325000 -0.069282 0.040000
v 0.285000 -0.000000 0.080000
v 0.325000 -0.000000 0.080000
v 0.285000 0.069282 0.040000
v 0.325000 0.069282 0.040000
v 0.285000 0.069282 -0.040000
v 0.325000 0.069282 -0.040000
v 0.315000 -0.040000 0.030000
v 0.315000 0.040000 0.030000
v 0.315000 -0.040000 -0.030000
v 0.315000 0.040000 -0.030000
v 0.335000 -0.040000 0.030000
v 0.335000 0.040000 0.030000
v 0.335000 -0.040000 -0.030000
v 0.335000 0.040000 -0.030000
v 0.315000 0.035000 0.025000
v 0.315000 0.065000 0.025000
v 0.315000 0.035000 -0.025000
v 0.315000 0.065000 -0.025000
v 0.335000 0.035000 0.025000
v 0.335000 0.065000 0.025000
v 0.335000 0.035000 -0.025000
v 0.335000 0.065000 -0.025000
v -0.175000 0.015000 -0.140000
v -0.175000 0.045000 -0.140000
v -0.175000 0.015000 -0.160000
v -0.175000 0.045000 -0.160000
v 0.025000 0.015000 -0.140000
v 0.025000 0.045000 -0.140000
v 0.025000 0.015000 -0.160000
v 0.025000 0.045000 -0.160000
v -0.175000 0.015000 0.160000
v -0.175000 0.045000 0.160000
v -0.175000 0.015000 0.140000
v -0.175000 0.045000 0.140000
v 0.025000 0.015000 0.160000
v 0.025000 0.045000 0.160000
v 0.025000 0.015000 0.140000
v 0.025000 0.045000 0.140000
v -0.205000 -0.060000 -0.156000
v -0.205000 0.020000 -0.156000
v -0.205000 -0.060000 -0.236000
v -0.205000 0.020000 -0.236000
v -0.045000 -0.060000 -0.156000
v -0.045000 0.020000 -0.156000
v -0.045000 -0.060000 -0.236000
v -0.045000 0.020000 -0.236000
v -0.265000 -0.020000 -0.350000
v 0.015000 -0.020000 -0.350000
v -0.265000 -0.055000 -0.340622
v 0.015000 -0.055000 -0.340622
v -0.265000 -0.080622 -0.315000
v 0.015000 -0.080622 -0.315000
v -0.265000 -0.090000 -0.280000
v 0.015000 -0.090000 -0.280000
v -0.265000 -0.080622 -0.245000
v 0.015000 -0.080622 -0.245000
v -0.265000 -0.055000 -0.219378
v 0.015000 -0.055000 -0.219378
v -0.265000 -0.020000 -0.210000
v 0.015000 -0.020000 -0.210000
v -0.265000 0.015000 -0.219378
v 0.015000 0.015000 -0.219378
v -0.265000 0.040622 -0.245000
v 0.015000 0.040622 -0.245000
v -0.265000 0.050000 -0.280000
v 0.015000 0.050000 -0.280000
v -0.265000 0.040622 -0.315000
v 0.015000 0.040622 -0.315000
v -0.265000 0.015000 -0.340622
v 0.015000 0.015000 -0.340622
v 0.010000 -0.020000 -0.330000
v 0.040000 -0.020000 -0.330000
v 0.010000 -0.049389 -0.320451
v 0.040000 -0.049389 -0.320451
v 0.010000 -0.067553 -0.295451
v 0.040000 -0.067553 -0.295451
v 0.010000 -0.067553 -0.264549
v 0.040000 -0.067553 -0.264549
v 0.010000 -0.049389 -0.239549
v 0.040000 -0.049389 -0.239549
v 0.010000 -0.020000 -0.230000
v 0.040000 -0.020000 -0.230000
v 0.010000 0.009389 -0.239549
v 0.040000 0.009389 -0.239549
v 0.010000 0.027553 -0.264549
v 0.040000 0.027553 -0.264549
v 0.010000 0.027553 -0.295451
v 0.040000 0.027553 -0.295451
v 0.010000 0.009389 -0.320451
v 0.040000 0.009389 -0.320451
v -0.295000 -0.020000 -0.330000
v -0.255000 -0.020000 -0.330000
v -0.295000 -0.049389 -0.320451
v -0.255000 -0.049389 -0.320451
v -0.295000 -0.067553 -0.295451
v -0.255000 -0.067553 -0.295451
v -0.295000 -0.067553 -0.264549
v -0.255000 -0.067553 -0.264549
v -0.295000 -0.049389 -0.239549
v -0.255000 -0.049389 -0.239549
v -0.295000 -0.020000 -0.230000
v -0.255000 -0.020000 -0.230000
v -0.295000 0.009389 -0.239549
v -0.255000 0.009389 -0.239549
v -0.295000 0.027553 -0.264549
v -0.255000 0.027553 -0.264549
v -0.295000 0.027553 -0.295451
v -0.255000 0.027553 -0.295451
v -0.295000 0.009389 -0.320451
v -0.255000 0.009389 -0.320451
v -0.185000 -0.050000 -0.307000
v -0.185000 0.010000 -0.307000
v -0.185000 -0.050000 -0.337000
v -0.185000 0.010000 -0.337000
v -0.065000 -0.050000 -0.307000
v -0.065000 0.010000 -0.307000
v -0.065000 -0.050000 -0.337000
v -0.065000 0.010000 -0.337000
v -0.205000 -0.060000 0.236000
v -0.205000 0.020000 0.236000
v -0.205000 -0.060000 0.156000
v -0.205000 0.020000 0.156000
v -0.045000 -0.060000 0.236000
v -0.045000 0.020000 0.236000
v -0.045000 -0.060000 0.156000
v -0.045000 0.020000 0.156000
v -0.265000 -0.020000 0.210000
v 0.015000 -0.020000 0.210000
v -0.265000 -0.055000 0.219378
v 0.015000 -0.055000 0.219378
v -0.265000 -0.080622 0.245000
v 0.015000 -0.080622 0.245000
v -0.265000 -0.090000 0.280000
v 0.015000 -0.090000 0.280000
v -0.265000 -0.080622 0.315000
v 0.015000 -0.080622 0.315000
v -0.265000 -0.055000 0.340622
v 0.015000 -0.055000 0.340622
v -0.265000 -0.020000 0.350000
v 0.015000 -0.020000 0.350000
v -0.265000 0.015000 0.340622
v 0.015000 0.015000 0.340622
v -0.265000 0.040622 0.315000
v 0.015000 0.040622 0.315000
v -0.265000 0.050000 0.280000
v 0.015000 0.050000 0.280000
v -0.265000 0.040622 0.245000
v 0.015000 0.040622 0.245000
v -0.265000 0.015000 0.219378
v 0.015000 0.015000 0.219378
v 0.010000 -0.020000 0.230000
v 0.040000 -0.020000 0.230000
v 0.010000 -0.049389 0.239549
v 0.040000 -0.049389 0.239549
v 0.010000 -0.067553 0.264549
v 0.040000 -0.067553 0.264549
v 0.010000 -0.067553 0.295451
v 0.040000 -0.067553 0.295451
v 0.010000 -0.049389 0.320451
v 0.040000 -0.049389 0.320451
v 0.010000 -0.020000 0.330000
v 0.040000 -0.020000 0.330000
v 0.010000 0.009389 0.320451
v 0.040000 0.009389 0.320451
v 0.010000 0.027553 0.295451
v 0.040000 0.027553 0.295451
v 0.010000 0.027553 0.264549
v 0.040000 0.027553 0.264549
v 0.010000 0.009389 0.239549
v 0.040000 0.009389 0.239549
v -0.295000 -0.020000 0.230000
v -0.255000 -0.020000 0.230000
v -0.295000 -0.049389 0.239549
v -0.255000 -0.049389 0.239549
v -0.295000 -0.067553 0.264549
v -0.255000 -0.067553 0.264549
v -0.295000 -0.067553 0.295451
v -0.255000 -0.067553 0.295451
v -0.295000 -0.049389 0.320451
v -0.255000 -0.049389 0.320451
v -0.295000 -0.020000 0.330000
v -0.255000 -0.020000 0.330000
v -0.295000 0.009389 0.320451
v -0.255000 0.009389 0.320451
v -0.295000 0.027553 0.295451
v -0.255000 0.027553 0.295451
v -0.295000 0.027553 0.264549
v -0.255000 0.027553 0.264549
v -0.295000 0.009389 0.239549
v -0.255000 0.009389 0.239549
v -0.185000 -0.050000 0.337000
v -0.185000 0.010000 0.337000
v -0.185000 -0.050000 0.307000
v -0.185000 0.010000 0.307000
v -0.065000 -0.050000 0.337000
v -0.065000 0.010000 0.337000
v -0.065000 -0.050000 0.307000
v -0.065000 0.010000 0.307000
v -0.255000 0.115000 -0.050000
v -0.255000 0.165000 -0.050000
v -0.255000 0.115000 -0.110000
v -0.255000 0.165000 -0.110000
v -0.135000 0.115000 -0.050000
v -0.135000 0.165000 -0.050000
v -0.135000 0.115000 -0.110000
v -0.135000 0.165000 -0.110000
v -0.255000 0.115000 0.110000
v -0.255000 0.165000 0.110000
v -0.255000 0.115000 0.050000
v -0.255000 0.165000 0.050000
v -0.135000 0.115000 0.110000
v -0.135000 0.165000 0.110000
v -0.135000 0.115000 0.050000
v -0.135000 0.165000 0.050000
vn -1.0000 -0.0000 -0.0000
vn -0.0000 -0.0000 -1.0000
vn 1.0000 -0.0000 -0.0000
vn -0.0000 -0.0000 1.0000
vn -0.0000 -1.0000 -0.0000
vn -0.0000 1.0000 -0.0000
vn 0.8256 0.2159 -0.5213
vn 0.2024 -0.9709 -0.1278
vn 0.5183 0.7901 -0.3273
vn 0.7825 -0.3791 -0.4940
vn 0.8435 0.0701 -0.5326
vn 0.6941 0.5711 -0.4382
vn 0.6941 -0.5711 -0.4382
vn 0.8435 -0.0701 -0.5326
vn 0.7825 0.3791 -0.4940
vn 0.5183 -0.7901 -0.3273
vn 0.2025 0.9709 -0.1278
vn 0.8256 -0.2159 -0.5213
vn 0.9454 0.2680 -0.1855
vn 0.9454 -0.2680 -0.1855
vn 0.9809 -0.0281 -0.1925
vn 0.9684 0.1617 -0.1901
vn 0.8722 -0.4581 -0.1712
vn 0.5151 0.8512 -0.1011
vn 0.9775 -0.0881 -0.1918
vn 0.9775 0.0881 -0.1918
vn 0.5151 -0.8512 -0.1011
vn 0.8722 0.4581 -0.1712
vn 0.9684 -0.1617 -0.1901
vn 0.9809 0.0281 -0.1925
vn 0.6843 -0.7260 -0.0684
vn 0.9433 0.3181 -0.0943
vn 0.9894 -0.1060 -0.0989
vn 0.9949 0.0183 -0.0995
vn 0.9791 0.1782 -0.0979
vn 0.9791 -0.1782 -0.0979
vn 0.9949 -0.0183 -0.0995
vn 0.9894 0.1060 -0.0989
vn 0.9433 -0.3181 -0.0943
vn 0.6843 0.7260 -0.0684
vn 0.9934 -0.0575 -0.0993
vn 0.9934 0.0575 -0.0993
vn 0.9951 0.0846 -0.0507
vn 0.9648 -0.2582 -0.0492
vn 0.7644 0.6436 -0.0389
vn 0.9977 -0.0458 -0.0508
vn 0.9977 0.0458 -0.0508
vn 0.7644 -0.6436 -0.0389
vn 0.9648 0.2582 -0.0492
vn 0.9951 -0.0846 -0.0507
vn 0.9986 0.0146 -0.0509
vn 0.9885 0.1428 -0.0504
vn 0.9885 -0.1428 -0.0504
vn 0.9986 -0.0146 -0.0509
vn 0.9915 0.1292 -0.0157
vn 0.9915 -0.1292 -0.0157
vn 0.9998 -0.0132 -0.0158
vn 0.9969 0.0765 -0.0158
vn 0.9720 -0.2347 -0.0154
vn 0.7963 0.6048 -0.0126
vn 0.9990 -0.0414 -0.0158
vn 0.9990 0.0414 -0.0158
vn 0.7963 -0.6048 -0.0126
vn 0.9720 0.2347 -0.0154
vn 0.9969 -0.0765 -0.0158
vn 0.9998 0.0132 -0.0158
vn 0.9990 0.0414 0.0158
vn 0.7963 -0.6048 0.0126
vn 0.9720 0.2347 0.0154
vn 0.9969 -0.0765 0.0158
vn 0.9998 0.0132 0.0158
vn 0.9915 0.1292 0.0157
vn 0.9915 -0.1292 0.0157
vn 0.9998 -0.0132 0.0158
vn 0.9969 0.0765 0.0158
vn 0.9720 -0.2347 0.0154
vn 0.7963 0.6048 0.0126
vn 0.9990 -0.0414 0.0158
vn 0.9951 0.0846 0.0507
vn 0.9648 -0.2582 0.0492
vn 0.7644 0.6436 0.0389
vn 0.9977 -0.0458 0.0508
vn 0.9977 0.0458 0.0508
vn 0.7644 -0.6436 0.0389
vn 0.9648 0.2582 0.0492
vn 0.9951 -0.0846 0.0507
vn 0.9986 0.0146 0.0509
vn 0.9885 0.1428 0.0504
vn 0.9885 -0.1428 0.0504
vn 0.9986 -0.0146 0.0509
vn 0.9949 0.0183 0.0995
vn 0.9791 0.1782 0.0979
vn 0.9791 -0.1782 0.0979
vn 0.9949 -0.0183 0.0995
vn 0.9894 0.1060 0.0989
vn 0.9433 -0.3181 0.0943
vn 0.6843 0.7260 0.0684
vn 0.9934 -0.0575 0.0993
vn 0.9934 0.0575 0.0993
vn 0.6843 -0.7260 0.0684
vn 0.9433 0.3181 0.0943
vn 0.9894 -0.1060 0.0989
vn 0.9775 0.0881 0.1918
vn 0.5151 -0.8512 0.1011
vn 0.8722 0.4581 0.1712
vn 0.9684 -0.1617 0.1901
vn 0.9809 0.0281 0.1925
vn 0.9454 0.2680 0.1855
vn 0.9454 -0.2680 0.1855
vn 0.9809 -0.0281 0.1925
vn 0.9684 0.1617 0.1901
vn 0.8722 -0.4581 0.1712
vn 0.5151 0.8512 0.1011
vn 0.9775 -0.0881 0.1918
vn 0.8435 -0.0701 0.5326
vn 0.7825 0.3791 0.4940
vn 0.5183 -0.7901 0.3273
vn 0.2025 0.9709 0.1278
vn 0.8256 -0.2159 0.5213
vn 0.8256 0.2159 0.5213
vn 0.2024 -0.9709 0.1278
vn 0.5183 0.7901 0.3273
vn 0.7825 -0.3791 0.4940
vn 0.8435 0.0701 0.5326
vn 0.6941 0.5711 0.4382
vn 0.6941 -0.5711 0.4382
vn -0.8435 0.0701 0.5326
vn -0.6941 0.5711 0.4382
vn -0.6941 -0.5711 0.4382
vn -0.8435 -0.0701 0.5326
vn -0.7825 0.3791 0.4940
vn -0.5183 -0.7901 0.3273
vn -0.2025 0.9709 0.1278
vn -0.8256 -0.2159 0.5213
vn -0.8256 0.2159 0.5213
vn -0.2024 -0.9709 0.1278
vn -0.5183 0.7901 0.3273
vn -0.7825 -0.3791 0.4940
vn -0.9775 -0.0881 0.1918
vn -0.9775 0.0881 0.1918
vn -0.5151 -0.8512 0.1011
vn -0.8722 0.4581 0.1712
vn -0.9684 -0.1617 0.1901
vn -0.9809 0.0281 0.1925
vn -0.9454 0.2680 0.1855
vn -0.9454 -0.2680 0.1855
vn -0.9809 -0.0281 0.1925
vn -0.9684 0.1617 0.1901
vn -0.8722 -0.4581 0.1712
vn -0.5151 0.8512 0.1011
vn -0.9949 -0.0183 0.0995
vn -0.9894 0.1060 0.0989
vn -0.9433 -0.3181 0.0943
vn -0.6843 0.7260 0.0684
vn -0.9934 -0.0575 0.0993
vn -0.9934 0.0575 0.0993
vn -0.6843 -0.7260 0.0684
vn -0.9433 0.3181 0.0943
vn -0.9894 -0.1060 0.0989
vn -0.9949 0.0183 0.0995
vn -0.9791 0.1782 0.0979
vn -0.9791 -0.1782 0.0979
vn -0.9951 -0.0846 0.0507
vn -0.9986 0.0146 0.0509
vn -0.9885 0.1428 0.0504
vn -0.9885 -0.1428 0.0504
vn -0.9986 -0.0146 0.0509
vn -0.9951 0.0846 0.0507
vn -0.9648 -0.2582 0.0492
vn -0.7644 0.6436 0.0389
vn -0.9977 -0.0458 0.0508
vn -0.9977 0.0458 0.0508
vn -0.7644 -0.6436 0.0389
vn -0.9648 0.2582 0.0492
vn -0.7963 0.6048 0.0126
vn -0.9990 -0.0414 0.0158
vn -0.9990 0.0414 0.0158
vn -0.7963 -0.6048 0.0126
vn -0.9720 0.2347 0.0154
vn -0.9969 -0.0765 0.0158
vn -0.9998 0.0132 0.0158
vn -0.9915 0.1292 0.0157
vn -0.9915 -0.1292 0.0157
vn -0.9998 -0.0132 0.0158
vn -0.9969 0.0765 0.0158
vn -0.9720 -0.2347 0.0154
vn -0.9915 -0.1292 -0.0157
vn -0.9998 -0.0132 -0.0158
vn -0.9969 0.0765 -0.0158
vn -0.9720 -0.2347 -0.0154
vn -0.7963 0.6048 -0.0126
vn -0.9990 -0.0414 -0.0158
vn -0.9990 0.0414 -0.0158
vn -0.7963 -0.6048 -0.0126
vn -0.9720 0.2347 -0.0154
vn -0.9969 -0.0765 -0.0158
vn -0.9998 0.0132 -0.0158
vn -0.9915 0.1292 -0.0157
vn -0.9648 0.2582 -0.0492
vn -0.9951 -0.0846 -0.0507
vn -0.9986 0.0146 -0.0509
vn -0.9885 0.1428 -0.0504
vn -0.9885 -0.1428 -0.0504
vn -0.9986 -0.0146 -0.0509
vn -0.9951 0.0846 -0.0507
vn -0.9648 -0.2582 -0.0492
vn -0.7644 0.6436 -0.0389
vn -0.9977 -0.0458 -0.0508
vn -0.9977 0.0458 -0.0508
vn -0.7644 -0.6436 -0.0389
vn -0.9433 -0.3181 -0.0943
vn -0.6843 0.7260 -0.0684
vn -0.9934 -0.0575 -0.0993
vn -0.9934 0.0575 -0.0993
vn -0.6843 -0.7260 -0.0684
vn -0.9433 0.3181 -0.0943
vn -0.9894 -0.1060 -0.0989
vn -0.9949 0.0183 -0.0995
vn -0.9791 0.1782 -0.0979
vn -0.9791 -0.1782 -0.0979
vn -0.9949 -0.0183 -0.0995
vn -0.9894 0.1060 -0.0989
vn -0.9454 0.2680 -0.1855
vn -0.9454 -0.2680 -0.1855
vn -0.9809 -0.0281 -0.1925
vn -0.9684 0.1617 -0.1901
vn -0.8722 -0.4581 -0.1712
vn -0.5151 0.8512 -0.1011
vn -0.9775 -0.0881 -0.1918
vn -0.9775 0.0881 -0.1918
vn -0.5151 -0.8512 -0.1011
vn -0.8722 0.4581 -0.1712
vn -0.9684 -0.1617 -0.1901
vn -0.9809 0.0281 -0.1925
vn -0.2025 -0.9709 -0.1278
vn -0.5183 0.7901 -0.3273
vn -0.7825 -0.3791 -0.4940
vn -0.8435 0.0701 -0.5326
vn -0.6941 0.5711 -0.4382
vn -0.6941 -0.5711 -0.4382
vn -0.8435 -0.0701 -0.5326
vn -0.7825 0.3791 -0.4940
vn -0.5183 -0.7901 -0.3273
vn -0.2025 0.9709 -0.1278
vn -0.8256 -0.2159 -0.5213
vn -0.8256 0.2159 -0.5213
vn 0.3787 -0.9141 -0.1448
vn 0.9222 -0.3820 -0.0605
vn 0.9222 0.3820 0.0605
vn 0.3787 0.9141 0.1448
vn -0.3787 0.9141 0.1448
vn -0.9222 0.3820 0.0605
vn -0.9222 -0.3820 -0.0605
vn -0.3787 -0.9141 -0.1448
vn 0.3787 -0.8247 -0.4202
vn 0.9222 -0.3446 -0.1756
vn 0.9222 0.3446 0.1756
vn 0.3787 0.8247 0.4202
vn -0.3787 0.8247 0.4202
vn -0.9222 0.3446 0.1756
vn -0.9222 -0.3446 -0.1756
vn -0.3787 -0.8247 -0.4202
vn 0.3787 -0.6545 -0.6545
vn 0.9222 -0.2735 -0.2735
vn 0.9222 0.2735 0.2735
vn 0.3787 0.6545 0.6545
vn -0.3787 0.6545 0.6545
vn -0.9222 0.2735 0.2735
vn -0.9222 -0.2735 -0.2735
vn -0.3787 -0.6545 -0.6545
vn 0.3787 -0.4202 -0.8247
vn 0.9222 -0.1756 -0.3446
vn 0.9222 0.1756 0.3446
vn 0.3787 0.4202 0.8247
vn -0.3787 0.4202 0.8247
vn -0.9222 0.1756 0.3446
vn -0.9222 -0.1756 -0.3446
vn -0.3787 -0.4202 -0.8247
vn 0.3787 -0.1448 -0.9141
vn 0.9222 -0.0605 -0.3820
vn 0.9222 0.0605 0.3820
vn 0.3787 0.1448 0.9141
vn -0.3787 0.1448 0.9141
vn -0.9222 0.0605 0.3820
vn -0.9222 -0.0605 -0.3820
vn -0.3787 -0.1448 -0.9141
vn 0.3787 0.1448 -0.9141
vn 0.9222 0.0605 -0.3820
vn 0.9222 -0.0605 0.3820
vn 0.3787 -0.1448 0.9141
vn -0.3787 -0.1448 0.9141
vn -0.9222 -0.0605 0.3820
vn -0.9222 0.0605 -0.3820
vn -0.3787 0.1448 -0.9141
vn 0.3787 0.4202 -0.8247
vn 0.9222 0.1756 -0.3446
vn 0.9222 -0.1756 0.3446
vn 0.3787 -0.4202 0.8247
vn -0.3787 -0.4202 0.8247
vn -0.9222 -0.1756 0.3446
vn -0.9222 0.1756 -0.3446
vn -0.3787 0.4202 -0.8247
vn 0.3787 0.6545 -0.6545
vn 0.9222 0.2735 -0.2735
vn 0.9222 -0.2735 0.2735
vn 0.3787 -0.6545 0.6545
vn -0.3787 -0.6545 0.6545
vn -0.9222 -0.2735 0.2735
vn -0.9222 0.2735 -0.2735
vn -0.3787 0.6545 -0.6545
vn 0.3787 0.8247 -0.4202
vn 0.9222 0.3446 -0.1756
vn 0.9222 -0.3446 0.1756
vn 0.3787 -0.8247 0.4202
vn -0.3787 -0.8247 0.4202
vn -0.9222 -0.3446 0.1756
vn -0.9222 0.3446 -0.1756
vn -0.3787 0.8247 -0.4202
vn 0.3787 0.9141 -0.1448
vn 0.9222 0.3820 -0.0605
vn 0.9222 -0.3820 0.0605
vn 0.3787 -0.9141 0.1448
vn -0.3787 -0.9141 0.1448
vn -0.9222 -0.3820 0.0605
vn -0.9222 0.3820 -0.0605
vn -0.3787 0.9141 -0.1448
vn -0.3786 0.6545 0.6545
vn 0.3786 -0.9141 0.1448
vn 0.4954 -0.8580 -0.1359
vn 0.4954 0.8580 0.1359
vn -0.4954 0.8580 0.1359
vn -0.4954 -0.8580 -0.1359
vn 0.4954 -0.7740 -0.3944
vn 0.4954 0.7740 0.3944
vn -0.4954 0.7740 0.3944
vn -0.4954 -0.7740 -0.3944
vn 0.4954 -0.6143 -0.6143
vn 0.4954 0.6143 0.6143
vn -0.4954 0.6143 0.6143
vn -0.4954 -0.6143 -0.6143
vn 0.4954 -0.3944 -0.7740
vn 0.4954 0.3944 0.7740
vn -0.4954 0.3944 0.7740
vn -0.4954 -0.3944 -0.7740
vn 0.4954 -0.1359 -0.8580
vn 0.4954 0.1359 0.8580
vn -0.4954 0.1359 0.8580
vn -0.4954 -0.1359 -0.8580
vn 0.4954 0.1359 -0.8580
vn 0.4954 -0.1359 0.8580
vn -0.4954 -0.1359 0.8580
vn -0.4954 0.1359 -0.8580
vn 0.4954 0.3944 -0.7740
vn 0.4954 -0.3944 0.7740
vn -0.4954 -0.3944 0.7740
vn -0.4954 0.3944 -0.7740
vn 0.4954 0.6143 -0.6143
vn 0.4954 -0.6143 0.6143
vn -0.4954 -0.6143 0.6143
vn -0.4954 0.6143 -0.6143
vn 0.4954 0.7740 -0.3944
vn 0.4954 -0.7740 0.3944
vn -0.4954 -0.7740 0.3944
vn -0.4954 0.7740 -0.3944
vn 0.4954 0.8580 -0.1359
vn 0.4954 -0.8580 0.1359
vn -0.4954 -0.8580 0.1359
vn -0.4954 0.8580 -0.1359
vn -0.0000 -0.5000 -0.8660
vn -0.0000 -0.5000 0.8660
vn -0.0000 0.5000 0.8660
vn -0.0000 0.5000 -0.8660
vn -0.0000 -0.2588 -0.9659
vn -0.0000 -0.7071 -0.7071
vn -0.0000 -0.9659 -0.2588
vn -0.0000 -0.9659 0.2588
vn -0.0000 -0.7071 0.7071
vn -0.0000 -0.2588 0.9659
vn -0.0000 0.2588 0.9659
vn -0.0000 0.7071 0.7071
vn -0.0000 0.9659 0.2588
vn -0.0000 0.9659 -0.2588
vn -0.0000 0.7071 -0.7071
vn -0.0000 0.2588 -0.9659
vn -0.0000 -0.3090 -0.9511
vn -0.0000 -0.8090 -0.5878
vn -0.0000 -0.8090 0.5878
vn -0.0000 -0.3090 0.9511
vn -0.0000 0.3090 0.9511
vn -0.0000 0.8090 0.5878
vn -0.0000 0.8090 -0.5878
vn -0.0000 0.3090 -0.9511
vt 0.375000 0.000000
vt 0.625000 0.000000
vt 0.625000 0.250000
vt 0.375000 0.250000
vt 0.625000 0.500000
vt 0.375000 0.500000
vt 0.625000 0.750000
vt 0.375000 0.750000
vt 0.625000 1.000000
vt 0.375000 1.000000
vt 0.125000 0.500000
vt 0.125000 0.750000
vt 0.875000 0.500000
vt 0.875000 0.750000
vt 0.750000 0.583333
vt 0.750000 0.666667
vt 0.700000 0.666667
vt 0.700000 0.583333
vt 0.725000 0.000000
vt 0.750000 0.083334
vt 0.700000 0.083333
vt 0.750000 0.833333
vt 0.750000 0.916667
vt 0.700000 0.916667
vt 0.700000 0.833333
vt 0.750000 0.250000
vt 0.750000 0.333333
vt 0.700000 0.333333
vt 0.700000 0.250000
vt 0.750000 0.500000
vt 0.700000 0.500000
vt 0.750000 0.750000
vt 0.700000 0.750000
vt 0.750000 0.166667
vt 0.700000 0.166667
vt 0.750000 0.416667
vt 0.700000 0.416667
vt 0.725000 1.000000
vt 0.650000 0.833333
vt 0.650000 0.750000
vt 0.650000 0.250000
vt 0.650000 0.166667
vt 0.650000 0.500000
vt 0.650000 0.416667
vt 0.650000 0.666667
vt 0.650000 0.083333
vt 0.675000 1.000000
vt 0.650000 0.916667
vt 0.650000 0.333333
vt 0.650000 0.583333
vt 0.675000 0.000000
vt 0.600000 0.083333
vt 0.600000 0.916667
vt 0.600000 0.833333
vt 0.600000 0.333333
vt 0.600000 0.250000
vt 0.600000 0.583333
vt 0.600000 0.500000
vt 0.600000 0.750000
vt 0.600000 0.166667
vt 0.600000 0.416667
vt 0.600000 0.666667
vt 0.550000 0.750000
vt 0.550000 0.666667
vt 0.550000 0.166667
vt 0.550000 0.083333
vt 0.575000 1.000000
vt 0.550000 0.916667
vt 0.550000 0.416667
vt 0.550000 0.333333
vt 0.550000 0.583333
vt 0.575000 0.000000
vt 0.550000 0.833333
vt 0.550000 0.250000
vt 0.550000 0.500000
vt 0.500000 0.833333
vt 0.500000 0.750000
vt 0.500000 0.250000
vt 0.500000 0.166667
vt 0.500000 0.500000
vt 0.500000 0.416667
vt 0.500000 0.666667
vt 0.500000 0.083333
vt 0.525000 1.000000
vt 0.500000 0.916667
vt 0.500000 0.333333
vt 0.500000 0.583333
vt 0.525000 0.000000
vt 0.450000 0.666667
vt 0.450000 0.583333
vt 0.475000 0.000000
vt 0.450000 0.083333
vt 0.450000 0.916667
vt 0.450000 0.833333
vt 0.450000 0.333333
vt 0.450000 0.250000
vt 0.450000 0.500000
vt 0.450000 0.750000
vt 0.450000 0.166667
vt 0.450000 0.416667
vt 0.475000 1.000000
vt 0.400000 0.750000
vt 0.400000 0.666667
vt 0.400000 0.166667
vt 0.400000 0.083333
vt 0.425000 1.000000
vt 0.400000 0.916667
vt 0.400000 0.416667
vt 0.400000 0.333333
vt 0.400000 0.583333
vt 0.425000 0.000000
vt 0.400000 0.833333
vt 0.400000 0.250000
vt 0.400000 0.500000
vt 0.350000 0.583333
vt 0.350000 0.500000
vt 0.350000 0.833333
vt 0.350000 0.750000
vt 0.350000 0.250000
vt 0.350000 0.166667
vt 0.350000 0.416667
vt 0.350000 0.666667
vt 0.350000 0.083333
vt 0.350000 0.916667
vt 0.350000 0.333333
vt 0.300000 0.666667
vt 0.300000 0.583333
vt 0.325000 0.000000
vt 0.300000 0.083333
vt 0.300000 0.916667
vt 0.300000 0.833333
vt 0.300000 0.333333
vt 0.300000 0.250000
vt 0.300000 0.500000
vt 0.300000 0.750000
vt 0.300000 0.166667
vt 0.300000 0.416667
vt 0.325000 1.000000
vt 0.250000 0.500000
vt 0.250000 0.416667
vt 0.250000 0.750000
vt 0.250000 0.666667
vt 0.250000 0.166667
vt 0.250000 0.083333
vt 0.275000 1.000000
vt 0.250000 0.916667
vt 0.250000 0.333333
vt 0.250000 0.583333
vt 0.275000 0.000000
vt 0.250000 0.833333
vt 0.250000 0.250000
vt 0.200000 0.583333
vt 0.200000 0.500000
vt 0.200000 0.833333
vt 0.200000 0.750000
vt 0.200000 0.250000
vt 0.200000 0.166667
vt 0.200000 0.416667
vt 0.200000 0.666667
vt 0.200000 0.083333
vt 0.225000 1.000000
vt 0.200000 0.916667
vt 0.200000 0.333333
vt 0.225000 0.000000
vt 0.150000 0.416667
vt 0.150000 0.333333
vt 0.150000 0.666667
vt 0.150000 0.583333
vt 0.175000 0.000000
vt 0.150000 0.083333
vt 0.150000 0.916667
vt 0.150000 0.833333
vt 0.150000 0.250000
vt 0.150000 0.500000
vt 0.150000 0.750000
vt 0.150000 0.166667
vt 0.175000 1.000000
vt 0.100000 0.500000
vt 0.100000 0.416667
vt 0.100000 0.750000
vt 0.100000 0.666667
vt 0.100000 0.166667
vt 0.100000 0.083333
vt 0.125000 1.000000
vt 0.100000 0.916667
vt 0.100000 0.333333
vt 0.100000 0.583333
vt 0.125000 0.000000
vt 0.100000 0.833333
vt 0.100000 0.250000
vt 0.050000 0.333333
vt 0.050000 0.250000
vt 0.050000 0.583333
vt 0.050000 0.500000
vt 0.050000 0.833333
vt 0.050000 0.750000
vt 0.050000 0.166667
vt 0.050000 0.416667
vt 0.050000 0.666667
vt 0.050000 0.083333
vt 0.075000 1.000000
vt 0.050000 0.916667
vt 0.075000 0.000000
vt 0.025000 1.000000
vt 0.000000 0.916667
vt 0.000000 0.416667
vt 0.000000 0.333333
vt 0.000000 0.666667
vt 0.000000 0.583333
vt 0.025000 0.000000
vt 0.000000 0.083333
vt 0.000000 0.833333
vt 0.000000 0.250000
vt 0.000000 0.500000
vt 0.000000 0.750000
vt 0.000000 0.166667
vt 1.000000 0.166667
vt 1.000000 0.250000
vt 0.950000 0.250000
vt 0.950000 0.166667
vt 1.000000 0.416667
vt 1.000000 0.500000
vt 0.950000 0.500000
vt 0.950000 0.416667
vt 1.000000 0.666667
vt 1.000000 0.750000
vt 0.950000 0.750000
vt 0.950000 0.666667
vt 1.000000 0.083333
vt 0.950000 0.083333
vt 1.000000 0.916667
vt 0.975000 1.000000
vt 0.950000 0.916667
vt 1.000000 0.333333
vt 0.950000 0.333333
vt 1.000000 0.583333
vt 0.950000 0.583333
vt 0.975000 0.000000
vt 1.000000 0.833333
vt 0.950000 0.833333
vt 0.900000 0.916667
vt 0.900000 0.833333
vt 0.900000 0.333333
vt 0.900000 0.250000
vt 0.900000 0.583333
vt 0.900000 0.500000
vt 0.900000 0.750000
vt 0.900000 0.166667
vt 0.900000 0.416667
vt 0.900000 0.666667
vt 0.900000 0.083333
vt 0.925000 1.000000
vt 0.925000 0.000000
vt 0.850000 0.166667
vt 0.850000 0.083333
vt 0.875000 1.000000
vt 0.850000 0.916667
vt 0.850000 0.416667
vt 0.850000 0.333333
vt 0.850000 0.666667
vt 0.850000 0.583333
vt 0.875000 0.000000
vt 0.850000 0.833333
vt 0.850000 0.250000
vt 0.850000 0.500000
vt 0.850000 0.750000
vt 0.800000 0.833333
vt 0.800000 0.750000
vt 0.800000 0.250000
vt 0.800000 0.166667
vt 0.800000 0.500000
vt 0.800000 0.416667
vt 0.800000 0.666667
vt 0.800000 0.083333
vt 0.825000 1.000000
vt 0.800000 0.916667
vt 0.800000 0.333333
vt 0.800000 0.583333
vt 0.825000 0.000000
vt 0.775000 0.000000
vt 0.775000 1.000000
vt 0.600000 0.625000
vt 0.550000 0.625000
vt 0.600000 0.875000
vt 0.550000 0.875000
vt 0.600000 1.000000
vt 0.550000 1.000000
vt 0.550000 0.000000
vt 0.600000 0.000000
vt 0.600000 0.125000
vt 0.550000 0.125000
vt 0.600000 0.375000
vt 0.550000 0.375000
vt 0.650000 0.625000
vt 0.650000 0.875000
vt 0.650000 1.000000
vt 0.650000 0.000000
vt 0.650000 0.125000
vt 0.650000 0.375000
vt 0.700000 0.625000
vt 0.700000 0.875000
vt 0.700000 1.000000
vt 0.700000 0.000000
vt 0.700000 0.125000
vt 0.700000 0.375000
vt 0.750000 0.625000
vt 0.750000 0.875000
vt 0.750000 1.000000
vt 0.750000 0.000000
vt 0.750000 0.125000
vt 0.750000 0.375000
vt 0.800000 0.500000
vt 0.800000 0.625000
vt 0.800000 0.875000
vt 0.800000 1.000000
vt 0.800000 0.000000
vt 0.800000 0.125000
vt 0.800000 0.375000
vt 0.850000 0.625000
vt 0.850000 0.875000
vt 0.850000 1.000000
vt 0.850000 0.000000
vt 0.850000 0.125000
vt 0.850000 0.375000
vt 0.900000 0.625000
vt 0.900000 0.875000
vt 0.900000 1.000000
vt 0.900000 0.000000
vt 0.900000 0.125000
vt 0.900000 0.375000
vt 0.950000 0.625000
vt 0.950000 0.875000
vt 0.950000 1.000000
vt 0.950000 0.000000
vt 0.950000 0.125000
vt 0.950000 0.375000
vt 1.000000 0.625000
vt 1.000000 0.875000
vt 1.000000 1.000000
vt 1.000000 0.000000
vt 1.000000 0.125000
vt 1.000000 0.375000
vt 0.000000 0.500000
vt 0.050000 0.500000
vt 0.050000 0.625000
vt 0.000000 0.625000
vt 0.050000 0.750000
vt 0.000000 0.750000
vt 0.050000 0.875000
vt 0.000000 0.875000
vt 0.050000 1.000000
vt 0.000000 1.000000
vt 0.000000 0.000000
vt 0.050000 0.000000
vt 0.050000 0.125000
vt 0.000000 0.125000
vt 0.050000 0.250000
vt 0.000000 0.250000
vt 0.050000 0.375000
vt 0.000000 0.375000
vt 0.100000 0.500000
vt 0.100000 0.625000
vt 0.100000 0.750000
vt 0.100000 0.875000
vt 0.100000 1.000000
vt 0.100000 0.000000
vt 0.100000 0.125000
vt 0.100000 0.250000
vt 0.100000 0.375000
vt 0.150000 0.500000
vt 0.150000 0.625000
vt 0.150000 0.875000
vt 0.150000 1.000000
vt 0.150000 0.000000
vt 0.150000 0.125000
vt 0.150000 0.375000
vt 0.200000 0.500000
vt 0.200000 0.625000
vt 0.200000 0.750000
vt 0.200000 0.875000
vt 0.200000 1.000000
vt 0.200000 0.000000
vt 0.200000 0.125000
vt 0.200000 0.250000
vt 0.200000 0.375000
vt 0.250000 0.625000
vt 0.250000 0.875000
vt 0.250000 1.000000
vt 0.250000 0.000000
vt 0.250000 0.125000
vt 0.250000 0.375000
vt 0.300000 0.625000
vt 0.300000 0.875000
vt 0.300000 1.000000
vt 0.300000 0.000000
vt 0.300000 0.125000
vt 0.300000 0.375000
vt 0.350000 0.625000
vt 0.350000 0.875000
vt 0.350000 1.000000
vt 0.350000 0.000000
vt 0.350000 0.125000
vt 0.350000 0.375000
vt 0.400000 0.500000
vt 0.400000 0.625000
vt 0.400000 0.875000
vt 0.400000 1.000000
vt 0.400000 0.000000
vt 0.400000 0.125000
vt 0.400000 0.375000
vt 0.450000 0.625000
vt 0.450000 0.750000
vt 0.450000 0.875000
vt 0.450000 1.000000
vt 0.450000 0.000000
vt 0.450000 0.125000
vt 0.450000 0.250000
vt 0.450000 0.375000
vt 0.500000 0.625000
vt 0.500000 0.875000
vt 0.500000 1.000000
vt 0.500000 0.000000
vt 0.500000 0.125000
vt 0.500000 0.375000
vt 0.600000 0.666667
vt 0.550000 0.666667
vt 0.600000 0.833333
vt 0.550000 0.833333
vt 0.550000 -0.000000
vt 0.600000 -0.000000
vt 0.600000 0.166667
vt 0.550000 0.166667
vt 0.600000 0.333333
vt 0.550000 0.333333
vt 0.650000 0.666667
vt 0.650000 0.833333
vt 0.650000 -0.000000
vt 0.650000 0.166667
vt 0.650000 0.333333
vt 0.700000 0.666667
vt 0.700000 0.833333
vt 0.700000 -0.000000
vt 0.700000 0.166667
vt 0.700000 0.333333
vt 0.750000 0.666667
vt 0.750000 0.833333
vt 0.750000 -0.000000
vt 0.750000 0.166667
vt 0.750000 0.333333
vt 0.800000 0.666667
vt 0.800000 0.833333
vt 0.800000 -0.000000
vt 0.800000 0.166667
vt 0.800000 0.333333
vt 0.850000 0.666667
vt 0.850000 -0.000000
vt 0.850000 0.166667
vt 0.850000 0.333333
vt 0.900000 0.666667
vt 0.900000 -0.000000
vt 0.900000 0.166667
vt 0.900000 0.333333
vt 0.950000 0.666667
vt 0.950000 -0.000000
vt 0.950000 0.166667
vt 0.950000 0.333333
vt 1.000000 0.666667
vt 1.000000 -0.000000
vt 1.000000 0.166667
vt 1.000000 0.333333
vt 0.050000 0.666667
vt 0.000000 0.666667
vt 0.050000 0.833333
vt 0.000000 0.833333
vt 0.000000 -0.000000
vt 0.050000 -0.000000
vt 0.050000 0.166667
vt 0.000000 0.166667
vt 0.050000 0.333333
vt 0.000000 0.333333
vt 0.100000 0.666667
vt 0.100000 0.833333
vt 0.100000 -0.000000
vt 0.100000 0.166667
vt 0.100000 0.333333
vt 0.150000 0.666667
vt 0.150000 0.833333
vt 0.150000 -0.000000
vt 0.150000 0.166667
vt 0.150000 0.333333
vt 0.200000 0.666667
vt 0.200000 0.833333
vt 0.200000 -0.000000
vt 0.200000 0.166667
vt 0.200000 0.333333
vt 0.250000 0.666667
vt 0.250000 -0.000000
vt 0.250000 0.166667
vt 0.250000 0.333333
vt 0.300000 0.666667
vt 0.300000 -0.000000
vt 0.300000 0.166667
vt 0.300000 0.333333
vt 0.350000 0.666667
vt 0.350000 -0.000000
vt 0.350000 0.166667
vt 0.350000 0.333333
vt 0.400000 0.666667
vt 0.400000 0.833333
vt 0.400000 -0.000000
vt 0.400000 0.166667
vt 0.400000 0.333333
vt 0.450000 0.666667
vt 0.450000 0.833333
vt 0.450000 -0.000000
vt 0.450000 0.166667
vt 0.450000 0.333333
vt 0.500000 0.666667
vt 0.500000 0.833333
vt 0.500000 -0.000000
vt 0.500000 0.166667
vt 0.500000 0.333333
vt 0.833333 1.000000
vt 0.833333 0.500000
vt 0.666667 1.000000
vt 0.666667 0.500000
vt 0.500000 1.000000
vt 0.500000 0.500000
vt 0.333333 1.000000
vt 0.333333 0.500000
vt 0.457846 0.370000
vt 0.250000 0.490000
vt 0.042154 0.370000
vt 0.042154 0.130000
vt 0.250000 0.010000
vt 0.457846 0.130000
vt 0.166667 1.000000
vt 0.166667 0.500000
vt -0.000000 1.000000
vt -0.000000 0.500000
vt 0.750000 0.490000
vt 0.957846 0.370000
vt 0.957846 0.130000
vt 0.750000 0.010000
vt 0.542154 0.130000
vt 0.542154 0.370000
vt 0.916667 1.000000
vt 0.916667 0.500000
vt 0.833333 1.000000
vt 0.833333 0.500000
vt 0.750000 1.000000
vt 0.750000 0.500000
vt 0.666667 1.000000
vt 0.666667 0.500000
vt 0.583333 1.000000
vt 0.583333 0.500000
vt 0.500000 1.000000
vt 0.500000 0.500000
vt 0.416667 1.000000
vt 0.416667 0.500000
vt 0.333333 1.000000
vt 0.333333 0.500000
vt 0.250000 1.000000
vt 0.250000 0.500000
vt 0.166667 1.000000
vt 0.166667 0.500000
vt 0.370000 0.457846
vt 0.250000 0.490000
vt 0.130000 0.457846
vt 0.042154 0.370000
vt 0.010000 0.250000
vt 0.042154 0.130000
vt 0.130000 0.042154
vt 0.250000 0.010000
vt 0.370000 0.042154
vt 0.457846 0.130000
vt 0.490000 0.250000
vt 0.457846 0.370000
vt 0.083333 1.000000
vt 0.083333 0.500000
vt 0.000000 1.000000
vt 0.000000 0.500000
vt 0.750000 0.490000
vt 0.870000 0.457846
vt 0.957846 0.370000
vt 0.990000 0.250000
vt 0.957846 0.130000
vt 0.870000 0.042154
vt 0.750000 0.010000
vt 0.630000 0.042154
vt 0.542154 0.130000
vt 0.510000 0.250000
vt 0.542154 0.370000
vt 0.630000 0.457846
vt 0.800000 1.000000
vt 0.700000 1.000000
vt 0.700000 0.500000
vt 0.600000 1.000000
vt 0.600000 0.500000
vt 0.500000 1.000000
vt 0.500000 0.500000
vt 0.400000 1.000000
vt 0.400000 0.500000
vt 0.300000 1.000000
vt 0.300000 0.500000
vt 0.200000 1.000000
vt 0.200000 0.500000
vt 0.391068 0.444164
vt 0.108932 0.444164
vt 0.021746 0.324164
vt 0.021746 0.175836
vt 0.108932 0.055836
vt 0.391068 0.055836
vt 0.478254 0.175836
vt 0.478254 0.324164
vt 0.100000 1.000000
vt 0.100000 0.500000
vt -0.000000 1.000000
vt -0.000000 0.500000
vt 0.891068 0.444164
vt 0.978254 0.324164
vt 0.978254 0.175836
vt 0.891068 0.055836
vt 0.608932 0.055836
vt 0.521746 0.175836
vt 0.521746 0.324164
vt 0.608932 0.444164
s 0
usemtl HullPrimary
f 1/1/1 2/2/1 4/3/1 3/4/1
f 3/4/2 4/3/2 8/5/2 7/6/2
f 7/6/3 8/5/3 6/7/3 5/8/3
f 5/8/4 6/7/4 2/9/4 1/10/4
f 3/11/5 7/6/5 5/8/5 1/12/5
f 8/5/6 4/13/6 2/14/6 6/7/6
usemtl HullPanel
f 9/1/1 10/2/1 12/3/1 11/4/1
f 11/4/2 12/3/2 16/5/2 15/6/2
f 15/6/3 16/5/3 14/7/3 13/8/3
f 13/8/4 14/7/4 10/9/4 9/10/4
f 11/11/5 15/6/5 13/8/5 9/12/5
f 16/5/6 12/13/6 10/14/6 14/7/6
f 17/1/1 18/2/1 20/3/1 19/4/1
f 19/4/2 20/3/2 24/5/2 23/6/2
f 23/6/3 24/5/3 22/7/3 21/8/3
f 21/8/4 22/7/4 18/9/4 17/10/4
f 19/11/5 23/6/5 21/8/5 17/12/5
f 24/5/6 20/13/6 18/14/6 22/7/6
f 827/1/1 828/2/1 830/3/1 829/4/1
f 829/4/2 830/3/2 834/5/2 833/6/2
f 833/6/3 834/5/3 832/7/3 831/8/3
f 831/8/4 832/7/4 828/9/4 827/10/4
f 829/11/5 833/6/5 831/8/5 827/12/5
f 834/5/6 830/13/6 828/14/6 832/7/6
f 907/1/1 908/2/1 910/3/1 909/4/1
f 909/4/2 910/3/2 914/5/2 913/6/2
f 913/6/3 914/5/3 912/7/3 911/8/3
f 911/8/4 912/7/4 908/9/4 907/10/4
f 909/11/5 913/6/5 911/8/5 907/12/5
f 914/5/6 910/13/6 908/14/6 912/7/6
usemtl HullMid
f 25/1/1 26/2/1 28/3/1 27/4/1
f 27/4/2 28/3/2 32/5/2 31/6/2
f 31/6/3 32/5/3 30/7/3 29/8/3
f 29/8/4 30/7/4 26/9/4 25/10/4
f 27/11/5 31/6/5 29/8/5 25/12/5
f 32/5/6 28/13/6 26/14/6 30/7/6
f 266/15/7 265/16/7 56/17/7 57/18/7
f 97/19/8 270/20/8 63/21/8
f 50/22/9 49/23/9 53/24/9 54/25/9
f 269/26/10 268/27/10 60/28/10 61/29/10
f 51/30/11 266/15/11 57/18/11 58/31/11
f 264/32/12 50/22/12 54/25/12 55/33/12
f 52/34/13 269/26/13 61/29/13 62/35/13
f 267/36/14 51/30/14 58/31/14 59/37/14
f 265/16/15 264/32/15 55/33/15 56/17/15
f 270/20/16 52/34/16 62/35/16 63/21/16
f 49/23/17 186/38/17 53/24/17
f 268/27/18 267/36/18 59/37/18 60/28/18
f 55/33/19 54/25/19 65/39/19 66/40/19
f 62/35/20 61/29/20 72/41/20 73/42/20
f 59/37/21 58/31/21 69/43/21 70/44/21
f 56/17/22 55/33/22 66/40/22 67/45/22
f 63/21/23 62/35/23 73/42/23 74/46/23
f 53/24/24 186/47/24 64/48/24
f 60/28/25 59/37/25 70/44/25 71/49/25
f 57/18/26 56/17/26 67/45/26 68/50/26
f 97/51/27 63/21/27 74/46/27
f 54/25/28 53/24/28 64/48/28 65/39/28
f 61/29/29 60/28/29 71/49/29 72/41/29
f 58/31/30 57/18/30 68/50/30 69/43/30
f 97/2/31 74/46/31 85/52/31
f 65/39/32 64/48/32 75/53/32 76/54/32
f 72/41/33 71/49/33 82/55/33 83/56/33
f 69/43/34 68/50/34 79/57/34 80/58/34
f 66/40/35 65/39/35 76/54/35 77/59/35
f 73/42/36 72/41/36 83/56/36 84/60/36
f 70/44/37 69/43/37 80/58/37 81/61/37
f 67/45/38 66/40/38 77/59/38 78/62/38
f 74/46/39 73/42/39 84/60/39 85/52/39
f 64/48/40 186/9/40 75/53/40
f 71/49/41 70/44/41 81/61/41 82/55/41
f 68/50/42 67/45/42 78/62/42 79/57/42
f 78/62/43 77/59/43 88/63/43 89/64/43
f 85/52/44 84/60/44 95/65/44 96/66/44
f 75/53/45 186/67/45 86/68/45
f 82/55/46 81/61/46 92/69/46 93/70/46
f 79/57/47 78/62/47 89/64/47 90/71/47
f 97/72/48 85/52/48 96/66/48
f 76/54/49 75/53/49 86/68/49 87/73/49
f 83/56/50 82/55/50 93/70/50 94/74/50
f 80/58/51 79/57/51 90/71/51 91/75/51
f 77/59/52 76/54/52 87/73/52 88/63/52
f 84/60/53 83/56/53 94/74/53 95/65/53
f 81/61/54 80/58/54 91/75/54 92/69/54
f 88/63/55 87/73/55 99/76/55 100/77/55
f 95/65/56 94/74/56 106/78/56 107/79/56
f 92/69/57 91/75/57 103/80/57 104/81/57
f 89/64/58 88/63/58 100/77/58 101/82/58
f 96/66/59 95/65/59 107/79/59 108/83/59
f 86/68/60 186/84/60 98/85/60
f 93/70/61 92/69/61 104/81/61 105/86/61
f 90/71/62 89/64/62 101/82/62 102/87/62
f 97/88/63 96/66/63 108/83/63
f 87/73/64 86/68/64 98/85/64 99/76/64
f 94/74/65 93/70/65 105/86/65 106/78/65
f 91/75/66 90/71/66 102/87/66 103/80/66
f 102/87/67 101/82/67 112/89/67 113/90/67
f 97/91/68 108/83/68 119/92/68
f 99/76/69 98/85/69 109/93/69 110/94/69
f 106/78/70 105/86/70 116/95/70 117/96/70
f 103/80/71 102/87/71 113/90/71 114/97/71
f 100/77/72 99/76/72 110/94/72 111/98/72
f 107/79/73 106/78/73 117/96/73 118/99/73
f 104/81/74 103/80/74 114/97/74 115/100/74
f 101/82/75 100/77/75 111/98/75 112/89/75
f 108/83/76 107/79/76 118/99/76 119/92/76
f 98/85/77 186/101/77 109/93/77
f 105/86/78 104/81/78 115/100/78 116/95/78
f 112/89/79 111/98/79 122/102/79 123/103/79
f 119/92/80 118/99/80 129/104/80 130/105/80
f 109/93/81 186/106/81 120/107/81
f 116/95/82 115/100/82 126/108/82 127/109/82
f 113/90/83 112/89/83 123/103/83 124/110/83
f 97/111/84 119/92/84 130/105/84
f 110/94/85 109/93/85 120/107/85 121/112/85
f 117/96/86 116/95/86 127/109/86 128/113/86
f 114/97/87 113/90/87 124/110/87 125/114/87
f 111/98/88 110/94/88 121/112/88 122/102/88
f 118/99/89 117/96/89 128/113/89 129/104/89
f 115/100/90 114/97/90 125/114/90 126/108/90
f 125/114/91 124/110/91 135/115/91 136/116/91
f 122/102/92 121/112/92 132/117/92 133/118/92
f 129/104/93 128/113/93 139/119/93 140/120/93
f 126/108/94 125/114/94 136/116/94 137/121/94
f 123/103/95 122/102/95 133/118/95 134/122/95
f 130/105/96 129/104/96 140/120/96 141/123/96
f 120/107/97 186/10/97 131/124/97
f 127/109/98 126/108/98 137/121/98 138/125/98
f 124/110/99 123/103/99 134/122/99 135/115/99
f 97/1/100 130/105/100 141/123/100
f 121/112/101 120/107/101 131/124/101 132/117/101
f 128/113/102 127/109/102 138/125/102 139/119/102
f 135/115/103 134/122/103 145/126/103 146/127/103
f 97/128/104 141/123/104 152/129/104
f 132/117/105 131/124/105 142/130/105 143/131/105
f 139/119/106 138/125/106 149/132/106 150/133/106
f 136/116/107 135/115/107 146/127/107 147/134/107
f 133/118/108 132/117/108 143/131/108 144/135/108
f 140/120/109 139/119/109 150/133/109 151/136/109
f 137/121/110 136/116/110 147/134/110 148/137/110
f 134/122/111 133/118/111 144/135/111 145/126/111
f 141/123/112 140/120/112 151/136/112 152/129/112
f 131/124/113 186/138/113 142/130/113
f 138/125/114 137/121/114 148/137/114 149/132/114
f 148/137/115 147/134/115 158/139/115 159/140/115
f 145/126/116 144/135/116 155/141/116 156/142/116
f 152/129/117 151/136/117 162/143/117 163/144/117
f 142/130/118 186/145/118 153/146/118
f 149/132/119 148/137/119 159/140/119 160/147/119
f 146/127/120 145/126/120 156/142/120 157/148/120
f 97/149/121 152/129/121 163/144/121
f 143/131/122 142/130/122 153/146/122 154/150/122
f 150/133/123 149/132/123 160/147/123 161/151/123
f 147/134/124 146/127/124 157/148/124 158/139/124
f 144/135/125 143/131/125 154/150/125 155/141/125
f 151/136/126 150/133/126 161/151/126 162/143/126
f 158/139/127 157/148/127 168/152/127 169/153/127
f 155/141/128 154/150/128 165/154/128 166/155/128
f 162/143/129 161/151/129 172/156/129 173/157/129
f 159/140/130 158/139/130 169/153/130 170/158/130
f 156/142/131 155/141/131 166/155/131 167/159/131
f 163/144/132 162/143/132 173/157/132 174/160/132
f 153/146/133 186/161/133 164/162/133
f 160/147/134 159/140/134 170/158/134 171/163/134
f 157/148/135 156/142/135 167/159/135 168/152/135
f 97/164/136 163/144/136 174/160/136
f 154/150/137 153/146/137 164/162/137 165/154/137
f 161/151/138 160/147/138 171/163/138 172/156/138
f 171/163/139 170/158/139 181/165/139 182/166/139
f 168/152/140 167/159/140 178/167/140 179/168/140
f 97/169/141 174/160/141 185/170/141
f 165/154/142 164/162/142 175/171/142 176/172/142
f 172/156/143 171/163/143 182/166/143 183/173/143
f 169/153/144 168/152/144 179/168/144 180/174/144
f 166/155/145 165/154/145 176/172/145 177/175/145
f 173/157/146 172/156/146 183/173/146 184/176/146
f 170/158/147 169/153/147 180/174/147 181/165/147
f 167/159/148 166/155/148 177/175/148 178/167/148
f 174/160/149 173/157/149 184/176/149 185/170/149
f 164/162/150 186/177/150 175/171/150
f 181/165/151 180/174/151 192/178/151 193/179/151
f 178/167/152 177/175/152 189/180/152 190/181/152
f 185/170/153 184/176/153 196/182/153 197/183/153
f 175/171/154 186/184/154 187/185/154
f 182/166/155 181/165/155 193/179/155 194/186/155
f 179/168/156 178/167/156 190/181/156 191/187/156
f 97/188/157 185/170/157 197/183/157
f 176/172/158 175/171/158 187/185/158 188/189/158
f 183/173/159 182/166/159 194/186/159 195/190/159
f 180/174/160 179/168/160 191/187/160 192/178/160
f 177/175/161 176/172/161 188/189/161 189/180/161
f 184/176/162 183/173/162 195/190/162 196/182/162
f 195/190/163 194/186/163 205/191/163 206/192/163
f 192/178/164 191/187/164 202/193/164 203/194/164
f 189/180/165 188/189/165 199/195/165 200/196/165
f 196/182/166 195/190/166 206/192/166 207/197/166
f 193/179/167 192/178/167 203/194/167 204/198/167
f 190/181/168 189/180/168 200/196/168 201/199/168
f 197/183/169 196/182/169 207/197/169 208/200/169
f 187/185/170 186/201/170 198/202/170
f 194/186/171 193/179/171 204/198/171 205/191/171
f 191/187/172 190/181/172 201/199/172 202/193/172
f 97/203/173 197/183/173 208/200/173
f 188/189/174 187/185/174 198/202/174 199/195/174
f 198/202/175 186/204/175 209/205/175
f 205/191/176 204/198/176 215/206/176 216/207/176
f 202/193/177 201/199/177 212/208/177 213/209/177
f 97/210/178 208/200/178 219/211/178
f 199/195/179 198/202/179 209/205/179 210/212/179
f 206/192/180 205/191/180 216/207/180 217/213/180
f 203/194/181 202/193/181 213/209/181 214/214/181
f 200/196/182 199/195/182 210/212/182 211/215/182
f 207/197/183 206/192/183 217/213/183 218/216/183
f 204/198/184 203/194/184 214/214/184 215/206/184
f 201/199/185 200/196/185 211/215/185 212/208/185
f 208/200/186 207/197/186 218/216/186 219/211/186
f 218/217/187 217/218/187 228/219/187 229/220/187
f 215/221/188 214/222/188 225/223/188 226/224/188
f 212/225/189 211/226/189 222/227/189 223/228/189
f 219/229/190 218/217/190 229/220/190 230/230/190
f 209/231/191 186/232/191 220/233/191
f 216/234/192 215/221/192 226/224/192 227/235/192
f 213/236/193 212/225/193 223/228/193 224/237/193
f 97/238/194 219/229/194 230/230/194
f 210/239/195 209/231/195 220/233/195 221/240/195
f 217/218/196 216/234/196 227/235/196 228/219/196
f 214/222/197 213/236/197 224/237/197 225/223/197
f 211/226/198 210/239/198 221/240/198 222/227/198
f 221/240/199 220/233/199 231/241/199 232/242/199
f 228/219/200 227/235/200 238/243/200 239/244/200
f 225/223/201 224/237/201 235/245/201 236/246/201
f 222/227/202 221/240/202 232/242/202 233/247/202
f 229/220/203 228/219/203 239/244/203 240/248/203
f 226/224/204 225/223/204 236/246/204 237/249/204
f 223/228/205 222/227/205 233/247/205 234/250/205
f 230/230/206 229/220/206 240/248/206 241/251/206
f 220/233/207 186/252/207 231/241/207
f 227/235/208 226/224/208 237/249/208 238/243/208
f 224/237/209 223/228/209 234/250/209 235/245/209
f 97/253/210 230/230/210 241/251/210
f 241/251/211 240/248/211 251/254/211 252/255/211
f 231/241/212 186/256/212 242/257/212
f 238/243/213 237/249/213 248/258/213 249/259/213
f 235/245/214 234/250/214 245/260/214 246/261/214
f 97/262/215 241/251/215 252/255/215
f 232/242/216 231/241/216 242/257/216 243/263/216
f 239/244/217 238/243/217 249/259/217 250/264/217
f 236/246/218 235/245/218 246/261/218 247/265/218
f 233/247/219 232/242/219 243/263/219 244/266/219
f 240/248/220 239/244/220 250/264/220 251/254/220
f 237/249/221 236/246/221 247/265/221 248/258/221
f 234/250/222 233/247/222 244/266/222 245/260/222
f 244/266/223 243/263/223 254/267/223 255/268/223
f 251/254/224 250/264/224 261/269/224 262/270/224
f 248/258/225 247/265/225 258/271/225 259/272/225
f 245/260/226 244/266/226 255/268/226 256/273/226
f 252/255/227 251/254/227 262/270/227 263/274/227
f 242/257/228 186/275/228 253/276/228
f 249/259/229 248/258/229 259/272/229 260/277/229
f 246/261/230 245/260/230 256/273/230 257/278/230
f 97/279/231 252/255/231 263/274/231
f 243/263/232 242/257/232 253/276/232 254/267/232
f 250/264/233 249/259/233 260/277/233 261/269/233
f 247/265/234 246/261/234 257/278/234 258/271/234
f 97/280/235 263/274/235 270/20/235
f 254/267/236 253/276/236 49/23/236 50/22/236
f 261/269/237 260/277/237 268/27/237 269/26/237
f 258/271/238 257/278/238 266/15/238 51/30/238
f 255/268/239 254/267/239 50/22/239 264/32/239
f 262/270/240 261/269/240 269/26/240 52/34/240
f 259/272/241 258/271/241 51/30/241 267/36/241
f 256/273/242 255/268/242 264/32/242 265/16/242
f 263/274/243 262/270/243 52/34/243 270/20/243
f 253/276/244 186/281/244 49/23/244
f 260/277/245 259/272/245 267/36/245 268/27/245
f 257/278/246 256/273/246 265/16/246 266/15/246
f 755/1/1 756/2/1 758/3/1 757/4/1
f 757/4/2 758/3/2 762/5/2 761/6/2
f 761/6/3 762/5/3 760/7/3 759/8/3
f 759/8/4 760/7/4 756/9/4 755/10/4
f 757/11/5 761/6/5 759/8/5 755/12/5
f 762/5/6 758/13/6 756/14/6 760/7/6
f 835/1/1 836/2/1 838/3/1 837/4/1
f 837/4/2 838/3/2 842/5/2 841/6/2
f 841/6/3 842/5/3 840/7/3 839/8/3
f 839/8/4 840/7/4 836/9/4 835/10/4
f 837/11/5 841/6/5 839/8/5 835/12/5
f 842/5/6 838/13/6 836/14/6 840/7/6
usemtl CockpitGlass
f 33/1/1 34/2/1 36/3/1 35/4/1
f 35/4/2 36/3/2 40/5/2 39/6/2
f 39/6/3 40/5/3 38/7/3 37/8/3
f 37/8/4 38/7/4 34/9/4 33/10/4
f 35/11/5 39/6/5 37/8/5 33/12/5
f 40/5/6 36/13/6 34/14/6 38/7/6
usemtl DecalWhite
f 41/1/1 42/2/1 44/3/1 43/4/1
f 43/4/2 44/3/2 48/5/2 47/6/2
f 47/6/3 48/5/3 46/7/3 45/8/3
f 45/8/4 46/7/4 42/9/4 41/10/4
f 43/11/5 47/6/5 45/8/5 41/12/5
f 48/5/6 44/13/6 42/14/6 46/7/6
f 723/1/1 724/2/1 726/3/1 725/4/1
f 725/4/2 726/3/2 730/5/2 729/6/2
f 729/6/3 730/5/3 728/7/3 727/8/3
f 727/8/4 728/7/4 724/9/4 723/10/4
f 725/11/5 729/6/5 727/8/5 723/12/5
f 730/5/6 726/13/6 724/14/6 728/7/6
f 731/1/1 732/2/1 734/3/1 733/4/1
f 733/4/2 734/3/2 738/5/2 737/6/2
f 737/6/3 738/5/3 736/7/3 735/8/3
f 735/8/4 736/7/4 732/9/4 731/10/4
f 733/11/5 737/6/5 735/8/5 731/12/5
f 738/5/6 734/13/6 732/14/6 736/7/6
usemtl HullDark
f 271/75/247 279/58/247 280/282/247 272/283/247
f 272/283/248 280/282/248 281/59/248 273/63/248
f 273/63/249 281/59/249 282/284/249 274/285/249
f 274/285/250 282/284/250 283/286/250 275/287/250
f 275/288/251 283/289/251 284/290/251 276/291/251
f 276/291/252 284/290/252 285/56/252 277/74/252
f 277/74/253 285/56/253 286/292/253 278/293/253
f 278/293/254 286/292/254 279/58/254 271/75/254
f 279/58/255 287/43/255 288/294/255 280/282/255
f 280/282/256 288/294/256 289/40/256 281/59/256
f 281/59/257 289/40/257 290/295/257 282/284/257
f 282/284/258 290/295/258 291/296/258 283/286/258
f 283/289/259 291/297/259 292/298/259 284/290/259
f 284/290/260 292/298/260 293/41/260 285/56/260
f 285/56/261 293/41/261 294/299/261 286/292/261
f 286/292/262 294/299/262 287/43/262 279/58/262
f 287/43/263 295/31/263 296/300/263 288/294/263
f 288/294/264 296/300/264 297/33/264 289/40/264
f 289/40/265 297/33/265 298/301/265 290/295/265
f 290/295/266 298/301/266 299/302/266 291/296/266
f 291/297/267 299/303/267 300/304/267 292/298/267
f 292/298/268 300/304/268 301/29/268 293/41/268
f 293/41/269 301/29/269 302/305/269 294/299/269
f 294/299/270 302/305/270 295/31/270 287/43/270
f 295/31/271 303/30/271 304/306/271 296/300/271
f 296/300/272 304/306/272 305/32/272 297/33/272
f 297/33/273 305/32/273 306/307/273 298/301/273
f 298/301/274 306/307/274 307/308/274 299/302/274
f 299/303/275 307/309/275 308/310/275 300/304/275
f 300/304/276 308/310/276 309/26/276 301/29/276
f 301/29/277 309/26/277 310/311/277 302/305/277
f 302/305/278 310/311/278 303/30/278 295/31/278
f 303/30/279 311/312/279 312/313/279 304/306/279
f 304/306/280 312/313/280 313/268/280 305/32/280
f 305/32/281 313/268/281 314/314/281 306/307/281
f 306/307/282 314/314/282 315/315/282 307/308/282
f 307/309/283 315/316/283 316/317/283 308/310/283
f 308/310/284 316/317/284 317/269/284 309/26/284
f 309/26/285 317/269/285 318/318/285 310/311/285
f 310/311/286 318/318/286 311/312/286 303/30/286
f 311/312/287 319/265/287 320/319/287 312/313/287
f 312/313/288 320/319/288 321/266/288 313/268/288
f 313/268/289 321/266/289 322/320/289 314/314/289
f 314/314/290 322/320/290 323/321/290 315/315/290
f 315/316/291 323/322/291 324/323/291 316/317/291
f 316/317/292 324/323/292 325/264/292 317/269/292
f 317/269/293 325/264/293 326/324/293 318/318/293
f 318/318/294 326/324/294 319/265/294 311/312/294
f 319/265/295 327/246/295 328/325/295 320/319/295
f 320/319/296 328/325/296 329/247/296 321/266/296
f 321/266/297 329/247/297 330/326/297 322/320/297
f 322/320/298 330/326/298 331/327/298 323/321/298
f 323/322/299 331/328/299 332/329/299 324/323/299
f 324/323/300 332/329/300 333/244/300 325/264/300
f 325/264/301 333/244/301 334/330/301 326/324/301
f 326/324/302 334/330/302 327/246/302 319/265/302
f 327/246/303 335/223/303 336/331/303 328/325/303
f 328/325/304 336/331/304 337/227/304 329/247/304
f 329/247/305 337/227/305 338/332/305 330/326/305
f 330/326/306 338/332/306 339/333/306 331/327/306
f 331/328/307 339/334/307 340/335/307 332/329/307
f 332/329/308 340/335/308 341/219/308 333/244/308
f 333/244/309 341/219/309 342/336/309 334/330/309
f 334/330/310 342/336/310 335/223/310 327/246/310
f 335/223/311 343/222/311 344/337/311 336/331/311
f 336/331/312 344/337/312 345/226/312 337/227/312
f 337/227/313 345/226/313 346/338/313 338/332/313
f 338/332/314 346/338/314 347/339/314 339/333/314
f 339/334/315 347/340/315 348/341/315 340/335/315
f 340/335/316 348/341/316 349/218/316 341/219/316
f 341/219/317 349/218/317 350/342/317 342/336/317
f 342/336/318 350/342/318 343/222/318 335/223/318
f 343/343/319 351/344/319 352/345/319 344/346/319
f 344/346/320 352/345/320 353/347/320 345/348/320
f 345/348/321 353/347/321 354/349/321 346/350/321
f 346/350/322 354/349/322 355/351/322 347/352/322
f 347/353/323 355/354/323 356/355/323 348/356/323
f 348/356/324 356/355/324 357/357/324 349/358/324
f 349/358/325 357/357/325 358/359/325 350/360/325
f 350/360/326 358/359/326 351/344/326 343/343/326
f 351/344/250 359/361/250 360/362/250 352/345/250
f 352/345/249 360/362/249 361/363/249 353/347/249
f 353/347/248 361/363/248 362/364/248 354/349/248
f 354/349/247 362/364/247 363/365/247 355/351/247
f 355/354/254 363/366/254 364/367/254 356/355/254
f 356/355/253 364/367/253 365/368/253 357/357/253
f 357/357/252 365/368/252 366/369/252 358/359/252
f 358/359/251 366/369/251 359/361/251 351/344/251
f 359/361/258 367/370/258 368/371/258 360/362/258
f 360/362/257 368/371/257 369/175/257 361/363/257
f 361/363/256 369/175/256 370/372/256 362/364/256
f 362/364/255 370/372/255 371/373/255 363/365/255
f 363/366/262 371/374/262 372/375/262 364/367/262
f 364/367/261 372/375/261 373/173/261 365/368/261
f 365/368/260 373/173/260 374/376/260 366/369/260
f 366/369/259 374/376/259 367/370/259 359/361/259
f 367/370/266 375/377/266 376/378/266 368/371/266
f 368/371/265 376/378/265 377/379/265 369/175/265
f 369/175/264 377/379/264 378/380/264 370/372/264
f 370/372/263 378/380/263 379/381/263 371/373/263
f 371/374/270 379/382/270 380/383/270 372/375/270
f 372/375/269 380/383/269 381/384/269 373/173/269
f 373/173/268 381/384/268 382/385/268 374/376/268
f 374/376/267 382/385/267 375/377/267 367/370/267
f 375/377/274 383/139/274 384/386/274 376/378/274
f 376/378/273 384/386/273 385/141/273 377/379/273
f 377/379/272 385/141/272 386/387/272 378/380/272
f 378/380/271 386/387/271 387/388/271 379/381/271
f 379/382/278 387/389/278 388/390/278 380/383/278
f 380/383/277 388/390/277 389/151/277 381/384/277
f 381/384/276 389/151/276 390/391/276 382/385/276
f 382/385/275 390/391/275 383/139/275 375/377/275
f 383/139/282 391/134/282 392/392/282 384/386/282
f 384/386/281 392/392/281 393/135/281 385/141/281
f 385/141/280 393/135/280 394/393/280 386/387/280
f 386/387/279 394/393/279 395/394/279 387/388/279
f 387/389/286 395/395/286 396/396/286 388/390/286
f 388/390/285 396/396/285 397/133/285 389/151/285
f 389/151/284 397/133/284 398/397/284 390/391/284
f 390/391/283 398/397/283 391/134/283 383/139/283
f 391/134/290 399/116/290 400/398/290 392/392/290
f 392/392/289 400/398/289 401/118/289 393/135/289
f 393/135/288 401/118/288 402/399/288 394/393/288
f 394/393/287 402/399/287 403/400/287 395/394/287
f 395/395/294 403/401/294 404/402/294 396/396/294
f 396/396/293 404/402/293 405/119/293 397/133/293
f 397/133/292 405/119/292 406/403/292 398/397/292
f 398/397/291 406/403/291 399/116/291 391/134/291
f 399/116/298 407/404/298 408/405/298 400/398/298
f 400/398/297 408/405/297 409/102/297 401/118/297
f 401/118/296 409/102/296 410/406/296 402/399/296
f 402/399/295 410/406/295 411/407/295 403/400/295
f 403/401/302 411/408/302 412/409/302 404/402/302
f 404/402/301 412/409/301 413/113/301 405/119/301
f 405/119/300 413/113/300 414/410/300 406/403/300
f 406/403/299 414/410/299 407/404/299 399/116/299
f 407/404/306 415/97/306 416/411/306 408/405/306
f 408/405/305 416/411/305 417/412/305 409/102/305
f 409/102/304 417/412/304 418/413/304 410/406/304
f 410/406/303 418/413/303 419/414/303 411/407/303
f 411/408/310 419/415/310 420/416/310 412/409/310
f 412/409/309 420/416/309 421/417/309 413/113/309
f 413/113/308 421/417/308 422/418/308 414/410/308
f 414/410/307 422/418/307 415/97/307 407/404/307
f 415/97/314 423/80/314 424/419/314 416/411/314
f 416/411/313 424/419/313 425/77/313 417/412/313
f 417/412/312 425/77/312 426/420/312 418/413/312
f 418/413/311 426/420/311 427/421/311 419/414/311
f 419/415/318 427/422/318 428/423/318 420/416/318
f 420/416/317 428/423/317 429/78/317 421/417/317
f 421/417/316 429/78/316 430/424/316 422/418/316
f 422/418/315 430/424/315 423/80/315 415/97/315
f 423/80/322 271/75/322 272/283/322 424/419/322
f 424/419/321 272/283/321 273/63/321 425/77/321
f 425/77/320 273/63/320 274/285/320 426/420/320
f 426/420/319 274/285/319 275/287/319 427/421/319
f 427/422/326 275/288/326 276/291/326 428/423/326
f 428/423/325 276/291/325 277/74/325 429/78/325
f 429/78/324 277/74/324 278/293/324 430/424/324
f 430/424/323 278/293/323 271/75/323 423/80/323
f 711/222/369 712/339/369 714/523/369 713/524/369
f 713/524/5 714/523/5 716/525/5 715/526/5
f 715/526/370 716/525/370 718/527/370 717/528/370
f 717/528/371 718/527/371 720/529/371 719/530/371
f 714/531/3 712/532/3 722/533/3 720/534/3 718/535/3 716/536/3
f 719/530/6 720/529/6 722/537/6 721/538/6
f 721/538/372 722/537/372 712/539/372 711/540/372
f 711/541/1 713/542/1 715/543/1 717/544/1 719/545/1 721/546/1
f 763/222/373 764/339/373 766/547/373 765/548/373
f 765/548/374 766/547/374 768/549/374 767/550/374
f 767/550/375 768/549/375 770/551/375 769/552/375
f 769/552/376 770/551/376 772/553/376 771/554/376
f 771/554/377 772/553/377 774/555/377 773/556/377
f 773/556/378 774/555/378 776/557/378 775/558/378
f 775/558/379 776/557/379 778/559/379 777/560/379
f 777/560/380 778/559/380 780/561/380 779/562/380
f 779/562/381 780/561/381 782/563/381 781/564/381
f 781/564/382 782/563/382 784/565/382 783/566/382
f 766/567/3 764/568/3 786/569/3 784/570/3 782/571/3 780/572/3 778/573/3 776/574/3 774/575/3 772/576/3 770/577/3 768/578/3
f 783/566/383 784/565/383 786/579/383 785/580/383
f 785/580/384 786/579/384 764/581/384 763/582/384
f 763/583/1 765/584/1 767/585/1 769/586/1 771/587/1 773/588/1 775/589/1 777/590/1 779/591/1 781/592/1 783/593/1 785/594/1
f 843/222/373 844/339/373 846/547/373 845/548/373
f 845/548/374 846/547/374 848/549/374 847/550/374
f 847/550/375 848/549/375 850/551/375 849/552/375
f 849/552/376 850/551/376 852/553/376 851/554/376
f 851/554/377 852/553/377 854/555/377 853/556/377
f 853/556/378 854/555/378 856/557/378 855/558/378
f 855/558/379 856/557/379 858/559/379 857/560/379
f 857/560/380 858/559/380 860/561/380 859/562/380
f 859/562/381 860/561/381 862/563/381 861/564/381
f 861/564/382 862/563/382 864/565/382 863/566/382
f 846/567/3 844/568/3 866/569/3 864/570/3 862/571/3 860/572/3 858/573/3 856/574/3 854/575/3 852/576/3 850/577/3 848/578/3
f 863/566/383 864/565/383 866/579/383 865/580/383
f 865/580/384 866/579/384 844/581/384 843/582/384
f 843/583/1 845/584/1 847/585/1 849/586/1 851/587/1 853/588/1 855/589/1 857/590/1 859/591/1 861/592/1 863/593/1 865/594/1
f 915/1/1 916/2/1 918/3/1 917/4/1
f 917/4/2 918/3/2 922/5/2 921/6/2
f 921/6/3 922/5/3 920/7/3 919/8/3
f 919/8/4 920/7/4 916/9/4 915/10/4
f 917/11/5 921/6/5 919/8/5 915/12/5
f 922/5/6 918/13/6 916/14/6 920/7/6
f 923/1/1 924/2/1 926/3/1 925/4/1
f 925/4/2 926/3/2 930/5/2 929/6/2
f 929/6/3 930/5/3 928/7/3 927/8/3
f 927/8/4 928/7/4 924/9/4 923/10/4
f 925/11/5 929/6/5 927/8/5 923/12/5
f 930/5/6 926/13/6 924/14/6 928/7/6
usemtl AccentCyan
f 431/75/247 439/58/247 440/282/247 432/283/247
f 432/283/248 440/282/248 441/59/248 433/63/248
f 433/63/249 441/59/249 442/284/249 434/285/249
f 434/285/250 442/284/250 443/286/250 435/287/250
f 435/288/251 443/289/251 444/290/251 436/291/251
f 436/291/252 444/290/252 445/56/252 437/74/252
f 437/74/253 445/56/253 446/292/253 438/293/253
f 438/293/254 446/292/254 439/58/254 431/75/254
f 439/58/255 447/43/255 448/294/255 440/282/255
f 440/282/256 448/294/256 449/40/256 441/59/256
f 441/59/257 449/40/257 450/295/257 442/284/257
f 442/284/258 450/295/258 451/296/258 443/286/258
f 443/289/259 451/297/259 452/298/259 444/290/259
f 444/290/260 452/298/260 453/41/260 445/56/260
f 445/56/261 453/41/261 454/299/261 446/292/261
f 446/292/262 454/299/262 447/43/262 439/58/262
f 447/43/263 455/31/263 456/300/263 448/294/263
f 448/294/264 456/300/264 457/33/264 449/40/264
f 449/40/265 457/33/265 458/301/265 450/295/265
f 450/295/266 458/301/266 459/302/266 451/296/266
f 451/297/327 459/303/327 460/304/327 452/298/327
f 452/298/268 460/304/268 461/29/268 453/41/268
f 453/41/269 461/29/269 462/305/269 454/299/269
f 454/299/270 462/305/270 455/31/270 447/43/270
f 455/31/271 463/30/271 464/306/271 456/300/271
f 456/300/272 464/306/272 465/32/272 457/33/272
f 457/33/273 465/32/273 466/307/273 458/301/273
f 458/301/274 466/307/274 467/308/274 459/302/274
f 459/303/275 467/309/275 468/310/275 460/304/275
f 460/304/276 468/310/276 469/26/276 461/29/276
f 461/29/277 469/26/277 470/311/277 462/305/277
f 462/305/278 470/311/278 463/30/278 455/31/278
f 463/30/279 471/312/279 472/313/279 464/306/279
f 464/306/280 472/313/280 473/268/280 465/32/280
f 465/32/281 473/268/281 474/314/281 466/307/281
f 466/307/282 474/314/282 475/315/282 467/308/282
f 467/309/283 475/316/283 476/317/283 468/310/283
f 468/310/284 476/317/284 477/269/284 469/26/284
f 469/26/285 477/269/285 478/318/285 470/311/285
f 470/311/286 478/318/286 471/312/286 463/30/286
f 471/312/287 479/265/287 480/319/287 472/313/287
f 472/313/288 480/319/288 481/266/288 473/268/288
f 473/268/289 481/266/289 482/320/289 474/314/289
f 474/314/290 482/320/290 483/321/290 475/315/290
f 475/316/291 483/322/291 484/323/291 476/317/291
f 476/317/292 484/323/292 485/264/292 477/269/292
f 477/269/293 485/264/293 486/324/293 478/318/293
f 478/318/294 486/324/294 479/265/294 471/312/294
f 479/265/295 487/246/295 488/325/295 480/319/295
f 480/319/296 488/325/296 489/247/296 481/266/296
f 481/266/297 489/247/297 490/326/297 482/320/297
f 482/320/298 490/326/298 491/327/298 483/321/298
f 483/322/299 491/328/299 492/329/299 484/323/299
f 484/323/300 492/329/300 493/244/300 485/264/300
f 485/264/301 493/244/301 494/330/301 486/324/301
f 486/324/302 494/330/302 487/246/302 479/265/302
f 487/246/303 495/223/303 496/331/303 488/325/303
f 488/325/304 496/331/304 497/227/304 489/247/304
f 489/247/305 497/227/305 498/332/305 490/326/305
f 490/326/306 498/332/306 499/333/306 491/327/306
f 491/328/307 499/334/307 500/335/307 492/329/307
f 492/329/308 500/335/308 501/219/308 493/244/308
f 493/244/309 501/219/309 502/336/309 494/330/309
f 494/330/310 502/336/310 495/223/310 487/246/310
f 495/223/311 503/222/311 504/337/311 496/331/311
f 496/331/312 504/337/312 505/226/312 497/227/312
f 497/227/313 505/226/313 506/338/313 498/332/313
f 498/332/314 506/338/314 507/339/314 499/333/314
f 499/334/315 507/340/315 508/341/315 500/335/315
f 500/335/316 508/341/316 509/218/316 501/219/316
f 501/219/317 509/218/317 510/342/317 502/336/317
f 502/336/318 510/342/318 503/222/318 495/223/318
f 503/343/319 511/344/319 512/345/319 504/346/319
f 504/346/320 512/345/320 513/347/320 505/348/320
f 505/348/321 513/347/321 514/349/321 506/350/321
f 506/350/328 514/349/328 515/351/328 507/352/328
f 507/353/323 515/354/323 516/355/323 508/356/323
f 508/356/324 516/355/324 517/357/324 509/358/324
f 509/358/325 517/357/325 518/359/325 510/360/325
f 510/360/326 518/359/326 511/344/326 503/343/326
f 511/344/250 519/361/250 520/362/250 512/345/250
f 512/345/249 520/362/249 521/363/249 513/347/249
f 513/347/248 521/363/248 522/364/248 514/349/248
f 514/349/247 522/364/247 523/365/247 515/351/247
f 515/354/254 523/366/254 524/367/254 516/355/254
f 516/355/253 524/367/253 525/368/253 517/357/253
f 517/357/252 525/368/252 526/369/252 518/359/252
f 518/359/251 526/369/251 519/361/251 511/344/251
f 519/361/258 527/370/258 528/371/258 520/362/258
f 520/362/257 528/371/257 529/175/257 521/363/257
f 521/363/256 529/175/256 530/372/256 522/364/256
f 522/364/255 530/372/255 531/373/255 523/365/255
f 523/366/262 531/374/262 532/375/262 524/367/262
f 524/367/261 532/375/261 533/173/261 525/368/261
f 525/368/260 533/173/260 534/376/260 526/369/260
f 526/369/259 534/376/259 527/370/259 519/361/259
f 527/370/266 535/377/266 536/378/266 528/371/266
f 528/371/265 536/378/265 537/379/265 529/175/265
f 529/175/264 537/379/264 538/380/264 530/372/264
f 530/372/263 538/380/263 539/381/263 531/373/263
f 531/374/270 539/382/270 540/383/270 532/375/270
f 532/375/269 540/383/269 541/384/269 533/173/269
f 533/173/268 541/384/268 542/385/268 534/376/268
f 534/376/267 542/385/267 535/377/267 527/370/267
f 535/377/274 543/139/274 544/386/274 536/378/274
f 536/378/273 544/386/273 545/141/273 537/379/273
f 537/379/272 545/141/272 546/387/272 538/380/272
f 538/380/271 546/387/271 547/388/271 539/381/271
f 539/382/278 547/389/278 548/390/278 540/383/278
f 540/383/277 548/390/277 549/151/277 541/384/277
f 541/384/276 549/151/276 550/391/276 542/385/276
f 542/385/275 550/391/275 543/139/275 535/377/275
f 543/139/282 551/134/282 552/392/282 544/386/282
f 544/386/281 552/392/281 553/135/281 545/141/281
f 545/141/280 553/135/280 554/393/280 546/387/280
f 546/387/279 554/393/279 555/394/279 547/388/279
f 547/389/286 555/395/286 556/396/286 548/390/286
f 548/390/285 556/396/285 557/133/285 549/151/285
f 549/151/284 557/133/284 558/397/284 550/391/284
f 550/391/283 558/397/283 551/134/283 543/139/283
f 551/134/290 559/116/290 560/398/290 552/392/290
f 552/392/289 560/398/289 561/118/289 553/135/289
f 553/135/288 561/118/288 562/399/288 554/393/288
f 554/393/287 562/399/287 563/400/287 555/394/287
f 555/395/294 563/401/294 564/402/294 556/396/294
f 556/396/293 564/402/293 565/119/293 557/133/293
f 557/133/292 565/119/292 566/403/292 558/397/292
f 558/397/291 566/403/291 559/116/291 551/134/291
f 559/116/298 567/404/298 568/405/298 560/398/298
f 560/398/297 568/405/297 569/102/297 561/118/297
f 561/118/296 569/102/296 570/406/296 562/399/296
f 562/399/295 570/406/295 571/407/295 563/400/295
f 563/401/302 571/408/302 572/409/302 564/402/302
f 564/402/301 572/409/301 573/113/301 565/119/301
f 565/119/300 573/113/300 574/410/300 566/403/300
f 566/403/299 574/410/299 567/404/299 559/116/299
f 567/404/306 575/97/306 576/411/306 568/405/306
f 568/405/305 576/411/305 577/412/305 569/102/305
f 569/102/304 577/412/304 578/413/304 570/406/304
f 570/406/303 578/413/303 579/414/303 571/407/303
f 571/408/310 579/415/310 580/416/310 572/409/310
f 572/409/309 580/416/309 581/417/309 573/113/309
f 573/113/308 581/417/308 582/418/308 574/410/308
f 574/410/307 582/418/307 575/97/307 567/404/307
f 575/97/314 583/80/314 584/419/314 576/411/314
f 576/411/313 584/419/313 585/77/313 577/412/313
f 577/412/312 585/77/312 586/420/312 578/413/312
f 578/413/311 586/420/311 587/421/311 579/414/311
f 579/415/318 587/422/318 588/423/318 580/416/318
f 580/416/317 588/423/317 589/78/317 581/417/317
f 581/417/316 589/78/316 590/424/316 582/418/316
f 582/418/315 590/424/315 583/80/315 575/97/315
f 583/80/322 431/75/322 432/283/322 584/419/322
f 584/419/321 432/283/321 433/63/321 585/77/321
f 585/77/320 433/63/320 434/285/320 586/420/320
f 586/420/319 434/285/319 435/287/319 587/421/319
f 587/422/326 435/288/326 436/291/326 588/423/326
f 588/423/325 436/291/325 437/74/325 589/78/325
f 589/78/324 437/74/324 438/293/324 590/424/324
f 590/424/323 438/293/323 431/75/323 583/80/323
f 739/1/1 740/2/1 742/3/1 741/4/1
f 741/4/2 742/3/2 746/5/2 745/6/2
f 745/6/3 746/5/3 744/7/3 743/8/3
f 743/8/4 744/7/4 740/9/4 739/10/4
f 741/11/5 745/6/5 743/8/5 739/12/5
f 746/5/6 742/13/6 740/14/6 744/7/6
f 747/1/1 748/2/1 750/3/1 749/4/1
f 749/4/2 750/3/2 754/5/2 753/6/2
f 753/6/3 754/5/3 752/7/3 751/8/3
f 751/8/4 752/7/4 748/9/4 747/10/4
f 749/11/5 753/6/5 751/8/5 747/12/5
f 754/5/6 750/13/6 748/14/6 752/7/6
f 787/222/385 788/339/385 790/327/385 789/246/385
f 789/246/386 790/327/386 792/595/386 791/271/386
f 791/271/5 792/595/5 794/596/5 793/597/5
f 793/597/387 794/596/387 796/598/387 795/599/387
f 795/599/388 796/598/388 798/600/388 797/601/388
f 797/601/389 798/600/389 800/602/389 799/603/389
f 799/603/390 800/602/390 802/604/390 801/605/390
f 801/605/6 802/604/6 804/606/6 803/607/6
f 790/608/3 788/532/3 806/609/3 804/610/3 802/611/3 800/612/3 798/535/3 796/613/3 794/614/3 792/615/3
f 803/607/391 804/606/391 806/616/391 805/617/391
f 805/617/392 806/616/392 788/618/392 787/619/392
f 787/541/1 789/620/1 791/621/1 793/622/1 795/623/1 797/544/1 799/624/1 801/625/1 803/626/1 805/627/1
f 807/222/385 808/339/385 810/327/385 809/246/385
f 809/246/386 810/327/386 812/595/386 811/271/386
f 811/271/5 812/595/5 814/596/5 813/597/5
f 813/597/387 814/596/387 816/598/387 815/599/387
f 815/599/388 816/598/388 818/600/388 817/601/388
f 817/601/389 818/600/389 820/602/389 819/603/389
f 819/603/390 820/602/390 822/604/390 821/605/390
f 821/605/6 822/604/6 824/606/6 823/607/6
f 810/608/3 808/532/3 826/609/3 824/610/3 822/611/3 820/612/3 818/535/3 816/613/3 814/614/3 812/615/3
f 823/607/391 824/606/391 826/616/391 825/617/391
f 825/617/392 826/616/392 808/618/392 807/619/392
f 807/541/1 809/620/1 811/621/1 813/622/1 815/623/1 817/544/1 819/624/1 821/625/1 823/626/1 825/627/1
f 867/222/385 868/339/385 870/327/385 869/246/385
f 869/246/386 870/327/386 872/595/386 871/271/386
f 871/271/5 872/595/5 874/596/5 873/597/5
f 873/597/387 874/596/387 876/598/387 875/599/387
f 875/599/388 876/598/388 878/600/388 877/601/388
f 877/601/389 878/600/389 880/602/389 879/603/389
f 879/603/390 880/602/390 882/604/390 881/605/390
f 881/605/6 882/604/6 884/606/6 883/607/6
f 870/608/3 868/532/3 886/609/3 884/610/3 882/611/3 880/612/3 878/535/3 876/613/3 874/614/3 872/615/3
f 883/607/391 884/606/391 886/616/391 885/617/391
f 885/617/392 886/616/392 868/618/392 867/619/392
f 867/541/1 869/620/1 871/621/1 873/622/1 875/623/1 877/544/1 879/624/1 881/625/1 883/626/1 885/627/1
f 887/222/385 888/339/385 890/327/385 889/246/385
f 889/246/386 890/327/386 892/595/386 891/271/386
f 891/271/5 892/595/5 894/596/5 893/597/5
f 893/597/387 894/596/387 896/598/387 895/599/387
f 895/599/388 896/598/388 898/600/388 897/601/388
f 897/601/389 898/600/389 900/602/389 899/603/389
f 899/603/390 900/602/390 902/604/390 901/605/390
f 901/605/6 902/604/6 904/606/6 903/607/6
f 890/608/3 888/532/3 906/609/3 904/610/3 902/611/3 900/612/3 898/535/3 896/613/3 894/614/3 892/615/3
f 903/607/391 904/606/391 906/616/391 905/617/391
f 905/617/392 906/616/392 888/618/392 887/619/392
f 887/541/1 889/620/1 891/621/1 893/622/1 895/623/1 897/544/1 899/624/1 901/625/1 903/626/1 905/627/1
usemtl TrimSteel
f 591/75/329 597/58/329 598/425/329 592/426/329
f 592/426/3 598/425/3 599/427/3 593/428/3
f 593/428/330 599/427/330 600/286/330 594/287/330
f 594/429/331 600/430/331 601/431/331 595/432/331
f 595/432/1 601/431/1 602/433/1 596/434/1
f 596/434/332 602/433/332 597/58/332 591/75/332
f 597/58/333 603/43/333 604/435/333 598/425/333
f 598/425/3 604/435/3 605/436/3 599/427/3
f 599/427/334 605/436/334 606/296/334 600/286/334
f 600/430/335 606/437/335 607/438/335 601/431/335
f 601/431/1 607/438/1 608/439/1 602/433/1
f 602/433/336 608/439/336 603/43/336 597/58/336
f 603/43/337 609/31/337 610/440/337 604/435/337
f 604/435/3 610/440/3 611/441/3 605/436/3
f 605/436/338 611/441/338 612/302/338 606/296/338
f 606/437/339 612/442/339 613/443/339 607/438/339
f 607/438/1 613/443/1 614/444/1 608/439/1
f 608/439/340 614/444/340 609/31/340 603/43/340
f 609/31/341 615/30/341 616/445/341 610/440/341
f 610/440/3 616/445/3 617/446/3 611/441/3
f 611/441/342 617/446/342 618/308/342 612/302/342
f 612/442/343 618/447/343 619/448/343 613/443/343
f 613/443/1 619/448/1 620/449/1 614/444/1
f 614/444/344 620/449/344 615/30/344 609/31/344
f 615/30/345 621/312/345 622/450/345 616/445/345
f 616/445/3 622/450/3 623/451/3 617/446/3
f 617/446/346 623/451/346 624/315/346 618/308/346
f 618/447/347 624/452/347 625/453/347 619/448/347
f 619/448/1 625/453/1 626/454/1 620/449/1
f 620/449/348 626/454/348 621/312/348 615/30/348
f 621/312/349 627/265/349 628/455/349 622/450/349
f 622/450/3 628/455/3 629/263/3 623/451/3
f 623/451/350 629/263/350 630/321/350 624/315/350
f 624/452/351 630/456/351 631/457/351 625/453/351
f 625/453/1 631/457/1 632/458/1 626/454/1
f 626/454/352 632/458/352 627/265/352 621/312/352
f 627/265/353 633/246/353 634/459/353 628/455/353
f 628/455/3 634/459/3 635/242/3 629/263/3
f 629/263/354 635/242/354 636/327/354 630/321/354
f 630/456/355 636/460/355 637/461/355 631/457/355
f 631/457/1 637/461/1 638/462/1 632/458/1
f 632/458/356 638/462/356 633/246/356 627/265/356
f 633/246/357 639/223/357 640/463/357 634/459/357
f 634/459/3 640/463/3 641/240/3 635/242/3
f 635/242/358 641/240/358 642/333/358 636/327/358
f 636/460/359 642/464/359 643/465/359 637/461/359
f 637/461/1 643/465/1 644/466/1 638/462/1
f 638/462/360 644/466/360 639/223/360 633/246/360
f 639/223/361 645/222/361 646/467/361 640/463/361
f 640/463/3 646/467/3 647/239/3 641/240/3
f 641/240/362 647/239/362 648/339/362 642/333/362
f 642/464/363 648/468/363 649/469/363 643/465/363
f 643/465/1 649/469/1 650/470/1 644/466/1
f 644/466/364 650/470/364 645/222/364 639/223/364
f 645/343/365 651/344/365 652/471/365 646/472/365
f 646/472/3 652/471/3 653/473/3 647/474/3
f 647/474/366 653/473/366 654/351/366 648/352/366
f 648/475/367 654/476/367 655/477/367 649/478/367
f 649/478/1 655/477/1 656/479/1 650/480/1
f 650/480/368 656/479/368 651/344/368 645/343/368
f 651/344/330 657/361/330 658/481/330 652/471/330
f 652/471/3 658/481/3 659/482/3 653/473/3
f 653/473/329 659/482/329 660/365/329 654/351/329
f 654/476/332 660/483/332 661/484/332 655/477/332
f 655/477/1 661/484/1 662/485/1 656/479/1
f 656/479/331 662/485/331 657/361/331 651/344/331
f 657/361/334 663/370/334 664/486/334 658/481/334
f 658/481/3 664/486/3 665/487/3 659/482/3
f 659/482/333 665/487/333 666/373/333 660/365/333
f 660/483/336 666/488/336 667/489/336 661/484/336
f 661/484/1 667/489/1 668/490/1 662/485/1
f 662/485/335 668/490/335 663/370/335 657/361/335
f 663/370/338 669/377/338 670/491/338 664/486/338
f 664/486/3 670/491/3 671/492/3 665/487/3
f 665/487/337 671/492/337 672/381/337 666/373/337
f 666/488/340 672/493/340 673/494/340 667/489/340
f 667/489/1 673/494/1 674/495/1 668/490/1
f 668/490/339 674/495/339 669/377/339 663/370/339
f 669/377/342 675/139/342 676/496/342 670/491/342
f 670/491/3 676/496/3 677/150/3 671/492/3
f 671/492/341 677/150/341 678/388/341 672/381/341
f 672/493/344 678/497/344 679/498/344 673/494/344
f 673/494/1 679/498/1 680/499/1 674/495/1
f 674/495/343 680/499/343 675/139/343 669/377/343
f 675/139/346 681/134/346 682/500/346 676/496/346
f 676/496/3 682/500/3 683/131/3 677/150/3
f 677/150/345 683/131/345 684/394/345 678/388/345
f 678/497/348 684/501/348 685/502/348 679/498/348
f 679/498/1 685/502/1 686/503/1 680/499/1
f 680/499/347 686/503/347 681/134/347 675/139/347
f 681/134/350 687/116/350 688/504/350 682/500/350
f 682/500/3 688/504/3 689/117/3 683/131/3
f 683/131/349 689/117/349 690/400/349 684/394/349
f 684/501/352 690/505/352 691/506/352 685/502/352
f 685/502/1 691/506/1 692/507/1 686/503/1
f 686/503/351 692/507/351 687/116/351 681/134/351
f 687/116/354 693/404/354 694/508/354 688/504/354
f 688/504/3 694/508/3 695/509/3 689/117/3
f 689/117/353 695/509/353 696/407/353 690/400/353
f 690/505/356 696/510/356 697/511/356 691/506/356
f 691/506/1 697/511/1 698/512/1 692/507/1
f 692/507/355 698/512/355 693/404/355 687/116/355
f 693/404/358 699/97/358 700/513/358 694/508/358
f 694/508/3 700/513/3 701/514/3 695/509/3
f 695/509/357 701/514/357 702/414/357 696/407/357
f 696/510/360 702/515/360 703/516/360 697/511/360
f 697/511/1 703/516/1 704/517/1 698/512/1
f 698/512/359 704/517/359 699/97/359 693/404/359
f 699/97/362 705/80/362 706/518/362 700/513/362
f 700/513/3 706/518/3 707/519/3 701/514/3
f 701/514/361 707/519/361 708/421/361 702/414/361
f 702/515/364 708/520/364 709/521/364 703/516/364
f 703/516/1 709/521/1 710/522/1 704/517/1
f 704/517/363 710/522/363 705/80/363 699/97/363
f 705/80/366 591/75/366 592/426/366 706/518/366
f 706/518/3 592/426/3 593/428/3 707/519/3
f 707/519/365 593/428/365 594/287/365 708/421/365
f 708/520/368 594/429/368 595/432/368 709/521/368
f 709/521/1 595/432/1 596/434/1 710/522/1
f 710/522/367 596/434/367 591/75/367 705/80/367
