# Blender v2.82 (sub 7) OBJ File: ''
# www.blender.org
mtllib Test.mtl
o Cube
v 0.216975 0.601088 -5.656885
v 0.216975 0.902542 -5.960088
v 0.216975 0.376485 5.898829
v 0.216975 0.288227 6.317180
v -0.216975 0.601088 -5.656885
v -0.216975 0.902542 -5.960088
v -0.216975 0.376485 5.898829
v -0.216975 0.288227 6.317180
v -0.216975 -0.213779 -0.004208
v 0.216975 0.213779 -0.004208
v -0.216975 0.213779 -0.004208
v 0.216975 -0.213779 -0.004208
v 0.216975 0.751815 -5.808486
v -0.216975 0.332356 6.108005
v 0.216975 0.332356 6.108005
v -0.216975 0.751815 -5.808486
v 0.216975 0.000000 -0.004208
v -0.216975 0.000000 -0.004208
v -0.216975 -0.213779 5.568297
v 0.216975 0.213779 5.568297
v -0.216975 0.213779 5.568297
v 0.216975 -0.213779 5.568297
v -0.216975 0.000000 5.568297
v 0.216975 0.000000 5.568297
v -0.216975 0.213779 -5.422135
v 0.216975 -0.213779 -5.422135
v -0.216975 -0.213779 -5.422135
v 0.216975 0.213779 -5.422135
v 0.216975 0.000000 -5.422135
v -0.216975 0.000000 -5.422135
v -0.216975 0.123242 6.071058
v 0.216975 0.323012 5.790199
v 0.216975 0.223127 5.930629
v -0.216975 0.323012 5.790199
v 0.216975 0.123242 6.071058
v -0.216975 0.223127 5.930629
v -0.216975 0.369539 -5.607752
v 0.216975 0.106767 -5.867897
v -0.216975 0.238153 -5.737825
v -0.216975 0.106767 -5.867897
v 0.216975 0.369539 -5.607752
v 0.216975 0.238153 -5.737825
v 0.216975 0.858127 -5.275370
v 0.216975 0.982253 -5.684515
v -0.216975 0.858127 -5.275370
v -0.216975 0.982253 -5.684515
v 0.216975 0.920190 -5.479942
v -0.216975 0.920190 -5.479942
v 0.216975 1.288079 -5.204363
v 0.216975 1.101299 -5.588967
v -0.216975 1.288079 -5.204363
v -0.216975 1.101299 -5.588967
v 0.216975 1.194689 -5.396665
v -0.216975 1.194689 -5.396665
v 0.216975 1.410534 -5.349816
v 0.216975 1.587424 -5.739068
v -0.216975 1.410534 -5.349816
v -0.216975 1.587424 -5.739068
v 0.216975 1.498979 -5.544442
v -0.216975 1.498979 -5.544442
v 0.216975 1.666362 -5.285709
v 0.216975 2.048563 -5.477358
v -0.216975 1.666362 -5.285709
v -0.216975 2.048563 -5.477358
v 0.216975 1.857463 -5.381534
v -0.216975 1.857463 -5.381534
v 0.216975 1.861149 -5.010426
v 0.216975 2.276603 -4.909408
v -0.216975 1.861149 -5.010426
v -0.216975 2.276603 -4.909408
v 0.216975 2.068876 -4.959917
v -0.216975 2.068876 -4.959917
v 0.216975 1.700166 -4.047330
v 0.216975 2.052638 -4.289344
v -0.216975 1.700166 -4.047330
v -0.216975 2.052638 -4.289344
v 0.216975 1.876402 -4.168337
v -0.216975 1.876402 -4.168337
v 0.216975 2.047834 -3.588284
v 0.216975 2.473431 -3.629200
v -0.216975 2.047834 -3.588284
v -0.216975 2.473431 -3.629200
v 0.216975 2.260633 -3.608742
v -0.216975 2.260633 -3.608742
v 0.216975 2.160641 -3.115962
v 0.216975 2.482439 -2.834443
v -0.216975 2.160641 -3.115962
v -0.216975 2.482439 -2.834443
v 0.216975 2.321540 -2.975202
v -0.216975 2.321540 -2.975202
v 0.216975 1.499144 -2.264956
v 0.216975 1.925782 -2.293006
v -0.216975 1.499144 -2.264956
v -0.216975 1.925782 -2.293006
v 0.216975 1.712463 -2.278981
v -0.216975 1.712463 -2.278981
v 0.216975 1.628416 -1.383190
v 0.216975 1.892176 -1.719698
v -0.216975 1.628416 -1.383190
v -0.216975 1.892176 -1.719698
v 0.216975 1.760296 -1.551444
v -0.216975 1.760296 -1.551444
v 0.216975 2.022317 -1.187375
v 0.216975 2.449520 -1.169912
v -0.216975 2.022317 -1.187375
v -0.216975 2.449520 -1.169912
v 0.216975 2.235919 -1.178643
v -0.216975 2.235919 -1.178643
v 0.216975 2.035224 -1.108173
v 0.216975 2.423537 -0.929231
v -0.216975 2.035224 -1.108173
v -0.216975 2.423537 -0.929231
v 0.216975 2.229381 -1.018702
v -0.216975 2.229381 -1.018702
v 0.216975 1.971741 -0.940511
v 0.216975 2.276996 -0.641135
v -0.216975 1.971741 -0.940511
v -0.216975 2.276996 -0.641135
v 0.216975 2.124369 -0.790823
v -0.216975 2.124369 -0.790823
v 0.216975 1.568894 -0.388790
v 0.216975 1.985513 -0.484892
v -0.216975 1.568894 -0.388790
v -0.216975 1.985513 -0.484892
v 0.216975 1.777204 -0.436841
v -0.216975 1.777204 -0.436841
v 0.216975 1.774269 0.372956
v 0.216975 2.086306 0.080655
v -0.216975 1.774269 0.372956
v -0.216975 2.086306 0.080655
v 0.216975 1.930287 0.226805
v -0.216975 1.930287 0.226805
v 0.216975 2.063510 0.620135
v 0.216975 2.488278 0.571358
v -0.216975 2.063510 0.620135
v -0.216975 2.488278 0.571358
v 0.216975 2.275894 0.595747
v -0.216975 2.275894 0.595747
v 0.216975 2.162895 1.236602
v 0.216975 2.555515 1.405886
v -0.216975 2.162895 1.236602
v -0.216975 2.555515 1.405886
v 0.216975 2.359205 1.321244
v -0.216975 2.359205 1.321244
v 0.216975 1.920543 1.901337
v 0.216975 2.139224 2.268741
v -0.216975 1.920543 1.901337
v -0.216975 2.139224 2.268741
v 0.216975 2.029883 2.085039
v -0.216975 2.029883 2.085039
v 0.216975 1.264691 2.355972
v 0.216975 1.673323 2.481778
v -0.216975 1.264691 2.355972
v -0.216975 1.673323 2.481778
v 0.216975 1.469007 2.418876
v -0.216975 1.469007 2.418876
v 0.216975 1.081859 3.227116
v 0.216975 1.433408 2.983764
v -0.216975 1.081859 3.227116
v -0.216975 1.433408 2.983764
v 0.216975 1.257634 3.105440
v -0.216975 1.257634 3.105440
v 0.216975 1.484120 3.749361
v 0.216975 1.911370 3.733100
v -0.216975 1.484120 3.749361
v -0.216975 1.911370 3.733100
v 0.216975 1.697746 3.741231
v -0.216975 1.697746 3.741231
v 0.216975 1.595218 4.669024
v 0.216975 1.858061 4.331800
v -0.216975 1.595218 4.669024
v -0.216975 1.858061 4.331800
v 0.216975 1.726640 4.500412
v -0.216975 1.726640 4.500412
v 0.216975 2.094915 4.943398
v 0.216975 2.521960 4.964367
v -0.216975 2.094915 4.943398
v -0.216975 2.521960 4.964367
v 0.216975 2.308437 4.953882
v -0.216975 2.308437 4.953882
v 0.216975 2.119341 5.607400
v 0.216975 2.418346 5.913018
v -0.216975 2.119341 5.607400
v -0.216975 2.418346 5.913018
v 0.216975 2.268844 5.760209
v -0.216975 2.268844 5.760209
v 0.216975 1.640074 6.124716
v 0.216975 1.723954 6.543966
v -0.216975 1.640074 6.124716
v -0.216975 1.723954 6.543966
v 0.216975 1.682014 6.334341
v -0.216975 1.682014 6.334341
v 0.216975 1.236818 6.236804
v 0.216975 1.091830 6.639030
v -0.216975 1.236818 6.236804
v -0.216975 1.091830 6.639030
v 0.216975 1.164324 6.437917
v -0.216975 1.164324 6.437917
v 0.216975 0.714353 6.049135
v 0.216975 0.539137 6.439142
v -0.216975 0.714353 6.049135
v -0.216975 0.539137 6.439142
v 0.216975 0.626745 6.244139
v -0.216975 0.626745 6.244139
vt 0.625000 0.729459
vt 0.875000 0.729459
vt 0.875000 0.750000
vt 0.625000 0.750000
vt 0.500000 0.750000
vt 0.625000 1.000000
vt 0.500000 1.000000
vt 0.500000 0.229561
vt 0.625000 0.229561
vt 0.625000 0.250000
vt 0.500000 0.250000
vt 0.125000 0.729459
vt 0.375000 0.729459
vt 0.375000 0.750000
vt 0.125000 0.750000
vt 0.500000 0.729459
vt 0.625000 0.500000
vt 0.500000 0.500000
vt 0.500000 0.500000
vt 0.625000 0.500000
vt 0.500000 0.562500
vt 0.625000 0.562500
vt 0.625000 0.625000
vt 0.500000 0.625000
vt 0.125000 0.562500
vt 0.375000 0.562500
vt 0.375000 0.625000
vt 0.125000 0.625000
vt 0.500000 0.062500
vt 0.625000 0.062500
vt 0.625000 0.125000
vt 0.500000 0.125000
vt 0.875000 0.562500
vt 0.875000 0.625000
vt 0.375000 0.062500
vt 0.375000 0.125000
vt 0.375000 0.500000
vt 0.375000 0.500000
vt 0.375000 0.229561
vt 0.375000 0.250000
vt 0.375000 1.000000
vt 0.500000 0.687500
vt 0.375000 0.687500
vt 0.375000 0.020541
vt 0.500000 0.020541
vt 0.625000 0.020541
vt 0.625000 0.687500
vt 0.125000 0.687500
vt 0.875000 0.687500
vt 0.500000 0.187500
vt 0.375000 0.187500
vt 0.375000 0.520439
vt 0.500000 0.520439
vt 0.625000 0.520439
vt 0.875000 0.520439
vt 0.125000 0.520439
vt 0.625000 0.187500
vt 0.500000 0.000000
vt 0.625000 0.000000
vt 0.375000 0.000000
vt 0.125000 0.500000
vt 0.875000 0.500000
vt 0.500000 0.500000
vt 0.625000 0.500000
vt 0.375000 0.500000
vt 0.500000 0.250000
vt 0.375000 0.250000
vt 0.625000 0.250000
vt 0.125000 0.500000
vt 0.875000 0.500000
vt 0.500000 0.250000
vt 0.625000 0.250000
vt 0.625000 0.250000
vt 0.500000 0.250000
vt 0.125000 0.500000
vt 0.125000 0.500000
vt 0.375000 0.500000
vt 0.375000 0.250000
vt 0.875000 0.500000
vt 0.375000 0.250000
vt 0.500000 0.250000
vt 0.375000 0.250000
vt 0.625000 0.500000
vt 0.500000 0.500000
vt 0.500000 0.500000
vt 0.625000 0.500000
vt 0.875000 0.500000
vt 0.875000 0.500000
vt 0.625000 0.500000
vt 0.875000 0.500000
vt 0.625000 0.250000
vt 0.625000 0.250000
vt 0.500000 0.250000
vt 0.125000 0.500000
vt 0.375000 0.500000
vt 0.375000 0.250000
vt 0.500000 0.250000
vt 0.375000 0.250000
vt 0.500000 0.500000
vt 0.500000 0.500000
vt 0.625000 0.500000
vt 0.375000 0.500000
vt 0.125000 0.500000
vt 0.875000 0.500000
vt 0.625000 0.500000
vt 0.875000 0.500000
vt 0.625000 0.250000
vt 0.625000 0.250000
vt 0.500000 0.250000
vt 0.125000 0.500000
vt 0.375000 0.500000
vt 0.375000 0.250000
vt 0.500000 0.250000
vt 0.375000 0.250000
vt 0.500000 0.500000
vt 0.500000 0.500000
vt 0.625000 0.500000
vt 0.375000 0.500000
vt 0.125000 0.500000
vt 0.875000 0.500000
vt 0.625000 0.500000
vt 0.875000 0.500000
vt 0.625000 0.250000
vt 0.625000 0.250000
vt 0.500000 0.250000
vt 0.125000 0.500000
vt 0.375000 0.500000
vt 0.375000 0.250000
vt 0.500000 0.250000
vt 0.375000 0.250000
vt 0.500000 0.500000
vt 0.500000 0.500000
vt 0.625000 0.500000
vt 0.375000 0.500000
vt 0.125000 0.500000
vt 0.375000 0.500000
vt 0.375000 0.500000
vt 0.500000 0.500000
vt 0.875000 0.500000
vt 0.625000 0.500000
vt 0.875000 0.500000
vt 0.125000 0.500000
vt 0.625000 0.250000
vt 0.125000 0.500000
vt 0.125000 0.500000
vt 0.375000 0.500000
vt 0.375000 0.250000
vt 0.500000 0.250000
vt 0.500000 0.250000
vt 0.375000 0.250000
vt 0.625000 0.250000
vt 0.625000 0.500000
vt 0.500000 0.500000
vt 0.500000 0.500000
vt 0.625000 0.500000
vt 0.375000 0.500000
vt 0.625000 0.250000
vt 0.875000 0.500000
vt 0.500000 0.250000
vt 0.625000 0.250000
vt 0.625000 0.250000
vt 0.500000 0.250000
vt 0.125000 0.500000
vt 0.125000 0.500000
vt 0.375000 0.500000
vt 0.375000 0.250000
vt 0.875000 0.500000
vt 0.375000 0.250000
vt 0.500000 0.250000
vt 0.375000 0.250000
vt 0.625000 0.500000
vt 0.500000 0.500000
vt 0.500000 0.500000
vt 0.625000 0.500000
vt 0.875000 0.500000
vt 0.875000 0.500000
vt 0.625000 0.500000
vt 0.875000 0.500000
vt 0.625000 0.250000
vt 0.625000 0.250000
vt 0.500000 0.250000
vt 0.125000 0.500000
vt 0.375000 0.500000
vt 0.375000 0.250000
vt 0.500000 0.250000
vt 0.375000 0.250000
vt 0.500000 0.500000
vt 0.500000 0.500000
vt 0.625000 0.500000
vt 0.375000 0.500000
vt 0.125000 0.500000
vt 0.875000 0.500000
vt 0.625000 0.500000
vt 0.875000 0.500000
vt 0.625000 0.250000
vt 0.625000 0.250000
vt 0.500000 0.250000
vt 0.125000 0.500000
vt 0.375000 0.500000
vt 0.375000 0.250000
vt 0.500000 0.250000
vt 0.375000 0.250000
vt 0.500000 0.500000
vt 0.500000 0.500000
vt 0.625000 0.500000
vt 0.375000 0.500000
vt 0.125000 0.500000
vt 0.875000 0.500000
vt 0.625000 0.500000
vt 0.875000 0.500000
vt 0.625000 0.250000
vt 0.625000 0.250000
vt 0.500000 0.250000
vt 0.125000 0.500000
vt 0.375000 0.500000
vt 0.375000 0.250000
vt 0.500000 0.250000
vt 0.375000 0.250000
vt 0.500000 0.500000
vt 0.500000 0.500000
vt 0.625000 0.500000
vt 0.375000 0.500000
vt 0.125000 0.500000
vt 0.375000 0.500000
vt 0.375000 0.500000
vt 0.500000 0.500000
vt 0.875000 0.500000
vt 0.625000 0.500000
vt 0.875000 0.500000
vt 0.125000 0.500000
vt 0.625000 0.250000
vt 0.125000 0.500000
vt 0.125000 0.500000
vt 0.375000 0.500000
vt 0.375000 0.250000
vt 0.500000 0.250000
vt 0.500000 0.250000
vt 0.375000 0.250000
vt 0.625000 0.250000
vt 0.625000 0.500000
vt 0.500000 0.500000
vt 0.500000 0.500000
vt 0.625000 0.500000
vt 0.375000 0.500000
vt 0.625000 0.250000
vt 0.875000 0.500000
vt 0.500000 0.250000
vt 0.625000 0.250000
vt 0.625000 0.250000
vt 0.500000 0.250000
vt 0.125000 0.500000
vt 0.125000 0.500000
vt 0.375000 0.500000
vt 0.375000 0.250000
vt 0.875000 0.500000
vt 0.375000 0.250000
vt 0.500000 0.250000
vt 0.375000 0.250000
vt 0.625000 0.500000
vt 0.500000 0.500000
vt 0.500000 0.500000
vt 0.625000 0.500000
vt 0.875000 0.500000
vt 0.875000 0.500000
vt 0.625000 0.500000
vt 0.875000 0.500000
vt 0.625000 0.250000
vt 0.625000 0.250000
vt 0.500000 0.250000
vt 0.125000 0.500000
vt 0.375000 0.500000
vt 0.500000 0.500000
vt 0.375000 0.250000
vt 0.375000 0.500000
vt 0.125000 0.500000
vt 0.000000 0.000000
vt 0.000000 0.000000
vt 0.000000 0.000000
vt 0.000000 0.000000
vt 0.000000 0.000000
vt 0.000000 0.000000
vt 0.000000 0.000000
vt 0.000000 0.000000
vt 0.000000 0.000000
vt 0.000000 0.000000
vt 0.000000 0.000000
vt 0.000000 0.000000
vn 0.0000 0.8972 -0.4416
vn 0.0000 0.9785 0.2064
vn -1.0000 -0.0000 0.0000
vn 0.0000 -0.8306 0.5568
vn 1.0000 0.0000 0.0000
vn 0.0000 -1.0000 0.0000
vn 0.0000 1.0000 0.0000
vn 0.0000 0.7660 0.6428
vn 0.0000 -0.8119 -0.5838
vn -0.0000 -0.1151 -0.9934
vn 0.0000 0.2076 0.9782
vn 0.0000 0.9606 -0.2779
vn 0.0000 -0.8293 0.5588
vn 0.0000 -0.2950 -0.9555
vn 0.0000 0.6259 -0.7799
vn 0.0000 -0.1629 0.9866
vn 0.0000 0.7650 0.6440
vn 0.0000 -0.8163 0.5776
vn 0.0000 0.4936 -0.8697
vn 0.0000 -0.2431 0.9700
vn 0.0000 0.9280 -0.3726
vn 0.0000 -0.7972 0.6038
vn 0.0000 0.9405 0.3397
vn 0.0000 -0.9863 -0.1649
vn 0.0000 0.8433 -0.5375
vn 0.0000 -0.7895 -0.6137
vn 0.0000 0.9999 -0.0113
vn 0.0000 -0.9726 0.2323
vn 0.0000 0.6972 0.7168
vn 0.0000 -0.4451 0.8955
vn 0.0000 0.9983 0.0585
vn 0.0000 -0.9894 0.1451
vn 0.0000 0.9942 0.1073
vn 0.0000 0.7023 -0.7119
vn 0.0000 -0.9870 0.1608
vn 0.0000 0.4724 0.8814
vn 0.0000 0.8913 0.4534
vn 0.0000 -0.9352 -0.3541
vn 0.0000 -0.8076 -0.5897
vn 0.0000 -0.6497 0.7602
vn 0.0000 0.9845 -0.1755
vn 0.0000 -0.9655 0.2603
vn 0.0000 0.7736 -0.6337
vn 0.0000 -0.9395 -0.3425
vn 0.0000 0.9968 -0.0803
vn 0.0000 -0.9873 0.1592
vn 0.0000 0.9007 0.4345
vn 0.0000 -0.9787 -0.2054
vn 0.0000 0.4158 0.9094
vn 0.0000 -0.5697 -0.8218
vn 0.0000 0.9022 0.4312
vn 0.0000 -0.9928 0.1199
vn 0.0000 0.8431 -0.5378
vn 0.0000 -0.7922 0.6102
vn 0.0000 0.6898 -0.7240
vn 0.0000 0.9961 0.0887
vn 0.0000 -0.4813 0.8766
vn 0.0000 0.6725 0.7401
vn 0.0000 0.9941 0.1086
vn 0.0000 -0.9993 0.0368
vn 0.0000 -0.7336 -0.6796
vn 0.0000 0.3381 -0.9411
vn 0.0000 0.1487 0.9889
vn 0.0000 -0.2678 -0.9635
vn 0.0000 0.9122 0.4098
vn 0.0000 -0.3401 0.9404
vn 0.0000 0.4065 -0.9137
vn 0.0000 -0.4372 0.8994
usemtl Material
s off
f 32/1/1 34/2/1 7/3/1 3/4/1
f 15/5/2 3/4/2 7/6/2 14/7/2
f 39/8/3 37/9/3 5/10/3 16/11/3
f 31/12/4 35/13/4 4/14/4 8/15/4
f 33/16/5 32/1/5 3/4/5 15/5/5
f 1/17/5 13/18/5 47/19/5 43/20/5
f 29/21/5 28/22/5 10/23/5 17/24/5
f 27/25/6 26/26/6 12/27/6 9/28/6
f 23/29/3 21/30/3 11/31/3 18/32/3
f 28/22/7 25/33/7 11/34/7 10/23/7
f 19/35/3 23/29/3 18/32/3 9/36/3
f 26/26/5 29/21/5 17/24/5 12/27/5
f 13/18/5 2/37/5 44/38/5 47/19/5
f 35/13/5 33/16/5 15/5/5 4/14/5
f 40/39/3 39/8/3 16/11/3 6/40/3
f 4/14/2 15/5/2 14/7/2 8/41/2
f 12/27/5 17/24/5 24/42/5 22/43/5
f 31/44/3 36/45/3 23/29/3 19/35/3
f 36/45/3 34/46/3 21/30/3 23/29/3
f 17/24/5 10/23/5 20/47/5 24/42/5
f 9/28/6 12/27/6 22/43/6 19/48/6
f 10/23/7 11/34/7 21/49/7 20/47/7
f 9/36/3 18/32/3 30/50/3 27/51/3
f 38/52/5 42/53/5 29/21/5 26/26/5
f 41/54/8 37/55/8 25/33/8 28/22/8
f 40/56/9 38/52/9 26/26/9 27/25/9
f 42/53/5 41/54/5 28/22/5 29/21/5
f 18/32/3 11/31/3 25/57/3 30/50/3
f 14/58/3 7/59/3 34/46/3 36/45/3
f 8/60/3 14/58/3 36/45/3 31/44/3
f 22/43/5 24/42/5 33/16/5 35/13/5
f 24/42/5 20/47/5 32/1/5 33/16/5
f 19/48/4 22/43/4 35/13/4 31/12/4
f 20/47/1 21/49/1 34/2/1 32/1/1
f 13/18/5 1/17/5 41/54/5 42/53/5
f 6/61/10 2/37/10 38/52/10 40/56/10
f 1/17/11 5/62/11 37/55/11 41/54/11
f 2/37/5 13/18/5 42/53/5 38/52/5
f 27/51/3 30/50/3 39/8/3 40/39/3
f 30/50/3 25/57/3 37/9/3 39/8/3
f 43/20/5 47/19/5 53/63/5 49/64/5
f 47/19/5 44/38/5 50/65/5 53/63/5
f 6/40/3 16/11/3 48/66/3 46/67/3
f 16/11/3 5/10/3 45/68/3 48/66/3
f 2/37/12 6/61/12 46/69/12 44/38/12
f 5/62/13 1/17/13 43/20/13 45/70/13
f 54/71/3 51/72/3 57/73/3 60/74/3
f 50/65/14 52/75/14 58/76/14 56/77/14
f 46/67/3 48/66/3 54/71/3 52/78/3
f 44/38/15 46/69/15 52/75/15 50/65/15
f 48/66/3 45/68/3 51/72/3 54/71/3
f 45/70/16 43/20/16 49/64/16 51/79/16
f 58/80/3 60/74/3 66/81/3 64/82/3
f 55/83/5 59/84/5 65/85/5 61/86/5
f 51/79/17 49/64/17 55/83/17 57/87/17
f 53/63/5 50/65/5 56/77/5 59/84/5
f 49/64/5 53/63/5 59/84/5 55/83/5
f 52/78/3 54/71/3 60/74/3 58/80/3
f 63/88/18 61/86/18 67/89/18 69/90/18
f 66/81/3 63/91/3 69/92/3 72/93/3
f 56/77/19 58/76/19 64/94/19 62/95/19
f 60/74/3 57/73/3 63/91/3 66/81/3
f 57/87/20 55/83/20 61/86/20 63/88/20
f 59/84/5 56/77/5 62/95/5 65/85/5
f 70/96/3 72/93/3 78/97/3 76/98/3
f 67/89/5 71/99/5 77/100/5 73/101/5
f 65/85/5 62/95/5 68/102/5 71/99/5
f 61/86/5 65/85/5 71/99/5 67/89/5
f 64/82/3 66/81/3 72/93/3 70/96/3
f 62/95/21 64/94/21 70/103/21 68/102/21
f 75/104/22 73/101/22 79/105/22 81/106/22
f 78/97/3 75/107/3 81/108/3 84/109/3
f 68/102/23 70/103/23 76/110/23 74/111/23
f 72/93/3 69/92/3 75/107/3 78/97/3
f 69/90/24 67/89/24 73/101/24 75/104/24
f 71/99/5 68/102/5 74/111/5 77/100/5
f 82/112/3 84/109/3 90/113/3 88/114/3
f 79/105/5 83/115/5 89/116/5 85/117/5
f 77/100/5 74/111/5 80/118/5 83/115/5
f 73/101/5 77/100/5 83/115/5 79/105/5
f 76/98/3 78/97/3 84/109/3 82/112/3
f 74/111/25 76/110/25 82/119/25 80/118/25
f 87/120/26 85/117/26 91/121/26 93/122/26
f 90/113/3 87/123/3 93/124/3 96/125/3
f 80/118/27 82/119/27 88/126/27 86/127/27
f 84/109/3 81/108/3 87/123/3 90/113/3
f 81/106/28 79/105/28 85/117/28 87/120/28
f 83/115/5 80/118/5 86/127/5 89/116/5
f 94/128/3 96/125/3 102/129/3 100/130/3
f 91/121/5 95/131/5 101/132/5 97/133/5
f 89/116/5 86/127/5 92/134/5 95/131/5
f 85/117/5 89/116/5 95/131/5 91/121/5
f 88/114/3 90/113/3 96/125/3 94/128/3
f 86/127/29 88/126/29 94/135/29 92/134/29
f 101/132/5 98/136/5 104/137/5 107/138/5
f 99/139/30 97/133/30 103/140/30 105/141/30
f 92/134/31 94/135/31 100/142/31 98/136/31
f 96/125/3 93/124/3 99/143/3 102/129/3
f 93/122/32 91/121/32 97/133/32 99/139/32
f 95/131/5 92/134/5 98/136/5 101/132/5
f 104/137/33 106/144/33 112/145/33 110/146/33
f 106/147/3 108/148/3 114/149/3 112/150/3
f 97/133/5 101/132/5 107/138/5 103/140/5
f 100/130/3 102/129/3 108/148/3 106/147/3
f 98/136/34 100/142/34 106/144/34 104/137/34
f 102/129/3 99/143/3 105/151/3 108/148/3
f 109/152/5 113/153/5 119/154/5 115/155/5
f 113/153/5 110/146/5 116/156/5 119/154/5
f 108/148/3 105/151/3 111/157/3 114/149/3
f 105/141/35 103/140/35 109/152/35 111/158/35
f 107/138/5 104/137/5 110/146/5 113/153/5
f 103/140/5 107/138/5 113/153/5 109/152/5
f 120/159/3 117/160/3 123/161/3 126/162/3
f 116/156/36 118/163/36 124/164/36 122/165/36
f 112/150/3 114/149/3 120/159/3 118/166/3
f 110/146/37 112/145/37 118/163/37 116/156/37
f 114/149/3 111/157/3 117/160/3 120/159/3
f 111/158/38 109/152/38 115/155/38 117/167/38
f 124/168/3 126/162/3 132/169/3 130/170/3
f 121/171/5 125/172/5 131/173/5 127/174/5
f 117/167/39 115/155/39 121/171/39 123/175/39
f 119/154/5 116/156/5 122/165/5 125/172/5
f 115/155/5 119/154/5 125/172/5 121/171/5
f 118/166/3 120/159/3 126/162/3 124/168/3
f 129/176/40 127/174/40 133/177/40 135/178/40
f 132/169/3 129/179/3 135/180/3 138/181/3
f 122/165/41 124/164/41 130/182/41 128/183/41
f 126/162/3 123/161/3 129/179/3 132/169/3
f 123/175/42 121/171/42 127/174/42 129/176/42
f 125/172/5 122/165/5 128/183/5 131/173/5
f 136/184/3 138/181/3 144/185/3 142/186/3
f 133/177/5 137/187/5 143/188/5 139/189/5
f 131/173/5 128/183/5 134/190/5 137/187/5
f 127/174/5 131/173/5 137/187/5 133/177/5
f 130/170/3 132/169/3 138/181/3 136/184/3
f 128/183/43 130/182/43 136/191/43 134/190/43
f 141/192/44 139/189/44 145/193/44 147/194/44
f 144/185/3 141/195/3 147/196/3 150/197/3
f 134/190/45 136/191/45 142/198/45 140/199/45
f 138/181/3 135/180/3 141/195/3 144/185/3
f 135/178/46 133/177/46 139/189/46 141/192/46
f 137/187/5 134/190/5 140/199/5 143/188/5
f 148/200/3 150/197/3 156/201/3 154/202/3
f 145/193/5 149/203/5 155/204/5 151/205/5
f 143/188/5 140/199/5 146/206/5 149/203/5
f 139/189/5 143/188/5 149/203/5 145/193/5
f 142/186/3 144/185/3 150/197/3 148/200/3
f 140/199/47 142/198/47 148/207/47 146/206/47
f 153/208/48 151/205/48 157/209/48 159/210/48
f 156/201/3 153/211/3 159/212/3 162/213/3
f 146/206/49 148/207/49 154/214/49 152/215/49
f 150/197/3 147/196/3 153/211/3 156/201/3
f 147/194/50 145/193/50 151/205/50 153/208/50
f 149/203/5 146/206/5 152/215/5 155/204/5
f 160/216/3 162/213/3 168/217/3 166/218/3
f 157/209/5 161/219/5 167/220/5 163/221/5
f 155/204/5 152/215/5 158/222/5 161/219/5
f 151/205/5 155/204/5 161/219/5 157/209/5
f 154/202/3 156/201/3 162/213/3 160/216/3
f 152/215/51 154/214/51 160/223/51 158/222/51
f 167/220/5 164/224/5 170/225/5 173/226/5
f 165/227/52 163/221/52 169/228/52 171/229/52
f 158/222/53 160/223/53 166/230/53 164/224/53
f 162/213/3 159/212/3 165/231/3 168/217/3
f 159/210/54 157/209/54 163/221/54 165/227/54
f 161/219/5 158/222/5 164/224/5 167/220/5
f 170/225/55 172/232/55 178/233/55 176/234/55
f 172/235/3 174/236/3 180/237/3 178/238/3
f 163/221/5 167/220/5 173/226/5 169/228/5
f 166/218/3 168/217/3 174/236/3 172/235/3
f 164/224/56 166/230/56 172/232/56 170/225/56
f 168/217/3 165/231/3 171/239/3 174/236/3
f 175/240/5 179/241/5 185/242/5 181/243/5
f 179/241/5 176/234/5 182/244/5 185/242/5
f 174/236/3 171/239/3 177/245/3 180/237/3
f 171/229/57 169/228/57 175/240/57 177/246/57
f 173/226/5 170/225/5 176/234/5 179/241/5
f 169/228/5 173/226/5 179/241/5 175/240/5
f 186/247/3 183/248/3 189/249/3 192/250/3
f 182/244/58 184/251/58 190/252/58 188/253/58
f 178/238/3 180/237/3 186/247/3 184/254/3
f 176/234/59 178/233/59 184/251/59 182/244/59
f 180/237/3 177/245/3 183/248/3 186/247/3
f 177/246/60 175/240/60 181/243/60 183/255/60
f 190/256/3 192/250/3 198/257/3 196/258/3
f 187/259/5 191/260/5 197/261/5 193/262/5
f 183/255/61 181/243/61 187/259/61 189/263/61
f 185/242/5 182/244/5 188/253/5 191/260/5
f 181/243/5 185/242/5 191/260/5 187/259/5
f 184/254/3 186/247/3 192/250/3 190/256/3
f 195/264/62 193/262/62 199/265/62 201/266/62
f 198/257/3 195/267/3 201/268/3 204/269/3
f 188/253/63 190/252/63 196/270/63 194/271/63
f 192/250/3 189/249/3 195/267/3 198/257/3
f 189/263/64 187/259/64 193/262/64 195/264/64
f 191/260/5 188/253/5 194/271/5 197/261/5
f 204/269/65 203/272/65 199/265/65 201/268/65
f 202/273/65 200/274/65 203/272/65 204/269/65
f 197/261/5 194/271/5 200/274/5 203/272/5
f 193/262/5 197/261/5 203/272/5 199/265/5
f 196/258/3 198/257/3 204/269/3 202/273/3
f 194/271/66 196/270/66 202/275/66 200/274/66
f 203/272/5 200/274/5 4/14/5 15/5/5
f 3/276/5 199/277/5 203/278/5 15/279/5
f 199/277/67 3/276/67 7/280/67 201/281/67
f 14/282/3 204/283/3 201/281/3 7/280/3
f 8/284/3 202/285/3 204/283/3 14/282/3
f 202/285/68 8/284/68 4/286/68 200/287/68
