# Blender v2.82 (sub 7) OBJ File: ''
# www.blender.org
mtllib Base.mtl
o Cube_Cube.004
v -4.000000 -20.000000 20.000000
v -4.000000 20.000000 20.000000
v -4.000000 -20.000000 -20.000000
v -4.000000 20.000000 -20.000000
v 4.000000 -20.000000 20.000000
v 4.000000 20.000000 20.000000
v 4.000000 -20.000000 -20.000000
v 4.000000 20.000000 -20.000000
v -4.000000 -20.000000 0.000000
v -4.000000 20.000000 0.000000
v 4.000000 -20.000000 0.000000
v 4.000000 20.000000 0.000000
v -4.000000 0.000000 20.000000
v -4.000000 0.000000 -20.000000
v 4.000000 0.000000 -20.000000
v 4.000000 0.000000 20.000000
v -4.000000 -20.000000 10.000000
v 4.000000 20.000000 10.000000
v -4.000000 20.000000 10.000000
v 4.000000 -20.000000 10.000000
v -4.000000 20.000000 -10.000000
v 4.000000 -20.000000 -10.000000
v -4.000000 -20.000000 -10.000000
v 4.000000 20.000000 -10.000000
v -4.000000 10.000000 20.000000
v -4.000000 10.000000 -20.000000
v 4.000000 10.000000 -20.000000
v 4.000000 10.000000 20.000000
v -4.000000 -10.000000 -20.000000
v 4.000000 -10.000000 -20.000000
v 4.000000 -10.000000 20.000000
v -4.000000 -10.000000 20.000000
v -4.000000 -15.000000 -20.000000
v 4.000000 -15.000000 -20.000000
v 4.000000 -15.000000 20.000000
v -4.000000 -15.000000 20.000000
v -4.000000 -5.000000 20.000000
v -4.000000 -5.000000 -20.000000
v 4.000000 -5.000000 -20.000000
v 4.000000 -5.000000 20.000000
v -4.000000 5.000000 -20.000000
v 4.000000 5.000000 -20.000000
v 4.000000 5.000000 20.000000
v -4.000000 5.000000 20.000000
v -4.000000 15.000000 20.000000
v -4.000000 15.000000 -20.000000
v 4.000000 15.000000 -20.000000
v 4.000000 15.000000 20.000000
v -4.000000 -20.000000 15.000000
v 4.000000 20.000000 15.000000
v -4.000000 20.000000 15.000000
v 4.000000 -20.000000 15.000000
v -4.000000 20.000000 -15.000000
v 4.000000 -20.000000 -15.000000
v -4.000000 -20.000000 -15.000000
v 4.000000 20.000000 -15.000000
v -4.000000 20.000000 5.000000
v 4.000000 -20.000000 5.000000
v -4.000000 -20.000000 5.000000
v 4.000000 20.000000 5.000000
v -4.000000 -20.000000 -5.000000
v 4.000000 20.000000 -5.000000
v -4.000000 20.000000 -5.000000
v 4.000000 -20.000000 -5.000000
v -4.000000 -17.500000 -20.000000
v 4.000000 -17.500000 -20.000000
v 4.000000 -17.500000 20.000000
v 4.000000 -17.500000 0.000000
v -4.000000 -17.500000 0.000000
v 4.000000 -17.500000 10.000000
v -4.000000 -17.500000 10.000000
v -4.000000 -17.500000 -10.000000
v 4.000000 -17.500000 -10.000000
v -4.000000 -17.500000 20.000000
v -4.000000 -17.500000 15.000000
v 4.000000 -17.500000 15.000000
v 4.000000 -17.500000 -15.000000
v -4.000000 -17.500000 -15.000000
v 4.000000 -17.500000 5.000000
v -4.000000 -17.500000 5.000000
v -4.000000 -17.500000 -5.000000
v 4.000000 -17.500000 -5.000000
v -4.000000 17.500000 20.000000
v -4.000000 17.500000 -20.000000
v 4.000000 17.500000 -20.000000
v 4.000000 17.500000 20.000000
v 4.000000 17.500000 0.000000
v -4.000000 17.500000 0.000000
v -4.000000 17.500000 10.000000
v 4.000000 17.500000 10.000000
v 4.000000 17.500000 -10.000000
v -4.000000 17.500000 -10.000000
v -4.000000 17.500000 15.000000
v 4.000000 17.500000 15.000000
v 4.000000 17.500000 -15.000000
v -4.000000 17.500000 -15.000000
v 4.000000 17.500000 5.000000
v -4.000000 17.500000 5.000000
v -4.000000 17.500000 -5.000000
v 4.000000 17.500000 -5.000000
v -4.000000 -20.000000 17.500000
v 4.000000 20.000000 17.500000
v 4.000000 0.000000 17.500000
v 4.000000 10.000000 17.500000
v 4.000000 -10.000000 17.500000
v 4.000000 -15.000000 17.500000
v 4.000000 -5.000000 17.500000
v 4.000000 5.000000 17.500000
v 4.000000 15.000000 17.500000
v -4.000000 20.000000 17.500000
v 4.000000 -20.000000 17.500000
v -4.000000 0.000000 17.500000
v -4.000000 10.000000 17.500000
v -4.000000 -10.000000 17.500000
v -4.000000 -15.000000 17.500000
v -4.000000 -5.000000 17.500000
v -4.000000 5.000000 17.500000
v -4.000000 15.000000 17.500000
v -4.000000 -17.500000 17.500000
v 4.000000 -17.500000 17.500000
v -4.000000 17.500000 17.500000
v 4.000000 17.500000 17.500000
v -4.000000 20.000000 -17.500000
v 4.000000 -20.000000 -17.500000
v -4.000000 0.000000 -17.500000
v -4.000000 10.000000 -17.500000
v -4.000000 -10.000000 -17.500000
v -4.000000 -15.000000 -17.500000
v -4.000000 -5.000000 -17.500000
v -4.000000 5.000000 -17.500000
v -4.000000 15.000000 -17.500000
v -4.000000 -20.000000 -17.500000
v 4.000000 20.000000 -17.500000
v 4.000000 0.000000 -17.500000
v 4.000000 10.000000 -17.500000
v 4.000000 -10.000000 -17.500000
v 4.000000 -15.000000 -17.500000
v 4.000000 -5.000000 -17.500000
v 4.000000 5.000000 -17.500000
v 4.000000 15.000000 -17.500000
v 4.000000 -17.500000 -17.500000
v -4.000000 -17.500000 -17.500000
v 4.000000 17.500000 -17.500000
v -4.000000 17.500000 -17.500000
vt 0.609375 0.234375
vt 0.625000 0.234375
vt 0.625000 0.250000
vt 0.609375 0.250000
vt 0.625000 0.500000
vt 0.609375 0.500000
vt 0.609375 0.734375
vt 0.625000 0.734375
vt 0.625000 0.750000
vt 0.609375 0.750000
vt 0.625000 1.000000
vt 0.609375 1.000000
vt 0.125000 0.734375
vt 0.375000 0.734375
vt 0.375000 0.750000
vt 0.125000 0.750000
vt 0.875000 0.734375
vt 0.875000 0.750000
vt 0.625000 0.593750
vt 0.875000 0.593750
vt 0.875000 0.625000
vt 0.625000 0.625000
vt 0.125000 0.593750
vt 0.375000 0.593750
vt 0.375000 0.625000
vt 0.125000 0.625000
vt 0.609375 0.593750
vt 0.609375 0.625000
vt 0.609375 0.093750
vt 0.625000 0.093750
vt 0.625000 0.125000
vt 0.609375 0.125000
vt 0.468750 0.750000
vt 0.500000 0.750000
vt 0.500000 1.000000
vt 0.468750 1.000000
vt 0.468750 0.734375
vt 0.500000 0.734375
vt 0.468750 0.250000
vt 0.500000 0.250000
vt 0.500000 0.500000
vt 0.468750 0.500000
vt 0.468750 0.234375
vt 0.500000 0.234375
vt 0.609375 0.031250
vt 0.625000 0.031250
vt 0.625000 0.062500
vt 0.609375 0.062500
vt 0.625000 0.656250
vt 0.875000 0.656250
vt 0.875000 0.687500
vt 0.625000 0.687500
vt 0.125000 0.656250
vt 0.375000 0.656250
vt 0.375000 0.687500
vt 0.125000 0.687500
vt 0.609375 0.656250
vt 0.609375 0.687500
vt 0.609375 0.531250
vt 0.625000 0.531250
vt 0.625000 0.562500
vt 0.609375 0.562500
vt 0.125000 0.531250
vt 0.375000 0.531250
vt 0.375000 0.562500
vt 0.125000 0.562500
vt 0.875000 0.531250
vt 0.875000 0.562500
vt 0.609375 0.156250
vt 0.625000 0.156250
vt 0.625000 0.187500
vt 0.609375 0.187500
vt 0.531250 0.750000
vt 0.562500 0.750000
vt 0.562500 1.000000
vt 0.531250 1.000000
vt 0.531250 0.734375
vt 0.562500 0.734375
vt 0.531250 0.250000
vt 0.562500 0.250000
vt 0.562500 0.500000
vt 0.531250 0.500000
vt 0.531250 0.234375
vt 0.562500 0.234375
vt 0.406250 0.234375
vt 0.437500 0.234375
vt 0.437500 0.250000
vt 0.406250 0.250000
vt 0.437500 0.500000
vt 0.406250 0.500000
vt 0.406250 0.734375
vt 0.437500 0.734375
vt 0.437500 0.750000
vt 0.406250 0.750000
vt 0.437500 1.000000
vt 0.406250 1.000000
vt 0.390625 0.750000
vt 0.390625 1.000000
vt 0.390625 0.734375
vt 0.390625 0.250000
vt 0.390625 0.500000
vt 0.390625 0.234375
vt 0.593750 0.750000
vt 0.593750 1.000000
vt 0.593750 0.734375
vt 0.593750 0.250000
vt 0.593750 0.500000
vt 0.593750 0.234375
vt 0.390625 0.687500
vt 0.390625 0.656250
vt 0.390625 0.093750
vt 0.390625 0.062500
vt 0.390625 0.625000
vt 0.390625 0.593750
vt 0.390625 0.156250
vt 0.390625 0.125000
vt 0.406250 0.015625
vt 0.437500 0.015625
vt 0.531250 0.015625
vt 0.562500 0.015625
vt 0.390625 0.015625
vt 0.609375 0.015625
vt 0.625000 0.015625
vt 0.390625 0.562500
vt 0.390625 0.187500
vt 0.875000 0.718750
vt 0.625000 0.718750
vt 0.375000 0.718750
vt 0.125000 0.718750
vt 0.609375 0.718750
vt 0.562500 0.515625
vt 0.593750 0.515625
vt 0.437500 0.515625
vt 0.468750 0.515625
vt 0.609375 0.515625
vt 0.625000 0.515625
vt 0.875000 0.515625
vt 0.125000 0.515625
vt 0.375000 0.515625
vt 0.625000 0.218750
vt 0.609375 0.218750
vt 0.375000 0.125000
vt 0.375000 0.156250
vt 0.375000 0.062500
vt 0.375000 0.093750
vt 0.375000 0.187500
vt 0.390625 0.218750
vt 0.375000 0.218750
vt 0.390625 0.515625
vt 0.390625 0.531250
vt 0.390625 0.718750
vt 0.375000 0.015625
vt 0.390625 0.031250
vt 0.375000 0.031250
vt 0.375000 0.234375
vt 0.375000 0.250000
vt 0.375000 0.500000
vt 0.375000 1.000000
vt 0.406250 0.515625
vt 0.593750 0.015625
vt 0.593750 0.000000
vt 0.609375 0.000000
vt 0.375000 0.000000
vt 0.390625 0.000000
vt 0.468750 0.000000
vt 0.500000 0.000000
vt 0.500000 0.015625
vt 0.468750 0.015625
vt 0.625000 0.000000
vt 0.531250 0.000000
vt 0.562500 0.000000
vt 0.406250 0.000000
vt 0.437500 0.000000
vt 0.500000 0.515625
vt 0.125000 0.500000
vt 0.875000 0.500000
vt 0.531250 0.515625
vn -1.0000 0.0000 0.0000
vn 0.0000 0.0000 -1.0000
vn 1.0000 0.0000 0.0000
vn 0.0000 0.0000 1.0000
vn 0.0000 -1.0000 0.0000
vn 0.0000 1.0000 0.0000
usemtl None
s off
f 144/1/1 123/2/1 4/3/1 84/4/1
f 84/4/2 4/3/2 8/5/2 85/6/2
f 122/7/3 102/8/3 6/9/3 86/10/3
f 86/10/4 6/9/4 2/11/4 83/12/4
f 101/13/5 111/14/5 5/15/5 1/16/5
f 102/8/6 110/17/6 2/18/6 6/9/6
f 62/19/6 63/20/6 10/21/6 12/22/6
f 61/23/5 64/24/5 11/25/5 9/26/5
f 100/27/3 62/19/3 12/22/3 87/28/3
f 98/29/1 57/30/1 10/31/1 88/32/1
f 40/33/4 16/34/4 13/35/4 37/36/4
f 107/37/3 103/38/3 16/34/3 40/33/3
f 38/39/2 14/40/2 15/41/2 39/42/2
f 129/43/1 125/44/1 14/40/1 38/39/1
f 93/45/1 51/46/1 19/47/1 89/48/1
f 60/49/6 57/50/6 19/51/6 18/52/6
f 59/53/5 58/54/5 20/55/5 17/56/5
f 97/57/3 60/49/3 18/52/3 90/58/3
f 95/59/3 56/60/3 24/61/3 91/62/3
f 55/63/5 54/64/5 22/65/5 23/66/5
f 56/60/6 53/67/6 21/68/6 24/61/6
f 99/69/1 63/70/1 21/71/1 92/72/1
f 43/73/4 28/74/4 25/75/4 44/76/4
f 108/77/3 104/78/3 28/74/3 43/73/3
f 41/79/2 26/80/2 27/81/2 42/82/2
f 130/83/1 126/84/1 26/80/1 41/79/1
f 128/85/1 127/86/1 29/87/1 33/88/1
f 33/88/2 29/87/2 30/89/2 34/90/2
f 106/91/3 105/92/3 31/93/3 35/94/3
f 35/94/4 31/93/4 32/95/4 36/96/4
f 67/97/4 35/94/4 36/96/4 74/98/4
f 120/99/3 106/91/3 35/94/3 67/97/3
f 65/100/2 33/88/2 34/90/2 66/101/2
f 142/102/1 128/85/1 33/88/1 65/100/1
f 127/86/1 129/43/1 38/39/1 29/87/1
f 29/87/2 38/39/2 39/42/2 30/89/2
f 105/92/3 107/37/3 40/33/3 31/93/3
f 31/93/4 40/33/4 37/36/4 32/95/4
f 125/44/1 130/83/1 41/79/1 14/40/1
f 14/40/2 41/79/2 42/82/2 15/41/2
f 103/38/3 108/77/3 43/73/3 16/34/3
f 16/34/4 43/73/4 44/76/4 13/35/4
f 28/74/4 48/103/4 45/104/4 25/75/4
f 104/78/3 109/105/3 48/103/3 28/74/3
f 26/80/2 46/106/2 47/107/2 27/81/2
f 126/84/1 131/108/1 46/106/1 26/80/1
f 70/109/6 79/110/6 80/111/6 71/112/6
f 68/113/6 82/114/6 81/115/6 69/116/6
f 105/92/2 106/91/2 115/117/2 114/118/2
f 104/78/2 108/77/2 117/119/2 113/120/2
f 120/99/2 119/121/2 115/117/2 106/91/2
f 68/113/6 69/116/6 80/111/6 79/110/6
f 121/122/1 110/123/1 51/46/1 93/45/1
f 73/124/6 72/125/6 81/115/6 82/114/6
f 18/52/6 19/51/6 51/126/6 50/127/6
f 17/56/5 20/55/5 52/128/5 49/129/5
f 90/58/3 18/52/3 50/127/3 94/130/3
f 92/72/5 91/62/5 100/27/5 99/69/5
f 88/32/5 87/28/5 97/57/5 98/29/5
f 126/84/4 135/131/4 140/132/4 131/108/4
f 127/86/4 136/133/4 138/134/4 129/43/4
f 144/1/4 131/108/4 140/132/4 143/135/4
f 88/32/5 99/69/5 100/27/5 87/28/5
f 133/136/6 123/137/6 53/67/6 56/60/6
f 132/138/5 124/139/5 54/64/5 55/63/5
f 143/135/3 133/136/3 56/60/3 95/59/3
f 89/48/5 98/29/5 97/57/5 90/58/5
f 92/72/1 21/71/1 53/140/1 96/141/1
f 87/28/3 12/22/3 60/49/3 97/57/3
f 9/26/5 11/25/5 58/54/5 59/53/5
f 12/22/6 10/21/6 57/50/6 60/49/6
f 89/48/1 19/47/1 57/30/1 98/29/1
f 88/32/1 10/31/1 63/70/1 99/69/1
f 91/62/3 24/61/3 62/19/3 100/27/3
f 23/66/5 22/65/5 64/24/5 61/23/5
f 24/61/6 21/68/6 63/20/6 62/19/6
f 22/65/3 73/124/3 82/114/3 64/24/3
f 9/142/1 69/116/1 81/115/1 61/143/1
f 17/144/1 71/112/1 80/111/1 59/145/1
f 11/25/3 68/113/3 79/110/3 58/54/3
f 23/146/1 72/125/1 78/147/1 55/148/1
f 124/139/3 141/149/3 77/150/3 54/64/3
f 20/55/3 70/109/3 76/151/3 52/128/3
f 101/152/1 119/121/1 75/153/1 49/154/1
f 54/64/3 77/150/3 73/124/3 22/65/3
f 61/143/1 81/115/1 72/125/1 23/146/1
f 49/154/1 75/153/1 71/112/1 17/144/1
f 58/54/3 79/110/3 70/109/3 20/55/3
f 132/155/1 142/102/1 65/100/1 3/156/1
f 3/156/2 65/100/2 66/101/2 7/157/2
f 111/14/3 120/99/3 67/97/3 5/15/3
f 5/15/4 67/97/4 74/98/4 1/158/4
f 64/24/3 82/114/3 68/113/3 11/25/3
f 59/145/1 80/111/1 69/116/1 9/142/1
f 128/85/4 137/159/4 136/133/4 127/86/4
f 109/105/2 104/78/2 113/120/2 118/160/2
f 48/103/4 86/10/4 83/12/4 45/104/4
f 109/105/3 122/7/3 86/10/3 48/103/3
f 46/106/2 84/4/2 85/6/2 47/107/2
f 131/108/1 144/1/1 84/4/1 46/106/1
f 109/105/2 118/160/2 121/122/2 122/7/2
f 45/161/1 83/162/1 121/122/1 118/160/1
f 52/128/3 76/151/3 120/99/3 111/14/3
f 1/163/1 74/164/1 119/121/1 101/152/1
f 37/165/1 13/166/1 112/167/1 116/168/1
f 83/162/1 2/169/1 110/123/1 121/122/1
f 44/170/1 25/171/1 113/120/1 117/119/1
f 36/172/1 32/173/1 114/118/1 115/117/1
f 74/164/1 36/172/1 115/117/1 119/121/1
f 32/173/1 37/165/1 116/168/1 114/118/1
f 13/166/1 44/170/1 117/119/1 112/167/1
f 25/171/1 45/161/1 118/160/1 113/120/1
f 120/99/6 76/151/6 75/153/6 119/121/6
f 73/124/6 77/150/6 78/147/6 72/125/6
f 103/38/2 107/37/2 116/168/2 112/167/2
f 103/38/2 112/167/2 117/119/2 108/77/2
f 105/92/2 114/118/2 116/168/2 107/37/2
f 70/109/6 71/112/6 75/153/6 76/151/6
f 78/147/6 77/150/6 141/149/6 142/102/6
f 50/127/6 51/126/6 110/17/6 102/8/6
f 49/129/5 52/128/5 111/14/5 101/13/5
f 94/130/3 50/127/3 102/8/3 122/7/3
f 142/102/4 141/149/4 137/159/4 128/85/4
f 47/107/3 85/6/3 143/135/3 140/132/3
f 55/148/1 78/147/1 142/102/1 132/155/1
f 7/157/3 66/101/3 141/149/3 124/139/3
f 39/42/3 15/41/3 134/174/3 138/134/3
f 85/6/3 8/5/3 133/136/3 143/135/3
f 3/175/5 7/157/5 124/139/5 132/138/5
f 8/5/6 4/176/6 123/137/6 133/136/6
f 42/82/3 27/81/3 135/131/3 139/177/3
f 34/90/3 30/89/3 136/133/3 137/159/3
f 66/101/3 34/90/3 137/159/3 141/149/3
f 30/89/3 39/42/3 138/134/3 136/133/3
f 15/41/3 42/82/3 139/177/3 134/174/3
f 27/81/3 47/107/3 140/132/3 135/131/3
f 144/1/5 143/135/5 95/59/5 96/141/5
f 89/48/5 90/58/5 94/130/5 93/45/5
f 125/44/4 134/174/4 139/177/4 130/83/4
f 125/44/4 129/43/4 138/134/4 134/174/4
f 126/84/4 130/83/4 139/177/4 135/131/4
f 92/72/5 96/141/5 95/59/5 91/62/5
f 121/122/5 93/45/5 94/130/5 122/7/5
f 96/141/1 53/140/1 123/2/1 144/1/1
