# Blender 4.3.2
# www.blender.org
mtllib Jack_Raft.mtl
o Jack_Raft
v -0.590000 0.020000 0.340000
v -0.590000 0.100000 0.340000
v -0.590000 0.020000 0.220000
v -0.590000 0.100000 0.220000
v 0.510000 0.020000 0.340000
v 0.510000 0.100000 0.340000
v 0.510000 0.020000 0.220000
v 0.510000 0.100000 0.220000
v -0.590000 0.020000 0.200000
v -0.590000 0.100000 0.200000
v -0.590000 0.020000 0.080000
v -0.590000 0.100000 0.080000
v 0.510000 0.020000 0.200000
v 0.510000 0.100000 0.200000
v 0.510000 0.020000 0.080000
v 0.510000 0.100000 0.080000
v -0.590000 0.020000 0.060000
v -0.590000 0.100000 0.060000
v -0.590000 0.020000 -0.060000
v -0.590000 0.100000 -0.060000
v 0.510000 0.020000 0.060000
v 0.510000 0.100000 0.060000
v 0.510000 0.020000 -0.060000
v 0.510000 0.100000 -0.060000
v -0.590000 0.020000 -0.080000
v -0.590000 0.100000 -0.080000
v -0.590000 0.020000 -0.200000
v -0.590000 0.100000 -0.200000
v 0.510000 0.020000 -0.080000
v 0.510000 0.100000 -0.080000
v 0.510000 0.020000 -0.200000
v 0.510000 0.100000 -0.200000
v -0.590000 0.020000 -0.220000
v -0.590000 0.100000 -0.220000
v -0.590000 0.020000 -0.340000
v -0.590000 0.100000 -0.340000
v 0.510000 0.020000 -0.220000
v 0.510000 0.100000 -0.220000
v 0.510000 0.020000 -0.340000
v 0.510000 0.100000 -0.340000
v -0.480000 -0.020000 0.310000
v -0.480000 0.040000 0.310000
v -0.480000 -0.020000 -0.310000
v -0.480000 0.040000 -0.310000
v -0.400000 -0.020000 0.310000
v -0.400000 0.040000 0.310000
v -0.400000 -0.020000 -0.310000
v -0.400000 0.040000 -0.310000
v -0.080000 -0.020000 0.310000
v -0.080000 0.040000 0.310000
v -0.080000 -0.020000 -0.310000
v -0.080000 0.040000 -0.310000
v 0.000000 -0.020000 0.310000
v 0.000000 0.040000 0.310000
v 0.000000 -0.020000 -0.310000
v 0.000000 0.040000 -0.310000
v 0.320000 -0.020000 0.310000
v 0.320000 0.040000 0.310000
v 0.320000 -0.020000 -0.310000
v 0.320000 0.040000 -0.310000
v 0.400000 -0.020000 0.310000
v 0.400000 0.040000 0.310000
v 0.400000 -0.020000 -0.310000
v 0.400000 0.040000 -0.310000
v -0.600000 -0.040000 -0.390000
v -0.320000 -0.040000 -0.390000
v -0.600000 -0.092901 -0.372812
v -0.320000 -0.092901 -0.372812
v -0.600000 -0.125595 -0.327812
v -0.320000 -0.125595 -0.327812
v -0.600000 -0.125595 -0.272189
v -0.320000 -0.125595 -0.272189
v -0.600000 -0.092901 -0.227188
v -0.320000 -0.092901 -0.227188
v -0.600000 -0.040000 -0.210000
v -0.320000 -0.040000 -0.210000
v -0.600000 0.012901 -0.227188
v -0.320000 0.012901 -0.227188
v -0.600000 0.045595 -0.272189
v -0.320000 0.045595 -0.272189
v -0.600000 0.045595 -0.327812
v -0.320000 0.045595 -0.327812
v -0.600000 0.012901 -0.372812
v -0.320000 0.012901 -0.372812
v -0.480000 -0.040000 -0.395000
v -0.440000 -0.040000 -0.395000
v -0.480000 -0.095840 -0.376857
v -0.440000 -0.095840 -0.376857
v -0.480000 -0.130350 -0.329357
v -0.440000 -0.130350 -0.329357
v -0.480000 -0.130350 -0.270643
v -0.440000 -0.130350 -0.270643
v -0.480000 -0.095840 -0.223143
v -0.440000 -0.095840 -0.223143
v -0.480000 -0.040000 -0.205000
v -0.440000 -0.040000 -0.205000
v -0.480000 0.015840 -0.223143
v -0.440000 0.015840 -0.223143
v -0.480000 0.050350 -0.270643
v -0.440000 0.050350 -0.270643
v -0.480000 0.050350 -0.329357
v -0.440000 0.050350 -0.329357
v -0.480000 0.015840 -0.376857
v -0.440000 0.015840 -0.376857
v -0.600000 -0.040000 0.210000
v -0.320000 -0.040000 0.210000
v -0.600000 -0.092901 0.227188
v -0.320000 -0.092901 0.227188
v -0.600000 -0.125595 0.272188
v -0.320000 -0.125595 0.272188
v -0.600000 -0.125595 0.327812
v -0.320000 -0.125595 0.327812
v -0.600000 -0.092901 0.372812
v -0.320000 -0.092901 0.372812
v -0.600000 -0.040000 0.390000
v -0.320000 -0.040000 0.390000
v -0.600000 0.012901 0.372812
v -0.320000 0.012901 0.372812
v -0.600000 0.045595 0.327812
v -0.320000 0.045595 0.327812
v -0.600000 0.045595 0.272188
v -0.320000 0.045595 0.272188
v -0.600000 0.012901 0.227188
v -0.320000 0.012901 0.227188
v -0.480000 -0.040000 0.205000
v -0.440000 -0.040000 0.205000
v -0.480000 -0.095840 0.223143
v -0.440000 -0.095840 0.223143
v -0.480000 -0.130350 0.270643
v -0.440000 -0.130350 0.270643
v -0.480000 -0.130350 0.329357
v -0.440000 -0.130350 0.329357
v -0.480000 -0.095840 0.376857
v -0.440000 -0.095840 0.376857
v -0.480000 -0.040000 0.395000
v -0.440000 -0.040000 0.395000
v -0.480000 0.015840 0.376857
v -0.440000 0.015840 0.376857
v -0.480000 0.050350 0.329357
v -0.440000 0.050350 0.329357
v -0.480000 0.050350 0.270643
v -0.440000 0.050350 0.270643
v -0.480000 0.015840 0.223143
v -0.440000 0.015840 0.223143
v 0.240000 -0.040000 -0.390000
v 0.520000 -0.040000 -0.390000
v 0.240000 -0.092901 -0.372812
v 0.520000 -0.092901 -0.372812
v 0.240000 -0.125595 -0.327812
v 0.520000 -0.125595 -0.327812
v 0.240000 -0.125595 -0.272189
v 0.520000 -0.125595 -0.272189
v 0.240000 -0.092901 -0.227188
v 0.520000 -0.092901 -0.227188
v 0.240000 -0.040000 -0.210000
v 0.520000 -0.040000 -0.210000
v 0.240000 0.012901 -0.227188
v 0.520000 0.012901 -0.227188
v 0.240000 0.045595 -0.272189
v 0.520000 0.045595 -0.272189
v 0.240000 0.045595 -0.327812
v 0.520000 0.045595 -0.327812
v 0.240000 0.012901 -0.372812
v 0.520000 0.012901 -0.372812
v 0.360000 -0.040000 -0.395000
v 0.400000 -0.040000 -0.395000
v 0.360000 -0.095840 -0.376857
v 0.400000 -0.095840 -0.376857
v 0.360000 -0.130350 -0.329357
v 0.400000 -0.130350 -0.329357
v 0.360000 -0.130350 -0.270643
v 0.400000 -0.130350 -0.270643
v 0.360000 -0.095840 -0.223143
v 0.400000 -0.095840 -0.223143
v 0.360000 -0.040000 -0.205000
v 0.400000 -0.040000 -0.205000
v 0.360000 0.015840 -0.223143
v 0.400000 0.015840 -0.223143
v 0.360000 0.050350 -0.270643
v 0.400000 0.050350 -0.270643
v 0.360000 0.050350 -0.329357
v 0.400000 0.050350 -0.329357
v 0.360000 0.015840 -0.376857
v 0.400000 0.015840 -0.376857
v 0.240000 -0.040000 0.210000
v 0.520000 -0.040000 0.210000
v 0.240000 -0.092901 0.227188
v 0.520000 -0.092901 0.227188
v 0.240000 -0.125595 0.272188
v 0.520000 -0.125595 0.272188
v 0.240000 -0.125595 0.327812
v 0.520000 -0.125595 0.327812
v 0.240000 -0.092901 0.372812
v 0.520000 -0.092901 0.372812
v 0.240000 -0.040000 0.390000
v 0.520000 -0.040000 0.390000
v 0.240000 0.012901 0.372812
v 0.520000 0.012901 0.372812
v 0.240000 0.045595 0.327812
v 0.520000 0.045595 0.327812
v 0.240000 0.045595 0.272188
v 0.520000 0.045595 0.272188
v 0.240000 0.012901 0.227188
v 0.520000 0.012901 0.227188
v 0.360000 -0.040000 0.205000
v 0.400000 -0.040000 0.205000
v 0.360000 -0.095840 0.223143
v 0.400000 -0.095840 0.223143
v 0.360000 -0.130350 0.270643
v 0.400000 -0.130350 0.270643
v 0.360000 -0.130350 0.329357
v 0.400000 -0.130350 0.329357
v 0.360000 -0.095840 0.376857
v 0.400000 -0.095840 0.376857
v 0.360000 -0.040000 0.395000
v 0.400000 -0.040000 0.395000
v 0.360000 0.015840 0.376857
v 0.400000 0.015840 0.376857
v 0.360000 0.050350 0.329357
v 0.400000 0.050350 0.329357
v 0.360000 0.050350 0.270643
v 0.400000 0.050350 0.270643
v 0.360000 0.015840 0.223143
v 0.400000 0.015840 0.223143
v -0.540000 -0.020000 -0.410000
v 0.460000 -0.020000 -0.410000
v -0.540000 -0.061145 -0.396631
v 0.460000 -0.061145 -0.396631
v -0.540000 -0.086574 -0.361631
v 0.460000 -0.086574 -0.361631
v -0.540000 -0.086574 -0.318369
v 0.460000 -0.086574 -0.318369
v -0.540000 -0.061145 -0.283369
v 0.460000 -0.061145 -0.283369
v -0.540000 -0.020000 -0.270000
v 0.460000 -0.020000 -0.270000
v -0.540000 0.021145 -0.283369
v 0.460000 0.021145 -0.283369
v -0.540000 0.046574 -0.318369
v 0.460000 0.046574 -0.318369
v -0.540000 0.046574 -0.361631
v 0.460000 0.046574 -0.361631
v -0.540000 0.021145 -0.396631
v 0.460000 0.021145 -0.396631
v -0.540000 -0.020000 0.270000
v 0.460000 -0.020000 0.270000
v -0.540000 -0.061145 0.283369
v 0.460000 -0.061145 0.283369
v -0.540000 -0.086574 0.318369
v 0.460000 -0.086574 0.318369
v -0.540000 -0.086574 0.361631
v 0.460000 -0.086574 0.361631
v -0.540000 -0.061145 0.396631
v 0.460000 -0.061145 0.396631
v -0.540000 -0.020000 0.410000
v 0.460000 -0.020000 0.410000
v -0.540000 0.021145 0.396631
v 0.460000 0.021145 0.396631
v -0.540000 0.046574 0.361631
v 0.460000 0.046574 0.361631
v -0.540000 0.046574 0.318369
v 0.460000 0.046574 0.318369
v -0.540000 0.021145 0.283369
v 0.460000 0.021145 0.283369
v -0.410000 0.097500 0.290000
v -0.410000 0.122500 0.290000
v -0.410000 0.097500 -0.290000
v -0.410000 0.122500 -0.290000
v -0.370000 0.097500 0.290000
v -0.370000 0.122500 0.290000
v -0.370000 0.097500 -0.290000
v -0.370000 0.122500 -0.290000
v -0.060000 0.097500 0.290000
v -0.060000 0.122500 0.290000
v -0.060000 0.097500 -0.290000
v -0.060000 0.122500 -0.290000
v -0.020000 0.097500 0.290000
v -0.020000 0.122500 0.290000
v -0.020000 0.097500 -0.290000
v -0.020000 0.122500 -0.290000
v 0.290000 0.097500 0.290000
v 0.290000 0.122500 0.290000
v 0.290000 0.097500 -0.290000
v 0.290000 0.122500 -0.290000
v 0.330000 0.097500 0.290000
v 0.330000 0.122500 0.290000
v 0.330000 0.097500 -0.290000
v 0.330000 0.122500 -0.290000
v -0.190000 0.145000 -0.025000
v -0.190000 0.695000 -0.025000
v -0.175305 0.145000 -0.020225
v -0.175305 0.695000 -0.020225
v -0.166224 0.145000 -0.007725
v -0.166224 0.695000 -0.007725
v -0.166224 0.145000 0.007725
v -0.166224 0.695000 0.007725
v -0.175305 0.145000 0.020225
v -0.175305 0.695000 0.020225
v -0.190000 0.145000 0.025000
v -0.190000 0.695000 0.025000
v -0.204695 0.145000 0.020225
v -0.204695 0.695000 0.020225
v -0.213776 0.145000 0.007725
v -0.213776 0.695000 0.007725
v -0.213776 0.145000 -0.007725
v -0.213776 0.695000 -0.007725
v -0.204695 0.145000 -0.020225
v -0.204695 0.695000 -0.020225
v -0.190000 0.562000 -0.180000
v -0.190000 0.562000 0.180000
v -0.181515 0.558485 -0.180000
v -0.181515 0.558485 0.180000
v -0.178000 0.550000 -0.180000
v -0.178000 0.550000 0.180000
v -0.181515 0.541515 -0.180000
v -0.181515 0.541515 0.180000
v -0.190000 0.538000 -0.180000
v -0.190000 0.538000 0.180000
v -0.198485 0.541515 -0.180000
v -0.198485 0.541515 0.180000
v -0.202000 0.550000 -0.180000
v -0.202000 0.550000 0.180000
v -0.198485 0.558485 -0.180000
v -0.198485 0.558485 0.180000
v -0.175000 0.280000 0.150000
v -0.175000 0.560000 0.150000
v -0.175000 0.280000 -0.150000
v -0.175000 0.560000 -0.150000
v -0.145000 0.280000 0.150000
v -0.145000 0.560000 0.150000
v -0.145000 0.280000 -0.150000
v -0.145000 0.560000 -0.150000
v -0.150000 0.420000 -0.020000
v -0.150000 0.500000 -0.020000
v -0.150000 0.420000 -0.100000
v -0.150000 0.500000 -0.100000
v -0.130000 0.420000 -0.020000
v -0.130000 0.500000 -0.020000
v -0.130000 0.420000 -0.100000
v -0.130000 0.500000 -0.100000
v -0.190000 0.650000 -0.010000
v -0.190000 0.790000 -0.010000
v -0.182929 0.650000 -0.007071
v -0.182929 0.790000 -0.007071
v -0.180000 0.650000 0.000000
v -0.180000 0.790000 0.000000
v -0.182929 0.650000 0.007071
v -0.182929 0.790000 0.007071
v -0.190000 0.650000 0.010000
v -0.190000 0.790000 0.010000
v -0.197071 0.650000 0.007071
v -0.197071 0.790000 0.007071
v -0.200000 0.650000 0.000000
v -0.200000 0.790000 0.000000
v -0.197071 0.650000 -0.007071
v -0.197071 0.790000 -0.007071
v -0.180000 0.730000 0.007500
v -0.180000 0.790000 0.007500
v -0.180000 0.730000 -0.007500
v -0.180000 0.790000 -0.007500
v -0.100000 0.730000 0.007500
v -0.100000 0.790000 0.007500
v -0.100000 0.730000 -0.007500
v -0.100000 0.790000 -0.007500
v 0.190000 0.120000 -0.040000
v 0.190000 0.240000 -0.040000
v 0.190000 0.120000 -0.160000
v 0.190000 0.240000 -0.160000
v 0.330000 0.120000 -0.040000
v 0.330000 0.240000 -0.040000
v 0.330000 0.120000 -0.160000
v 0.330000 0.240000 -0.160000
v 0.410000 0.110000 -0.030000
v 0.410000 0.210000 -0.030000
v 0.427634 0.110000 -0.024271
v 0.427634 0.210000 -0.024271
v 0.438532 0.110000 -0.009271
v 0.438532 0.210000 -0.009271
v 0.438532 0.110000 0.009271
v 0.438532 0.210000 0.009271
v 0.427634 0.110000 0.024271
v 0.427634 0.210000 0.024271
v 0.410000 0.110000 0.030000
v 0.410000 0.210000 0.030000
v 0.392366 0.110000 0.024271
v 0.392366 0.210000 0.024271
v 0.381468 0.110000 0.009271
v 0.381468 0.210000 0.009271
v 0.381468 0.110000 -0.009271
v 0.381468 0.210000 -0.009271
v 0.392366 0.110000 -0.024271
v 0.392366 0.210000 -0.024271
v 0.480000 0.030000 0.200000
v 0.480000 0.090000 0.200000
v 0.480000 0.030000 -0.200000
v 0.480000 0.090000 -0.200000
v 0.600000 0.030000 0.200000
v 0.600000 0.090000 0.200000
v 0.600000 0.030000 -0.200000
v 0.600000 0.090000 -0.200000
vn -1.0000 -0.0000 -0.0000
vn -0.0000 -0.0000 -1.0000
vn 1.0000 -0.0000 -0.0000
vn -0.0000 -0.0000 1.0000
vn -0.0000 -1.0000 -0.0000
vn -0.0000 1.0000 -0.0000
vn -0.0000 -0.3090 -0.9511
vn -0.0000 -0.8090 -0.5878
vn -0.0000 -0.8090 0.5878
vn -0.0000 -0.3090 0.9511
vn -0.0000 0.3090 0.9511
vn -0.0000 0.8090 0.5878
vn -0.0000 0.8090 -0.5878
vn -0.0000 0.3090 -0.9511
vn 0.3090 -0.0000 -0.9511
vn 0.8090 -0.0000 -0.5878
vn 0.8090 -0.0000 0.5878
vn 0.3090 -0.0000 0.9511
vn -0.3090 -0.0000 0.9511
vn -0.8090 -0.0000 0.5878
vn -0.8090 -0.0000 -0.5878
vn -0.3090 -0.0000 -0.9511
vn 0.3827 0.9239 -0.0000
vn 0.9239 0.3827 -0.0000
vn 0.9239 -0.3827 -0.0000
vn 0.3827 -0.9239 -0.0000
vn -0.3827 -0.9239 -0.0000
vn -0.9239 -0.3827 -0.0000
vn -0.9239 0.3827 -0.0000
vn -0.3827 0.9239 -0.0000
vn 0.3827 -0.0000 -0.9239
vn 0.9239 -0.0000 -0.3827
vn 0.9239 -0.0000 0.3827
vn 0.3827 -0.0000 0.9239
vn -0.3827 -0.0000 0.9239
vn -0.9239 -0.0000 0.3827
vn -0.9239 -0.0000 -0.3827
vn -0.3827 -0.0000 -0.9239
vt 0.375000 0.000000
vt 0.625000 0.000000
vt 0.625000 0.250000
vt 0.375000 0.250000
vt 0.625000 0.500000
vt 0.375000 0.500000
vt 0.625000 0.750000
vt 0.375000 0.750000
vt 0.625000 1.000000
vt 0.375000 1.000000
vt 0.125000 0.500000
vt 0.125000 0.750000
vt 0.875000 0.500000
vt 0.875000 0.750000
vt 1.000000 0.500000
vt 1.000000 1.000000
vt 0.900000 1.000000
vt 0.900000 0.500000
vt 0.800000 1.000000
vt 0.800000 0.500000
vt 0.700000 1.000000
vt 0.700000 0.500000
vt 0.600000 1.000000
vt 0.600000 0.500000
vt 0.500000 1.000000
vt 0.500000 0.500000
vt 0.400000 1.000000
vt 0.400000 0.500000
vt 0.300000 1.000000
vt 0.300000 0.500000
vt 0.200000 1.000000
vt 0.200000 0.500000
vt 0.391068 0.444164
vt 0.250000 0.490000
vt 0.108932 0.444164
vt 0.021746 0.324164
vt 0.021746 0.175836
vt 0.108932 0.055836
vt 0.250000 0.010000
vt 0.391068 0.055836
vt 0.478254 0.175836
vt 0.478254 0.324164
vt 0.100000 1.000000
vt 0.100000 0.500000
vt -0.000000 1.000000
vt -0.000000 0.500000
vt 0.750000 0.490000
vt 0.891068 0.444164
vt 0.978254 0.324164
vt 0.978254 0.175836
vt 0.891068 0.055836
vt 0.750000 0.010000
vt 0.608932 0.055836
vt 0.521746 0.175836
vt 0.521746 0.324164
vt 0.608932 0.444164
vt 0.391068 0.444164
vt 0.108932 0.444164
vt 0.021746 0.324164
vt 0.021746 0.175836
vt 0.108932 0.055836
vt 0.391068 0.055836
vt 0.478254 0.175836
vt 0.478254 0.324164
vt 0.891068 0.444164
vt 0.978254 0.324164
vt 0.978254 0.175836
vt 0.891068 0.055836
vt 0.608932 0.055836
vt 0.521746 0.175836
vt 0.521746 0.324164
vt 0.608932 0.444164
vt 0.250000 0.490000
vt 0.108932 0.444164
vt 0.108932 0.055836
vt 0.250000 0.010000
vt 0.750000 0.490000
vt 0.750000 0.010000
vt 0.108932 0.444164
vt 0.021746 0.324164
vt 0.021746 0.175836
vt 0.108932 0.055836
vt 0.875000 1.000000
vt 0.750000 1.000000
vt 0.750000 0.500000
vt 0.500000 1.000000
vt 0.500000 0.500000
vt 0.250000 1.000000
vt 0.250000 0.500000
vt 0.419706 0.419706
vt 0.080294 0.419706
vt 0.010000 0.250000
vt 0.080294 0.080294
vt 0.250000 0.010000
vt 0.419706 0.080294
vt 0.490000 0.250000
vt 0.125000 1.000000
vt 0.000000 1.000000
vt 0.000000 0.500000
vt 0.919706 0.419706
vt 0.990000 0.250000
vt 0.919706 0.080294
vt 0.750000 0.010000
vt 0.580294 0.080294
vt 0.510000 0.250000
vt 0.580294 0.419706
vt 0.080294 0.419706
vt 0.010000 0.250000
vt 0.080294 0.080294
vt 0.419706 0.080294
vt 0.919706 0.080294
vt 0.580294 0.080294
s 0
usemtl HullWood
f 1/1/1 2/2/1 4/3/1 3/4/1
f 3/4/2 4/3/2 8/5/2 7/6/2
f 7/6/3 8/5/3 6/7/3 5/8/3
f 5/8/4 6/7/4 2/9/4 1/10/4
f 3/11/5 7/6/5 5/8/5 1/12/5
f 8/5/6 4/13/6 2/14/6 6/7/6
f 17/1/1 18/2/1 20/3/1 19/4/1
f 19/4/2 20/3/2 24/5/2 23/6/2
f 23/6/3 24/5/3 22/7/3 21/8/3
f 21/8/4 22/7/4 18/9/4 17/10/4
f 19/11/5 23/6/5 21/8/5 17/12/5
f 24/5/6 20/13/6 18/14/6 22/7/6
f 33/1/1 34/2/1 36/3/1 35/4/1
f 35/4/2 36/3/2 40/5/2 39/6/2
f 39/6/3 40/5/3 38/7/3 37/8/3
f 37/8/4 38/7/4 34/9/4 33/10/4
f 35/11/5 39/6/5 37/8/5 33/12/5
f 40/5/6 36/13/6 34/14/6 38/7/6
usemtl DeckWood
f 9/1/1 10/2/1 12/3/1 11/4/1
f 11/4/2 12/3/2 16/5/2 15/6/2
f 15/6/3 16/5/3 14/7/3 13/8/3
f 13/8/4 14/7/4 10/9/4 9/10/4
f 11/11/5 15/6/5 13/8/5 9/12/5
f 16/5/6 12/13/6 10/14/6 14/7/6
f 25/1/1 26/2/1 28/3/1 27/4/1
f 27/4/2 28/3/2 32/5/2 31/6/2
f 31/6/3 32/5/3 30/7/3 29/8/3
f 29/8/4 30/7/4 26/9/4 25/10/4
f 27/11/5 31/6/5 29/8/5 25/12/5
f 32/5/6 28/13/6 26/14/6 30/7/6
f 393/1/1 394/2/1 396/3/1 395/4/1
f 395/4/2 396/3/2 400/5/2 399/6/2
f 399/6/3 400/5/3 398/7/3 397/8/3
f 397/8/4 398/7/4 394/9/4 393/10/4
f 395/11/5 399/6/5 397/8/5 393/12/5
f 400/5/6 396/13/6 394/14/6 398/7/6
usemtl HullDark
f 41/1/1 42/2/1 44/3/1 43/4/1
f 43/4/2 44/3/2 48/5/2 47/6/2
f 47/6/3 48/5/3 46/7/3 45/8/3
f 45/8/4 46/7/4 42/9/4 41/10/4
f 43/11/5 47/6/5 45/8/5 41/12/5
f 48/5/6 44/13/6 42/14/6 46/7/6
f 49/1/1 50/2/1 52/3/1 51/4/1
f 51/4/2 52/3/2 56/5/2 55/6/2
f 55/6/3 56/5/3 54/7/3 53/8/3
f 53/8/4 54/7/4 50/9/4 49/10/4
f 51/11/5 55/6/5 53/8/5 49/12/5
f 56/5/6 52/13/6 50/14/6 54/7/6
f 57/1/1 58/2/1 60/3/1 59/4/1
f 59/4/2 60/3/2 64/5/2 63/6/2
f 63/6/3 64/5/3 62/7/3 61/8/3
f 61/8/4 62/7/4 58/9/4 57/10/4
f 59/11/5 63/6/5 61/8/5 57/12/5
f 64/5/6 60/13/6 58/14/6 62/7/6
f 225/15/7 226/16/7 228/17/7 227/18/7
f 227/18/8 228/17/8 230/19/8 229/20/8
f 229/20/5 230/19/5 232/21/5 231/22/5
f 231/22/9 232/21/9 234/23/9 233/24/9
f 233/24/10 234/23/10 236/25/10 235/26/10
f 235/26/11 236/25/11 238/27/11 237/28/11
f 237/28/12 238/27/12 240/29/12 239/30/12
f 239/30/6 240/29/6 242/31/6 241/32/6
f 228/57/3 226/73/3 244/74/3 242/59/3 240/60/3 238/75/3 236/76/3 234/62/3 232/63/3 230/64/3
f 241/32/13 242/31/13 244/43/13 243/44/13
f 243/44/14 244/43/14 226/45/14 225/46/14
f 225/77/1 227/65/1 229/66/1 231/67/1 233/68/1 235/78/1 237/69/1 239/70/1 241/71/1 243/72/1
f 245/15/7 246/16/7 248/17/7 247/18/7
f 247/18/8 248/17/8 250/19/8 249/20/8
f 249/20/5 250/19/5 252/21/5 251/22/5
f 251/22/9 252/21/9 254/23/9 253/24/9
f 253/24/10 254/23/10 256/25/10 255/26/10
f 255/26/11 256/25/11 258/27/11 257/28/11
f 257/28/12 258/27/12 260/29/12 259/30/12
f 259/30/6 260/29/6 262/31/6 261/32/6
f 248/57/3 246/73/3 264/74/3 262/59/3 260/60/3 258/75/3 256/76/3 254/62/3 252/63/3 250/64/3
f 261/32/13 262/31/13 264/43/13 263/44/13
f 263/44/14 264/43/14 246/45/14 245/46/14
f 245/77/1 247/65/1 249/66/1 251/67/1 253/68/1 255/78/1 257/69/1 259/70/1 261/71/1 263/72/1
f 365/1/1 366/2/1 368/3/1 367/4/1
f 367/4/2 368/3/2 372/5/2 371/6/2
f 371/6/3 372/5/3 370/7/3 369/8/3
f 369/8/4 370/7/4 366/9/4 365/10/4
f 367/11/5 371/6/5 369/8/5 365/12/5
f 372/5/6 368/13/6 366/14/6 370/7/6
usemtl CabinWood
f 65/15/7 66/16/7 68/17/7 67/18/7
f 67/18/8 68/17/8 70/19/8 69/20/8
f 69/20/5 70/19/5 72/21/5 71/22/5
f 71/22/9 72/21/9 74/23/9 73/24/9
f 73/24/10 74/23/10 76/25/10 75/26/10
f 75/26/11 76/25/11 78/27/11 77/28/11
f 77/28/12 78/27/12 80/29/12 79/30/12
f 79/30/6 80/29/6 82/31/6 81/32/6
f 68/33/3 66/34/3 84/35/3 82/36/3 80/37/3 78/38/3 76/39/3 74/40/3 72/41/3 70/42/3
f 81/32/13 82/31/13 84/43/13 83/44/13
f 83/44/14 84/43/14 66/45/14 65/46/14
f 65/47/1 67/48/1 69/49/1 71/50/1 73/51/1 75/52/1 77/53/1 79/54/1 81/55/1 83/56/1
f 105/15/7 106/16/7 108/17/7 107/18/7
f 107/18/8 108/17/8 110/19/8 109/20/8
f 109/20/5 110/19/5 112/21/5 111/22/5
f 111/22/9 112/21/9 114/23/9 113/24/9
f 113/24/10 114/23/10 116/25/10 115/26/10
f 115/26/11 116/25/11 118/27/11 117/28/11
f 117/28/12 118/27/12 120/29/12 119/30/12
f 119/30/6 120/29/6 122/31/6 121/32/6
f 108/33/3 106/34/3 124/35/3 122/36/3 120/37/3 118/38/3 116/39/3 114/40/3 112/41/3 110/42/3
f 121/32/13 122/31/13 124/43/13 123/44/13
f 123/44/14 124/43/14 106/45/14 105/46/14
f 105/47/1 107/48/1 109/49/1 111/50/1 113/51/1 115/52/1 117/53/1 119/54/1 121/55/1 123/56/1
f 145/15/7 146/16/7 148/17/7 147/18/7
f 147/18/8 148/17/8 150/19/8 149/20/8
f 149/20/5 150/19/5 152/21/5 151/22/5
f 151/22/9 152/21/9 154/23/9 153/24/9
f 153/24/10 154/23/10 156/25/10 155/26/10
f 155/26/11 156/25/11 158/27/11 157/28/11
f 157/28/12 158/27/12 160/29/12 159/30/12
f 159/30/6 160/29/6 162/31/6 161/32/6
f 148/33/3 146/34/3 164/35/3 162/36/3 160/37/3 158/38/3 156/39/3 154/40/3 152/41/3 150/42/3
f 161/32/13 162/31/13 164/43/13 163/44/13
f 163/44/14 164/43/14 146/45/14 145/46/14
f 145/47/1 147/48/1 149/49/1 151/50/1 153/51/1 155/52/1 157/53/1 159/54/1 161/55/1 163/56/1
f 185/15/7 186/16/7 188/17/7 187/18/7
f 187/18/8 188/17/8 190/19/8 189/20/8
f 189/20/5 190/19/5 192/21/5 191/22/5
f 191/22/9 192/21/9 194/23/9 193/24/9
f 193/24/10 194/23/10 196/25/10 195/26/10
f 195/26/11 196/25/11 198/27/11 197/28/11
f 197/28/12 198/27/12 200/29/12 199/30/12
f 199/30/6 200/29/6 202/31/6 201/32/6
f 188/33/3 186/34/3 204/35/3 202/36/3 200/37/3 198/38/3 196/39/3 194/40/3 192/41/3 190/42/3
f 201/32/13 202/31/13 204/43/13 203/44/13
f 203/44/14 204/43/14 186/45/14 185/46/14
f 185/47/1 187/48/1 189/49/1 191/50/1 193/51/1 195/52/1 197/53/1 199/54/1 201/55/1 203/56/1
usemtl AccentBlack
f 85/15/7 86/16/7 88/17/7 87/18/7
f 87/18/8 88/17/8 90/19/8 89/20/8
f 89/20/5 90/19/5 92/21/5 91/22/5
f 91/22/9 92/21/9 94/23/9 93/24/9
f 93/24/10 94/23/10 96/25/10 95/26/10
f 95/26/11 96/25/11 98/27/11 97/28/11
f 97/28/12 98/27/12 100/29/12 99/30/12
f 99/30/6 100/29/6 102/31/6 101/32/6
f 88/57/3 86/34/3 104/58/3 102/59/3 100/60/3 98/61/3 96/39/3 94/62/3 92/63/3 90/64/3
f 101/32/13 102/31/13 104/43/13 103/44/13
f 103/44/14 104/43/14 86/45/14 85/46/14
f 85/47/1 87/65/1 89/66/1 91/67/1 93/68/1 95/52/1 97/69/1 99/70/1 101/71/1 103/72/1
f 125/15/7 126/16/7 128/17/7 127/18/7
f 127/18/8 128/17/8 130/19/8 129/20/8
f 129/20/5 130/19/5 132/21/5 131/22/5
f 131/22/9 132/21/9 134/23/9 133/24/9
f 133/24/10 134/23/10 136/25/10 135/26/10
f 135/26/11 136/25/11 138/27/11 137/28/11
f 137/28/12 138/27/12 140/29/12 139/30/12
f 139/30/6 140/29/6 142/31/6 141/32/6
f 128/57/3 126/34/3 144/58/3 142/59/3 140/60/3 138/61/3 136/39/3 134/62/3 132/63/3 130/64/3
f 141/32/13 142/31/13 144/43/13 143/44/13
f 143/44/14 144/43/14 126/45/14 125/46/14
f 125/47/1 127/65/1 129/66/1 131/67/1 133/68/1 135/52/1 137/69/1 139/70/1 141/71/1 143/72/1
f 165/15/7 166/16/7 168/17/7 167/18/7
f 167/18/8 168/17/8 170/19/8 169/20/8
f 169/20/5 170/19/5 172/21/5 171/22/5
f 171/22/9 172/21/9 174/23/9 173/24/9
f 173/24/10 174/23/10 176/25/10 175/26/10
f 175/26/11 176/25/11 178/27/11 177/28/11
f 177/28/12 178/27/12 180/29/12 179/30/12
f 179/30/6 180/29/6 182/31/6 181/32/6
f 168/57/3 166/34/3 184/58/3 182/59/3 180/60/3 178/61/3 176/39/3 174/62/3 172/63/3 170/64/3
f 181/32/13 182/31/13 184/43/13 183/44/13
f 183/44/14 184/43/14 166/45/14 165/46/14
f 165/47/1 167/65/1 169/66/1 171/67/1 173/68/1 175/52/1 177/69/1 179/70/1 181/71/1 183/72/1
f 205/15/7 206/16/7 208/17/7 207/18/7
f 207/18/8 208/17/8 210/19/8 209/20/8
f 209/20/5 210/19/5 212/21/5 211/22/5
f 211/22/9 212/21/9 214/23/9 213/24/9
f 213/24/10 214/23/10 216/25/10 215/26/10
f 215/26/11 216/25/11 218/27/11 217/28/11
f 217/28/12 218/27/12 220/29/12 219/30/12
f 219/30/6 220/29/6 222/31/6 221/32/6
f 208/57/3 206/34/3 224/58/3 222/59/3 220/60/3 218/61/3 216/39/3 214/62/3 212/63/3 210/64/3
f 221/32/13 222/31/13 224/43/13 223/44/13
f 223/44/14 224/43/14 206/45/14 205/46/14
f 205/47/1 207/65/1 209/66/1 211/67/1 213/68/1 215/52/1 217/69/1 219/70/1 221/71/1 223/72/1
f 341/15/31 342/16/31 344/83/31 343/13/31
f 343/13/32 344/83/32 346/84/32 345/85/32
f 345/85/33 346/84/33 348/9/33 347/5/33
f 347/5/34 348/9/34 350/86/34 349/87/34
f 349/87/35 350/86/35 352/10/35 351/6/35
f 351/6/36 352/10/36 354/88/36 353/89/36
f 344/90/6 342/34/6 356/107/6 354/108/6 352/109/6 350/39/6 348/110/6 346/96/6
f 353/89/37 354/88/37 356/97/37 355/11/37
f 355/11/38 356/97/38 342/98/38 341/99/38
f 341/47/5 343/100/5 345/101/5 347/111/5 349/52/5 351/112/5 353/105/5 355/106/5
f 373/15/15 374/16/15 376/17/15 375/18/15
f 375/18/16 376/17/16 378/19/16 377/20/16
f 377/20/3 378/19/3 380/21/3 379/22/3
f 379/22/17 380/21/17 382/23/17 381/24/17
f 381/24/18 382/23/18 384/25/18 383/26/18
f 383/26/19 384/25/19 386/27/19 385/28/19
f 385/28/20 386/27/20 388/29/20 387/30/20
f 387/30/1 388/29/1 390/31/1 389/32/1
f 376/33/6 374/34/6 392/35/6 390/80/6 388/81/6 386/38/6 384/39/6 382/40/6 380/63/6 378/64/6
f 389/32/21 390/31/21 392/43/21 391/44/21
f 391/44/22 392/43/22 374/45/22 373/46/22
f 373/47/5 375/48/5 377/66/5 379/67/5 381/51/5 383/52/5 385/53/5 387/70/5 389/71/5 391/56/5
usemtl RopeTan
f 265/1/1 266/2/1 268/3/1 267/4/1
f 267/4/2 268/3/2 272/5/2 271/6/2
f 271/6/3 272/5/3 270/7/3 269/8/3
f 269/8/4 270/7/4 266/9/4 265/10/4
f 267/11/5 271/6/5 269/8/5 265/12/5
f 272/5/6 268/13/6 266/14/6 270/7/6
f 273/1/1 274/2/1 276/3/1 275/4/1
f 275/4/2 276/3/2 280/5/2 279/6/2
f 279/6/3 280/5/3 278/7/3 277/8/3
f 277/8/4 278/7/4 274/9/4 273/10/4
f 275/11/5 279/6/5 277/8/5 273/12/5
f 280/5/6 276/13/6 274/14/6 278/7/6
f 281/1/1 282/2/1 284/3/1 283/4/1
f 283/4/2 284/3/2 288/5/2 287/6/2
f 287/6/3 288/5/3 286/7/3 285/8/3
f 285/8/4 286/7/4 282/9/4 281/10/4
f 283/11/5 287/6/5 285/8/5 281/12/5
f 288/5/6 284/13/6 282/14/6 286/7/6
f 309/15/23 310/16/23 312/83/23 311/13/23
f 311/13/24 312/83/24 314/84/24 313/85/24
f 313/85/25 314/84/25 316/9/25 315/5/25
f 315/5/26 316/9/26 318/86/26 317/87/26
f 317/87/27 318/86/27 320/10/27 319/6/27
f 319/6/28 320/10/28 322/88/28 321/89/28
f 312/90/4 310/34/4 324/91/4 322/92/4 320/93/4 318/94/4 316/95/4 314/96/4
f 321/89/29 322/88/29 324/97/29 323/11/29
f 323/11/30 324/97/30 310/98/30 309/99/30
f 309/47/2 311/100/2 313/101/2 315/102/2 317/103/2 319/104/2 321/105/2 323/106/2
usemtl MastWood
f 289/15/15 290/16/15 292/17/15 291/18/15
f 291/18/16 292/17/16 294/19/16 293/20/16
f 293/20/3 294/19/3 296/21/3 295/22/3
f 295/22/17 296/21/17 298/23/17 297/24/17
f 297/24/18 298/23/18 300/25/18 299/26/18
f 299/26/19 300/25/19 302/27/19 301/28/19
f 301/28/20 302/27/20 304/29/20 303/30/20
f 303/30/1 304/29/1 306/31/1 305/32/1
f 292/33/6 290/34/6 308/79/6 306/80/6 304/81/6 302/82/6 300/39/6 298/40/6 296/63/6 294/64/6
f 305/32/21 306/31/21 308/43/21 307/44/21
f 307/44/22 308/43/22 290/45/22 289/46/22
f 289/47/5 291/48/5 293/66/5 295/67/5 297/51/5 299/52/5 301/53/5 303/70/5 305/71/5 307/56/5
usemtl StripeCream
f 325/1/1 326/2/1 328/3/1 327/4/1
f 327/4/2 328/3/2 332/5/2 331/6/2
f 331/6/3 332/5/3 330/7/3 329/8/3
f 329/8/4 330/7/4 326/9/4 325/10/4
f 327/11/5 331/6/5 329/8/5 325/12/5
f 332/5/6 328/13/6 326/14/6 330/7/6
usemtl StripeOrange
f 333/1/1 334/2/1 336/3/1 335/4/1
f 335/4/2 336/3/2 340/5/2 339/6/2
f 339/6/3 340/5/3 338/7/3 337/8/3
f 337/8/4 338/7/4 334/9/4 333/10/4
f 335/11/5 339/6/5 337/8/5 333/12/5
f 340/5/6 336/13/6 334/14/6 338/7/6
usemtl FlagBlack
f 357/1/1 358/2/1 360/3/1 359/4/1
f 359/4/2 360/3/2 364/5/2 363/6/2
f 363/6/3 364/5/3 362/7/3 361/8/3
f 361/8/4 362/7/4 358/9/4 357/10/4
f 359/11/5 363/6/5 361/8/5 357/12/5
f 364/5/6 360/13/6 358/14/6 362/7/6
