# Blender 4.3.2
# www.blender.org
mtllib Jack_Ship.mtl
o Jack_Ship
v -0.825000 -0.165600 0.102981
v -0.825000 0.180000 0.110400
v -0.825000 -0.165600 -0.102981
v -0.825000 0.180000 -0.110400
v -0.275000 -0.125600 0.056674
v -0.275000 0.220000 0.063156
v -0.275000 -0.125600 -0.056674
v -0.275000 0.220000 -0.063156
v -0.825000 -0.165600 0.000000
v -0.825000 0.000000 0.110400
v -0.825000 0.180000 0.000000
v -0.825000 0.000000 -0.110400
v -0.550000 -0.165600 -0.197958
v -0.550000 0.180000 -0.198222
v -0.275000 0.040000 -0.063156
v -0.275000 -0.125600 0.000000
v -0.275000 0.220000 0.000000
v -0.275000 0.040000 0.063156
v -0.550000 -0.165600 0.197958
v -0.550000 0.180000 0.198222
v -0.550000 0.180000 0.000000
v -0.550000 -0.165600 0.000000
v -0.550000 0.000000 0.198222
v -0.275000 0.040000 0.000000
v -0.550000 0.000000 -0.198222
v -0.825000 0.000000 0.000000
v -0.325000 -0.174800 0.113279
v -0.325000 0.190000 0.121440
v -0.325000 -0.174800 -0.113279
v -0.325000 0.190000 -0.121440
v 0.225000 -0.134800 0.062341
v 0.225000 0.230000 0.069471
v 0.225000 -0.134800 -0.062341
v 0.225000 0.230000 -0.069471
v -0.325000 -0.174800 0.000000
v -0.325000 0.000000 0.121440
v -0.325000 0.190000 0.000000
v -0.325000 0.000000 -0.121440
v -0.050000 -0.174800 -0.217754
v -0.050000 0.190000 -0.218044
v 0.225000 0.040000 -0.069471
v 0.225000 -0.134800 0.000000
v 0.225000 0.230000 0.000000
v 0.225000 0.040000 0.069471
v -0.050000 -0.174800 0.217754
v -0.050000 0.190000 0.218044
v -0.050000 0.190000 0.000000
v -0.050000 -0.174800 0.000000
v -0.050000 0.000000 0.218044
v 0.225000 0.040000 0.000000
v -0.050000 0.000000 -0.218044
v -0.325000 0.000000 0.000000
v 0.175000 -0.165600 0.092683
v 0.175000 0.180000 0.099360
v 0.175000 -0.165600 -0.092683
v 0.175000 0.180000 -0.099360
v 0.625000 -0.125600 0.051006
v 0.625000 0.220000 0.056840
v 0.625000 -0.125600 -0.051006
v 0.625000 0.220000 -0.056840
v 0.175000 -0.165600 0.000000
v 0.175000 0.000000 0.099360
v 0.175000 0.180000 0.000000
v 0.175000 0.000000 -0.099360
v 0.400000 -0.165600 -0.178162
v 0.400000 0.180000 -0.178400
v 0.625000 0.040000 -0.056840
v 0.625000 -0.125600 0.000000
v 0.625000 0.220000 0.000000
v 0.625000 0.040000 0.056840
v 0.400000 -0.165600 0.178162
v 0.400000 0.180000 0.178400
v 0.400000 0.180000 0.000000
v 0.400000 -0.165600 0.000000
v 0.400000 0.000000 0.178400
v 0.625000 0.040000 0.000000
v 0.400000 0.000000 -0.178400
v 0.175000 0.000000 0.000000
v -0.750000 -0.214400 0.065591
v -0.750000 -0.080000 0.070840
v -0.750000 -0.214400 -0.065591
v -0.750000 -0.080000 -0.070840
v 0.550000 -0.174400 0.033748
v 0.550000 -0.040000 0.037893
v 0.550000 -0.174400 -0.033748
v 0.550000 -0.040000 -0.037893
v -0.750000 -0.214400 0.000000
v -0.750000 -0.150000 0.070840
v -0.750000 -0.080000 0.000000
v -0.750000 -0.150000 -0.070840
v -0.100000 -0.214400 -0.138571
v -0.100000 -0.080000 -0.138756
v 0.550000 -0.110000 -0.037893
v 0.550000 -0.174400 0.000000
v 0.550000 -0.040000 0.000000
v 0.550000 -0.110000 0.037893
v -0.100000 -0.214400 0.138571
v -0.100000 -0.080000 0.138756
v -0.100000 -0.080000 0.000000
v -0.100000 -0.214400 0.000000
v -0.100000 -0.150000 0.138756
v 0.550000 -0.110000 0.000000
v -0.100000 -0.150000 -0.138756
v -0.750000 -0.150000 0.000000
v -0.475000 -0.300000 0.020000
v -0.475000 -0.200000 0.020000
v -0.475000 -0.300000 -0.020000
v -0.475000 -0.200000 -0.020000
v 0.375000 -0.300000 0.020000
v 0.375000 -0.200000 0.020000
v 0.375000 -0.300000 -0.020000
v 0.375000 -0.200000 -0.020000
v -0.760000 0.047000 0.114566
v -0.760000 0.095000 0.122820
v -0.760000 0.047000 -0.114566
v -0.760000 0.095000 -0.122820
v 0.560000 0.087000 0.064949
v 0.560000 0.135000 0.072268
v 0.560000 0.087000 -0.064949
v 0.560000 0.135000 -0.072268
v -0.740000 -0.010700 0.115854
v -0.740000 0.032500 0.124200
v -0.740000 -0.010700 -0.115854
v -0.740000 0.032500 -0.124200
v 0.540000 0.029300 0.065678
v 0.540000 0.072500 0.073080
v 0.540000 0.029300 -0.065678
v 0.540000 0.072500 -0.073080
v -0.725000 0.171600 0.100379
v -0.725000 0.210000 0.106352
v -0.725000 0.171600 -0.100379
v -0.725000 0.210000 -0.106352
v 0.525000 0.211600 0.058417
v 0.525000 0.250000 0.064419
v 0.525000 0.211600 -0.058417
v 0.525000 0.250000 -0.064419
v -0.510000 0.210000 0.150000
v -0.510000 0.220000 0.150000
v -0.510000 0.210000 -0.150000
v -0.510000 0.220000 -0.150000
v -0.490000 0.210000 0.150000
v -0.490000 0.220000 0.150000
v -0.490000 0.210000 -0.150000
v -0.490000 0.220000 -0.150000
v -0.260000 0.210000 0.150000
v -0.260000 0.220000 0.150000
v -0.260000 0.210000 -0.150000
v -0.260000 0.220000 -0.150000
v -0.240000 0.210000 0.150000
v -0.240000 0.220000 0.150000
v -0.240000 0.210000 -0.150000
v -0.240000 0.220000 -0.150000
v -0.010000 0.210000 0.150000
v -0.010000 0.220000 0.150000
v -0.010000 0.210000 -0.150000
v -0.010000 0.220000 -0.150000
v 0.010000 0.210000 0.150000
v 0.010000 0.220000 0.150000
v 0.010000 0.210000 -0.150000
v 0.010000 0.220000 -0.150000
v 0.240000 0.210000 0.150000
v 0.240000 0.220000 0.150000
v 0.240000 0.210000 -0.150000
v 0.240000 0.220000 -0.150000
v 0.260000 0.210000 0.150000
v 0.260000 0.220000 0.150000
v 0.260000 0.210000 -0.150000
v 0.260000 0.220000 -0.150000
v -0.650000 0.204700 -0.164938
v -0.650000 0.257500 -0.164402
v -0.650000 0.204700 -0.185062
v -0.650000 0.257500 -0.185598
v 0.450000 0.244700 -0.168660
v 0.450000 0.297500 -0.168071
v 0.450000 0.244700 -0.181340
v 0.450000 0.297500 -0.181929
v -0.450000 0.250000 -0.190000
v -0.450000 0.350000 -0.190000
v -0.439393 0.250000 -0.185607
v -0.439393 0.350000 -0.185607
v -0.435000 0.250000 -0.175000
v -0.435000 0.350000 -0.175000
v -0.439393 0.250000 -0.164393
v -0.439393 0.350000 -0.164393
v -0.450000 0.250000 -0.160000
v -0.450000 0.350000 -0.160000
v -0.460607 0.250000 -0.164393
v -0.460607 0.350000 -0.164393
v -0.465000 0.250000 -0.175000
v -0.465000 0.350000 -0.175000
v -0.460607 0.250000 -0.185607
v -0.460607 0.350000 -0.185607
v -0.100000 0.250000 -0.190000
v -0.100000 0.350000 -0.190000
v -0.089393 0.250000 -0.185607
v -0.089393 0.350000 -0.185607
v -0.085000 0.250000 -0.175000
v -0.085000 0.350000 -0.175000
v -0.089393 0.250000 -0.164393
v -0.089393 0.350000 -0.164393
v -0.100000 0.250000 -0.160000
v -0.100000 0.350000 -0.160000
v -0.110607 0.250000 -0.164393
v -0.110607 0.350000 -0.164393
v -0.115000 0.250000 -0.175000
v -0.115000 0.350000 -0.175000
v -0.110607 0.250000 -0.185607
v -0.110607 0.350000 -0.185607
v 0.250000 0.250000 -0.190000
v 0.250000 0.350000 -0.190000
v 0.260607 0.250000 -0.185607
v 0.260607 0.350000 -0.185607
v 0.265000 0.250000 -0.175000
v 0.265000 0.350000 -0.175000
v 0.260607 0.250000 -0.164393
v 0.260607 0.350000 -0.164393
v 0.250000 0.250000 -0.160000
v 0.250000 0.350000 -0.160000
v 0.239393 0.250000 -0.164393
v 0.239393 0.350000 -0.164393
v 0.235000 0.250000 -0.175000
v 0.235000 0.350000 -0.175000
v 0.239393 0.250000 -0.185607
v 0.239393 0.350000 -0.185607
v -0.650000 0.204700 0.185062
v -0.650000 0.257500 0.185598
v -0.650000 0.204700 0.164938
v -0.650000 0.257500 0.164402
v 0.450000 0.244700 0.181340
v 0.450000 0.297500 0.181929
v 0.450000 0.244700 0.168660
v 0.450000 0.297500 0.168071
v -0.450000 0.250000 0.160000
v -0.450000 0.350000 0.160000
v -0.439393 0.250000 0.164393
v -0.439393 0.350000 0.164393
v -0.435000 0.250000 0.175000
v -0.435000 0.350000 0.175000
v -0.439393 0.250000 0.185607
v -0.439393 0.350000 0.185607
v -0.450000 0.250000 0.190000
v -0.450000 0.350000 0.190000
v -0.460607 0.250000 0.185607
v -0.460607 0.350000 0.185607
v -0.465000 0.250000 0.175000
v -0.465000 0.350000 0.175000
v -0.460607 0.250000 0.164393
v -0.460607 0.350000 0.164393
v -0.100000 0.250000 0.160000
v -0.100000 0.350000 0.160000
v -0.089393 0.250000 0.164393
v -0.089393 0.350000 0.164393
v -0.085000 0.250000 0.175000
v -0.085000 0.350000 0.175000
v -0.089393 0.250000 0.185607
v -0.089393 0.350000 0.185607
v -0.100000 0.250000 0.190000
v -0.100000 0.350000 0.190000
v -0.110607 0.250000 0.185607
v -0.110607 0.350000 0.185607
v -0.115000 0.250000 0.175000
v -0.115000 0.350000 0.175000
v -0.110607 0.250000 0.164393
v -0.110607 0.350000 0.164393
v 0.250000 0.250000 0.160000
v 0.250000 0.350000 0.160000
v 0.260607 0.250000 0.164393
v 0.260607 0.350000 0.164393
v 0.265000 0.250000 0.175000
v 0.265000 0.350000 0.175000
v 0.260607 0.250000 0.185607
v 0.260607 0.350000 0.185607
v 0.250000 0.250000 0.190000
v 0.250000 0.350000 0.190000
v 0.239393 0.250000 0.185607
v 0.239393 0.350000 0.185607
v 0.235000 0.250000 0.175000
v 0.235000 0.350000 0.175000
v 0.239393 0.250000 0.164393
v 0.239393 0.350000 0.164393
v -0.530000 0.240000 0.150000
v -0.530000 0.520000 0.150000
v -0.530000 0.240000 -0.150000
v -0.530000 0.520000 -0.150000
v -0.110000 0.240000 0.150000
v -0.110000 0.520000 0.150000
v -0.110000 0.240000 -0.150000
v -0.110000 0.520000 -0.150000
v -0.560000 0.515000 0.170000
v -0.560000 0.565000 0.170000
v -0.560000 0.515000 -0.170000
v -0.560000 0.565000 -0.170000
v -0.080000 0.515000 0.170000
v -0.080000 0.565000 0.170000
v -0.080000 0.515000 -0.170000
v -0.080000 0.565000 -0.170000
v -0.380000 0.260000 -0.145000
v -0.380000 0.420000 -0.145000
v -0.380000 0.260000 -0.165000
v -0.380000 0.420000 -0.165000
v -0.260000 0.260000 -0.145000
v -0.260000 0.420000 -0.145000
v -0.260000 0.260000 -0.165000
v -0.260000 0.420000 -0.165000
v -0.240000 0.380000 -0.145000
v -0.240000 0.460000 -0.145000
v -0.240000 0.380000 -0.165000
v -0.240000 0.460000 -0.165000
v -0.160000 0.380000 -0.145000
v -0.160000 0.460000 -0.145000
v -0.160000 0.380000 -0.165000
v -0.160000 0.460000 -0.165000
v -0.240000 0.380000 0.165000
v -0.240000 0.460000 0.165000
v -0.240000 0.380000 0.145000
v -0.240000 0.460000 0.145000
v -0.160000 0.380000 0.165000
v -0.160000 0.460000 0.165000
v -0.160000 0.380000 0.145000
v -0.160000 0.460000 0.145000
v -0.620000 0.240000 -0.040000
v -0.620000 0.360000 -0.040000
v -0.620000 0.240000 -0.160000
v -0.620000 0.360000 -0.160000
v -0.480000 0.240000 -0.040000
v -0.480000 0.360000 -0.040000
v -0.480000 0.240000 -0.160000
v -0.480000 0.360000 -0.160000
v -0.600000 0.230000 0.150000
v -0.600000 0.330000 0.150000
v -0.600000 0.230000 0.050000
v -0.600000 0.330000 0.050000
v -0.500000 0.230000 0.150000
v -0.500000 0.330000 0.150000
v -0.500000 0.230000 0.050000
v -0.500000 0.330000 0.050000
v 0.250000 0.230000 -0.180000
v 0.250000 0.370000 -0.180000
v 0.280000 0.230000 -0.171962
v 0.280000 0.370000 -0.171962
v 0.301962 0.230000 -0.150000
v 0.301962 0.370000 -0.150000
v 0.310000 0.230000 -0.120000
v 0.310000 0.370000 -0.120000
v 0.301962 0.230000 -0.090000
v 0.301962 0.370000 -0.090000
v 0.280000 0.230000 -0.068038
v 0.280000 0.370000 -0.068038
v 0.250000 0.230000 -0.060000
v 0.250000 0.370000 -0.060000
v 0.220000 0.230000 -0.068038
v 0.220000 0.370000 -0.068038
v 0.198038 0.230000 -0.090000
v 0.198038 0.370000 -0.090000
v 0.190000 0.230000 -0.120000
v 0.190000 0.370000 -0.120000
v 0.198038 0.230000 -0.150000
v 0.198038 0.370000 -0.150000
v 0.220000 0.230000 -0.171962
v 0.220000 0.370000 -0.171962
v 0.250000 0.285000 -0.182000
v 0.250000 0.315000 -0.182000
v 0.281000 0.285000 -0.173694
v 0.281000 0.315000 -0.173694
v 0.303694 0.285000 -0.151000
v 0.303694 0.315000 -0.151000
v 0.312000 0.285000 -0.120000
v 0.312000 0.315000 -0.120000
v 0.303694 0.285000 -0.089000
v 0.303694 0.315000 -0.089000
v 0.281000 0.285000 -0.066306
v 0.281000 0.315000 -0.066306
v 0.250000 0.285000 -0.058000
v 0.250000 0.315000 -0.058000
v 0.219000 0.285000 -0.066306
v 0.219000 0.315000 -0.066306
v 0.196306 0.285000 -0.089000
v 0.196306 0.315000 -0.089000
v 0.188000 0.285000 -0.120000
v 0.188000 0.315000 -0.120000
v 0.196306 0.285000 -0.151000
v 0.196306 0.315000 -0.151000
v 0.219000 0.285000 -0.173694
v 0.219000 0.315000 -0.173694
v 0.050000 0.220000 -0.038000
v 0.050000 1.420000 -0.038000
v 0.066488 0.220000 -0.034237
v 0.066488 1.420000 -0.034237
v 0.079710 0.220000 -0.023693
v 0.079710 1.420000 -0.023693
v 0.087047 0.220000 -0.008456
v 0.087047 1.420000 -0.008456
v 0.087047 0.220000 0.008456
v 0.087047 1.420000 0.008456
v 0.079710 0.220000 0.023693
v 0.079710 1.420000 0.023693
v 0.066488 0.220000 0.034237
v 0.066488 1.420000 0.034237
v 0.050000 0.220000 0.038000
v 0.050000 1.420000 0.038000
v 0.033512 0.220000 0.034237
v 0.033512 1.420000 0.034237
v 0.020290 0.220000 0.023693
v 0.020290 1.420000 0.023693
v 0.012953 0.220000 0.008456
v 0.012953 1.420000 0.008456
v 0.012953 0.220000 -0.008456
v 0.012953 1.420000 -0.008456
v 0.020290 0.220000 -0.023693
v 0.020290 1.420000 -0.023693
v 0.033512 0.220000 -0.034237
v 0.033512 1.420000 -0.034237
v 0.050000 1.390000 -0.050000
v 0.050000 1.450000 -0.050000
v 0.079389 1.390000 -0.040451
v 0.079389 1.450000 -0.040451
v 0.097553 1.390000 -0.015451
v 0.097553 1.450000 -0.015451
v 0.097553 1.390000 0.015451
v 0.097553 1.450000 0.015451
v 0.079389 1.390000 0.040451
v 0.079389 1.450000 0.040451
v 0.050000 1.390000 0.050000
v 0.050000 1.450000 0.050000
v 0.020611 1.390000 0.040451
v 0.020611 1.450000 0.040451
v 0.002447 1.390000 0.015451
v 0.002447 1.450000 0.015451
v 0.002447 1.390000 -0.015451
v 0.002447 1.450000 -0.015451
v 0.020611 1.390000 -0.040451
v 0.020611 1.450000 -0.040451
v 0.050000 1.080000 -0.100000
v 0.050000 1.120000 -0.100000
v 0.100000 1.080000 -0.086603
v 0.100000 1.120000 -0.086603
v 0.136603 1.080000 -0.050000
v 0.136603 1.120000 -0.050000
v 0.150000 1.080000 0.000000
v 0.150000 1.120000 0.000000
v 0.136603 1.080000 0.050000
v 0.136603 1.120000 0.050000
v 0.100000 1.080000 0.086603
v 0.100000 1.120000 0.086603
v 0.050000 1.080000 0.100000
v 0.050000 1.120000 0.100000
v 0.000000 1.080000 0.086603
v 0.000000 1.120000 0.086603
v -0.036602 1.080000 0.050000
v -0.036602 1.120000 0.050000
v -0.050000 1.080000 0.000000
v -0.050000 1.120000 0.000000
v -0.036602 1.080000 -0.050000
v -0.036602 1.120000 -0.050000
v 0.000000 1.080000 -0.086603
v 0.000000 1.120000 -0.086603
v 0.050000 1.135000 -0.110000
v 0.050000 1.165000 -0.110000
v 0.105000 1.135000 -0.095263
v 0.105000 1.165000 -0.095263
v 0.145263 1.135000 -0.055000
v 0.145263 1.165000 -0.055000
v 0.160000 1.135000 0.000000
v 0.160000 1.165000 0.000000
v 0.145263 1.135000 0.055000
v 0.145263 1.165000 0.055000
v 0.105000 1.135000 0.095263
v 0.105000 1.165000 0.095263
v 0.050000 1.135000 0.110000
v 0.050000 1.165000 0.110000
v -0.005000 1.135000 0.095263
v -0.005000 1.165000 0.095263
v -0.045263 1.135000 0.055000
v -0.045263 1.165000 0.055000
v -0.060000 1.135000 0.000000
v -0.060000 1.165000 0.000000
v -0.045263 1.135000 -0.055000
v -0.045263 1.165000 -0.055000
v -0.005000 1.135000 -0.095263
v -0.005000 1.165000 -0.095263
v 0.050000 1.022000 -0.450000
v 0.050000 1.022000 0.450000
v 0.062931 1.017798 -0.450000
v 0.062931 1.017798 0.450000
v 0.070923 1.006798 -0.450000
v 0.070923 1.006798 0.450000
v 0.070923 0.993202 -0.450000
v 0.070923 0.993202 0.450000
v 0.062931 0.982202 -0.450000
v 0.062931 0.982202 0.450000
v 0.050000 0.978000 -0.450000
v 0.050000 0.978000 0.450000
v 0.037069 0.982202 -0.450000
v 0.037069 0.982202 0.450000
v 0.029077 0.993202 -0.450000
v 0.029077 0.993202 0.450000
v 0.029077 1.006798 -0.450000
v 0.029077 1.006798 0.450000
v 0.037069 1.017798 -0.450000
v 0.037069 1.017798 0.450000
v 0.036720 0.350000 0.399600
v 0.036720 1.010000 0.399600
v 0.036720 0.350000 -0.399600
v 0.036720 1.010000 -0.399600
v 0.076720 0.350000 0.399600
v 0.076720 1.010000 0.399600
v 0.076720 0.350000 -0.399600
v 0.076720 1.010000 -0.399600
v 0.070000 0.680000 -0.050000
v 0.070000 0.800000 -0.050000
v 0.070000 0.680000 -0.190000
v 0.070000 0.800000 -0.190000
v 0.090000 0.680000 -0.050000
v 0.090000 0.800000 -0.050000
v 0.090000 0.680000 -0.190000
v 0.090000 0.800000 -0.190000
v 0.530000 0.100000 -0.130000
v 0.530000 0.023588 -0.105172
v 0.530000 -0.023637 -0.040172
v 0.530000 -0.023637 0.040172
v 0.530000 0.023588 0.105172
v 0.530000 0.100000 0.130000
v 0.530000 0.176412 0.105172
v 0.530000 0.223637 0.040172
v 0.530000 0.223637 -0.040172
v 0.530000 0.176412 -0.105172
v 0.830000 0.100000 0.000000
v 0.640000 0.280000 -0.022000
v 0.960000 0.280000 -0.022000
v 0.640000 0.267069 -0.017798
v 0.960000 0.267069 -0.017798
v 0.640000 0.259077 -0.006798
v 0.960000 0.259077 -0.006798
v 0.640000 0.259077 0.006798
v 0.960000 0.259077 0.006798
v 0.640000 0.267069 0.017798
v 0.960000 0.267069 0.017798
v 0.640000 0.280000 0.022000
v 0.960000 0.280000 0.022000
v 0.640000 0.292931 0.017798
v 0.960000 0.292931 0.017798
v 0.640000 0.300923 0.006798
v 0.960000 0.300923 0.006798
v 0.640000 0.300923 -0.006798
v 0.960000 0.300923 -0.006798
v 0.640000 0.292931 -0.017798
v 0.960000 0.292931 -0.017798
v 0.590000 0.220000 0.040000
v 0.590000 0.340000 0.040000
v 0.590000 0.220000 -0.040000
v 0.590000 0.340000 -0.040000
v 0.690000 0.220000 0.040000
v 0.690000 0.340000 0.040000
v 0.690000 0.220000 -0.040000
v 0.690000 0.340000 -0.040000
v -0.870000 -0.030000 0.160000
v -0.870000 0.270000 0.160000
v -0.870000 -0.030000 -0.160000
v -0.870000 0.270000 -0.160000
v -0.770000 -0.030000 0.160000
v -0.770000 0.270000 0.160000
v -0.770000 -0.030000 -0.160000
v -0.770000 0.270000 -0.160000
v -0.960000 -0.150000 0.020000
v -0.960000 0.110000 0.020000
v -0.960000 -0.150000 -0.020000
v -0.960000 0.110000 -0.020000
v -0.880000 -0.150000 0.020000
v -0.880000 0.110000 0.020000
v -0.880000 -0.150000 -0.020000
v -0.880000 0.110000 -0.020000
v -0.870000 0.300000 -0.018000
v -0.610000 0.300000 -0.018000
v -0.870000 0.287272 -0.012728
v -0.610000 0.287272 -0.012728
v -0.870000 0.282000 0.000000
v -0.610000 0.282000 0.000000
v -0.870000 0.287272 0.012728
v -0.610000 0.287272 0.012728
v -0.870000 0.300000 0.018000
v -0.610000 0.300000 0.018000
v -0.870000 0.312728 0.012728
v -0.610000 0.312728 0.012728
v -0.870000 0.318000 0.000000
v -0.610000 0.318000 0.000000
v -0.870000 0.312728 -0.012728
v -0.610000 0.312728 -0.012728
v -0.820000 0.380000 -0.012000
v -0.820000 0.660000 -0.012000
v -0.811515 0.380000 -0.008485
v -0.811515 0.660000 -0.008485
v -0.808000 0.380000 0.000000
v -0.808000 0.660000 0.000000
v -0.811515 0.380000 0.008485
v -0.811515 0.660000 0.008485
v -0.820000 0.380000 0.012000
v -0.820000 0.660000 0.012000
v -0.828485 0.380000 0.008485
v -0.828485 0.660000 0.008485
v -0.832000 0.380000 0.000000
v -0.832000 0.660000 0.000000
v -0.828485 0.380000 -0.008485
v -0.828485 0.660000 -0.008485
v -0.810000 0.540000 0.010000
v -0.810000 0.620000 0.010000
v -0.810000 0.540000 -0.010000
v -0.810000 0.620000 -0.010000
v -0.710000 0.540000 0.010000
v -0.710000 0.620000 0.010000
v -0.710000 0.540000 -0.010000
v -0.710000 0.620000 -0.010000
v 0.050000 0.105000 -0.240000
v 0.050000 0.105000 -0.200000
v 0.073864 0.099553 -0.240000
v 0.073864 0.099553 -0.200000
v 0.093001 0.084292 -0.240000
v 0.093001 0.084292 -0.200000
v 0.103621 0.062239 -0.240000
v 0.103621 0.062239 -0.200000
v 0.103621 0.037761 -0.240000
v 0.103621 0.037761 -0.200000
v 0.093001 0.015708 -0.240000
v 0.093001 0.015708 -0.200000
v 0.073864 0.000447 -0.240000
v 0.073864 0.000447 -0.200000
v 0.050000 -0.005000 -0.240000
v 0.050000 -0.005000 -0.200000
v 0.026136 0.000447 -0.240000
v 0.026136 0.000447 -0.200000
v 0.006999 0.015708 -0.240000
v 0.006999 0.015708 -0.200000
v -0.003621 0.037761 -0.240000
v -0.003621 0.037761 -0.200000
v -0.003621 0.062239 -0.240000
v -0.003621 0.062239 -0.200000
v 0.006999 0.084292 -0.240000
v 0.006999 0.084292 -0.200000
v 0.026136 0.099553 -0.240000
v 0.026136 0.099553 -0.200000
v 0.050000 0.078000 -0.250000
v 0.050000 0.078000 -0.190000
v 0.066458 0.072652 -0.250000
v 0.066458 0.072652 -0.190000
v 0.076630 0.058652 -0.250000
v 0.076630 0.058652 -0.190000
v 0.076630 0.041348 -0.250000
v 0.076630 0.041348 -0.190000
v 0.066458 0.027348 -0.250000
v 0.066458 0.027348 -0.190000
v 0.050000 0.022000 -0.250000
v 0.050000 0.022000 -0.190000
v 0.033542 0.027348 -0.250000
v 0.033542 0.027348 -0.190000
v 0.023371 0.041348 -0.250000
v 0.023371 0.041348 -0.190000
v 0.023371 0.058652 -0.250000
v 0.023371 0.058652 -0.190000
v 0.033542 0.072652 -0.250000
v 0.033542 0.072652 -0.190000
v 0.050000 0.105000 0.200000
v 0.050000 0.105000 0.240000
v 0.073864 0.099553 0.200000
v 0.073864 0.099553 0.240000
v 0.093001 0.084292 0.200000
v 0.093001 0.084292 0.240000
v 0.103621 0.062239 0.200000
v 0.103621 0.062239 0.240000
v 0.103621 0.037761 0.200000
v 0.103621 0.037761 0.240000
v 0.093001 0.015708 0.200000
v 0.093001 0.015708 0.240000
v 0.073864 0.000447 0.200000
v 0.073864 0.000447 0.240000
v 0.050000 -0.005000 0.200000
v 0.050000 -0.005000 0.240000
v 0.026136 0.000447 0.200000
v 0.026136 0.000447 0.240000
v 0.006999 0.015708 0.200000
v 0.006999 0.015708 0.240000
v -0.003621 0.037761 0.200000
v -0.003621 0.037761 0.240000
v -0.003621 0.062239 0.200000
v -0.003621 0.062239 0.240000
v 0.006999 0.084292 0.200000
v 0.006999 0.084292 0.240000
v 0.026136 0.099553 0.200000
v 0.026136 0.099553 0.240000
v 0.050000 0.078000 0.190000
v 0.050000 0.078000 0.250000
v 0.066458 0.072652 0.190000
v 0.066458 0.072652 0.250000
v 0.076630 0.058652 0.190000
v 0.076630 0.058652 0.250000
v 0.076630 0.041348 0.190000
v 0.076630 0.041348 0.250000
v 0.066458 0.027348 0.190000
v 0.066458 0.027348 0.250000
v 0.050000 0.022000 0.190000
v 0.050000 0.022000 0.250000
v 0.033542 0.027348 0.190000
v 0.033542 0.027348 0.250000
v 0.023371 0.041348 0.190000
v 0.023371 0.041348 0.250000
v 0.023371 0.058652 0.190000
v 0.023371 0.058652 0.250000
v 0.033542 0.072652 0.190000
v 0.033542 0.072652 0.250000
v -0.250000 0.105000 -0.240000
v -0.250000 0.105000 -0.200000
v -0.226136 0.099553 -0.240000
v -0.226136 0.099553 -0.200000
v -0.206999 0.084292 -0.240000
v -0.206999 0.084292 -0.200000
v -0.196379 0.062239 -0.240000
v -0.196379 0.062239 -0.200000
v -0.196379 0.037761 -0.240000
v -0.196379 0.037761 -0.200000
v -0.206999 0.015708 -0.240000
v -0.206999 0.015708 -0.200000
v -0.226136 0.000447 -0.240000
v -0.226136 0.000447 -0.200000
v -0.250000 -0.005000 -0.240000
v -0.250000 -0.005000 -0.200000
v -0.273864 0.000447 -0.240000
v -0.273864 0.000447 -0.200000
v -0.293001 0.015708 -0.240000
v -0.293001 0.015708 -0.200000
v -0.303621 0.037761 -0.240000
v -0.303621 0.037761 -0.200000
v -0.303621 0.062239 -0.240000
v -0.303621 0.062239 -0.200000
v -0.293001 0.084292 -0.240000
v -0.293001 0.084292 -0.200000
v -0.273864 0.099553 -0.240000
v -0.273864 0.099553 -0.200000
v -0.250000 0.078000 -0.250000
v -0.250000 0.078000 -0.190000
v -0.233542 0.072652 -0.250000
v -0.233542 0.072652 -0.190000
v -0.223370 0.058652 -0.250000
v -0.223370 0.058652 -0.190000
v -0.223370 0.041348 -0.250000
v -0.223370 0.041348 -0.190000
v -0.233542 0.027348 -0.250000
v -0.233542 0.027348 -0.190000
v -0.250000 0.022000 -0.250000
v -0.250000 0.022000 -0.190000
v -0.266458 0.027348 -0.250000
v -0.266458 0.027348 -0.190000
v -0.276630 0.041348 -0.250000
v -0.276630 0.041348 -0.190000
v -0.276630 0.058652 -0.250000
v -0.276630 0.058652 -0.190000
v -0.266458 0.072652 -0.250000
v -0.266458 0.072652 -0.190000
v 0.200000 0.225000 0.060000
v 0.200000 0.255000 0.060000
v 0.200000 0.225000 -0.060000
v 0.200000 0.255000 -0.060000
v 0.360000 0.225000 0.060000
v 0.360000 0.255000 0.060000
v 0.360000 0.225000 -0.060000
v 0.360000 0.255000 -0.060000
v 0.400000 0.230000 -0.030000
v 0.400000 0.330000 -0.030000
v 0.417634 0.230000 -0.024271
v 0.417634 0.330000 -0.024271
v 0.428532 0.230000 -0.009271
v 0.428532 0.330000 -0.009271
v 0.428532 0.230000 0.009271
v 0.428532 0.330000 0.009271
v 0.417634 0.230000 0.024271
v 0.417634 0.330000 0.024271
v 0.400000 0.230000 0.030000
v 0.400000 0.330000 0.030000
v 0.382366 0.230000 0.024271
v 0.382366 0.330000 0.024271
v 0.371468 0.230000 0.009271
v 0.371468 0.330000 0.009271
v 0.371468 0.230000 -0.009271
v 0.371468 0.330000 -0.009271
v 0.382366 0.230000 -0.024271
v 0.382366 0.330000 -0.024271
v 0.071860 0.456230 -0.010000
v 0.768140 0.943770 -0.010000
v 0.076828 0.449136 -0.005000
v 0.773107 0.936676 -0.005000
v 0.076828 0.449136 0.005000
v 0.773107 0.936676 0.005000
v 0.071860 0.456230 0.010000
v 0.768140 0.943770 0.010000
v 0.066893 0.463324 0.005000
v 0.763172 0.950864 0.005000
v 0.066893 0.463324 -0.005000
v 0.763172 0.950864 -0.005000
v -0.043582 0.442885 -0.010000
v -0.656418 0.957115 -0.010000
v -0.038015 0.449519 -0.005000
v -0.650851 0.963749 -0.005000
v -0.038015 0.449519 0.005000
v -0.650851 0.963749 0.005000
v -0.043582 0.442885 0.010000
v -0.656418 0.957115 0.010000
v -0.049149 0.436251 0.005000
v -0.661985 0.950481 0.005000
v -0.049149 0.436251 -0.005000
v -0.661985 0.950481 -0.005000
v 0.050000 0.319911 -0.176715
v 0.050000 0.985651 0.039596
v 0.057794 0.318521 -0.172436
v 0.057794 0.984260 0.043876
v 0.057794 0.315740 -0.163876
v 0.057794 0.981479 0.052436
v 0.050000 0.314349 -0.159596
v 0.050000 0.980089 0.056715
v 0.042206 0.315740 -0.163876
v 0.042206 0.981479 0.052436
v 0.042206 0.318521 -0.172436
v 0.042206 0.984260 0.043876
v 0.050000 0.314349 0.159596
v 0.050000 0.980089 -0.056715
v 0.057794 0.315740 0.163876
v 0.057794 0.981479 -0.052436
v 0.057794 0.318521 0.172436
v 0.057794 0.984260 -0.043876
v 0.050000 0.319911 0.176715
v 0.050000 0.985651 -0.039596
v 0.042206 0.318521 0.172436
v 0.042206 0.984260 -0.043876
v 0.042206 0.315740 0.163876
v 0.042206 0.981479 -0.052436
v 0.275000 0.350000 0.010000
v 0.275000 0.750000 0.010000
v 0.275000 0.350000 -0.010000
v 0.275000 0.750000 -0.010000
v 0.625000 0.350000 0.010000
v 0.625000 0.750000 0.010000
v 0.625000 0.350000 -0.010000
v 0.625000 0.750000 -0.010000
vn -0.6540 -0.6017 0.4585
vn -0.6488 0.5954 0.4739
vn -0.6540 -0.6017 -0.4585
vn -0.6488 0.5954 -0.4739
vn 0.7234 -0.5572 0.4077
vn 0.6263 0.6548 0.4230
vn 0.7234 -0.5572 -0.4077
vn 0.6263 0.6548 -0.4230
vn -0.7071 -0.7071 -0.0000
vn -0.8053 -0.0069 0.5928
vn -0.7071 0.7071 -0.0000
vn -0.8053 -0.0069 -0.5928
vn 0.0853 -0.6494 -0.7556
vn 0.0289 0.6165 -0.7868
vn 0.8472 -0.0050 -0.5312
vn 0.7563 -0.6542 -0.0000
vn 0.6542 0.7563 -0.0000
vn 0.8472 -0.0050 0.5312
vn 0.0853 -0.6494 0.7556
vn 0.0289 0.6165 0.7868
vn -0.0722 0.9974 -0.0000
vn 0.0722 -0.9974 -0.0000
vn 0.0738 -0.0113 0.9972
vn 1.0000 -0.0000 -0.0000
vn 0.0738 -0.0113 -0.9972
vn -1.0000 -0.0000 -0.0000
vn -0.6596 -0.6039 0.4475
vn -0.6544 0.5972 0.4637
vn -0.6596 -0.6039 -0.4475
vn -0.6544 0.5972 -0.4637
vn 0.7299 -0.5598 0.3924
vn 0.6320 0.6579 0.4095
vn 0.7299 -0.5598 -0.3924
vn 0.6320 0.6579 -0.4095
vn -0.8137 -0.0070 0.5812
vn -0.8137 -0.0070 -0.5812
vn 0.0876 -0.6439 -0.7601
vn 0.0348 0.6114 -0.7906
vn 0.8574 -0.0050 -0.5147
vn 0.8574 -0.0050 0.5147
vn 0.0876 -0.6439 0.7601
vn 0.0348 0.6114 0.7906
vn 0.0787 -0.0117 0.9968
vn 0.0787 -0.0117 -0.9968
vn -0.6590 -0.6034 0.4490
vn -0.6590 -0.6034 -0.4490
vn 0.7386 -0.5472 0.3936
vn 0.6205 0.6682 0.4104
vn 0.7386 -0.5472 -0.3936
vn 0.6205 0.6682 -0.4104
vn -0.8143 -0.0061 0.5804
vn -0.8143 -0.0061 -0.5804
vn 0.0938 -0.6449 -0.7585
vn 0.0292 0.6078 -0.7936
vn 0.8578 -0.0043 -0.5140
vn 0.7665 -0.6422 -0.0000
vn 0.6422 0.7665 -0.0000
vn 0.8578 -0.0043 0.5140
vn 0.0938 -0.6449 0.7585
vn 0.0292 0.6078 0.7936
vn -0.0879 0.9961 -0.0000
vn 0.0879 -0.9961 -0.0000
vn 0.0788 -0.0102 0.9968
vn 0.0788 -0.0102 -0.9968
vn -0.6145 -0.5901 0.5237
vn -0.6036 0.5830 0.5438
vn -0.6145 -0.5901 -0.5237
vn -0.6036 0.5830 -0.5438
vn 0.6407 -0.5712 0.5131
vn 0.5973 0.6060 0.5254
vn 0.6407 -0.5712 -0.5131
vn 0.5973 0.6060 -0.5254
vn -0.7349 -0.0143 0.6780
vn -0.7349 -0.0143 -0.6780
vn 0.0366 -0.6986 -0.7145
vn -0.0000 0.6721 -0.7405
vn 0.7535 -0.0107 -0.6573
vn 0.7285 -0.6850 -0.0000
vn 0.6850 0.7285 -0.0000
vn 0.7535 -0.0107 0.6573
vn 0.0366 -0.6986 0.7145
vn -0.0000 0.6721 0.7405
vn -0.0307 0.9995 -0.0000
vn 0.0307 -0.9995 -0.0000
vn 0.0253 -0.0193 0.9995
vn 0.0253 -0.0193 -0.9995
vn -0.5774 -0.5774 0.5774
vn -0.5774 0.5774 0.5774
vn -0.5774 -0.5774 -0.5774
vn -0.5774 0.5774 -0.5774
vn 0.5774 -0.5774 0.5774
vn 0.5774 0.5774 0.5774
vn 0.5774 -0.5774 -0.5774
vn 0.5774 0.5774 -0.5774
vn -0.5706 -0.6235 0.5345
vn -0.5630 0.5210 0.6415
vn -0.5706 -0.6235 -0.5345
vn -0.5630 0.5210 -0.6415
vn 0.6020 -0.6101 0.5152
vn 0.5749 0.5447 0.6106
vn 0.6020 -0.6101 -0.5152
vn 0.5749 0.5447 -0.6106
vn -0.5714 -0.6280 0.5283
vn -0.5613 0.5149 0.6480
vn -0.5714 -0.6280 -0.5283
vn -0.5613 0.5149 -0.6480
vn 0.6036 -0.6143 0.5082
vn 0.5747 0.5395 0.6154
vn 0.6036 -0.6143 -0.5082
vn 0.5747 0.5395 -0.6154
vn -0.5686 -0.6239 0.5362
vn -0.5676 0.5214 0.6371
vn -0.5686 -0.6239 -0.5362
vn -0.5676 0.5214 -0.6371
vn 0.6032 -0.6069 0.5175
vn 0.5709 0.5478 0.6116
vn 0.6032 -0.6069 -0.5175
vn 0.5709 0.5478 -0.6116
vn -0.5672 -0.5913 0.5733
vn -0.5854 0.5627 0.5837
vn -0.5672 -0.5913 -0.5733
vn -0.5854 0.5627 -0.5837
vn 0.5884 -0.5688 0.5747
vn 0.5679 0.5862 0.5778
vn 0.5884 -0.5688 -0.5747
vn 0.5679 0.5862 -0.5778
vn -0.0000 -0.6303 -0.7764
vn -0.0000 0.6303 -0.7764
vn 0.5490 -0.6303 -0.5490
vn 0.5490 0.6303 -0.5490
vn 0.7764 -0.6303 -0.0000
vn 0.7764 0.6303 -0.0000
vn 0.5490 -0.6303 0.5490
vn 0.5490 0.6303 0.5490
vn -0.0000 -0.6303 0.7764
vn -0.0000 0.6303 0.7764
vn -0.5490 -0.6303 0.5490
vn -0.5490 0.6303 0.5490
vn -0.7764 -0.6303 -0.0000
vn -0.7764 0.6303 -0.0000
vn -0.5490 -0.6303 -0.5490
vn -0.5490 0.6303 -0.5490
vn -0.0000 -0.6532 -0.7572
vn -0.0000 0.6532 -0.7572
vn 0.3786 -0.6532 -0.6557
vn 0.3786 0.6532 -0.6557
vn 0.6557 -0.6532 -0.3786
vn 0.6557 0.6532 -0.3786
vn 0.7572 -0.6532 -0.0000
vn 0.7572 0.6532 -0.0000
vn 0.6557 -0.6532 0.3786
vn 0.6557 0.6532 0.3786
vn 0.3786 -0.6532 0.6557
vn 0.3786 0.6532 0.6557
vn -0.0000 -0.6532 0.7572
vn -0.0000 0.6532 0.7572
vn -0.3786 -0.6532 0.6557
vn -0.3786 0.6532 0.6557
vn -0.6557 -0.6532 0.3786
vn -0.6557 0.6532 0.3786
vn -0.7572 -0.6532 -0.0000
vn -0.7572 0.6532 -0.0000
vn -0.6557 -0.6532 -0.3786
vn -0.6557 0.6532 -0.3786
vn -0.3786 -0.6532 -0.6557
vn -0.3786 0.6532 -0.6557
vn -0.0000 -0.6603 -0.7510
vn -0.0000 0.6603 -0.7510
vn 0.3259 -0.6603 -0.6766
vn 0.3259 0.6603 -0.6766
vn 0.5872 -0.6603 -0.4682
vn 0.5872 0.6603 -0.4682
vn 0.7322 -0.6603 -0.1671
vn 0.7322 0.6603 -0.1671
vn 0.7322 -0.6603 0.1671
vn 0.7322 0.6603 0.1671
vn 0.5872 -0.6603 0.4682
vn 0.5872 0.6603 0.4682
vn 0.3259 -0.6603 0.6766
vn 0.3259 0.6603 0.6766
vn -0.0000 -0.6603 0.7510
vn -0.0000 0.6603 0.7510
vn -0.3259 -0.6603 0.6766
vn -0.3259 0.6603 0.6766
vn -0.5872 -0.6603 0.4682
vn -0.5872 0.6603 0.4682
vn -0.7322 -0.6603 0.1671
vn -0.7322 0.6603 0.1671
vn -0.7322 -0.6603 -0.1671
vn -0.7322 0.6603 -0.1671
vn -0.5872 -0.6603 -0.4682
vn -0.5872 0.6603 -0.4682
vn -0.3259 -0.6603 -0.6766
vn -0.3259 0.6603 -0.6766
vn -0.0000 -0.6437 -0.7653
vn -0.0000 0.6437 -0.7653
vn 0.4498 -0.6437 -0.6191
vn 0.4498 0.6437 -0.6191
vn 0.7278 -0.6437 -0.2365
vn 0.7278 0.6437 -0.2365
vn 0.7278 -0.6437 0.2365
vn 0.7278 0.6437 0.2365
vn 0.4498 -0.6437 0.6191
vn 0.4498 0.6437 0.6191
vn -0.0000 -0.6437 0.7653
vn -0.0000 0.6437 0.7653
vn -0.4498 -0.6437 0.6191
vn -0.4498 0.6437 0.6191
vn -0.7278 -0.6437 0.2365
vn -0.7278 0.6437 0.2365
vn -0.7278 -0.6437 -0.2365
vn -0.7278 0.6437 -0.2365
vn -0.4498 -0.6437 -0.6191
vn -0.4498 0.6437 -0.6191
vn -0.0000 0.7653 -0.6437
vn -0.0000 0.7653 0.6437
vn 0.4498 0.6191 -0.6437
vn 0.4498 0.6191 0.6437
vn 0.7278 0.2365 -0.6437
vn 0.7278 0.2365 0.6437
vn 0.7278 -0.2365 -0.6437
vn 0.7278 -0.2365 0.6437
vn 0.4498 -0.6191 -0.6437
vn 0.4498 -0.6191 0.6437
vn -0.0000 -0.7653 -0.6437
vn -0.0000 -0.7653 0.6437
vn -0.4498 -0.6191 -0.6437
vn -0.4498 -0.6191 0.6437
vn -0.7278 -0.2365 -0.6437
vn -0.7278 -0.2365 0.6437
vn -0.7278 0.2365 -0.6437
vn -0.7278 0.2365 0.6437
vn -0.4498 0.6191 -0.6437
vn -0.4498 0.6191 0.6437
vn -0.4845 -0.0000 -0.8748
vn -0.4845 -0.5142 -0.7077
vn -0.4845 -0.8320 -0.2703
vn -0.4845 -0.8320 0.2703
vn -0.4845 -0.5142 0.7077
vn -0.4845 -0.0000 0.8748
vn -0.4845 0.5142 0.7077
vn -0.4845 0.8320 0.2703
vn -0.4845 0.8320 -0.2703
vn -0.4845 0.5142 -0.7077
vn -0.6437 -0.0000 -0.7653
vn 0.6437 -0.0000 -0.7653
vn -0.6437 -0.4498 -0.6191
vn 0.6437 -0.4498 -0.6191
vn -0.6437 -0.7278 -0.2365
vn 0.6437 -0.7278 -0.2365
vn -0.6437 -0.7278 0.2365
vn 0.6437 -0.7278 0.2365
vn -0.6437 -0.4498 0.6191
vn 0.6437 -0.4498 0.6191
vn -0.6437 -0.0000 0.7653
vn 0.6437 -0.0000 0.7653
vn -0.6437 0.4498 0.6191
vn 0.6437 0.4498 0.6191
vn -0.6437 0.7278 0.2365
vn 0.6437 0.7278 0.2365
vn -0.6437 0.7278 -0.2365
vn 0.6437 0.7278 -0.2365
vn -0.6437 0.4498 -0.6191
vn 0.6437 0.4498 -0.6191
vn -0.6303 -0.0000 -0.7764
vn 0.6303 -0.0000 -0.7764
vn -0.6303 -0.5490 -0.5490
vn 0.6303 -0.5490 -0.5490
vn -0.6303 -0.7764 -0.0000
vn 0.6303 -0.7764 -0.0000
vn -0.6303 -0.5490 0.5490
vn 0.6303 -0.5490 0.5490
vn -0.6303 -0.0000 0.7764
vn 0.6303 -0.0000 0.7764
vn -0.6303 0.5490 0.5490
vn 0.6303 0.5490 0.5490
vn -0.6303 0.7764 -0.0000
vn 0.6303 0.7764 -0.0000
vn -0.6303 0.5490 -0.5490
vn 0.6303 0.5490 -0.5490
vn -0.0000 0.7510 -0.6603
vn -0.0000 0.7510 0.6603
vn 0.3259 0.6766 -0.6603
vn 0.3259 0.6766 0.6603
vn 0.5872 0.4682 -0.6603
vn 0.5872 0.4682 0.6603
vn 0.7322 0.1671 -0.6603
vn 0.7322 0.1671 0.6603
vn 0.7322 -0.1671 -0.6603
vn 0.7322 -0.1671 0.6603
vn 0.5872 -0.4683 -0.6603
vn 0.5872 -0.4682 0.6603
vn 0.3259 -0.6766 -0.6603
vn 0.3259 -0.6766 0.6603
vn -0.0000 -0.7510 -0.6603
vn -0.0000 -0.7510 0.6603
vn -0.3259 -0.6766 -0.6603
vn -0.3259 -0.6766 0.6603
vn -0.5872 -0.4683 -0.6603
vn -0.5872 -0.4682 0.6603
vn -0.7322 -0.1671 -0.6603
vn -0.7322 -0.1671 0.6603
vn -0.7322 0.1671 -0.6603
vn -0.7322 0.1671 0.6603
vn -0.5872 0.4682 -0.6603
vn -0.5872 0.4682 0.6603
vn -0.3259 0.6766 -0.6603
vn -0.3259 0.6766 0.6603
vn 0.5872 -0.4683 0.6603
vn -0.5872 -0.4683 0.6603
vn 0.5872 -0.4682 -0.6603
vn -0.5872 -0.4682 -0.6603
vn -0.4997 -0.3499 -0.7924
vn 0.4997 0.3499 -0.7924
vn -0.1061 -0.9120 -0.3962
vn 0.8933 -0.2123 -0.3962
vn -0.1061 -0.9120 0.3962
vn 0.8933 -0.2123 0.3962
vn -0.4997 -0.3499 0.7924
vn 0.4997 0.3499 0.7924
vn -0.8933 0.2123 0.3962
vn 0.1061 0.9120 0.3962
vn -0.8933 0.2123 -0.3962
vn 0.1061 0.9120 -0.3962
vn 0.4673 -0.3921 -0.7924
vn -0.4673 0.3921 -0.7924
vn 0.9084 0.1336 -0.3962
vn -0.0262 0.9178 -0.3962
vn 0.9084 0.1336 0.3962
vn -0.0262 0.9178 0.3962
vn 0.4673 -0.3921 0.7924
vn -0.4673 0.3921 0.7924
vn 0.0262 -0.9178 0.3962
vn -0.9084 -0.1336 0.3962
vn 0.0262 -0.9178 -0.3962
vn -0.9084 -0.1336 -0.3962
vn -0.0000 -0.3353 -0.9421
vn -0.0000 0.8250 -0.5651
vn 0.6862 -0.4577 -0.5653
vn 0.6862 0.7026 -0.1883
vn 0.6862 -0.7026 0.1883
vn 0.6862 0.4577 0.5653
vn -0.0000 -0.8250 0.5651
vn -0.0000 0.3353 0.9421
vn -0.6862 -0.7026 0.1883
vn -0.6862 0.4577 0.5653
vn -0.6862 -0.4577 -0.5653
vn -0.6862 0.7026 -0.1883
vn -0.0000 -0.8250 -0.5651
vn -0.0000 0.3353 -0.9421
vn 0.6862 -0.7026 -0.1883
vn 0.6862 0.4577 -0.5653
vn 0.6862 -0.4577 0.5653
vn 0.6862 0.7026 0.1883
vn -0.0000 -0.3353 0.9421
vn -0.0000 0.8250 0.5651
vn -0.6862 -0.4577 0.5653
vn -0.6862 0.7026 0.1883
vn -0.6862 -0.7026 -0.1883
vn -0.6862 0.4577 -0.5653
vt 0.500000 0.125000
vt 0.625000 0.125000
vt 0.625000 0.250000
vt 0.500000 0.250000
vt 0.500000 0.375000
vt 0.625000 0.375000
vt 0.625000 0.500000
vt 0.500000 0.500000
vt 0.500000 0.625000
vt 0.625000 0.625000
vt 0.625000 0.750000
vt 0.500000 0.750000
vt 0.500000 0.875000
vt 0.625000 0.875000
vt 0.625000 1.000000
vt 0.500000 1.000000
vt 0.250000 0.625000
vt 0.375000 0.625000
vt 0.375000 0.750000
vt 0.250000 0.750000
vt 0.750000 0.625000
vt 0.875000 0.625000
vt 0.875000 0.750000
vt 0.750000 0.750000
vt 0.750000 0.500000
vt 0.875000 0.500000
vt 0.125000 0.625000
vt 0.125000 0.750000
vt 0.125000 0.500000
vt 0.250000 0.500000
vt 0.375000 0.500000
vt 0.375000 0.875000
vt 0.375000 1.000000
vt 0.375000 0.375000
vt 0.375000 0.250000
vt 0.375000 0.125000
vt 0.375000 0.000000
vt 0.500000 0.000000
vt 0.625000 0.000000
vt 1.000000 0.500000
vt 1.000000 1.000000
vt 0.875000 1.000000
vt 0.750000 1.000000
vt 0.250000 1.000000
vt 0.419706 0.419706
vt 0.250000 0.490000
vt 0.080294 0.419706
vt 0.010000 0.250000
vt 0.080294 0.080294
vt 0.250000 0.010000
vt 0.419706 0.080294
vt 0.490000 0.250000
vt 0.125000 1.000000
vt 0.000000 1.000000
vt 0.000000 0.500000
vt 0.750000 0.490000
vt 0.919706 0.419706
vt 0.990000 0.250000
vt 0.919706 0.080294
vt 0.750000 0.010000
vt 0.580294 0.080294
vt 0.510000 0.250000
vt 0.580294 0.419706
vt 0.916667 1.000000
vt 0.916667 0.500000
vt 0.833333 1.000000
vt 0.833333 0.500000
vt 0.750000 1.000000
vt 0.750000 0.500000
vt 0.666667 1.000000
vt 0.666667 0.500000
vt 0.583333 1.000000
vt 0.583333 0.500000
vt 0.500000 1.000000
vt 0.500000 0.500000
vt 0.416667 1.000000
vt 0.416667 0.500000
vt 0.333333 1.000000
vt 0.333333 0.500000
vt 0.250000 1.000000
vt 0.250000 0.500000
vt 0.166667 1.000000
vt 0.166667 0.500000
vt 0.370000 0.457846
vt 0.130000 0.457846
vt 0.042154 0.370000
vt 0.042154 0.130000
vt 0.130000 0.042154
vt 0.370000 0.042154
vt 0.457846 0.130000
vt 0.457846 0.370000
vt 0.083333 1.000000
vt 0.083333 0.500000
vt 0.000000 1.000000
vt 0.000000 0.500000
vt 0.870000 0.457846
vt 0.957846 0.370000
vt 0.957846 0.130000
vt 0.870000 0.042154
vt 0.630000 0.042154
vt 0.542154 0.130000
vt 0.542154 0.370000
vt 0.630000 0.457846
vt 0.928571 1.000000
vt 0.928571 0.500000
vt 0.857143 1.000000
vt 0.857143 0.500000
vt 0.785714 1.000000
vt 0.785714 0.500000
vt 0.714286 1.000000
vt 0.714286 0.500000
vt 0.642857 1.000000
vt 0.642857 0.500000
vt 0.571428 1.000000
vt 0.571428 0.500000
vt 0.500000 1.000000
vt 0.500000 0.500000
vt 0.428571 1.000000
vt 0.428571 0.500000
vt 0.357143 1.000000
vt 0.357143 0.500000
vt 0.285714 1.000000
vt 0.285714 0.500000
vt 0.214286 1.000000
vt 0.214286 0.500000
vt 0.142857 1.000000
vt 0.142857 0.500000
vt 0.354132 0.466233
vt 0.145868 0.466233
vt 0.062360 0.399638
vt 0.016017 0.303405
vt 0.016017 0.196595
vt 0.062360 0.100362
vt 0.145868 0.033767
vt 0.354132 0.033767
vt 0.437640 0.100362
vt 0.483983 0.196595
vt 0.483983 0.303405
vt 0.437640 0.399638
vt 0.071428 1.000000
vt 0.071428 0.500000
vt -0.000000 1.000000
vt -0.000000 0.500000
vt 0.854132 0.466233
vt 0.937640 0.399638
vt 0.983983 0.303405
vt 0.983983 0.196595
vt 0.937640 0.100362
vt 0.854132 0.033767
vt 0.645868 0.033767
vt 0.562360 0.100362
vt 0.516017 0.196595
vt 0.516017 0.303405
vt 0.562360 0.399638
vt 0.645868 0.466233
vt 0.900000 1.000000
vt 0.900000 0.500000
vt 0.800000 1.000000
vt 0.800000 0.500000
vt 0.700000 1.000000
vt 0.700000 0.500000
vt 0.600000 1.000000
vt 0.600000 0.500000
vt 0.500000 1.000000
vt 0.500000 0.500000
vt 0.400000 1.000000
vt 0.400000 0.500000
vt 0.300000 1.000000
vt 0.300000 0.500000
vt 0.200000 1.000000
vt 0.200000 0.500000
vt 0.391068 0.444164
vt 0.108932 0.444164
vt 0.021746 0.324164
vt 0.021746 0.175836
vt 0.108932 0.055836
vt 0.391068 0.055836
vt 0.478254 0.175836
vt 0.478254 0.324164
vt 0.100000 1.000000
vt 0.100000 0.500000
vt -0.000000 1.000000
vt -0.000000 0.500000
vt 0.891068 0.444164
vt 0.978254 0.324164
vt 0.978254 0.175836
vt 0.891068 0.055836
vt 0.608932 0.055836
vt 0.521746 0.175836
vt 0.521746 0.324164
vt 0.608932 0.444164
vt 0.370000 0.457846
vt 0.130000 0.457846
vt 0.042154 0.370000
vt 0.042154 0.130000
vt 0.130000 0.042154
vt 0.370000 0.042154
vt 0.457846 0.130000
vt 0.457846 0.370000
vt 0.870000 0.457846
vt 0.957846 0.370000
vt 0.957846 0.130000
vt 0.870000 0.042154
vt 0.630000 0.042154
vt 0.542154 0.130000
vt 0.542154 0.370000
vt 0.630000 0.457846
vt 0.042154 0.370000
vt 0.010000 0.250000
vt 0.042154 0.130000
vt 0.130000 0.042154
vt 0.250000 0.010000
vt 0.370000 0.042154
vt 0.870000 0.042154
vt 0.750000 0.010000
vt 0.630000 0.042154
vt 0.108932 0.444164
vt 0.021746 0.324164
vt 0.021746 0.175836
vt 0.108932 0.055836
vt 0.478254 0.175836
vt 0.478254 0.324164
vt 0.978254 0.324164
vt 0.978254 0.175836
vt 0.521746 0.175836
vt 0.521746 0.324164
vt 0.250000 0.250000
vt 0.016017 0.303405
vt 0.016017 0.196595
vt 0.483983 0.196595
vt 0.483983 0.303405
vt 0.021746 0.175836
vt 0.478254 0.175836
vt 0.978254 0.175836
vt 0.521746 0.175836
vt 0.833333 1.000000
vt 0.833333 0.500000
vt 0.666667 1.000000
vt 0.666667 0.500000
vt 0.500000 1.000000
vt 0.500000 0.500000
vt 0.333333 1.000000
vt 0.333333 0.500000
vt 0.166667 1.000000
vt 0.166667 0.500000
vt -0.000000 1.000000
vt -0.000000 0.500000
s 1
usemtl HullWood
f 26/1/26 11/2/11 4/3/4 12/4/12
f 25/5/25 14/6/14 8/7/8 15/8/15
f 24/9/24 17/10/17 6/11/6 18/12/18
f 23/13/23 20/14/20 2/15/2 10/16/10
f 22/17/22 16/18/16 5/19/5 19/20/19
f 21/21/21 11/22/11 2/23/2 20/24/20
f 17/10/17 21/21/21 20/24/20 6/11/6
f 8/7/8 14/25/14 21/21/21 17/10/17
f 14/25/14 4/26/4 11/22/11 21/21/21
f 9/27/9 22/17/22 19/20/19 1/28/1
f 3/29/3 13/30/13 22/17/22 9/27/9
f 13/30/13 7/31/7 16/18/16 22/17/22
f 19/32/19 23/13/23 10/16/10 1/33/1
f 5/19/5 18/12/18 23/13/23 19/32/19
f 18/12/18 6/11/6 20/14/20 23/13/23
f 16/18/16 24/9/24 18/12/18 5/19/5
f 7/31/7 15/8/15 24/9/24 16/18/16
f 15/8/15 8/7/8 17/10/17 24/9/24
f 13/34/13 25/5/25 15/8/15 7/31/7
f 3/35/3 12/4/12 25/5/25 13/34/13
f 12/4/12 4/3/4 14/6/14 25/5/25
f 9/36/9 26/1/26 12/4/12 3/35/3
f 1/37/1 10/38/10 26/1/26 9/36/9
f 10/38/10 2/39/2 11/2/11 26/1/26
f 52/1/26 37/2/11 30/3/30 38/4/36
f 51/5/44 40/6/38 34/7/34 41/8/39
f 50/9/24 43/10/17 32/11/32 44/12/40
f 49/13/43 46/14/42 28/15/28 36/16/35
f 48/17/22 42/18/16 31/19/31 45/20/41
f 47/21/21 37/22/11 28/23/28 46/24/42
f 43/10/17 47/21/21 46/24/42 32/11/32
f 34/7/34 40/25/38 47/21/21 43/10/17
f 40/25/38 30/26/30 37/22/11 47/21/21
f 35/27/9 48/17/22 45/20/41 27/28/27
f 29/29/29 39/30/37 48/17/22 35/27/9
f 39/30/37 33/31/33 42/18/16 48/17/22
f 45/32/41 49/13/43 36/16/35 27/33/27
f 31/19/31 44/12/40 49/13/43 45/32/41
f 44/12/40 32/11/32 46/14/42 49/13/43
f 42/18/16 50/9/24 44/12/40 31/19/31
f 33/31/33 41/8/39 50/9/24 42/18/16
f 41/8/39 34/7/34 43/10/17 50/9/24
f 39/34/37 51/5/44 41/8/39 33/31/33
f 29/35/29 38/4/36 51/5/44 39/34/37
f 38/4/36 30/3/30 40/6/38 51/5/44
f 35/36/9 52/1/26 38/4/36 29/35/29
f 27/37/27 36/38/35 52/1/26 35/36/9
f 36/38/35 28/39/28 37/2/11 52/1/26
f 78/1/26 63/2/11 56/3/30 64/4/52
f 77/5/64 66/6/54 60/7/50 67/8/55
f 76/9/24 69/10/57 58/11/48 70/12/58
f 75/13/63 72/14/60 54/15/28 62/16/51
f 74/17/62 68/18/56 57/19/47 71/20/59
f 73/21/61 63/22/11 54/23/28 72/24/60
f 69/10/57 73/21/61 72/24/60 58/11/48
f 60/7/50 66/25/54 73/21/61 69/10/57
f 66/25/54 56/26/30 63/22/11 73/21/61
f 61/27/9 74/17/62 71/20/59 53/28/45
f 55/29/46 65/30/53 74/17/62 61/27/9
f 65/30/53 59/31/49 68/18/56 74/17/62
f 71/32/59 75/13/63 62/16/51 53/33/45
f 57/19/47 70/12/58 75/13/63 71/32/59
f 70/12/58 58/11/48 72/14/60 75/13/63
f 68/18/56 76/9/24 70/12/58 57/19/47
f 59/31/49 67/8/55 76/9/24 68/18/56
f 67/8/55 60/7/50 69/10/57 76/9/24
f 65/34/53 77/5/64 67/8/55 59/31/49
f 55/35/46 64/4/52 77/5/64 65/34/53
f 64/4/52 56/3/30 66/6/54 77/5/64
f 61/36/9 78/1/26 64/4/52 55/35/46
f 53/37/45 62/38/51 78/1/26 61/36/9
f 62/38/51 54/39/28 63/2/11 78/1/26
f 169/37/119 170/39/120 172/3/122 171/35/121
f 171/35/121 172/3/122 176/7/126 175/31/125
f 175/31/125 176/7/126 174/11/124 173/19/123
f 173/19/123 174/11/124 170/15/120 169/33/119
f 171/29/121 175/31/125 173/19/123 169/28/119
f 176/7/126 172/26/122 170/23/120 174/11/124
f 225/37/119 226/39/120 228/3/122 227/35/121
f 227/35/121 228/3/122 232/7/126 231/31/125
f 231/31/125 232/7/126 230/11/124 229/19/123
f 229/19/123 230/11/124 226/15/120 225/33/119
f 227/29/121 231/31/125 229/19/123 225/28/119
f 232/7/126 228/26/122 226/23/120 230/11/124
f 337/40/143 338/41/144 340/64/146 339/65/145
f 339/65/145 340/64/146 342/66/148 341/67/147
f 341/67/147 342/66/148 344/68/150 343/69/149
f 343/69/149 344/68/150 346/70/152 345/71/151
f 345/71/151 346/70/152 348/72/154 347/73/153
f 347/73/153 348/72/154 350/74/156 349/75/155
f 349/75/155 350/74/156 352/76/158 351/77/157
f 351/77/157 352/76/158 354/78/160 353/79/159
f 353/79/159 354/78/160 356/80/162 355/81/161
f 355/81/161 356/80/162 358/82/164 357/83/163
f 340/84/146 338/46/144 360/85/166 358/86/164 356/48/162 354/87/160 352/88/158 350/50/156 348/89/154 346/90/152 344/52/150 342/91/148
f 357/83/163 358/82/164 360/92/166 359/93/165
f 359/93/165 360/92/166 338/94/144 337/95/143
f 337/56/143 339/96/145 341/97/147 343/58/149 345/98/151 347/99/153 349/60/155 351/100/157 353/101/159 355/62/161 357/102/163 359/103/165
f 517/46/235 527/227/24 518/172/236
f 518/172/236 527/227/24 519/222/237
f 519/222/237 527/227/24 520/221/238
f 520/221/238 527/227/24 521/177/239
f 521/177/239 527/227/24 522/50/240
f 522/50/240 527/227/24 523/220/241
f 523/220/241 527/227/24 524/219/242
f 524/219/242 527/227/24 525/218/243
f 517/56/235 518/184/236 519/223/237 520/224/238 521/187/239 522/60/240 523/188/241 524/225/242 525/226/243 526/191/244
f 525/218/243 527/227/24 526/217/244
f 526/217/244 527/227/24 517/46/235
f 556/37/87 557/39/88 559/3/90 558/35/89
f 558/35/89 559/3/90 563/7/94 562/31/93
f 562/31/93 563/7/94 561/11/92 560/19/91
f 560/19/91 561/11/92 557/15/88 556/33/87
f 558/29/89 562/31/93 560/19/91 556/28/87
f 563/7/94 559/26/90 557/23/88 561/11/92
usemtl HullDark
f 104/1/26 89/2/11 82/3/68 90/4/74
f 103/5/86 92/6/76 86/7/72 93/8/77
f 102/9/24 95/10/79 84/11/70 96/12/80
f 101/13/85 98/14/82 80/15/66 88/16/73
f 100/17/84 94/18/78 83/19/69 97/20/81
f 99/21/83 89/22/11 80/23/66 98/24/82
f 95/10/79 99/21/83 98/24/82 84/11/70
f 86/7/72 92/25/76 99/21/83 95/10/79
f 92/25/76 82/26/68 89/22/11 99/21/83
f 87/27/9 100/17/84 97/20/81 79/28/65
f 81/29/67 91/30/75 100/17/84 87/27/9
f 91/30/75 85/31/71 94/18/78 100/17/84
f 97/32/81 101/13/85 88/16/73 79/33/65
f 83/19/69 96/12/80 101/13/85 97/32/81
f 96/12/80 84/11/70 98/14/82 101/13/85
f 94/18/78 102/9/24 96/12/80 83/19/69
f 85/31/71 93/8/77 102/9/24 94/18/78
f 93/8/77 86/7/72 95/10/79 102/9/24
f 91/34/75 103/5/86 93/8/77 85/31/71
f 81/35/67 90/4/74 103/5/86 91/34/75
f 90/4/74 82/3/68 92/6/76 103/5/86
f 87/36/9 104/1/26 90/4/74 81/35/67
f 79/37/65 88/38/73 104/1/26 87/36/9
f 88/38/73 80/39/66 89/2/11 104/1/26
f 105/37/87 106/39/88 108/3/90 107/35/89
f 107/35/89 108/3/90 112/7/94 111/31/93
f 111/31/93 112/7/94 110/11/92 109/19/91
f 109/19/91 110/11/92 106/15/88 105/33/87
f 107/29/89 111/31/93 109/19/91 105/28/87
f 112/7/94 108/26/90 106/23/88 110/11/92
f 137/37/87 138/39/88 140/3/90 139/35/89
f 139/35/89 140/3/90 144/7/94 143/31/93
f 143/31/93 144/7/94 142/11/92 141/19/91
f 141/19/91 142/11/92 138/15/88 137/33/87
f 139/29/89 143/31/93 141/19/91 137/28/87
f 144/7/94 140/26/90 138/23/88 142/11/92
f 145/37/87 146/39/88 148/3/90 147/35/89
f 147/35/89 148/3/90 152/7/94 151/31/93
f 151/31/93 152/7/94 150/11/92 149/19/91
f 149/19/91 150/11/92 146/15/88 145/33/87
f 147/29/89 151/31/93 149/19/91 145/28/87
f 152/7/94 148/26/90 146/23/88 150/11/92
f 153/37/87 154/39/88 156/3/90 155/35/89
f 155/35/89 156/3/90 160/7/94 159/31/93
f 159/31/93 160/7/94 158/11/92 157/19/91
f 157/19/91 158/11/92 154/15/88 153/33/87
f 155/29/89 159/31/93 157/19/91 153/28/87
f 160/7/94 156/26/90 154/23/88 158/11/92
f 161/37/87 162/39/88 164/3/90 163/35/89
f 163/35/89 164/3/90 168/7/94 167/31/93
f 167/31/93 168/7/94 166/11/92 165/19/91
f 165/19/91 166/11/92 162/15/88 161/33/87
f 163/29/89 167/31/93 165/19/91 161/28/87
f 168/7/94 164/26/90 162/23/88 166/11/92
f 289/37/87 290/39/88 292/3/90 291/35/89
f 291/35/89 292/3/90 296/7/94 295/31/93
f 295/31/93 296/7/94 294/11/92 293/19/91
f 293/19/91 294/11/92 290/15/88 289/33/87
f 291/29/89 295/31/93 293/19/91 289/28/87
f 296/7/94 292/26/90 290/23/88 294/11/92
f 321/37/87 322/39/88 324/3/90 323/35/89
f 323/35/89 324/3/90 328/7/94 327/31/93
f 327/31/93 328/7/94 326/11/92 325/19/91
f 325/19/91 326/11/92 322/15/88 321/33/87
f 323/29/89 327/31/93 325/19/91 321/28/87
f 328/7/94 324/26/90 322/23/88 326/11/92
f 564/37/87 565/39/88 567/3/90 566/35/89
f 566/35/89 567/3/90 571/7/94 570/31/93
f 570/31/93 571/7/94 569/11/92 568/19/91
f 568/19/91 569/11/92 565/15/88 564/33/87
f 566/29/89 570/31/93 568/19/91 564/28/87
f 571/7/94 567/26/90 565/23/88 569/11/92
f 640/40/215 641/41/216 643/156/218 642/157/217
f 642/157/217 643/156/218 645/158/220 644/159/219
f 644/159/219 645/158/220 647/160/222 646/161/221
f 646/161/221 647/160/222 649/162/224 648/163/223
f 648/163/223 649/162/224 651/164/226 650/165/225
f 650/165/225 651/164/226 653/166/228 652/167/227
f 652/167/227 653/166/228 655/168/230 654/169/229
f 654/169/229 655/168/230 657/170/232 656/171/231
f 643/172/218 641/46/216 659/217/234 657/218/232 655/232/230 653/220/228 651/50/226 649/177/224 647/233/222 645/222/220
f 656/171/231 657/170/232 659/180/234 658/181/233
f 658/181/233 659/180/234 641/182/216 640/183/215
f 640/56/215 642/184/217 644/223/219 646/234/221 648/187/223 650/60/225 652/188/227 654/235/229 656/226/231 658/191/233
f 688/40/215 689/41/216 691/156/218 690/157/217
f 690/157/217 691/156/218 693/158/220 692/159/219
f 692/159/219 693/158/220 695/160/222 694/161/221
f 694/161/221 695/160/222 697/162/224 696/163/223
f 696/163/223 697/162/224 699/164/226 698/165/225
f 698/165/225 699/164/226 701/166/228 700/167/227
f 700/167/227 701/166/228 703/168/230 702/169/229
f 702/169/229 703/168/230 705/170/232 704/171/231
f 691/172/218 689/46/216 707/217/234 705/218/232 703/232/230 701/220/228 699/50/226 697/177/224 695/233/222 693/222/220
f 704/171/231 705/170/232 707/180/234 706/181/233
f 706/181/233 707/180/234 689/182/216 688/183/215
f 688/56/215 690/184/217 692/223/219 694/234/221 696/187/223 698/60/225 700/188/227 702/235/229 704/226/231 706/191/233
f 736/40/215 737/41/216 739/156/218 738/157/217
f 738/157/217 739/156/218 741/158/220 740/159/219
f 740/159/219 741/158/220 743/160/222 742/161/221
f 742/161/221 743/160/222 745/162/224 744/163/223
f 744/163/223 745/162/224 747/164/226 746/165/225
f 746/165/225 747/164/226 749/166/228 748/167/227
f 748/167/227 749/166/228 751/168/230 750/169/229
f 750/169/229 751/168/230 753/170/232 752/171/231
f 739/172/218 737/46/216 755/217/234 753/218/232 751/232/230 749/220/228 747/50/226 745/177/224 743/233/222 741/222/220
f 752/171/231 753/170/232 755/180/234 754/181/233
f 754/181/233 755/180/234 737/182/216 736/183/215
f 736/56/215 738/184/217 740/223/219 742/234/221 744/187/223 746/60/225 748/188/227 750/235/229 752/226/231 754/191/233
f 756/37/87 757/39/88 759/3/90 758/35/89
f 758/35/89 759/3/90 763/7/94 762/31/93
f 762/31/93 763/7/94 761/11/92 760/19/91
f 760/19/91 761/11/92 757/15/88 756/33/87
f 758/29/89 762/31/93 760/19/91 756/28/87
f 763/7/94 759/26/90 757/23/88 761/11/92
usemtl StripeCream
f 113/37/95 114/39/96 116/3/98 115/35/97
f 115/35/97 116/3/98 120/7/102 119/31/101
f 119/31/101 120/7/102 118/11/100 117/19/99
f 117/19/99 118/11/100 114/15/96 113/33/95
f 115/29/97 119/31/101 117/19/99 113/28/95
f 120/7/102 116/26/98 114/23/96 118/11/100
f 305/37/87 306/39/88 308/3/90 307/35/89
f 307/35/89 308/3/90 312/7/94 311/31/93
f 311/31/93 312/7/94 310/11/92 309/19/91
f 309/19/91 310/11/92 306/15/88 305/33/87
f 307/29/89 311/31/93 309/19/91 305/28/87
f 312/7/94 308/26/90 306/23/88 310/11/92
f 313/37/87 314/39/88 316/3/90 315/35/89
f 315/35/89 316/3/90 320/7/94 319/31/93
f 319/31/93 320/7/94 318/11/92 317/19/91
f 317/19/91 318/11/92 314/15/88 313/33/87
f 315/29/89 319/31/93 317/19/91 313/28/87
f 320/7/94 316/26/90 314/23/88 318/11/92
f 509/37/87 510/39/88 512/3/90 511/35/89
f 511/35/89 512/3/90 516/7/94 515/31/93
f 515/31/93 516/7/94 514/11/92 513/19/91
f 513/19/91 514/11/92 510/15/88 509/33/87
f 511/29/89 515/31/93 513/19/91 509/28/87
f 516/7/94 512/26/90 510/23/88 514/11/92
usemtl StripeOrange
f 121/37/103 122/39/104 124/3/106 123/35/105
f 123/35/105 124/3/106 128/7/110 127/31/109
f 127/31/109 128/7/110 126/11/108 125/19/107
f 125/19/107 126/11/108 122/15/104 121/33/103
f 123/29/105 127/31/109 125/19/107 121/28/103
f 128/7/110 124/26/106 122/23/104 126/11/108
usemtl DeckWood
f 129/37/111 130/39/112 132/3/114 131/35/113
f 131/35/113 132/3/114 136/7/118 135/31/117
f 135/31/117 136/7/118 134/11/116 133/19/115
f 133/19/115 134/11/116 130/15/112 129/33/111
f 131/29/113 135/31/117 133/19/115 129/28/111
f 136/7/118 132/26/114 130/23/112 134/11/116
f 433/40/143 434/41/144 436/64/146 435/65/145
f 435/65/145 436/64/146 438/66/148 437/67/147
f 437/67/147 438/66/148 440/68/150 439/69/149
f 439/69/149 440/68/150 442/70/152 441/71/151
f 441/71/151 442/70/152 444/72/154 443/73/153
f 443/73/153 444/72/154 446/74/156 445/75/155
f 445/75/155 446/74/156 448/76/158 447/77/157
f 447/77/157 448/76/158 450/78/160 449/79/159
f 449/79/159 450/78/160 452/80/162 451/81/161
f 451/81/161 452/80/162 454/82/164 453/83/163
f 436/192/146 434/46/144 456/193/166 454/194/164 452/48/162 450/195/160 448/196/158 446/50/156 444/197/154 442/198/152 440/52/150 438/199/148
f 453/83/163 454/82/164 456/92/166 455/93/165
f 455/93/165 456/92/166 434/94/144 433/95/143
f 433/56/143 435/200/145 437/201/147 439/58/149 441/202/151 443/203/153 445/60/155 447/204/157 449/205/159 451/62/161 453/206/163 455/207/165
usemtl MastWood
f 177/40/127 178/41/128 180/42/130 179/26/129
f 179/26/129 180/42/130 182/43/132 181/25/131
f 181/25/131 182/43/132 184/15/134 183/7/133
f 183/7/133 184/15/134 186/16/136 185/8/135
f 185/8/135 186/16/136 188/33/138 187/31/137
f 187/31/137 188/33/138 190/44/140 189/30/139
f 180/45/130 178/46/128 192/47/142 190/48/140 188/49/138 186/50/136 184/51/134 182/52/132
f 189/30/139 190/44/140 192/53/142 191/29/141
f 191/29/141 192/53/142 178/54/128 177/55/127
f 177/56/127 179/57/129 181/58/131 183/59/133 185/60/135 187/61/137 189/62/139 191/63/141
f 193/40/127 194/41/128 196/42/130 195/26/129
f 195/26/129 196/42/130 198/43/132 197/25/131
f 197/25/131 198/43/132 200/15/134 199/7/133
f 199/7/133 200/15/134 202/16/136 201/8/135
f 201/8/135 202/16/136 204/33/138 203/31/137
f 203/31/137 204/33/138 206/44/140 205/30/139
f 196/45/130 194/46/128 208/47/142 206/48/140 204/49/138 202/50/136 200/51/134 198/52/132
f 205/30/139 206/44/140 208/53/142 207/29/141
f 207/29/141 208/53/142 194/54/128 193/55/127
f 193/56/127 195/57/129 197/58/131 199/59/133 201/60/135 203/61/137 205/62/139 207/63/141
f 209/40/127 210/41/128 212/42/130 211/26/129
f 211/26/129 212/42/130 214/43/132 213/25/131
f 213/25/131 214/43/132 216/15/134 215/7/133
f 215/7/133 216/15/134 218/16/136 217/8/135
f 217/8/135 218/16/136 220/33/138 219/31/137
f 219/31/137 220/33/138 222/44/140 221/30/139
f 212/45/130 210/46/128 224/47/142 222/48/140 220/49/138 218/50/136 216/51/134 214/52/132
f 221/30/139 222/44/140 224/53/142 223/29/141
f 223/29/141 224/53/142 210/54/128 209/55/127
f 209/56/127 211/57/129 213/58/131 215/59/133 217/60/135 219/61/137 221/62/139 223/63/141
f 233/40/127 234/41/128 236/42/130 235/26/129
f 235/26/129 236/42/130 238/43/132 237/25/131
f 237/25/131 238/43/132 240/15/134 239/7/133
f 239/7/133 240/15/134 242/16/136 241/8/135
f 241/8/135 242/16/136 244/33/138 243/31/137
f 243/31/137 244/33/138 246/44/140 245/30/139
f 236/45/130 234/46/128 248/47/142 246/48/140 244/49/138 242/50/136 240/51/134 238/52/132
f 245/30/139 246/44/140 248/53/142 247/29/141
f 247/29/141 248/53/142 234/54/128 233/55/127
f 233/56/127 235/57/129 237/58/131 239/59/133 241/60/135 243/61/137 245/62/139 247/63/141
f 249/40/127 250/41/128 252/42/130 251/26/129
f 251/26/129 252/42/130 254/43/132 253/25/131
f 253/25/131 254/43/132 256/15/134 255/7/133
f 255/7/133 256/15/134 258/16/136 257/8/135
f 257/8/135 258/16/136 260/33/138 259/31/137
f 259/31/137 260/33/138 262/44/140 261/30/139
f 252/45/130 250/46/128 264/47/142 262/48/140 260/49/138 258/50/136 256/51/134 254/52/132
f 261/30/139 262/44/140 264/53/142 263/29/141
f 263/29/141 264/53/142 250/54/128 249/55/127
f 249/56/127 251/57/129 253/58/131 255/59/133 257/60/135 259/61/137 261/62/139 263/63/141
f 265/40/127 266/41/128 268/42/130 267/26/129
f 267/26/129 268/42/130 270/43/132 269/25/131
f 269/25/131 270/43/132 272/15/134 271/7/133
f 271/7/133 272/15/134 274/16/136 273/8/135
f 273/8/135 274/16/136 276/33/138 275/31/137
f 275/31/137 276/33/138 278/44/140 277/30/139
f 268/45/130 266/46/128 280/47/142 278/48/140 276/49/138 274/50/136 272/51/134 270/52/132
f 277/30/139 278/44/140 280/53/142 279/29/141
f 279/29/141 280/53/142 266/54/128 265/55/127
f 265/56/127 267/57/129 269/58/131 271/59/133 273/60/135 275/61/137 277/62/139 279/63/141
f 385/40/167 386/41/168 388/104/170 387/105/169
f 387/105/169 388/104/170 390/106/172 389/107/171
f 389/107/171 390/106/172 392/108/174 391/109/173
f 391/109/173 392/108/174 394/110/176 393/111/175
f 393/111/175 394/110/176 396/112/178 395/113/177
f 395/113/177 396/112/178 398/114/180 397/115/179
f 397/115/179 398/114/180 400/116/182 399/117/181
f 399/117/181 400/116/182 402/118/184 401/119/183
f 401/119/183 402/118/184 404/120/186 403/121/185
f 403/121/185 404/120/186 406/122/188 405/123/187
f 405/123/187 406/122/188 408/124/190 407/125/189
f 407/125/189 408/124/190 410/126/192 409/127/191
f 388/128/170 386/46/168 412/129/194 410/130/192 408/131/190 406/132/188 404/133/186 402/134/184 400/50/182 398/135/180 396/136/178 394/137/176 392/138/174 390/139/172
f 409/127/191 410/126/192 412/140/194 411/141/193
f 411/141/193 412/140/194 386/142/168 385/143/167
f 385/56/167 387/144/169 389/145/171 391/146/173 393/147/175 395/148/177 397/149/179 399/60/181 401/150/183 403/151/185 405/152/187 407/153/189 409/154/191 411/155/193
f 528/40/245 529/41/246 531/156/248 530/157/247
f 530/157/247 531/156/248 533/158/250 532/159/249
f 532/159/249 533/158/250 535/160/252 534/161/251
f 534/161/251 535/160/252 537/162/254 536/163/253
f 536/163/253 537/162/254 539/164/256 538/165/255
f 538/165/255 539/164/256 541/166/258 540/167/257
f 540/167/257 541/166/258 543/168/260 542/169/259
f 542/169/259 543/168/260 545/170/262 544/171/261
f 531/172/248 529/46/246 547/217/264 545/218/262 543/219/260 541/220/258 539/50/256 537/177/254 535/221/252 533/222/250
f 544/171/261 545/170/262 547/180/264 546/181/263
f 546/181/263 547/180/264 529/182/246 528/183/245
f 528/56/245 530/184/247 532/223/249 534/224/251 536/187/253 538/60/255 540/188/257 542/225/259 544/226/261 546/191/263
f 572/40/265 573/41/266 575/42/268 574/26/267
f 574/26/267 575/42/268 577/43/270 576/25/269
f 576/25/269 577/43/270 579/15/272 578/7/271
f 578/7/271 579/15/272 581/16/274 580/8/273
f 580/8/273 581/16/274 583/33/276 582/31/275
f 582/31/275 583/33/276 585/44/278 584/30/277
f 575/45/268 573/46/266 587/47/280 585/48/278 583/49/276 581/50/274 579/51/272 577/52/270
f 584/30/277 585/44/278 587/53/280 586/29/279
f 586/29/279 587/53/280 573/54/266 572/55/265
f 572/56/265 574/57/267 576/58/269 578/59/271 580/60/273 582/61/275 584/62/277 586/63/279
usemtl CabinWood
f 281/37/87 282/39/88 284/3/90 283/35/89
f 283/35/89 284/3/90 288/7/94 287/31/93
f 287/31/93 288/7/94 286/11/92 285/19/91
f 285/19/91 286/11/92 282/15/88 281/33/87
f 283/29/89 287/31/93 285/19/91 281/28/87
f 288/7/94 284/26/90 282/23/88 286/11/92
f 329/37/87 330/39/88 332/3/90 331/35/89
f 331/35/89 332/3/90 336/7/94 335/31/93
f 335/31/93 336/7/94 334/11/92 333/19/91
f 333/19/91 334/11/92 330/15/88 329/33/87
f 331/29/89 335/31/93 333/19/91 329/28/87
f 336/7/94 332/26/90 330/23/88 334/11/92
usemtl AccentBlack
f 297/37/87 298/39/88 300/3/90 299/35/89
f 299/35/89 300/3/90 304/7/94 303/31/93
f 303/31/93 304/7/94 302/11/92 301/19/91
f 301/19/91 302/11/92 298/15/88 297/33/87
f 299/29/89 303/31/93 301/19/91 297/28/87
f 304/7/94 300/26/90 298/23/88 302/11/92
f 361/40/143 362/41/144 364/64/146 363/65/145
f 363/65/145 364/64/146 366/66/148 365/67/147
f 365/67/147 366/66/148 368/68/150 367/69/149
f 367/69/149 368/68/150 370/70/152 369/71/151
f 369/71/151 370/70/152 372/72/154 371/73/153
f 371/73/153 372/72/154 374/74/156 373/75/155
f 373/75/155 374/74/156 376/76/158 375/77/157
f 375/77/157 376/76/158 378/78/160 377/79/159
f 377/79/159 378/78/160 380/80/162 379/81/161
f 379/81/161 380/80/162 382/82/164 381/83/163
f 364/84/146 362/46/144 384/85/166 382/86/164 380/48/162 378/87/160 376/88/158 374/50/156 372/89/154 370/90/152 368/52/150 366/91/148
f 381/83/163 382/82/164 384/92/166 383/93/165
f 383/93/165 384/92/166 362/94/144 361/95/143
f 361/56/143 363/96/145 365/97/147 367/58/149 369/98/151 371/99/153 373/60/155 375/100/157 377/101/159 379/62/161 381/102/163 383/103/165
f 413/40/195 414/41/196 416/156/198 415/157/197
f 415/157/197 416/156/198 418/158/200 417/159/199
f 417/159/199 418/158/200 420/160/202 419/161/201
f 419/161/201 420/160/202 422/162/204 421/163/203
f 421/163/203 422/162/204 424/164/206 423/165/205
f 423/165/205 424/164/206 426/166/208 425/167/207
f 425/167/207 426/166/208 428/168/210 427/169/209
f 427/169/209 428/168/210 430/170/212 429/171/211
f 416/172/198 414/46/196 432/173/214 430/174/212 428/175/210 426/176/208 424/50/206 422/177/204 420/178/202 418/179/200
f 429/171/211 430/170/212 432/180/214 431/181/213
f 431/181/213 432/180/214 414/182/196 413/183/195
f 413/56/195 415/184/197 417/185/199 419/186/201 421/187/203 423/60/205 425/188/207 427/189/209 429/190/211 431/191/213
f 457/40/143 458/41/144 460/64/146 459/65/145
f 459/65/145 460/64/146 462/66/148 461/67/147
f 461/67/147 462/66/148 464/68/150 463/69/149
f 463/69/149 464/68/150 466/70/152 465/71/151
f 465/71/151 466/70/152 468/72/154 467/73/153
f 467/73/153 468/72/154 470/74/156 469/75/155
f 469/75/155 470/74/156 472/76/158 471/77/157
f 471/77/157 472/76/158 474/78/160 473/79/159
f 473/79/159 474/78/160 476/80/162 475/81/161
f 475/81/161 476/80/162 478/82/164 477/83/163
f 460/84/146 458/46/144 480/85/166 478/208/164 476/209/162 474/210/160 472/211/158 470/212/156 468/213/154 466/90/152 464/52/150 462/91/148
f 477/83/163 478/82/164 480/92/166 479/93/165
f 479/93/165 480/92/166 458/94/144 457/95/143
f 457/56/143 459/96/145 461/97/147 463/58/149 465/98/151 467/214/153 469/215/155 471/216/157 473/101/159 475/62/161 477/102/163 479/103/165
f 548/37/87 549/39/88 551/3/90 550/35/89
f 550/35/89 551/3/90 555/7/94 554/31/93
f 554/31/93 555/7/94 553/11/92 552/19/91
f 552/19/91 553/11/92 549/15/88 548/33/87
f 550/29/89 554/31/93 552/19/91 548/28/87
f 555/7/94 551/26/90 549/23/88 553/11/92
f 588/40/127 589/41/128 591/42/130 590/26/129
f 590/26/129 591/42/130 593/43/132 592/25/131
f 592/25/131 593/43/132 595/15/134 594/7/133
f 594/7/133 595/15/134 597/16/136 596/8/135
f 596/8/135 597/16/136 599/33/138 598/31/137
f 598/31/137 599/33/138 601/44/140 600/30/139
f 591/45/130 589/46/128 603/47/142 601/209/140 599/49/138 597/212/136 595/51/134 593/52/132
f 600/30/139 601/44/140 603/53/142 602/29/141
f 602/29/141 603/53/142 589/54/128 588/55/127
f 588/56/127 590/57/129 592/58/131 594/59/133 596/215/135 598/61/137 600/62/139 602/63/141
f 612/40/281 613/41/282 615/104/284 614/105/283
f 614/105/283 615/104/284 617/106/286 616/107/285
f 616/107/285 617/106/286 619/108/288 618/109/287
f 618/109/287 619/108/288 621/110/290 620/111/289
f 620/111/289 621/110/290 623/112/292 622/113/291
f 622/113/291 623/112/292 625/114/294 624/115/293
f 624/115/293 625/114/294 627/116/296 626/117/295
f 626/117/295 627/116/296 629/118/298 628/119/297
f 628/119/297 629/118/298 631/120/300 630/121/299
f 630/121/299 631/120/300 633/122/302 632/123/301
f 632/123/301 633/122/302 635/124/304 634/125/303
f 634/125/303 635/124/304 637/126/306 636/127/305
f 615/128/284 613/46/282 639/129/308 637/130/306 635/228/304 633/229/302 631/133/300 629/134/298 627/212/296 625/135/294 623/136/292 621/230/290 619/231/288 617/139/286
f 636/127/305 637/126/306 639/140/308 638/141/307
f 638/141/307 639/140/308 613/142/282 612/143/281
f 612/56/281 614/144/283 616/145/285 618/146/287 620/147/289 622/148/291 624/149/293 626/215/295 628/150/297 630/151/299 632/152/301 634/153/303 636/154/305 638/155/307
f 660/40/281 661/41/282 663/104/284 662/105/283
f 662/105/283 663/104/284 665/106/286 664/107/285
f 664/107/285 665/106/286 667/108/288 666/109/287
f 666/109/287 667/108/288 669/110/290 668/111/289
f 668/111/289 669/110/290 671/112/309 670/113/291
f 670/113/291 671/112/309 673/114/294 672/115/293
f 672/115/293 673/114/294 675/116/296 674/117/295
f 674/117/295 675/116/296 677/118/298 676/119/297
f 676/119/297 677/118/298 679/120/310 678/121/299
f 678/121/299 679/120/310 681/122/302 680/123/301
f 680/123/301 681/122/302 683/124/304 682/125/303
f 682/125/303 683/124/304 685/126/306 684/127/305
f 663/128/284 661/46/282 687/129/308 685/130/306 683/228/304 681/229/302 679/133/310 677/134/298 675/212/296 673/135/294 671/136/309 669/230/290 667/231/288 665/139/286
f 684/127/305 685/126/306 687/140/308 686/141/307
f 686/141/307 687/140/308 661/142/282 660/143/281
f 660/56/281 662/144/283 664/145/285 666/146/287 668/147/289 670/148/291 672/149/293 674/215/295 676/150/297 678/151/299 680/152/301 682/153/303 684/154/305 686/155/307
f 708/40/281 709/41/282 711/104/284 710/105/283
f 710/105/283 711/104/284 713/106/286 712/107/285
f 712/107/285 713/106/286 715/108/288 714/109/287
f 714/109/287 715/108/288 717/110/290 716/111/289
f 716/111/289 717/110/290 719/112/292 718/113/311
f 718/113/311 719/112/292 721/114/294 720/115/293
f 720/115/293 721/114/294 723/116/296 722/117/295
f 722/117/295 723/116/296 725/118/298 724/119/297
f 724/119/297 725/118/298 727/120/300 726/121/312
f 726/121/312 727/120/300 729/122/302 728/123/301
f 728/123/301 729/122/302 731/124/304 730/125/303
f 730/125/303 731/124/304 733/126/306 732/127/305
f 711/128/284 709/46/282 735/129/308 733/130/306 731/228/304 729/229/302 727/133/300 725/134/298 723/212/296 721/135/294 719/136/292 717/230/290 715/231/288 713/139/286
f 732/127/305 733/126/306 735/140/308 734/141/307
f 734/141/307 735/140/308 709/142/282 708/143/281
f 708/56/281 710/144/283 712/145/285 714/146/287 716/147/289 718/148/311 720/149/293 722/215/295 724/150/297 726/151/312 728/152/301 730/153/303 732/154/305 734/155/307
f 764/40/195 765/41/196 767/156/198 766/157/197
f 766/157/197 767/156/198 769/158/200 768/159/199
f 768/159/199 769/158/200 771/160/202 770/161/201
f 770/161/201 771/160/202 773/162/204 772/163/203
f 772/163/203 773/162/204 775/164/206 774/165/205
f 774/165/205 775/164/206 777/166/208 776/167/207
f 776/167/207 777/166/208 779/168/210 778/169/209
f 778/169/209 779/168/210 781/170/212 780/171/211
f 767/172/198 765/46/196 783/217/214 781/174/212 779/175/210 777/220/208 775/50/206 773/177/204 771/178/202 769/179/200
f 780/171/211 781/170/212 783/180/214 782/181/213
f 782/181/213 783/180/214 765/182/196 764/183/195
f 764/56/195 766/184/197 768/185/199 770/186/201 772/187/203 774/60/205 776/188/207 778/189/209 780/190/211 782/191/213
usemtl RopeTan
f 481/40/215 482/41/216 484/156/218 483/157/217
f 483/157/217 484/156/218 486/158/220 485/159/219
f 485/159/219 486/158/220 488/160/222 487/161/221
f 487/161/221 488/160/222 490/162/224 489/163/223
f 489/163/223 490/162/224 492/164/226 491/165/225
f 491/165/225 492/164/226 494/166/228 493/167/227
f 493/167/227 494/166/228 496/168/230 495/169/229
f 495/169/229 496/168/230 498/170/232 497/171/231
f 484/172/218 482/46/216 500/217/234 498/218/232 496/219/230 494/220/228 492/50/226 490/177/224 488/221/222 486/222/220
f 497/171/231 498/170/232 500/180/234 499/181/233
f 499/181/233 500/180/234 482/182/216 481/183/215
f 481/56/215 483/184/217 485/223/219 487/224/221 489/187/223 491/60/225 493/188/227 495/225/229 497/226/231 499/191/233
f 784/40/313 785/41/314 787/236/316 786/237/315
f 786/237/315 787/236/316 789/238/318 788/239/317
f 788/239/317 789/238/318 791/240/320 790/241/319
f 790/241/319 791/240/320 793/242/322 792/243/321
f 787/91/316 785/46/314 795/208/324 793/210/322 791/50/320 789/90/318
f 792/243/321 793/242/322 795/244/324 794/245/323
f 794/245/323 795/244/324 785/246/314 784/247/313
f 784/56/313 786/97/315 788/98/317 790/60/319 792/101/321 794/102/323
f 796/40/325 797/41/326 799/236/328 798/237/327
f 798/237/327 799/236/328 801/238/330 800/239/329
f 800/239/329 801/238/330 803/240/332 802/241/331
f 802/241/331 803/240/332 805/242/334 804/243/333
f 799/91/328 797/46/326 807/208/336 805/210/334 803/50/332 801/90/330
f 804/243/333 805/242/334 807/244/336 806/245/335
f 806/245/335 807/244/336 797/246/326 796/247/325
f 796/56/325 798/97/327 800/98/329 802/60/331 804/101/333 806/102/335
f 808/40/337 809/41/338 811/236/340 810/237/339
f 810/237/339 811/236/340 813/238/342 812/239/341
f 812/239/341 813/238/342 815/240/344 814/241/343
f 814/241/343 815/240/344 817/242/346 816/243/345
f 811/91/340 809/46/338 819/208/348 817/210/346 815/50/344 813/90/342
f 816/243/345 817/242/346 819/244/348 818/245/347
f 818/245/347 819/244/348 809/246/338 808/247/337
f 808/56/337 810/97/339 812/98/341 814/60/343 816/101/345 818/102/347
f 820/40/349 821/41/350 823/236/352 822/237/351
f 822/237/351 823/236/352 825/238/354 824/239/353
f 824/239/353 825/238/354 827/240/356 826/241/355
f 826/241/355 827/240/356 829/242/358 828/243/357
f 823/91/352 821/46/350 831/208/360 829/210/358 827/50/356 825/90/354
f 828/243/357 829/242/358 831/244/360 830/245/359
f 830/245/359 831/244/360 821/246/350 820/247/349
f 820/56/349 822/97/351 824/98/353 826/60/355 828/101/357 830/102/359
usemtl SailCream
f 501/37/87 502/39/88 504/3/90 503/35/89
f 503/35/89 504/3/90 508/7/94 507/31/93
f 507/31/93 508/7/94 506/11/92 505/19/91
f 505/19/91 506/11/92 502/15/88 501/33/87
f 503/29/89 507/31/93 505/19/91 501/28/87
f 508/7/94 504/26/90 502/23/88 506/11/92
f 832/37/87 833/39/88 835/3/90 834/35/89
f 834/35/89 835/3/90 839/7/94 838/31/93
f 838/31/93 839/7/94 837/11/92 836/19/91
f 836/19/91 837/11/92 833/15/88 832/33/87
f 834/29/89 838/31/93 836/19/91 832/28/87
f 839/7/94 835/26/90 833/23/88 837/11/92
usemtl FlagBlack
f 604/37/87 605/39/88 607/3/90 606/35/89
f 606/35/89 607/3/90 611/7/94 610/31/93
f 610/31/93 611/7/94 609/11/92 608/19/91
f 608/19/91 609/11/92 605/15/88 604/33/87
f 606/29/89 610/31/93 608/19/91 604/28/87
f 611/7/94 607/26/90 605/23/88 609/11/92
