# Blender 4.3.2
# www.blender.org
mtllib SlimeLamp.mtl
o SlimeLamp
v 0.000000 0.000000 -0.045000
v 0.000000 0.700000 -0.045000
v 0.026450 0.000000 -0.036406
v 0.026450 0.700000 -0.036406
v 0.042798 0.000000 -0.013906
v 0.042798 0.700000 -0.013906
v 0.042798 0.000000 0.013906
v 0.042798 0.700000 0.013906
v 0.026450 0.000000 0.036406
v 0.026450 0.700000 0.036406
v 0.000000 0.000000 0.045000
v 0.000000 0.700000 0.045000
v -0.026450 0.000000 0.036406
v -0.026450 0.700000 0.036406
v -0.042798 0.000000 0.013906
v -0.042798 0.700000 0.013906
v -0.042798 0.000000 -0.013906
v -0.042798 0.700000 -0.013906
v -0.026450 0.000000 -0.036406
v -0.026450 0.700000 -0.036406
v 0.000000 0.000000 -0.100000
v 0.000000 0.080000 -0.100000
v 0.058779 0.000000 -0.080902
v 0.058779 0.080000 -0.080902
v 0.095106 0.000000 -0.030902
v 0.095106 0.080000 -0.030902
v 0.095106 0.000000 0.030902
v 0.095106 0.080000 0.030902
v 0.058779 0.000000 0.080902
v 0.058779 0.080000 0.080902
v 0.000000 0.000000 0.100000
v 0.000000 0.080000 0.100000
v -0.058779 0.000000 0.080902
v -0.058779 0.080000 0.080902
v -0.095106 0.000000 0.030902
v -0.095106 0.080000 0.030902
v -0.095106 0.000000 -0.030902
v -0.095106 0.080000 -0.030902
v -0.058779 0.000000 -0.080902
v -0.058779 0.080000 -0.080902
v 0.000000 0.700000 -0.110000
v 0.000000 0.860000 -0.110000
v 0.064656 0.700000 -0.088992
v 0.064656 0.860000 -0.088992
v 0.104616 0.700000 -0.033992
v 0.104616 0.860000 -0.033992
v 0.104616 0.700000 0.033992
v 0.104616 0.860000 0.033992
v 0.064656 0.700000 0.088992
v 0.064656 0.860000 0.088992
v 0.000000 0.700000 0.110000
v 0.000000 0.860000 0.110000
v -0.064656 0.700000 0.088992
v -0.064656 0.860000 0.088992
v -0.104616 0.700000 0.033992
v -0.104616 0.860000 0.033992
v -0.104616 0.700000 -0.033992
v -0.104616 0.860000 -0.033992
v -0.064656 0.700000 -0.088992
v -0.064656 0.860000 -0.088992
v 0.026450 0.857942 -0.036406
v 0.045813 0.825000 -0.063057
v 0.052901 0.780000 -0.072812
v 0.045813 0.735000 -0.063057
v 0.026450 0.702058 -0.036406
v 0.042798 0.857942 -0.013906
v 0.074128 0.825000 -0.024085
v 0.085595 0.780000 -0.027812
v 0.074128 0.735000 -0.024085
v 0.042798 0.702058 -0.013906
v 0.042798 0.857942 0.013906
v 0.074128 0.825000 0.024085
v 0.085595 0.780000 0.027812
v 0.074128 0.735000 0.024085
v 0.042798 0.702058 0.013906
v 0.026450 0.857942 0.036406
v 0.045813 0.825000 0.063057
v 0.052901 0.780000 0.072812
v 0.045813 0.735000 0.063057
v 0.026450 0.702058 0.036406
v 0.000000 0.857942 0.045000
v 0.000000 0.825000 0.077942
v 0.000000 0.780000 0.090000
v 0.000000 0.735000 0.077942
v 0.000000 0.702058 0.045000
v -0.026450 0.857942 0.036406
v -0.045813 0.825000 0.063057
v -0.052901 0.780000 0.072812
v -0.045813 0.735000 0.063057
v -0.026450 0.702058 0.036406
v 0.000000 0.870000 0.000000
v -0.042798 0.857942 0.013906
v -0.074128 0.825000 0.024085
v -0.085595 0.780000 0.027812
v -0.074128 0.735000 0.024085
v -0.042798 0.702058 0.013906
v 0.000000 0.690000 0.000000
v -0.042798 0.857942 -0.013906
v -0.074128 0.825000 -0.024085
v -0.085595 0.780000 -0.027812
v -0.074128 0.735000 -0.024085
v -0.042798 0.702058 -0.013906
v -0.026450 0.857942 -0.036406
v -0.045813 0.825000 -0.063057
v -0.052901 0.780000 -0.072812
v -0.045813 0.735000 -0.063057
v -0.026450 0.702058 -0.036406
v -0.000000 0.857942 -0.045000
v -0.000000 0.825000 -0.077942
v -0.000000 0.780000 -0.090000
v -0.000000 0.735000 -0.077942
v -0.000000 0.702058 -0.045000
v 0.031756 0.740622 -0.056180
v 0.040361 0.715000 -0.068025
v 0.043511 0.680000 -0.072361
v 0.040361 0.645000 -0.068025
v 0.031756 0.619378 -0.056180
v 0.039021 0.740622 -0.046180
v 0.052946 0.715000 -0.050705
v 0.058042 0.680000 -0.052361
v 0.052946 0.645000 -0.050705
v 0.039021 0.619378 -0.046180
v 0.039021 0.740622 -0.033820
v 0.052946 0.715000 -0.029295
v 0.058042 0.680000 -0.027639
v 0.052946 0.645000 -0.029295
v 0.039021 0.619378 -0.033820
v 0.031756 0.740622 -0.023820
v 0.040361 0.715000 -0.011975
v 0.043511 0.680000 -0.007639
v 0.040361 0.645000 -0.011975
v 0.031756 0.619378 -0.023820
v 0.020000 0.740622 -0.020000
v 0.020000 0.715000 -0.005359
v 0.020000 0.680000 0.000000
v 0.020000 0.645000 -0.005359
v 0.020000 0.619378 -0.020000
v 0.008244 0.740622 -0.023820
v -0.000361 0.715000 -0.011975
v -0.003511 0.680000 -0.007639
v -0.000361 0.645000 -0.011975
v 0.008244 0.619378 -0.023820
v 0.000979 0.740622 -0.033820
v -0.012946 0.715000 -0.029295
v -0.018042 0.680000 -0.027639
v -0.012946 0.645000 -0.029295
v 0.000979 0.619378 -0.033820
v 0.020000 0.610000 -0.040000
v 0.020000 0.750000 -0.040000
v 0.000979 0.740622 -0.046180
v -0.012946 0.715000 -0.050705
v -0.018042 0.680000 -0.052361
v -0.012946 0.645000 -0.050705
v 0.000979 0.619378 -0.046180
v 0.008244 0.740622 -0.056180
v -0.000361 0.715000 -0.068025
v -0.003511 0.680000 -0.072361
v -0.000361 0.645000 -0.068025
v 0.008244 0.619378 -0.056180
v 0.020000 0.740622 -0.060000
v 0.020000 0.715000 -0.074641
v 0.020000 0.680000 -0.080000
v 0.020000 0.645000 -0.074641
v 0.020000 0.619378 -0.060000
vn -0.0000 -0.6437 -0.7653
vn -0.0000 0.6437 -0.7653
vn 0.4498 -0.6437 -0.6191
vn 0.4498 0.6437 -0.6191
vn 0.7278 -0.6437 -0.2365
vn 0.7278 0.6437 -0.2365
vn 0.7278 -0.6437 0.2365
vn 0.7278 0.6437 0.2365
vn 0.4498 -0.6437 0.6191
vn 0.4498 0.6437 0.6191
vn -0.0000 -0.6437 0.7653
vn -0.0000 0.6437 0.7653
vn -0.4498 -0.6437 0.6191
vn -0.4498 0.6437 0.6191
vn -0.7278 -0.6437 0.2365
vn -0.7278 0.6437 0.2365
vn -0.7278 -0.6437 -0.2365
vn -0.7278 0.6437 -0.2365
vn -0.4498 -0.6437 -0.6191
vn -0.4498 0.6437 -0.6191
vn 0.3155 0.8438 -0.4342
vn 0.5159 0.4791 -0.7101
vn 0.5878 -0.0000 -0.8090
vn 0.5159 -0.4791 -0.7101
vn 0.3155 -0.8438 -0.4342
vn 0.5104 0.8438 -0.1659
vn 0.8348 0.4791 -0.2712
vn 0.9511 -0.0000 -0.3090
vn 0.8348 -0.4791 -0.2712
vn 0.5104 -0.8438 -0.1659
vn 0.5104 0.8438 0.1659
vn 0.8348 0.4791 0.2712
vn 0.9511 -0.0000 0.3090
vn 0.8348 -0.4791 0.2712
vn 0.5104 -0.8438 0.1659
vn 0.3155 0.8438 0.4342
vn 0.5159 0.4791 0.7101
vn 0.5878 -0.0000 0.8090
vn 0.5159 -0.4791 0.7101
vn 0.3155 -0.8438 0.4342
vn -0.0000 0.8438 0.5367
vn -0.0000 0.4791 0.8778
vn -0.0000 -0.0000 1.0000
vn -0.0000 -0.4791 0.8778
vn -0.0000 -0.8438 0.5367
vn -0.3155 0.8438 0.4342
vn -0.5159 0.4791 0.7101
vn -0.5878 -0.0000 0.8090
vn -0.5159 -0.4791 0.7101
vn -0.3155 -0.8438 0.4342
vn -0.0000 1.0000 -0.0000
vn -0.5104 0.8438 0.1659
vn -0.8348 0.4791 0.2712
vn -0.9511 -0.0000 0.3090
vn -0.8348 -0.4791 0.2712
vn -0.5104 -0.8438 0.1659
vn -0.0000 -1.0000 -0.0000
vn -0.5104 0.8438 -0.1659
vn -0.8348 0.4791 -0.2712
vn -0.9511 -0.0000 -0.3090
vn -0.8348 -0.4791 -0.2712
vn -0.5104 -0.8438 -0.1659
vn -0.3155 0.8438 -0.4342
vn -0.5159 0.4791 -0.7101
vn -0.5878 -0.0000 -0.8090
vn -0.5159 -0.4791 -0.7101
vn -0.3155 -0.8438 -0.4342
vn -0.0000 0.8438 -0.5367
vn -0.0000 0.4791 -0.8778
vn -0.0000 -0.0000 -1.0000
vn -0.0000 -0.4791 -0.8778
vn -0.0000 -0.8438 -0.5367
vn 0.4161 0.7063 -0.5727
vn 0.5572 0.3186 -0.7669
vn 0.5572 -0.3186 -0.7669
vn 0.4161 -0.7063 -0.5727
vn 0.6733 0.7063 -0.2188
vn 0.9015 0.3186 -0.2929
vn 0.9015 -0.3186 -0.2929
vn 0.6733 -0.7063 -0.2188
vn 0.6733 0.7063 0.2188
vn 0.9015 0.3186 0.2929
vn 0.9015 -0.3186 0.2929
vn 0.6733 -0.7063 0.2188
vn 0.4161 0.7063 0.5727
vn 0.5572 0.3186 0.7669
vn 0.5572 -0.3186 0.7669
vn 0.4161 -0.7063 0.5727
vn -0.0000 0.7063 0.7079
vn -0.0000 0.3186 0.9479
vn -0.0000 -0.3186 0.9479
vn -0.0000 -0.7063 0.7079
vn -0.4161 0.7063 0.5727
vn -0.5572 0.3186 0.7669
vn -0.5572 -0.3186 0.7669
vn -0.4161 -0.7063 0.5727
vn -0.6733 0.7063 0.2188
vn -0.9015 0.3186 0.2929
vn -0.9015 -0.3186 0.2929
vn -0.6733 -0.7063 0.2188
vn -0.6733 0.7063 -0.2188
vn -0.9015 0.3186 -0.2929
vn -0.9015 -0.3186 -0.2929
vn -0.6733 -0.7063 -0.2188
vn -0.4161 0.7063 -0.5727
vn -0.5572 0.3186 -0.7669
vn -0.5572 -0.3186 -0.7669
vn -0.4161 -0.7063 -0.5727
vn -0.0000 0.7063 -0.7079
vn -0.0000 0.3186 -0.9479
vn -0.0000 -0.3186 -0.9479
vn -0.0000 -0.7063 -0.7079
vt 1.000000 0.500000
vt 1.000000 1.000000
vt 0.900000 1.000000
vt 0.900000 0.500000
vt 0.800000 1.000000
vt 0.800000 0.500000
vt 0.700000 1.000000
vt 0.700000 0.500000
vt 0.600000 1.000000
vt 0.600000 0.500000
vt 0.500000 1.000000
vt 0.500000 0.500000
vt 0.400000 1.000000
vt 0.400000 0.500000
vt 0.300000 1.000000
vt 0.300000 0.500000
vt 0.200000 1.000000
vt 0.200000 0.500000
vt 0.391068 0.444164
vt 0.250000 0.490000
vt 0.108932 0.444164
vt 0.021746 0.324164
vt 0.021746 0.175836
vt 0.108932 0.055836
vt 0.250000 0.010000
vt 0.391068 0.055836
vt 0.478254 0.175836
vt 0.478254 0.324164
vt 0.100000 1.000000
vt 0.100000 0.500000
vt -0.000000 1.000000
vt -0.000000 0.500000
vt 0.750000 0.490000
vt 0.891068 0.444164
vt 0.978254 0.324164
vt 0.978254 0.175836
vt 0.891068 0.055836
vt 0.750000 0.010000
vt 0.608932 0.055836
vt 0.521746 0.175836
vt 0.521746 0.324164
vt 0.608932 0.444164
vt 0.108932 0.444164
vt 0.021746 0.324164
vt 0.021746 0.175836
vt 0.108932 0.055836
vt 0.478254 0.175836
vt 0.478254 0.324164
vt 0.978254 0.324164
vt 0.978254 0.175836
vt 0.521746 0.175836
vt 0.521746 0.324164
vt 0.108932 0.055836
vt 0.250000 0.010000
vt 0.391068 0.055836
vt 0.891068 0.055836
vt 0.750000 0.010000
vt 0.608932 0.055836
vt 0.700000 0.166667
vt 0.700000 0.333333
vt 0.600000 0.333333
vt 0.600000 0.166667
vt 0.700000 0.500000
vt 0.700000 0.666667
vt 0.600000 0.666667
vt 0.600000 0.500000
vt 0.700000 0.833333
vt 0.650000 1.000000
vt 0.600000 0.833333
vt 0.650000 0.000000
vt 0.550000 0.000000
vt 0.500000 0.166667
vt 0.500000 0.500000
vt 0.500000 0.333333
vt 0.500000 0.833333
vt 0.500000 0.666667
vt 0.550000 1.000000
vt 0.450000 0.000000
vt 0.400000 0.166667
vt 0.400000 0.500000
vt 0.400000 0.333333
vt 0.400000 0.833333
vt 0.400000 0.666667
vt 0.450000 1.000000
vt 0.350000 0.000000
vt 0.300000 0.166667
vt 0.300000 0.500000
vt 0.300000 0.333333
vt 0.300000 0.833333
vt 0.300000 0.666667
vt 0.350000 1.000000
vt 0.200000 0.500000
vt 0.200000 0.333333
vt 0.200000 0.833333
vt 0.200000 0.666667
vt 0.200000 0.166667
vt 0.250000 1.000000
vt 0.250000 0.000000
vt 0.100000 0.833333
vt 0.100000 0.666667
vt 0.100000 0.333333
vt 0.100000 0.166667
vt 0.100000 0.500000
vt 0.150000 1.000000
vt 0.150000 0.000000
vt 0.000000 0.333333
vt 0.000000 0.166667
vt 0.000000 0.666667
vt 0.000000 0.500000
vt 0.050000 1.000000
vt 0.000000 0.833333
vt 0.050000 0.000000
vt 1.000000 0.166667
vt 1.000000 0.333333
vt 0.900000 0.333333
vt 0.900000 0.166667
vt 1.000000 0.500000
vt 1.000000 0.666667
vt 0.900000 0.666667
vt 0.900000 0.500000
vt 1.000000 0.833333
vt 0.950000 1.000000
vt 0.900000 0.833333
vt 0.950000 0.000000
vt 0.800000 0.333333
vt 0.800000 0.166667
vt 0.800000 0.666667
vt 0.800000 0.500000
vt 0.850000 1.000000
vt 0.800000 0.833333
vt 0.850000 0.000000
vt 0.750000 1.000000
vt 0.750000 0.000000
vt 0.650000 0.000000
vt 0.700000 0.166667
vt 0.600000 0.166667
vt 0.700000 0.666667
vt 0.700000 0.833333
vt 0.600000 0.833333
vt 0.650000 1.000000
vt 0.500000 0.833333
vt 0.500000 0.166667
vt 0.400000 0.333333
vt 0.400000 0.166667
vt 0.400000 0.666667
vt 0.400000 0.500000
vt 0.400000 0.833333
vt 0.300000 0.166667
vt 0.350000 1.000000
vt 0.300000 0.833333
vt 0.350000 0.000000
vt 0.200000 0.166667
vt 0.200000 0.666667
vt 0.200000 0.500000
vt 0.200000 0.833333
vt 0.100000 0.166667
vt 0.100000 0.666667
vt 0.150000 1.000000
vt 0.100000 0.833333
vt 0.150000 0.000000
vt 0.000000 0.666667
vt 0.050000 1.000000
vt 0.000000 0.833333
vt 0.050000 0.000000
vt 0.000000 0.166667
vt 1.000000 0.833333
vt 0.900000 0.833333
vt 1.000000 0.166667
vt 0.900000 0.166667
vt 1.000000 0.666667
vt 0.900000 0.666667
vt 0.800000 0.166667
vt 0.800000 0.833333
vt 0.800000 0.666667
s 1
usemtl PurpleWood
f 1/1/1 2/2/2 4/3/4 3/4/3
f 3/4/3 4/3/4 6/5/6 5/6/5
f 5/6/5 6/5/6 8/7/8 7/8/7
f 7/8/7 8/7/8 10/9/10 9/10/9
f 9/10/9 10/9/10 12/11/12 11/12/11
f 11/12/11 12/11/12 14/13/14 13/14/13
f 13/14/13 14/13/14 16/15/16 15/16/15
f 15/16/15 16/15/16 18/17/18 17/18/17
f 4/19/4 2/20/2 20/21/20 18/22/18 16/23/16 14/24/14 12/25/12 10/26/10 8/27/8 6/28/6
f 17/18/17 18/17/18 20/29/20 19/30/19
f 19/30/19 20/29/20 2/31/2 1/32/1
f 1/33/1 3/34/3 5/35/5 7/36/7 9/37/9 11/38/11 13/39/13 15/40/15 17/41/17 19/42/19
f 21/1/1 22/2/2 24/3/4 23/4/3
f 23/4/3 24/3/4 26/5/6 25/6/5
f 25/6/5 26/5/6 28/7/8 27/8/7
f 27/8/7 28/7/8 30/9/10 29/10/9
f 29/10/9 30/9/10 32/11/12 31/12/11
f 31/12/11 32/11/12 34/13/14 33/14/13
f 33/14/13 34/13/14 36/15/16 35/16/15
f 35/16/15 36/15/16 38/17/18 37/18/17
f 24/19/4 22/20/2 40/43/20 38/44/18 36/45/16 34/46/14 32/25/12 30/26/10 28/47/8 26/48/6
f 37/18/17 38/17/18 40/29/20 39/30/19
f 39/30/19 40/29/20 22/31/2 21/32/1
f 21/33/1 23/34/3 25/49/5 27/50/7 29/37/9 31/38/11 33/39/13 35/51/15 37/52/17 39/42/19
f 41/1/1 42/2/2 44/3/4 43/4/3
f 43/4/3 44/3/4 46/5/6 45/6/5
f 45/6/5 46/5/6 48/7/8 47/8/7
f 47/8/7 48/7/8 50/9/10 49/10/9
f 49/10/9 50/9/10 52/11/12 51/12/11
f 51/12/11 52/11/12 54/13/14 53/14/13
f 53/14/13 54/13/14 56/15/16 55/16/15
f 55/16/15 56/15/16 58/17/18 57/18/17
f 44/19/4 42/20/2 60/21/20 58/22/18 56/23/16 54/53/14 52/54/12 50/55/10 48/27/8 46/28/6
f 57/18/17 58/17/18 60/29/20 59/30/19
f 59/30/19 60/29/20 42/31/2 41/32/1
f 41/33/1 43/34/3 45/35/5 47/36/7 49/56/9 51/57/11 53/58/13 55/40/15 57/41/17 59/42/19
usemtl WindowGlow
f 112/59/72 111/60/71 64/61/24 65/62/25
f 110/63/70 109/64/69 62/65/22 63/66/23
f 108/67/68 91/68/51 61/69/21
f 97/70/57 112/59/72 65/62/25
f 111/60/71 110/63/70 63/66/23 64/61/24
f 109/64/69 108/67/68 61/69/21 62/65/22
f 97/71/57 65/62/25 70/72/30
f 64/61/24 63/66/23 68/73/28 69/74/29
f 62/65/22 61/69/21 66/75/26 67/76/27
f 65/62/25 64/61/24 69/74/29 70/72/30
f 63/66/23 62/65/22 67/76/27 68/73/28
f 61/69/21 91/77/51 66/75/26
f 97/78/57 70/72/30 75/79/35
f 69/74/29 68/73/28 73/80/33 74/81/34
f 67/76/27 66/75/26 71/82/31 72/83/32
f 70/72/30 69/74/29 74/81/34 75/79/35
f 68/73/28 67/76/27 72/83/32 73/80/33
f 66/75/26 91/84/51 71/82/31
f 97/85/57 75/79/35 80/86/40
f 74/81/34 73/80/33 78/87/38 79/88/39
f 72/83/32 71/82/31 76/89/36 77/90/37
f 75/79/35 74/81/34 79/88/39 80/86/40
f 73/80/33 72/83/32 77/90/37 78/87/38
f 71/82/31 91/91/51 76/89/36
f 79/88/39 78/87/38 83/92/43 84/93/44
f 77/90/37 76/89/36 81/94/41 82/95/42
f 80/86/40 79/88/39 84/93/44 85/96/45
f 78/87/38 77/90/37 82/95/42 83/92/43
f 76/89/36 91/97/51 81/94/41
f 97/98/57 80/86/40 85/96/45
f 82/95/42 81/94/41 86/99/46 87/100/47
f 85/96/45 84/93/44 89/101/49 90/102/50
f 83/92/43 82/95/42 87/100/47 88/103/48
f 81/94/41 91/104/51 86/99/46
f 97/105/57 85/96/45 90/102/50
f 84/93/44 83/92/43 88/103/48 89/101/49
f 90/102/50 89/101/49 95/106/55 96/107/56
f 88/103/48 87/100/47 93/108/53 94/109/54
f 86/99/46 91/110/51 92/111/52
f 97/112/57 90/102/50 96/107/56
f 89/101/49 88/103/48 94/109/54 95/106/55
f 87/100/47 86/99/46 92/111/52 93/108/53
f 96/113/56 95/114/55 101/115/61 102/116/62
f 94/117/54 93/118/53 99/119/59 100/120/60
f 92/121/52 91/122/51 98/123/58
f 97/124/57 96/113/56 102/116/62
f 95/114/55 94/117/54 100/120/60 101/115/61
f 93/118/53 92/121/52 98/123/58 99/119/59
f 102/116/62 101/115/61 106/125/66 107/126/67
f 100/120/60 99/119/59 104/127/64 105/128/65
f 98/123/58 91/129/51 103/130/63
f 97/131/57 102/116/62 107/126/67
f 101/115/61 100/120/60 105/128/65 106/125/66
f 99/119/59 98/123/58 103/130/63 104/127/64
f 107/126/67 106/125/66 111/60/71 112/59/72
f 105/128/65 104/127/64 109/64/69 110/63/70
f 103/130/63 91/132/51 108/67/68
f 97/133/57 107/126/67 112/59/72
f 106/125/66 105/128/65 110/63/70 111/60/71
f 104/127/64 103/130/63 108/67/68 109/64/69
usemtl SlimeNeon
f 148/134/57 164/135/112 117/136/76
f 163/60/111 162/63/70 115/66/23 116/61/75
f 161/137/110 160/138/109 113/139/73 114/65/74
f 164/135/112 163/60/111 116/61/75 117/136/76
f 162/63/70 161/137/110 114/65/74 115/66/23
f 160/138/109 149/140/51 113/139/73
f 114/65/74 113/139/73 118/141/77 119/76/78
f 117/136/76 116/61/75 121/74/79 122/142/80
f 115/66/23 114/65/74 119/76/78 120/73/28
f 113/139/73 149/77/51 118/141/77
f 148/71/57 117/136/76 122/142/80
f 116/61/75 115/66/23 120/73/28 121/74/79
f 122/142/80 121/74/79 126/143/83 127/144/84
f 120/73/28 119/76/78 124/145/82 125/146/33
f 118/141/77 149/84/51 123/147/81
f 148/78/57 122/142/80 127/144/84
f 121/74/79 120/73/28 125/146/33 126/143/83
f 119/76/78 118/141/77 123/147/81 124/145/82
f 127/144/84 126/143/83 131/88/87 132/148/88
f 125/146/33 124/145/82 129/90/86 130/87/38
f 123/147/81 149/149/51 128/150/85
f 148/151/57 127/144/84 132/148/88
f 126/143/83 125/146/33 130/87/38 131/88/87
f 124/145/82 123/147/81 128/150/85 129/90/86
f 132/148/88 131/88/87 136/93/91 137/152/92
f 130/87/38 129/90/86 134/153/90 135/154/43
f 128/150/85 149/97/51 133/155/89
f 148/98/57 132/148/88 137/152/92
f 131/88/87 130/87/38 135/154/43 136/93/91
f 129/90/86 128/150/85 133/155/89 134/153/90
f 137/152/92 136/93/91 141/101/95 142/156/96
f 135/154/43 134/153/90 139/157/94 140/103/48
f 133/155/89 149/158/51 138/159/93
f 148/160/57 137/152/92 142/156/96
f 136/93/91 135/154/43 140/103/48 141/101/95
f 134/153/90 133/155/89 138/159/93 139/157/94
f 140/103/48 139/157/94 144/161/98 145/109/54
f 138/159/93 149/162/51 143/163/97
f 148/164/57 142/156/96 147/165/100
f 141/101/95 140/103/48 145/109/54 146/106/99
f 139/157/94 138/159/93 143/163/97 144/161/98
f 142/156/96 141/101/95 146/106/99 147/165/100
f 143/166/97 149/122/51 150/167/101
f 148/124/57 147/168/100 154/169/104
f 146/114/99 145/117/54 152/4/60 153/115/103
f 144/170/98 143/166/97 150/167/101 151/171/102
f 147/168/100 146/114/99 153/115/103 154/169/104
f 145/117/54 144/170/98 151/171/102 152/4/60
f 148/131/57 154/169/104 159/172/108
f 153/115/103 152/4/60 157/128/65 158/125/107
f 151/171/102 150/167/101 155/173/105 156/174/106
f 154/169/104 153/115/103 158/125/107 159/172/108
f 152/4/60 151/171/102 156/174/106 157/128/65
f 150/167/101 149/129/51 155/173/105
f 148/133/57 159/172/108 164/135/112
f 158/125/107 157/128/65 162/63/70 163/60/111
f 156/174/106 155/173/105 160/138/109 161/137/110
f 159/172/108 158/125/107 163/60/111 164/135/112
f 157/128/65 156/174/106 161/137/110 162/63/70
f 155/173/105 149/132/51 160/138/109
