# Blender 4.3.2
# www.blender.org
mtllib SlimeFence.mtl
o SlimeFence
v -0.350000 0.000000 -0.040000
v -0.350000 0.440000 -0.040000
v -0.321716 0.000000 -0.028284
v -0.321716 0.440000 -0.028284
v -0.310000 0.000000 0.000000
v -0.310000 0.440000 0.000000
v -0.321716 0.000000 0.028284
v -0.321716 0.440000 0.028284
v -0.350000 0.000000 0.040000
v -0.350000 0.440000 0.040000
v -0.378284 0.000000 0.028284
v -0.378284 0.440000 0.028284
v -0.390000 0.000000 0.000000
v -0.390000 0.440000 0.000000
v -0.378284 0.000000 -0.028284
v -0.378284 0.440000 -0.028284
v -0.325000 0.495355 -0.025000
v -0.314645 0.460000 -0.035355
v -0.325000 0.424645 -0.025000
v -0.314645 0.495355 0.000000
v -0.300000 0.460000 0.000000
v -0.314645 0.424645 0.000000
v -0.325000 0.495355 0.025000
v -0.314645 0.460000 0.035355
v -0.325000 0.424645 0.025000
v -0.350000 0.495355 0.035355
v -0.350000 0.460000 0.050000
v -0.350000 0.424645 0.035355
v -0.375000 0.495355 0.025000
v -0.385355 0.460000 0.035355
v -0.375000 0.424645 0.025000
v -0.350000 0.410000 0.000000
v -0.385355 0.495355 0.000000
v -0.400000 0.460000 0.000000
v -0.385355 0.424645 0.000000
v -0.375000 0.495355 -0.025000
v -0.385355 0.460000 -0.035355
v -0.375000 0.424645 -0.025000
v -0.350000 0.510000 0.000000
v -0.350000 0.495355 -0.035355
v -0.350000 0.460000 -0.050000
v -0.350000 0.424645 -0.035355
v 0.000000 0.000000 -0.040000
v 0.000000 0.440000 -0.040000
v 0.028284 0.000000 -0.028284
v 0.028284 0.440000 -0.028284
v 0.040000 0.000000 0.000000
v 0.040000 0.440000 0.000000
v 0.028284 0.000000 0.028284
v 0.028284 0.440000 0.028284
v 0.000000 0.000000 0.040000
v 0.000000 0.440000 0.040000
v -0.028284 0.000000 0.028284
v -0.028284 0.440000 0.028284
v -0.040000 0.000000 0.000000
v -0.040000 0.440000 0.000000
v -0.028284 0.000000 -0.028284
v -0.028284 0.440000 -0.028284
v 0.025000 0.495355 -0.025000
v 0.035355 0.460000 -0.035355
v 0.025000 0.424645 -0.025000
v 0.035355 0.495355 0.000000
v 0.050000 0.460000 0.000000
v 0.035355 0.424645 0.000000
v 0.025000 0.495355 0.025000
v 0.035355 0.460000 0.035355
v 0.025000 0.424645 0.025000
v 0.000000 0.495355 0.035355
v 0.000000 0.460000 0.050000
v 0.000000 0.424645 0.035355
v -0.025000 0.495355 0.025000
v -0.035355 0.460000 0.035355
v -0.025000 0.424645 0.025000
v 0.000000 0.410000 0.000000
v -0.035355 0.495355 0.000000
v -0.050000 0.460000 0.000000
v -0.035355 0.424645 0.000000
v -0.025000 0.495355 -0.025000
v -0.035355 0.460000 -0.035355
v -0.025000 0.424645 -0.025000
v 0.000000 0.510000 0.000000
v 0.000000 0.495355 -0.035355
v 0.000000 0.460000 -0.050000
v 0.000000 0.424645 -0.035355
v 0.350000 0.000000 -0.040000
v 0.350000 0.440000 -0.040000
v 0.378284 0.000000 -0.028284
v 0.378284 0.440000 -0.028284
v 0.390000 0.000000 0.000000
v 0.390000 0.440000 0.000000
v 0.378284 0.000000 0.028284
v 0.378284 0.440000 0.028284
v 0.350000 0.000000 0.040000
v 0.350000 0.440000 0.040000
v 0.321716 0.000000 0.028284
v 0.321716 0.440000 0.028284
v 0.310000 0.000000 0.000000
v 0.310000 0.440000 0.000000
v 0.321716 0.000000 -0.028284
v 0.321716 0.440000 -0.028284
v 0.375000 0.495355 -0.025000
v 0.385355 0.460000 -0.035355
v 0.375000 0.424645 -0.025000
v 0.385355 0.495355 0.000000
v 0.400000 0.460000 0.000000
v 0.385355 0.424645 0.000000
v 0.375000 0.495355 0.025000
v 0.385355 0.460000 0.035355
v 0.375000 0.424645 0.025000
v 0.350000 0.495355 0.035355
v 0.350000 0.460000 0.050000
v 0.350000 0.424645 0.035355
v 0.325000 0.495355 0.025000
v 0.314645 0.460000 0.035355
v 0.325000 0.424645 0.025000
v 0.350000 0.410000 0.000000
v 0.314645 0.495355 0.000000
v 0.300000 0.460000 0.000000
v 0.314645 0.424645 0.000000
v 0.325000 0.495355 -0.025000
v 0.314645 0.460000 -0.035355
v 0.325000 0.424645 -0.025000
v 0.350000 0.510000 0.000000
v 0.350000 0.495355 -0.035355
v 0.350000 0.460000 -0.050000
v 0.350000 0.424645 -0.035355
v -0.095000 0.319445 -0.017500
v -0.061863 0.300000 -0.024749
v -0.095000 0.280555 -0.017500
v -0.061863 0.319445 0.000000
v -0.015000 0.300000 0.000000
v -0.061863 0.280555 0.000000
v -0.095000 0.319445 0.017500
v -0.061863 0.300000 0.024749
v -0.095000 0.280555 0.017500
v -0.175000 0.319445 0.024749
v -0.175000 0.300000 0.035000
v -0.175000 0.280555 0.024749
v -0.255000 0.319445 0.017500
v -0.288137 0.300000 0.024749
v -0.255000 0.280555 0.017500
v -0.175000 0.272500 0.000000
v -0.288137 0.319445 0.000000
v -0.335000 0.300000 0.000000
v -0.288137 0.280555 0.000000
v -0.255000 0.319445 -0.017500
v -0.288137 0.300000 -0.024749
v -0.255000 0.280555 -0.017500
v -0.175000 0.327500 0.000000
v -0.175000 0.319445 -0.024749
v -0.175000 0.300000 -0.035000
v -0.175000 0.280555 -0.024749
v -0.163244 0.231962 -0.016180
v -0.154639 0.210000 -0.028025
v -0.151489 0.180000 -0.032361
v -0.154639 0.150000 -0.028025
v -0.163244 0.128038 -0.016180
v -0.155979 0.231962 -0.006180
v -0.142054 0.210000 -0.010705
v -0.136958 0.180000 -0.012361
v -0.142054 0.150000 -0.010705
v -0.155979 0.128038 -0.006180
v -0.155979 0.231962 0.006180
v -0.142054 0.210000 0.010705
v -0.136958 0.180000 0.012361
v -0.142054 0.150000 0.010705
v -0.155979 0.128038 0.006180
v -0.163244 0.231962 0.016180
v -0.154639 0.210000 0.028025
v -0.151489 0.180000 0.032361
v -0.154639 0.150000 0.028025
v -0.163244 0.128038 0.016180
v -0.175000 0.231962 0.020000
v -0.175000 0.210000 0.034641
v -0.175000 0.180000 0.040000
v -0.175000 0.150000 0.034641
v -0.175000 0.128038 0.020000
v -0.186756 0.231962 0.016180
v -0.195361 0.210000 0.028025
v -0.198511 0.180000 0.032361
v -0.195361 0.150000 0.028025
v -0.186756 0.128038 0.016180
v -0.194021 0.231962 0.006180
v -0.207946 0.210000 0.010705
v -0.213042 0.180000 0.012361
v -0.207946 0.150000 0.010705
v -0.194021 0.128038 0.006180
v -0.175000 0.120000 0.000000
v -0.175000 0.240000 0.000000
v -0.194021 0.231962 -0.006180
v -0.207946 0.210000 -0.010705
v -0.213042 0.180000 -0.012361
v -0.207946 0.150000 -0.010705
v -0.194021 0.128038 -0.006180
v -0.186756 0.231962 -0.016180
v -0.195361 0.210000 -0.028025
v -0.198511 0.180000 -0.032361
v -0.195361 0.150000 -0.028025
v -0.186756 0.128038 -0.016180
v -0.175000 0.231962 -0.020000
v -0.175000 0.210000 -0.034641
v -0.175000 0.180000 -0.040000
v -0.175000 0.150000 -0.034641
v -0.175000 0.128038 -0.020000
v 0.255000 0.319445 -0.017500
v 0.288137 0.300000 -0.024749
v 0.255000 0.280555 -0.017500
v 0.288137 0.319445 0.000000
v 0.335000 0.300000 0.000000
v 0.288137 0.280555 0.000000
v 0.255000 0.319445 0.017500
v 0.288137 0.300000 0.024749
v 0.255000 0.280555 0.017500
v 0.175000 0.319445 0.024749
v 0.175000 0.300000 0.035000
v 0.175000 0.280555 0.024749
v 0.095000 0.319445 0.017500
v 0.061863 0.300000 0.024749
v 0.095000 0.280555 0.017500
v 0.175000 0.272500 0.000000
v 0.061863 0.319445 0.000000
v 0.015000 0.300000 0.000000
v 0.061863 0.280555 0.000000
v 0.095000 0.319445 -0.017500
v 0.061863 0.300000 -0.024749
v 0.095000 0.280555 -0.017500
v 0.175000 0.327500 0.000000
v 0.175000 0.319445 -0.024749
v 0.175000 0.300000 -0.035000
v 0.175000 0.280555 -0.024749
v 0.186756 0.231962 -0.016180
v 0.195361 0.210000 -0.028025
v 0.198511 0.180000 -0.032361
v 0.195361 0.150000 -0.028025
v 0.186756 0.128038 -0.016180
v 0.194021 0.231962 -0.006180
v 0.207946 0.210000 -0.010705
v 0.213042 0.180000 -0.012361
v 0.207946 0.150000 -0.010705
v 0.194021 0.128038 -0.006180
v 0.194021 0.231962 0.006180
v 0.207946 0.210000 0.010705
v 0.213042 0.180000 0.012361
v 0.207946 0.150000 0.010705
v 0.194021 0.128038 0.006180
v 0.186756 0.231962 0.016180
v 0.195361 0.210000 0.028025
v 0.198511 0.180000 0.032361
v 0.195361 0.150000 0.028025
v 0.186756 0.128038 0.016180
v 0.175000 0.231962 0.020000
v 0.175000 0.210000 0.034641
v 0.175000 0.180000 0.040000
v 0.175000 0.150000 0.034641
v 0.175000 0.128038 0.020000
v 0.163244 0.231962 0.016180
v 0.154638 0.210000 0.028025
v 0.151489 0.180000 0.032361
v 0.154638 0.150000 0.028025
v 0.163244 0.128038 0.016180
v 0.155979 0.231962 0.006180
v 0.142054 0.210000 0.010705
v 0.136958 0.180000 0.012361
v 0.142054 0.150000 0.010705
v 0.155979 0.128038 0.006180
v 0.175000 0.120000 0.000000
v 0.175000 0.240000 0.000000
v 0.155979 0.231962 -0.006180
v 0.142054 0.210000 -0.010705
v 0.136958 0.180000 -0.012361
v 0.142054 0.150000 -0.010705
v 0.155979 0.128038 -0.006180
v 0.163244 0.231962 -0.016180
v 0.154638 0.210000 -0.028025
v 0.151489 0.180000 -0.032361
v 0.154638 0.150000 -0.028025
v 0.163244 0.128038 -0.016180
v 0.175000 0.231962 -0.020000
v 0.175000 0.210000 -0.034641
v 0.175000 0.180000 -0.040000
v 0.175000 0.150000 -0.034641
v 0.175000 0.128038 -0.020000
vn 0.3827 -0.0000 -0.9239
vn 0.9239 -0.0000 -0.3827
vn 0.9239 -0.0000 0.3827
vn 0.3827 -0.0000 0.9239
vn -0.3827 -0.0000 0.9239
vn -0.9239 -0.0000 0.3827
vn -0.0000 1.0000 -0.0000
vn -0.9239 -0.0000 -0.3827
vn -0.3827 -0.0000 -0.9239
vn -0.0000 -1.0000 -0.0000
vn -0.0000 -0.6630 -0.7486
vn -0.0000 -0.0000 -1.0000
vn 0.7071 -0.0000 -0.7071
vn 0.5294 -0.6630 -0.5294
vn -0.0000 0.6630 -0.7486
vn 0.5294 0.6630 -0.5294
vn 1.0000 -0.0000 -0.0000
vn 0.7486 -0.6630 -0.0000
vn 0.7486 0.6630 -0.0000
vn 0.7071 -0.0000 0.7071
vn 0.5294 -0.6630 0.5294
vn 0.5294 0.6630 0.5294
vn -0.0000 -0.0000 1.0000
vn -0.0000 -0.6630 0.7486
vn -0.0000 0.6630 0.7486
vn -0.5294 0.6630 0.5294
vn -0.7071 -0.0000 0.7071
vn -0.5294 -0.6630 0.5294
vn -0.7486 -0.6630 -0.0000
vn -0.7486 0.6630 -0.0000
vn -1.0000 -0.0000 -0.0000
vn -0.5294 -0.6630 -0.5294
vn -0.5294 0.6630 -0.5294
vn -0.7071 -0.0000 -0.7071
vn -0.0000 -0.7542 -0.6566
vn 0.3756 -0.0000 -0.9268
vn 0.1162 -0.8140 -0.5691
vn -0.0000 0.7542 -0.6566
vn 0.1162 0.8140 -0.5691
vn 0.3259 0.9454 -0.0000
vn 0.3259 -0.9454 -0.0000
vn 0.3756 -0.0000 0.9268
vn 0.1162 -0.8140 0.5691
vn 0.1162 0.8140 0.5691
vn -0.0000 -0.7542 0.6566
vn -0.0000 0.7542 0.6566
vn -0.3756 -0.0000 0.9268
vn -0.1162 -0.8140 0.5691
vn -0.1162 0.8140 0.5691
vn -0.3259 -0.9454 -0.0000
vn -0.3259 0.9454 -0.0000
vn -0.3756 -0.0000 -0.9268
vn -0.1162 -0.8140 -0.5691
vn -0.1162 0.8140 -0.5691
vn -0.0000 -0.7481 -0.6636
vn -0.0000 -0.3599 -0.9330
vn 0.5484 -0.3599 -0.7548
vn 0.3901 -0.7481 -0.5369
vn -0.0000 0.3599 -0.9330
vn 0.5484 0.3599 -0.7548
vn 0.5878 -0.0000 -0.8090
vn -0.0000 0.7481 -0.6636
vn 0.3901 0.7481 -0.5369
vn 0.6311 0.7481 -0.2051
vn 0.6311 -0.7481 -0.2051
vn 0.9511 -0.0000 -0.3090
vn 0.8873 -0.3599 -0.2883
vn 0.8873 0.3599 -0.2883
vn 0.6311 -0.7481 0.2051
vn 0.9511 -0.0000 0.3090
vn 0.8873 -0.3599 0.2883
vn 0.6311 0.7481 0.2051
vn 0.8873 0.3599 0.2883
vn 0.3901 -0.7481 0.5369
vn 0.5878 -0.0000 0.8090
vn 0.5484 -0.3599 0.7548
vn 0.3901 0.7481 0.5369
vn 0.5484 0.3599 0.7548
vn -0.0000 -0.7481 0.6636
vn -0.0000 -0.3599 0.9330
vn -0.0000 0.7481 0.6636
vn -0.0000 0.3599 0.9330
vn -0.5878 -0.0000 0.8090
vn -0.5484 -0.3599 0.7548
vn -0.3901 0.7481 0.5369
vn -0.5484 0.3599 0.7548
vn -0.3901 -0.7481 0.5369
vn -0.6311 0.7481 0.2051
vn -0.8873 0.3599 0.2883
vn -0.8873 -0.3599 0.2883
vn -0.6311 -0.7481 0.2051
vn -0.9511 -0.0000 0.3090
vn -0.8873 -0.3599 -0.2883
vn -0.6311 -0.7481 -0.2051
vn -0.8873 0.3599 -0.2883
vn -0.9511 -0.0000 -0.3090
vn -0.6311 0.7481 -0.2051
vn -0.5484 -0.3599 -0.7548
vn -0.3901 -0.7481 -0.5369
vn -0.5484 0.3599 -0.7548
vn -0.5878 -0.0000 -0.8090
vn -0.3901 0.7481 -0.5369
vt 1.000000 0.500000
vt 1.000000 1.000000
vt 0.875000 1.000000
vt 0.875000 0.500000
vt 0.750000 1.000000
vt 0.750000 0.500000
vt 0.625000 1.000000
vt 0.625000 0.500000
vt 0.500000 1.000000
vt 0.500000 0.500000
vt 0.375000 1.000000
vt 0.375000 0.500000
vt 0.250000 1.000000
vt 0.250000 0.500000
vt 0.419706 0.419706
vt 0.250000 0.490000
vt 0.080294 0.419706
vt 0.010000 0.250000
vt 0.080294 0.080294
vt 0.250000 0.010000
vt 0.419706 0.080294
vt 0.490000 0.250000
vt 0.125000 1.000000
vt 0.125000 0.500000
vt 0.000000 1.000000
vt 0.000000 0.500000
vt 0.750000 0.490000
vt 0.919706 0.419706
vt 0.990000 0.250000
vt 0.919706 0.080294
vt 0.750000 0.010000
vt 0.580294 0.080294
vt 0.510000 0.250000
vt 0.580294 0.419706
vt 0.750000 0.250000
vt 0.625000 0.250000
vt 0.750000 0.750000
vt 0.687500 1.000000
vt 0.625000 0.750000
vt 0.687500 0.000000
vt 0.500000 0.250000
vt 0.562500 1.000000
vt 0.500000 0.750000
vt 0.562500 0.000000
vt 0.375000 0.250000
vt 0.437500 1.000000
vt 0.375000 0.750000
vt 0.437500 0.000000
vt 0.250000 0.250000
vt 0.312500 1.000000
vt 0.250000 0.750000
vt 0.312500 0.000000
vt 0.125000 0.750000
vt 0.125000 0.250000
vt 0.187500 1.000000
vt 0.187500 0.000000
vt 0.062500 0.000000
vt 0.000000 0.250000
vt 0.000000 0.750000
vt 0.062500 1.000000
vt 0.937500 0.000000
vt 1.000000 0.250000
vt 0.875000 0.250000
vt 1.000000 0.750000
vt 0.875000 0.750000
vt 0.937500 1.000000
vt 0.812500 0.000000
vt 0.812500 1.000000
vt 0.700000 0.166667
vt 0.700000 0.333333
vt 0.600000 0.333333
vt 0.600000 0.166667
vt 0.700000 0.500000
vt 0.700000 0.666667
vt 0.600000 0.666667
vt 0.600000 0.500000
vt 0.700000 0.833333
vt 0.650000 1.000000
vt 0.600000 0.833333
vt 0.650000 0.000000
vt 0.550000 1.000000
vt 0.500000 0.833333
vt 0.550000 0.000000
vt 0.500000 0.166667
vt 0.500000 0.333333
vt 0.500000 0.666667
vt 0.450000 0.000000
vt 0.400000 0.166667
vt 0.400000 0.500000
vt 0.400000 0.333333
vt 0.400000 0.833333
vt 0.400000 0.666667
vt 0.450000 1.000000
vt 0.350000 0.000000
vt 0.300000 0.166667
vt 0.300000 0.500000
vt 0.300000 0.333333
vt 0.300000 0.833333
vt 0.300000 0.666667
vt 0.350000 1.000000
vt 0.250000 0.000000
vt 0.200000 0.166667
vt 0.200000 0.500000
vt 0.200000 0.333333
vt 0.200000 0.833333
vt 0.200000 0.666667
vt 0.100000 0.500000
vt 0.100000 0.333333
vt 0.100000 0.833333
vt 0.100000 0.666667
vt 0.100000 0.166667
vt 0.150000 1.000000
vt 0.150000 0.000000
vt 0.000000 0.833333
vt 0.000000 0.666667
vt 0.000000 0.333333
vt 0.000000 0.166667
vt 0.050000 1.000000
vt 0.050000 0.000000
vt 1.000000 0.166667
vt 1.000000 0.333333
vt 0.900000 0.333333
vt 0.900000 0.166667
vt 1.000000 0.500000
vt 1.000000 0.666667
vt 0.900000 0.666667
vt 0.900000 0.500000
vt 1.000000 0.833333
vt 0.950000 1.000000
vt 0.900000 0.833333
vt 0.950000 0.000000
vt 0.800000 0.333333
vt 0.800000 0.166667
vt 0.800000 0.666667
vt 0.800000 0.500000
vt 0.850000 1.000000
vt 0.800000 0.833333
vt 0.850000 0.000000
vt 0.750000 0.000000
s 0
usemtl PurpleWood
f 1/1/1 2/2/1 4/3/1 3/4/1
f 3/4/2 4/3/2 6/5/2 5/6/2
f 5/6/3 6/5/3 8/7/3 7/8/3
f 7/8/4 8/7/4 10/9/4 9/10/4
f 9/10/5 10/9/5 12/11/5 11/12/5
f 11/12/6 12/11/6 14/13/6 13/14/6
f 4/15/7 2/16/7 16/17/7 14/18/7 12/19/7 10/20/7 8/21/7 6/22/7
f 13/14/8 14/13/8 16/23/8 15/24/8
f 15/24/9 16/23/9 2/25/9 1/26/9
f 1/27/10 3/28/10 5/29/10 7/30/10 9/31/10 11/32/10 13/33/10 15/34/10
s 1
f 42/35/11 41/6/12 18/8/13 19/36/14
f 40/37/15 39/38/7 17/39/16
f 32/40/10 42/35/11 19/36/14
f 41/6/12 40/37/15 17/39/16 18/8/13
f 19/36/14 18/8/13 21/10/17 22/41/18
f 17/39/16 39/42/7 20/43/19
f 32/44/10 19/36/14 22/41/18
f 18/8/13 17/39/16 20/43/19 21/10/17
f 22/41/18 21/10/17 24/12/20 25/45/21
f 20/43/19 39/46/7 23/47/22
f 32/48/10 22/41/18 25/45/21
f 21/10/17 20/43/19 23/47/22 24/12/20
f 25/45/21 24/12/20 27/14/23 28/49/24
f 23/47/22 39/50/7 26/51/25
f 32/52/10 25/45/21 28/49/24
f 24/12/20 23/47/22 26/51/25 27/14/23
f 27/14/23 26/51/25 29/53/26 30/24/27
f 28/49/24 27/14/23 30/24/27 31/54/28
f 26/51/25 39/55/7 29/53/26
f 32/56/10 28/49/24 31/54/28
f 32/57/10 31/54/28 35/58/29
f 30/24/27 29/53/26 33/59/30 34/26/31
f 31/54/28 30/24/27 34/26/31 35/58/29
f 29/53/26 39/60/7 33/59/30
f 32/61/10 35/62/29 38/63/32
f 34/1/31 33/64/30 36/65/33 37/4/34
f 35/62/29 34/1/31 37/4/34 38/63/32
f 33/64/30 39/66/7 36/65/33
f 32/67/10 38/63/32 42/35/11
f 37/4/34 36/65/33 40/37/15 41/6/12
f 38/63/32 37/4/34 41/6/12 42/35/11
f 36/65/33 39/68/7 40/37/15
s 0
f 43/1/1 44/2/1 46/3/1 45/4/1
f 45/4/2 46/3/2 48/5/2 47/6/2
f 47/6/3 48/5/3 50/7/3 49/8/3
f 49/8/4 50/7/4 52/9/4 51/10/4
f 51/10/5 52/9/5 54/11/5 53/12/5
f 53/12/6 54/11/6 56/13/6 55/14/6
f 46/15/7 44/16/7 58/17/7 56/18/7 54/19/7 52/20/7 50/21/7 48/22/7
f 55/14/8 56/13/8 58/23/8 57/24/8
f 57/24/9 58/23/9 44/25/9 43/26/9
f 43/27/10 45/28/10 47/29/10 49/30/10 51/31/10 53/32/10 55/33/10 57/34/10
s 1
f 82/37/15 81/38/7 59/39/16
f 74/40/10 84/35/11 61/36/14
f 83/6/12 82/37/15 59/39/16 60/8/13
f 84/35/11 83/6/12 60/8/13 61/36/14
f 74/44/10 61/36/14 64/41/18
f 60/8/13 59/39/16 62/43/19 63/10/17
f 61/36/14 60/8/13 63/10/17 64/41/18
f 59/39/16 81/42/7 62/43/19
f 74/48/10 64/41/18 67/45/21
f 63/10/17 62/43/19 65/47/22 66/12/20
f 64/41/18 63/10/17 66/12/20 67/45/21
f 62/43/19 81/46/7 65/47/22
f 65/47/22 81/50/7 68/51/25
f 74/52/10 67/45/21 70/49/24
f 66/12/20 65/47/22 68/51/25 69/14/23
f 67/45/21 66/12/20 69/14/23 70/49/24
f 70/49/24 69/14/23 72/24/27 73/54/28
f 68/51/25 81/55/7 71/53/26
f 74/56/10 70/49/24 73/54/28
f 69/14/23 68/51/25 71/53/26 72/24/27
f 73/54/28 72/24/27 76/26/31 77/58/29
f 71/53/26 81/60/7 75/59/30
f 74/57/10 73/54/28 77/58/29
f 72/24/27 71/53/26 75/59/30 76/26/31
f 77/62/29 76/1/31 79/4/34 80/63/32
f 75/64/30 81/66/7 78/65/33
f 74/61/10 77/62/29 80/63/32
f 76/1/31 75/64/30 78/65/33 79/4/34
f 80/63/32 79/4/34 83/6/12 84/35/11
f 78/65/33 81/68/7 82/37/15
f 74/67/10 80/63/32 84/35/11
f 79/4/34 78/65/33 82/37/15 83/6/12
s 0
f 85/1/1 86/2/1 88/3/1 87/4/1
f 87/4/2 88/3/2 90/5/2 89/6/2
f 89/6/3 90/5/3 92/7/3 91/8/3
f 91/8/4 92/7/4 94/9/4 93/10/4
f 93/10/5 94/9/5 96/11/5 95/12/5
f 95/12/6 96/11/6 98/13/6 97/14/6
f 88/15/7 86/16/7 100/17/7 98/18/7 96/19/7 94/20/7 92/21/7 90/22/7
f 97/14/8 98/13/8 100/23/8 99/24/8
f 99/24/9 100/23/9 86/25/9 85/26/9
f 85/27/10 87/28/10 89/29/10 91/30/10 93/31/10 95/32/10 97/33/10 99/34/10
s 1
f 126/35/11 125/6/12 102/8/13 103/36/14
f 124/37/15 123/38/7 101/39/16
f 116/40/10 126/35/11 103/36/14
f 125/6/12 124/37/15 101/39/16 102/8/13
f 101/39/16 123/42/7 104/43/19
f 116/44/10 103/36/14 106/41/18
f 102/8/13 101/39/16 104/43/19 105/10/17
f 103/36/14 102/8/13 105/10/17 106/41/18
f 106/41/18 105/10/17 108/12/20 109/45/21
f 104/43/19 123/46/7 107/47/22
f 116/48/10 106/41/18 109/45/21
f 105/10/17 104/43/19 107/47/22 108/12/20
f 109/45/21 108/12/20 111/14/23 112/49/24
f 107/47/22 123/50/7 110/51/25
f 116/52/10 109/45/21 112/49/24
f 108/12/20 107/47/22 110/51/25 111/14/23
f 112/49/24 111/14/23 114/24/27 115/54/28
f 110/51/25 123/55/7 113/53/26
f 116/56/10 112/49/24 115/54/28
f 111/14/23 110/51/25 113/53/26 114/24/27
f 115/54/28 114/24/27 118/26/31 119/58/29
f 113/53/26 123/60/7 117/59/30
f 116/57/10 115/54/28 119/58/29
f 114/24/27 113/53/26 117/59/30 118/26/31
f 119/62/29 118/1/31 121/4/34 122/63/32
f 117/64/30 123/66/7 120/65/33
f 116/61/10 119/62/29 122/63/32
f 118/1/31 117/64/30 120/65/33 121/4/34
f 121/4/34 120/65/33 124/37/15 125/6/12
f 122/63/32 121/4/34 125/6/12 126/35/11
f 120/65/33 123/68/7 124/37/15
f 116/67/10 122/63/32 126/35/11
usemtl SlimeNeon
f 152/35/35 151/6/12 128/8/36 129/36/37
f 150/37/38 149/38/7 127/39/39
f 142/40/10 152/35/35 129/36/37
f 151/6/12 150/37/38 127/39/39 128/8/36
f 127/39/39 149/42/7 130/43/40
f 142/44/10 129/36/37 132/41/41
f 128/8/36 127/39/39 130/43/40 131/10/17
f 129/36/37 128/8/36 131/10/17 132/41/41
f 132/41/41 131/10/17 134/12/42 135/45/43
f 130/43/40 149/46/7 133/47/44
f 142/48/10 132/41/41 135/45/43
f 131/10/17 130/43/40 133/47/44 134/12/42
f 135/45/43 134/12/42 137/14/23 138/49/45
f 133/47/44 149/50/7 136/51/46
f 142/52/10 135/45/43 138/49/45
f 134/12/42 133/47/44 136/51/46 137/14/23
f 138/49/45 137/14/23 140/24/47 141/54/48
f 136/51/46 149/55/7 139/53/49
f 142/56/10 138/49/45 141/54/48
f 137/14/23 136/51/46 139/53/49 140/24/47
f 141/54/48 140/24/47 144/26/31 145/58/50
f 139/53/49 149/60/7 143/59/51
f 142/57/10 141/54/48 145/58/50
f 140/24/47 139/53/49 143/59/51 144/26/31
f 145/62/50 144/1/31 147/4/52 148/63/53
f 143/64/51 149/66/7 146/65/54
f 142/61/10 145/62/50 148/63/53
f 144/1/31 143/64/51 146/65/54 147/4/52
f 147/4/52 146/65/54 150/37/38 151/6/12
f 148/63/53 147/4/52 151/6/12 152/35/35
f 146/65/54 149/68/7 150/37/38
f 142/67/10 148/63/53 152/35/35
f 204/69/55 203/70/56 156/71/57 157/72/58
f 202/73/12 201/74/59 154/75/60 155/76/61
f 200/77/62 189/78/7 153/79/63
f 188/80/10 204/69/55 157/72/58
f 203/70/56 202/73/12 155/76/61 156/71/57
f 201/74/59 200/77/62 153/79/63 154/75/60
f 153/79/63 189/81/7 158/82/64
f 188/83/10 157/72/58 162/84/65
f 156/71/57 155/76/61 160/10/66 161/85/67
f 154/75/60 153/79/63 158/82/64 159/86/68
f 157/72/58 156/71/57 161/85/67 162/84/65
f 155/76/61 154/75/60 159/86/68 160/10/66
f 188/87/10 162/84/65 167/88/69
f 161/85/67 160/10/66 165/89/70 166/90/71
f 159/86/68 158/82/64 163/91/72 164/92/73
f 162/84/65 161/85/67 166/90/71 167/88/69
f 160/10/66 159/86/68 164/92/73 165/89/70
f 158/82/64 189/93/7 163/91/72
f 188/94/10 167/88/69 172/95/74
f 166/90/71 165/89/70 170/96/75 171/97/76
f 164/92/73 163/91/72 168/98/77 169/99/78
f 167/88/69 166/90/71 171/97/76 172/95/74
f 165/89/70 164/92/73 169/99/78 170/96/75
f 163/91/72 189/100/7 168/98/77
f 188/101/10 172/95/74 177/102/79
f 171/97/76 170/96/75 175/103/23 176/104/80
f 169/99/78 168/98/77 173/105/81 174/106/82
f 172/95/74 171/97/76 176/104/80 177/102/79
f 170/96/75 169/99/78 174/106/82 175/103/23
f 168/98/77 189/13/7 173/105/81
f 176/104/80 175/103/23 180/107/83 181/108/84
f 174/106/82 173/105/81 178/109/85 179/110/86
f 177/102/79 176/104/80 181/108/84 182/111/87
f 175/103/23 174/106/82 179/110/86 180/107/83
f 173/105/81 189/112/7 178/109/85
f 188/113/10 177/102/79 182/111/87
f 179/110/86 178/109/85 183/114/88 184/115/89
f 182/111/87 181/108/84 186/116/90 187/117/91
f 180/107/83 179/110/86 184/115/89 185/26/92
f 178/109/85 189/118/7 183/114/88
f 188/119/10 182/111/87 187/117/91
f 181/108/84 180/107/83 185/26/92 186/116/90
f 187/120/91 186/121/90 193/122/93 194/123/94
f 185/124/92 184/125/89 191/126/95 192/127/96
f 183/128/88 189/129/7 190/130/97
f 188/131/10 187/120/91 194/123/94
f 186/121/90 185/124/92 192/127/96 193/122/93
f 184/125/89 183/128/88 190/130/97 191/126/95
f 194/123/94 193/122/93 198/132/98 199/133/99
f 192/127/96 191/126/95 196/134/100 197/135/101
f 190/130/97 189/136/7 195/137/102
f 188/138/10 194/123/94 199/133/99
f 193/122/93 192/127/96 197/135/101 198/132/98
f 191/126/95 190/130/97 195/137/102 196/134/100
f 199/133/99 198/132/98 203/70/56 204/69/55
f 197/135/101 196/134/100 201/74/59 202/73/12
f 195/137/102 189/5/7 200/77/62
f 188/139/10 199/133/99 204/69/55
f 198/132/98 197/135/101 202/73/12 203/70/56
f 196/134/100 195/137/102 200/77/62 201/74/59
f 230/35/35 229/6/12 206/8/36 207/36/37
f 228/37/38 227/38/7 205/39/39
f 220/40/10 230/35/35 207/36/37
f 229/6/12 228/37/38 205/39/39 206/8/36
f 207/36/37 206/8/36 209/10/17 210/41/41
f 205/39/39 227/42/7 208/43/40
f 220/44/10 207/36/37 210/41/41
f 206/8/36 205/39/39 208/43/40 209/10/17
f 210/41/41 209/10/17 212/12/42 213/45/43
f 208/43/40 227/46/7 211/47/44
f 220/48/10 210/41/41 213/45/43
f 209/10/17 208/43/40 211/47/44 212/12/42
f 213/45/43 212/12/42 215/14/23 216/49/45
f 211/47/44 227/50/7 214/51/46
f 220/52/10 213/45/43 216/49/45
f 212/12/42 211/47/44 214/51/46 215/14/23
f 216/49/45 215/14/23 218/24/47 219/54/48
f 214/51/46 227/55/7 217/53/49
f 220/56/10 216/49/45 219/54/48
f 215/14/23 214/51/46 217/53/49 218/24/47
f 218/24/47 217/53/49 221/59/51 222/26/31
f 219/54/48 218/24/47 222/26/31 223/58/50
f 217/53/49 227/60/7 221/59/51
f 220/57/10 219/54/48 223/58/50
f 220/61/10 223/62/50 226/63/53
f 222/1/31 221/64/51 224/65/54 225/4/52
f 223/62/50 222/1/31 225/4/52 226/63/53
f 221/64/51 227/66/7 224/65/54
f 220/67/10 226/63/53 230/35/35
f 225/4/52 224/65/54 228/37/38 229/6/12
f 226/63/53 225/4/52 229/6/12 230/35/35
f 224/65/54 227/68/7 228/37/38
f 279/74/59 278/77/62 231/79/63 232/75/60
f 282/69/55 281/70/56 234/71/57 235/72/58
f 280/73/12 279/74/59 232/75/60 233/76/61
f 278/77/62 267/78/7 231/79/63
f 266/80/10 282/69/55 235/72/58
f 281/70/56 280/73/12 233/76/61 234/71/57
f 235/72/58 234/71/57 239/85/67 240/84/65
f 233/76/61 232/75/60 237/86/68 238/10/66
f 231/79/63 267/81/7 236/82/64
f 266/83/10 235/72/58 240/84/65
f 234/71/57 233/76/61 238/10/66 239/85/67
f 232/75/60 231/79/63 236/82/64 237/86/68
f 240/84/65 239/85/67 244/90/71 245/88/69
f 238/10/66 237/86/68 242/92/73 243/89/70
f 236/82/64 267/93/7 241/91/72
f 266/87/10 240/84/65 245/88/69
f 239/85/67 238/10/66 243/89/70 244/90/71
f 237/86/68 236/82/64 241/91/72 242/92/73
f 243/89/70 242/92/73 247/99/78 248/96/75
f 241/91/72 267/100/7 246/98/77
f 266/94/10 245/88/69 250/95/74
f 244/90/71 243/89/70 248/96/75 249/97/76
f 242/92/73 241/91/72 246/98/77 247/99/78
f 245/88/69 244/90/71 249/97/76 250/95/74
f 246/98/77 267/13/7 251/105/81
f 266/101/10 250/95/74 255/102/79
f 249/97/76 248/96/75 253/103/23 254/104/80
f 247/99/78 246/98/77 251/105/81 252/106/82
f 250/95/74 249/97/76 254/104/80 255/102/79
f 248/96/75 247/99/78 252/106/82 253/103/23
f 266/113/10 255/102/79 260/111/87
f 254/104/80 253/103/23 258/107/83 259/108/84
f 252/106/82 251/105/81 256/109/85 257/110/86
f 255/102/79 254/104/80 259/108/84 260/111/87
f 253/103/23 252/106/82 257/110/86 258/107/83
f 251/105/81 267/112/7 256/109/85
f 266/119/10 260/111/87 265/117/91
f 259/108/84 258/107/83 263/26/92 264/116/90
f 257/110/86 256/109/85 261/114/88 262/115/89
f 260/111/87 259/108/84 264/116/90 265/117/91
f 258/107/83 257/110/86 262/115/89 263/26/92
f 256/109/85 267/118/7 261/114/88
f 266/131/10 265/120/91 272/123/94
f 264/121/90 263/124/92 270/127/96 271/122/93
f 262/125/89 261/128/88 268/130/97 269/126/95
f 265/120/91 264/121/90 271/122/93 272/123/94
f 263/124/92 262/125/89 269/126/95 270/127/96
f 261/128/88 267/129/7 268/130/97
f 271/122/93 270/127/96 275/135/101 276/132/98
f 269/126/95 268/130/97 273/137/102 274/134/100
f 272/123/94 271/122/93 276/132/98 277/133/99
f 270/127/96 269/126/95 274/134/100 275/135/101
f 268/130/97 267/136/7 273/137/102
f 266/138/10 272/123/94 277/133/99
f 274/134/100 273/137/102 278/77/62 279/74/59
f 277/133/99 276/132/98 281/70/56 282/69/55
f 275/135/101 274/134/100 279/74/59 280/73/12
f 273/137/102 267/5/7 278/77/62
f 266/139/10 277/133/99 282/69/55
f 276/132/98 275/135/101 280/73/12 281/70/56
